<?xml version="1.0" standalone="no"?>
<!DOCTYPE svg PUBLIC "-//W3C//DTD SVG 20010904//EN"
 "http://www.w3.org/TR/2001/REC-SVG-20010904/DTD/svg10.dtd">
<svg version="1.0" xmlns="http://www.w3.org/2000/svg"
 width="700.000000pt" height="700.000000pt" viewBox="0 0 700.000000 700.000000"
 preserveAspectRatio="xMidYMid meet">
<metadata>
Created by potrace 1.14, written by Peter Selinger 2001-2017
</metadata>
<g transform="translate(0.000000,700.000000) scale(0.100000,-0.100000)"
fill="#000000" stroke="none">
<path d="M1619 6996 c-2 -2 -40 -6 -84 -10 -76 -6 -100 -9 -170 -21 -16 -3
-46 -8 -65 -11 -19 -3 -42 -7 -50 -10 -8 -3 -26 -8 -40 -10 -56 -10 -221 -69
-305 -110 -134 -64 -210 -118 -316 -224 -254 -254 -372 -559 -373 -965 -1
-107 10 -270 18 -283 2 -4 7 -23 10 -43 24 -151 95 -328 191 -474 54 -82 208
-250 265 -288 131 -89 217 -134 344 -181 60 -23 172 -53 259 -71 15 -3 37 -7
50 -10 33 -7 93 -14 177 -23 93 -9 499 -9 600 0 77 6 86 12 128 74 160 238
356 502 452 608 230 255 261 286 331 332 107 70 231 103 366 98 l71 -3 7 32
c11 52 15 346 4 423 -39 299 -187 589 -394 772 -187 166 -466 301 -725 351
-30 6 -65 12 -77 15 -12 3 -53 8 -90 11 -37 4 -72 10 -77 13 -10 5 -501 13
-507 8z m338 -830 c91 -7 217 -43 277 -81 100 -62 187 -178 221 -298 29 -101
23 -264 -14 -365 -86 -234 -290 -352 -601 -346 -288 5 -455 93 -545 287 -40
86 -53 153 -53 268 -1 261 135 450 366 513 62 17 207 34 247 30 11 -1 57 -5
102 -8z"/>
<path d="M3648 6938 c-2 -7 -3 -211 -3 -453 l1 -440 200 1 c109 1 346 4 526 8
l328 7 2 -387 3 -387 57 -13 c72 -17 123 -42 190 -97 29 -23 70 -55 91 -70 59
-44 81 -68 125 -130 53 -75 83 -168 86 -260 3 -91 -12 -158 -69 -298 -24 -62
-43 -115 -40 -117 3 -3 134 -5 293 -6 l287 0 3 883 2 882 268 -5 c298 -7 698
-17 752 -19 l35 -2 3 458 2 457 -1569 0 c-1246 0 -1570 -3 -1573 -12z"/>
<path d="M3290 4920 c-19 -12 -45 -33 -56 -46 -12 -14 -59 -65 -104 -114 -45
-49 -91 -99 -101 -112 -11 -13 -31 -34 -43 -48 -73 -82 -481 -660 -504 -713
-17 -39 -15 -91 5 -154 20 -62 39 -78 79 -63 15 6 106 88 201 183 96 94 180
175 187 179 30 17 21 -24 -36 -177 -33 -88 -64 -169 -69 -180 -42 -94 -165
-467 -193 -584 -20 -87 -24 -124 -21 -225 3 -129 7 -152 31 -231 34 -107 131
-245 173 -245 39 0 118 32 151 61 31 27 352 333 404 385 12 11 42 44 69 73 34
39 47 48 48 35 0 -11 2 -26 4 -34 2 -8 13 -60 24 -115 30 -150 44 -186 105
-284 63 -99 72 -109 107 -114 52 -9 116 42 199 158 24 33 66 85 95 115 85 92
133 198 161 355 14 79 98 398 130 493 37 108 127 333 182 452 16 36 44 97 62
135 108 236 221 502 241 568 11 38 -6 72 -50 99 -19 12 -50 35 -68 51 -36 31
-86 42 -254 53 -65 4 -108 3 -133 -6 -40 -13 -167 -137 -271 -265 -32 -38 -72
-88 -90 -110 -18 -22 -53 -65 -77 -95 -179 -224 -290 -360 -298 -365 -20 -13
-8 35 46 180 154 412 177 484 168 531 -7 37 -107 144 -157 167 -21 11 -79 18
-172 22 -132 6 -142 5 -175 -15z"/>
<path d="M5099 3326 c-2 -2 -33 -7 -69 -10 -114 -11 -315 -48 -322 -59 -6 -11
-46 -160 -54 -207 -3 -14 -10 -43 -16 -65 -5 -22 -12 -51 -14 -65 -36 -209
-133 -410 -263 -545 -21 -22 -61 -72 -89 -111 -137 -190 -319 -297 -513 -303
l-47 -1 3 -67 c15 -285 85 -525 210 -710 14 -21 36 -54 49 -74 25 -37 146
-163 201 -209 191 -162 528 -280 875 -307 123 -10 472 -10 575 0 613 58 1033
310 1240 742 96 201 128 348 129 605 1 233 -11 319 -71 490 -112 321 -324 552
-648 710 -146 70 -311 125 -440 146 -22 3 -42 7 -45 9 -3 2 -37 7 -75 10 -38
4 -78 9 -90 12 -23 6 -521 14 -526 9z m376 -830 c97 -11 181 -37 251 -77 112
-65 196 -179 230 -310 16 -62 21 -207 10 -268 -40 -209 -172 -353 -371 -405
-90 -23 -129 -28 -235 -29 -108 0 -172 6 -255 27 -174 43 -309 186 -348 372
-14 63 -16 251 -4 294 2 8 8 29 12 45 33 118 126 235 232 289 64 32 160 56
248 63 39 3 71 6 73 8 3 2 96 -3 157 -9z"/>
<path d="M580 3268 c-7 -1011 -10 -1263 -14 -1308 -15 -177 -27 -244 -66 -354
-68 -197 -188 -284 -400 -290 l-95 -2 -3 -657 -2 -657 459 0 460 0 0 253 c0
138 0 260 1 270 0 16 43 17 768 17 l767 0 0 -265 -1 -265 461 0 460 0 -2 647
c0 357 -2 651 -2 654 -1 3 -33 5 -71 4 l-70 -1 -1 296 c0 162 0 330 0 373 1
85 -4 104 -23 88 -27 -23 -138 -71 -202 -89 -272 -75 -512 47 -670 340 l-34
63 0 -532 c0 -293 -3 -534 -7 -534 -35 -5 -916 -2 -919 3 -3 4 2 33 10 65 18
70 53 268 60 343 19 188 25 314 28 558 l1 173 326 -1 c179 0 359 -1 398 0 l73
0 -11 28 c-6 15 -12 34 -14 42 -2 8 -8 33 -14 55 -6 22 -13 58 -16 80 -3 22
-8 56 -11 75 -6 41 -6 229 1 280 10 86 14 109 29 173 9 38 16 72 16 76 0 5
-376 9 -835 10 -676 1 -835 -1 -835 -11z"/>
</g>
</svg>
