<?xml version="1.0" encoding="utf-8"?>
<!-- Generator: Adobe Illustrator 26.0.3, SVG Export Plug-In . SVG Version: 6.00 Build 0)  -->
<svg version="1.1" id="Layer_1" xmlns="http://www.w3.org/2000/svg" xmlns:xlink="http://www.w3.org/1999/xlink" x="0px" y="0px"
	 viewBox="0 0 601.1 111" style="enable-background:new 0 0 601.1 111;" xml:space="preserve">
<style type="text/css">
	.st0{fill-rule:evenodd;clip-rule:evenodd;fill:url(#SVGID_1_);}
	.st1{fill-rule:evenodd;clip-rule:evenodd;fill:url(#SVGID_00000005971413395388419460000013371482574283320198_);}
	.st2{fill-rule:evenodd;clip-rule:evenodd;fill:url(#SVGID_00000109004882494708797050000015380795238087307916_);}
	.st3{fill-rule:evenodd;clip-rule:evenodd;fill:url(#SVGID_00000159430489190457799080000005933592724424897444_);}
	.st4{fill-rule:evenodd;clip-rule:evenodd;fill:url(#SVGID_00000163757038213557361130000002631125479412620721_);}
	.st5{fill-rule:evenodd;clip-rule:evenodd;fill:url(#SVGID_00000139259732728077620690000002903080278580152989_);}
	.st6{fill-rule:evenodd;clip-rule:evenodd;fill:url(#SVGID_00000178179264215366901750000000367693211867849373_);}
	.st7{fill-rule:evenodd;clip-rule:evenodd;fill:#00529C;}
	.st8{fill-rule:evenodd;clip-rule:evenodd;fill:#5D5D5C;}
</style>
<g>
	
		<linearGradient id="SVGID_1_" gradientUnits="userSpaceOnUse" x1="461.4599" y1="54.1445" x2="499.3532" y2="16.7327" gradientTransform="matrix(1 0 0 -1 0 112)">
		<stop  offset="0" style="stop-color:#C00808"/>
		<stop  offset="0.3" style="stop-color:#E3000F"/>
		<stop  offset="0.3292" style="stop-color:#E5221C"/>
		<stop  offset="0.3882" style="stop-color:#EA4E3F"/>
		<stop  offset="0.4709" style="stop-color:#F1897F"/>
		<stop  offset="0.5292" style="stop-color:#F6B1B5"/>
		<stop  offset="0.553" style="stop-color:#F39892"/>
		<stop  offset="0.5885" style="stop-color:#EE7466"/>
		<stop  offset="0.6237" style="stop-color:#EA5444"/>
		<stop  offset="0.6577" style="stop-color:#E7382C"/>
		<stop  offset="0.6903" style="stop-color:#E5221C"/>
		<stop  offset="0.7209" style="stop-color:#E30C12"/>
		<stop  offset="0.7475" style="stop-color:#E3000F"/>
		<stop  offset="1" style="stop-color:#C00808"/>
	</linearGradient>
	<path class="st0" d="M446.2,94.6c30.9-23.7,47.3-33,84.2-33.5l-7.9,11.4c-1.6,3.1-3.8,3.1-6.3,2.8c-26.4-0.2-44.5,1.7-76.3,26
		L446.2,94.6z"/>
	
		<linearGradient id="SVGID_00000122679535323384165810000014176059449125070476_" gradientUnits="userSpaceOnUse" x1="446.8787" y1="82.0862" x2="538.4526" y2="15.5544" gradientTransform="matrix(1 0 0 -1 0 112)">
		<stop  offset="0" style="stop-color:#FFFFFF"/>
		<stop  offset="0.34" style="stop-color:#FFFFFF"/>
		<stop  offset="0.54" style="stop-color:#FFFFFF"/>
		<stop  offset="0.91" style="stop-color:#D3DAF0"/>
		<stop  offset="1" style="stop-color:#D3DAF0"/>
	</linearGradient>
	<path style="fill-rule:evenodd;clip-rule:evenodd;fill:url(#SVGID_00000122679535323384165810000014176059449125070476_);" d="
		M447.7,92.7c30.2-28.6,55.9-41.6,78.2-44.4c2.1-2.6,8.9-12,11-15.2C486.7,41.9,463.6,76.5,447.7,92.7z"/>
	
		<linearGradient id="SVGID_00000162329758163271764580000001424633733833073840_" gradientUnits="userSpaceOnUse" x1="462.8071" y1="61.7167" x2="513.5242" y2="11.6501" gradientTransform="matrix(1 0 0 -1 0 112)">
		<stop  offset="0" style="stop-color:#004993"/>
		<stop  offset="0.1296" style="stop-color:#004993"/>
		<stop  offset="0.1708" style="stop-color:#0E539C"/>
		<stop  offset="0.3067" style="stop-color:#5577B7"/>
		<stop  offset="0.4079" style="stop-color:#7A91C9"/>
		<stop  offset="0.4622" style="stop-color:#889CD0"/>
		<stop  offset="0.4697" style="stop-color:#8197CD"/>
		<stop  offset="0.5489" style="stop-color:#3E69AD"/>
		<stop  offset="0.6069" style="stop-color:#04519A"/>
		<stop  offset="0.6371" style="stop-color:#004993"/>
		<stop  offset="0.9166" style="stop-color:#004993"/>
	</linearGradient>
	<path style="fill-rule:evenodd;clip-rule:evenodd;fill:url(#SVGID_00000162329758163271764580000001424633733833073840_);" d="
		M447.7,92.9c-0.3,0.3-1.4,1.6-2.4,2.6c-0.3,0.3-0.9,1-0.9,1c5.9-4.9,17.8-14.1,28.6-20.4c10.8-6.1,24.1-11.2,42.8-14
		c1.7-2.1,7.5-9.8,10.1-14C491.4,53.4,468.5,73.5,447.7,92.9z"/>
	
		<linearGradient id="SVGID_00000093169657627204297070000012838387545669968046_" gradientUnits="userSpaceOnUse" x1="512.8608" y1="53.3616" x2="533.3238" y2="40.0729" gradientTransform="matrix(1 0 0 -1 0 112)">
		<stop  offset="0" style="stop-color:#C00808"/>
		<stop  offset="0.47" style="stop-color:#E3000F"/>
		<stop  offset="1" style="stop-color:#F6B1B5"/>
	</linearGradient>
	<path style="fill-rule:evenodd;clip-rule:evenodd;fill:url(#SVGID_00000093169657627204297070000012838387545669968046_);" d="
		M521.6,73.9c0.4-1.2,1-2.3-2.6-4.5c-4.7-2.8-6.3-1.6-5.2-4.4c0.9-2.3,10.5-6.5,17.6-3.8C531.6,60.9,525.1,68.5,521.6,73.9z"/>
	
		<linearGradient id="SVGID_00000158718554622005484540000016094647471299979429_" gradientUnits="userSpaceOnUse" x1="530.2269" y1="101.9793" x2="587.1641" y2="54.6418" gradientTransform="matrix(1 0 0 -1 0 112)">
		<stop  offset="0" style="stop-color:#D3DDF2"/>
		<stop  offset="7.302860e-02" style="stop-color:#D3DDF2"/>
		<stop  offset="0.1174" style="stop-color:#BBC8E7"/>
		<stop  offset="0.2114" style="stop-color:#7F96C9"/>
		<stop  offset="0.3463" style="stop-color:#0D539B"/>
		<stop  offset="0.3708" style="stop-color:#004993"/>
		<stop  offset="0.4288" style="stop-color:#004E97"/>
		<stop  offset="0.5195" style="stop-color:#215AA0"/>
		<stop  offset="0.6316" style="stop-color:#4B71B1"/>
		<stop  offset="0.7606" style="stop-color:#7E96C9"/>
		<stop  offset="0.9024" style="stop-color:#BDC9E7"/>
		<stop  offset="0.9494" style="stop-color:#D3DDF2"/>
		<stop  offset="1" style="stop-color:#D3DDF2"/>
	</linearGradient>
	<path style="fill-rule:evenodd;clip-rule:evenodd;fill:url(#SVGID_00000158718554622005484540000016094647471299979429_);" d="
		M549,29.9c-7.3,0.7-11.7,2.8-14.7,6.5l-9.8,14c2.3-2.1,8.7-3.1,15.7-3.1h1c0.2,0,0.5,0,0.7,0c1,0,2.1-0.2,3.1-0.2
		c10.1-0.2,23.9-1.7,32.3-11.9l11.9-17.8l1.4-1.9C580.1,29.7,556.5,28.5,549,29.9z"/>
	
		<linearGradient id="SVGID_00000125601267722479964630000015561119817777157305_" gradientUnits="userSpaceOnUse" x1="542.0596" y1="115.4781" x2="595.9872" y2="70.6427" gradientTransform="matrix(1 0 0 -1 0 112)">
		<stop  offset="0" style="stop-color:#FFFFFF"/>
		<stop  offset="0.1742" style="stop-color:#FFFFFF"/>
		<stop  offset="0.2352" style="stop-color:#FAFAFD"/>
		<stop  offset="0.3175" style="stop-color:#EBEEF8"/>
		<stop  offset="0.3539" style="stop-color:#E2E6F5"/>
		<stop  offset="0.4512" style="stop-color:#EFF1FA"/>
		<stop  offset="0.5831" style="stop-color:#FBFCFE"/>
		<stop  offset="0.7" style="stop-color:#FFFFFF"/>
		<stop  offset="1" style="stop-color:#FFFFFF"/>
	</linearGradient>
	<path style="fill-rule:evenodd;clip-rule:evenodd;fill:url(#SVGID_00000125601267722479964630000015561119817777157305_);" d="
		M567.2,13.6c-3.1,0.5-10.1,0.3-15.9,4.2c-5.9,3.8-13.3,13.3-16.6,18.2c3.1-3.7,7.9-4.7,14-5.6c6.3-0.7,15.2-0.5,21.7-1.6
		c6.3-0.7,13.6-3.7,20.3-13.1L601.1,0C589.9,11.5,577.7,12,567.2,13.6z"/>
	
		<linearGradient id="SVGID_00000099626367550566229380000012729222885100681402_" gradientUnits="userSpaceOnUse" x1="521.2181" y1="82.8768" x2="569.2676" y2="42.9274" gradientTransform="matrix(1 0 0 -1 0 112)">
		<stop  offset="0" style="stop-color:#F6B1B5"/>
		<stop  offset="5.618290e-02" style="stop-color:#F6B1B5"/>
		<stop  offset="7.173800e-02" style="stop-color:#F4A4A3"/>
		<stop  offset="0.1265" style="stop-color:#EE7769"/>
		<stop  offset="0.1763" style="stop-color:#EA4E3F"/>
		<stop  offset="0.2193" style="stop-color:#E62F24"/>
		<stop  offset="0.2541" style="stop-color:#E41315"/>
		<stop  offset="0.2761" style="stop-color:#E3000F"/>
		<stop  offset="0.294" style="stop-color:#E0010E"/>
		<stop  offset="0.4383" style="stop-color:#C9070A"/>
		<stop  offset="0.5169" style="stop-color:#C00808"/>
		<stop  offset="0.574" style="stop-color:#C9070A"/>
		<stop  offset="0.6789" style="stop-color:#E0010E"/>
		<stop  offset="0.6919" style="stop-color:#E3000F"/>
		<stop  offset="0.8914" style="stop-color:#F4A7A7"/>
		<stop  offset="1" style="stop-color:#F6B1B5"/>
	</linearGradient>
	<path style="fill-rule:evenodd;clip-rule:evenodd;fill:url(#SVGID_00000099626367550566229380000012729222885100681402_);" d="
		M554.8,45.2c-7.5,1-16.2,1.2-18.7,1.6c-4.2,0-10,1.6-11.5,3.7c-4.9,6.1-9.4,11.9-10.7,14.5c2.8-2.8,12.6-2.6,24.3-3.1
		c11.7-0.5,23.4-5.9,32.8-16.9l7.2-10.3C573.3,40.9,564.9,43.7,554.8,45.2z"/>
	<path class="st7" d="M320.8,37.2l-19.9,40h7.5l14.8-31.1h0.4L340,77.2h17.1l-22-40H320.8z M105.6,42.6c-6.5-5.1-16.1-6.8-24.6-6.8
		c-5.6,0-10.7,0.5-15.7,2.4c-4.4,1.6-7.7,3.7-11,6.6l7.7,4.4l1.9-2.1c1.6-1.7,4-3.3,6.5-4.4c3.1-1.4,6.3-1.7,9.6-1.7
		c6.8,0,10.7,2.3,12.9,4.4c1.4,1.4,3.3,4,3.8,8l-23.4-0.3v6.6l23.2-0.3c-0.3,5.6-3.3,8.7-4.9,10.1c-3.8,3.1-9.4,3.3-12,3.3
		c-3.8,0-7.2-0.5-10.7-2.6c-2.1-1.4-4.7-3.5-5.9-5.4l-1-1.6l-7.7,4.5c2.3,2.6,5.8,5.2,9.4,7.2c5.6,2.8,10.8,3.5,17.1,3.5
		c6.8,0,17.1-1,24.8-6.8c5.2-4,7.7-9.6,7.7-14.5S110.9,46.6,105.6,42.6z M73.3,59.7L73.3,59.7h-0.2H73.3z M407.7,42.6
		c-6.6-5.1-16.6-6.8-23.7-6.8c-7,0-17.1,1.7-23.7,6.8c-5.2,4-7.7,9.6-7.7,14.5s2.4,10.5,7.7,14.5c6.8,5.1,16.8,6.8,23.7,6.8
		c7.2,0,17.1-1.7,23.7-6.8c5.2-4,7.9-9.6,7.9-14.5S413.2,46.6,407.7,42.6z M395.5,68.3c-3.3,4.4-7.7,5.2-11.5,5.2
		c-3.8,0-8.2-0.9-11.5-5.2c-2.6-3.5-3.1-7.5-3.1-11s0.5-7.7,3.1-11.2c3.5-4.4,7.7-5.2,11.5-5.2c3.8,0,8.2,0.9,11.5,5.2
		c2.6,3.5,3.1,7.5,3.1,11.2C398.7,60.8,398.1,64.8,395.5,68.3z M305.2,56.9c0-5.9-3.7-9.4-6.5-11.4c-4-2.8-9.8-3.8-15.4-4.2
		c-1.6-0.2-3-0.2-4.5-0.2h-1.6v-5.6h-15.2v5.6h-1.6c-1.6,0-3,0-4.5,0.2c-5.8,0.3-11.4,1.4-15.4,4.2c-3,1.9-6.5,5.4-6.5,11.4
		c0,4.5,2.1,8.6,6.5,11.4c2.3,1.6,6.8,3.7,15.4,4.2c1.4,0,3,0.2,4.5,0.2h1.6v5.9h15.2v-5.9h1.6c1.7-0.2,3.1-0.2,4.5-0.2
		c8.6-0.5,12.9-2.6,15.4-4.2C303.3,65.5,305.2,61.3,305.2,56.9z M262.6,67.2h-1.7c-1.7,0-3.5-0.3-4.9-0.7c-1.4-0.3-2.4-1-3.5-1.7
		c-1.7-1.4-3.1-3.8-3.1-7.9c0-3.8,1.4-6.3,3.1-7.9c0.9-0.9,2.1-1.4,3.5-1.9c1.4-0.5,3.1-0.7,4.9-0.7h1.7V67.2z M286.9,64.6
		c-0.9,0.9-2.1,1.4-3.5,1.7c-1.6,0.5-3.1,0.7-4.9,0.7h-1.7V46.3h1.7c1.7,0.2,3.5,0.5,4.9,0.9c1.4,0.3,2.4,1,3.5,1.7
		c1.7,1.4,3.1,3.8,3.1,7.9C290.1,60.8,288.7,63.2,286.9,64.6z M223,42.6c-6.6-5.1-16.6-6.8-23.7-6.8c-7.2,0-17.1,1.7-23.7,6.8
		c-5.2,4-7.7,9.6-7.7,14.5s2.4,10.5,7.7,14.5c6.6,5.1,16.8,6.8,23.7,6.8c7,0,17.1-1.7,23.7-6.8c5.2-4,7.7-9.6,7.7-14.5
		S228.2,46.6,223,42.6z M210.8,68.3c-3.3,4.4-7.9,5.2-11.5,5.2c-3.8,0-8.2-0.9-11.5-5.2c-2.8-3.5-3.1-7.5-3.1-11s0.3-7.7,3.1-11.2
		c3.3-4.4,7.7-5.2,11.5-5.2c3.8,0,8.2,0.9,11.5,5.2c2.6,3.5,3.1,7.5,3.1,11.2C213.9,60.8,213.4,64.8,210.8,68.3z M160.7,40
		c-3.7-2.1-8.6-2.8-16.6-2.8H142H118v40.2h15.2V62.7h8.6v-0.2h2.8c7.3,0,12.4-0.9,16.1-3.1c4.5-2.8,5.6-6.8,5.6-9.8
		C166.2,46.6,165.2,42.6,160.7,40z M147.6,54.8c-1.7,1.2-3.8,1.6-5.8,1.7h-1.6h-7V43.1h7c0.5,0,1,0,1.6,0.2c1.9,0,4.2,0.3,5.9,1.6
		c2.3,1.6,2.6,3.7,2.6,4.9C150.4,51,150,53.3,147.6,54.8z M21,37L0,77.2h7.5l5.9-11.5h21.3l6.5,11.5h16.9L35.1,37H21z M16.6,60.2
		l7.2-14h0.2l0.2,0.3l7.5,13.6H16.6z M413.2,37.2v5.9h16.2v34.1h15.4V43.1H461v-5.9H413.2z"/>
	<path class="st8" d="M365.7,97.5l-10.1,9.8l3.4-9.8h-2.6l-4.5,13.3h2.6l10.1-9.9l-3.3,9.9h2.6l4.5-13.3H365.7z M350,97.5l-1.8,5.2
		h-6.3l1.8-5.2h-2.6l-4.5,13.3h2.6l2.1-6.2h6.3l-2.1,6.2h2.7l4.5-13.3H350z M334.7,97.5l-10.1,9.8l3.3-9.8h-2.5l-4.5,13.3h2.5
		l10.1-9.9l-3.3,9.9h2.5l4.5-13.3H334.7z M313.6,97.5L313.6,97.5l-1.5,3.8c-0.5,1.3-1,2.6-1.6,3.8c-0.9,1.9-1.7,3.7-4,4.2l-0.4,1.7
		c1.3-0.1,2.3-0.6,3-1c2.6-1.7,3.5-4.5,5.4-9.2l0.7-1.6h3.2l-3.9,11.6h2.5l4.5-13.3H313.6z M260.5,97.2c-1.5,0-2.7,0.2-3.6,0.5
		c-1.9,0.7-2.8,2-2.9,3.1l2.3,0.1c0.1-0.5,0.3-0.8,0.6-1.1c0.6-0.7,1.6-0.9,2.9-0.9c0.5,0,1.2,0.1,1.5,0.5c0.4,0.5,0.2,1.1,0,1.7
		l-0.5,1.7h-1.9c-0.7,0-1.3,0-1.9,0.1c-2.6,0.3-4.8,1.4-5.7,4.1c-0.7,2.1,0,3.9,2.9,3.9c0.9,0,1.8-0.1,2.7-0.5h0.1
		c0.7-0.4,1.3-0.8,1.9-1.3h0.1l-0.5,1.7h2.3l2.9-8.7c0.5-1.3,1-2.7,0.3-3.8C263.1,97.5,261.7,97.2,260.5,97.2z M259.1,107.4
		c-0.4,0.5-0.8,0.9-1.3,1.2c-0.3,0.2-0.7,0.3-0.9,0.4c-0.4,0.2-0.9,0.3-1.4,0.3c-0.5,0-1.2-0.1-1.6-0.6c-0.3-0.5-0.3-1-0.1-1.7
		c0.2-0.5,0.5-1.1,1.3-1.6c0.6-0.4,1.2-0.6,1.9-0.7l0,0c0.3-0.1,0.8-0.1,1.3-0.1h1.9L259.1,107.4z M307.6,98.4
		c-0.6-0.9-2.1-1.2-3.3-1.2c-1.5,0-2.7,0.2-3.6,0.5c-1.9,0.7-2.7,2-2.9,3.1l2.3,0.1c0.1-0.5,0.3-0.8,0.6-1.1
		c0.7-0.7,1.6-0.9,2.9-0.9c0.5,0,1.2,0.1,1.5,0.5c0.3,0.5,0.2,1.1,0,1.7l-0.6,1.7h-1.9c-0.7,0-1.3,0-1.9,0.1
		c-2.6,0.3-4.8,1.4-5.7,4.1c-0.7,2.1,0,3.9,2.9,3.9c0.9,0,1.8-0.1,2.8-0.5c0.7-0.3,1.3-0.8,1.9-1.3h0.1l-0.6,1.7h2.3l2.9-8.7
		C307.8,100.8,308.3,99.5,307.6,98.4z M303,107.4c-0.4,0.5-0.8,0.9-1.3,1.2c-0.3,0.2-0.6,0.3-0.9,0.4c-0.4,0.2-0.9,0.3-1.3,0.3
		c-0.6,0-1.3-0.1-1.6-0.6c-0.4-0.5-0.4-1-0.2-1.7c0.2-0.5,0.5-1.1,1.3-1.6c0.4-0.3,0.9-0.6,1.9-0.7l0,0c0.4-0.1,0.8-0.1,1.3-0.1h1.9
		L303,107.4z M292.4,97.5l-10.1,9.8l3.3-9.8h-2.6l-4.5,13.3h2.6l10.1-9.9l-3.3,9.9h2.6l4.5-13.3H292.4z M278.2,98.3
		c-0.7-0.7-1.7-0.8-2.6-0.8h-6.7l-4.6,13.3h6.6c0.6,0,1.2-0.1,1.8-0.2c0.9-0.3,1.7-0.7,2.3-1.1c0.8-0.7,1.5-1.5,1.9-2.5
		c0.3-0.8,0.3-1.5-0.1-2.2c-0.3-0.5-0.8-0.9-1.5-1l0.1-0.1c0.9-0.2,1.6-0.7,2.1-1.1c0.5-0.5,0.9-1.2,1.1-1.9
		C278.9,99.5,278.7,98.8,278.2,98.3z M273.9,106.9c-0.2,0.6-0.6,1.1-1.1,1.5c0,0-0.1,0-0.1,0.1c-0.5,0.3-1.3,0.5-2,0.5h-3.1l1.4-4.2
		h3.3c0.2,0,0.3,0,0.5,0.1c0.5,0,0.9,0.2,1.1,0.4C274.2,105.7,274.2,106.3,273.9,106.9z M275.7,101.1c-0.2,0.5-0.5,1.1-1.1,1.5
		c-0.7,0.5-1.3,0.5-1.9,0.5h-3.1l1.3-3.8h1.8h1.3c0.5,0,1.1,0,1.5,0.4C275.9,100.1,275.8,100.5,275.7,101.1z M230.2,97.1
		c-0.5,0-1.1,0.1-1.7,0.2c-2.6,0.6-4.9,2.7-6.3,7c-1.9,5.7,0.3,6.7,3.4,6.7c1.1,0,2.1-0.1,2.9-0.4c2.1-0.7,3.3-2.2,3.5-3.7l-2.2-0.3
		c-0.1,0.4-0.5,1.3-1.3,1.9c-0.5,0.4-1.3,0.7-2.3,0.7c-0.8,0-2.8-0.2-1.7-3.3l0.4-1.3h3.6l0,0h4.5C234.9,99.9,234.6,97.1,230.2,97.1
		z M231.1,102.3l-0.2,0.6h-5.5l0.2-0.6c0.7-2,1.8-2.9,2.8-3.2v0c0.4-0.1,0.8-0.2,1.1-0.2C232.2,98.9,231.6,101.1,231.1,102.3z
		 M208.5,107.3l3.3-9.8h-2.5l-4.5,13.3h2.6l10.1-9.9l-3.3,9.9h2.6l4.5-13.3h-2.5L208.5,107.3z M205.7,97.2c-1,0.1-2,0.1-2.9,0.8
		c-0.8,0.6-1.1,1.4-1.5,2.1l-0.4,0.7c-0.3,0.7-0.5,1.2-1.2,1.6c-0.5,0.4-1,0.4-1.5,0.4h-2.3l1.8-5.3h-2.6v0l-4.5,13.3h2.6l2.1-6h2.5
		c0.5,0,1.1,0,1.3,0.5c0.1,0.2,0.3,0.6,0.1,1.3l-0.3,1.8c-0.2,0.9-0.3,1.8,0.7,2.3c0.5,0.2,1.3,0.3,1.8,0.3l1.1-1.9
		c-0.2,0-0.4,0-0.6-0.1c-0.5-0.2-0.5-0.7-0.4-1.1l0.1-0.9c0.1-0.6,0.3-1.5,0.1-2.1c-0.1-0.5-0.7-0.8-1.2-0.9v-0.1
		c0.6-0.1,1.1-0.4,1.5-0.9c0.5-0.5,0.7-0.9,0.9-1.4l0.5-0.9c0.2-0.5,0.5-1.2,1.2-1.5c0.1-0.1,0.3-0.1,0.9-0.2L205.7,97.2z M190,97.8
		c-0.7-0.5-1.7-0.7-2.7-0.7c-1.3,0-2.9,0.3-4.3,1.1c-2.5,1.5-3.7,4.1-4.2,5.8c-0.5,1.4-1.1,4,0.2,5.6c0.9,1.1,2.3,1.3,3.8,1.3
		c1,0,1.9-0.1,3-0.4c0.6-0.3,1.3-0.5,1.9-0.9l-0.4-1.6c-0.5,0.3-1.1,0.5-1.7,0.7c-0.6,0.2-1.3,0.3-1.9,0.3c-0.9,0-1.8-0.1-2.4-0.9
		c-0.7-0.9-0.3-2.4,0.3-4.1c0.5-1.6,1-3.1,1.9-4c0.5-0.5,1.3-1.2,2.7-1.2c0.9,0,1.5,0.3,1.7,0.7c0.3,0.5,0.1,1.1-0.3,2l2.5-0.2
		C191.2,100,191.1,98.5,190,97.8z M172.9,94.9c0.8,0,1.8-0.1,2.9-0.7c1-0.5,1.7-1.5,1.9-2.5h-1.9c-0.1,0.4-0.4,0.7-0.7,0.9
		c-0.5,0.4-1.2,0.6-1.7,0.6c-0.5,0-1.1-0.2-1.3-0.6c-0.2-0.3-0.1-0.6,0-0.9h-1.9c-0.5,1-0.4,2,0.2,2.5
		C171.1,94.8,172.2,94.9,172.9,94.9z M165.1,107.3l3.3-9.8h-2.5l-4.5,13.3h2.6l10.1-9.9l-3.3,9.9h2.6l4.5-13.3h-2.5L165.1,107.3z
		 M159.5,97.5l-10.1,9.8l3.3-9.8h-2.5l-4.5,13.3h2.5l10.1-9.9l-3.3,9.9h2.6l4.5-13.3H159.5z M145.8,101.5c0.9-1.5,0.9-2.9-0.2-3.7
		c-0.7-0.5-1.7-0.7-2.8-0.7c-1.3,0-2.9,0.3-4.3,1.1c-2.5,1.5-3.6,4.1-4.2,5.8c-0.5,1.4-1.1,4,0.2,5.6c0.9,1.1,2.3,1.3,3.8,1.3
		c1,0,1.9-0.1,3-0.4c0.5-0.3,1.3-0.5,1.9-0.9l-0.3-1.6c-0.6,0.3-1.1,0.5-1.7,0.7c-0.7,0.2-1.3,0.3-2,0.3c-0.8,0-1.8-0.1-2.3-0.9
		c-0.7-0.9-0.3-2.4,0.3-4.1c0.5-1.6,1.1-3.1,2-4c0.7-0.8,1.6-1.2,2.7-1.2c0.9,0,1.5,0.3,1.8,0.7c0.3,0.5,0.1,1.1-0.3,2L145.8,101.5z
		 M132.5,97.8c-0.7-0.5-1.7-0.7-2.8-0.7c-1.3,0-2.9,0.3-4.3,1.1c-2.5,1.5-3.6,4.1-4.2,5.8c-0.5,1.4-1.1,4,0.2,5.6
		c0.9,1.1,2.3,1.3,3.8,1.3c1,0,1.9-0.1,3-0.4c0.5-0.3,1.3-0.5,1.9-0.9l-0.3-1.6c-0.6,0.2-1.1,0.5-1.7,0.7c-0.7,0.2-1.3,0.3-2,0.3
		c-0.8,0-1.8-0.1-2.3-0.9c-0.7-0.9-0.3-2.4,0.3-4.1c0.5-1.6,1-3.1,2-4c0.5-0.5,1.3-1.2,2.7-1.2c0.9,0,1.5,0.3,1.7,0.7
		c0.3,0.5,0.1,1.1-0.3,2l2.5-0.2C133.6,100,133.5,98.5,132.5,97.8z M114.9,97.2L114.9,97.2c-0.9,0-1.7,0.1-2.4,0.3
		c-0.9,0.3-1.7,0.8-2.5,1.4c-1.9,1.5-2.8,3.5-3.3,5.3c-0.6,1.6-1.1,3.7-0.3,5.2c0.6,1,1.7,1.7,3.7,1.7c0.9,0,1.7-0.1,2.3-0.3
		c0.9-0.3,1.8-0.7,2.5-1.3c1.9-1.5,2.8-3.6,3.4-5.2c0.5-1.7,1-3.8,0.1-5.3C118.1,97.9,116.9,97.2,114.9,97.2z M116,102.9l-0.9,2.3
		c-0.2,0.7-0.7,2.1-1.9,3.1c-0.2,0.2-0.4,0.3-0.7,0.5c-0.5,0.2-1,0.4-1.7,0.4c-1.1,0-1.7-0.5-1.9-0.9c-0.5-0.9,0-2.4,0.2-3.1
		l0.8-2.3c0.3-0.7,0.8-2.1,1.9-3.1c0.2-0.1,0.4-0.3,0.7-0.5h0c0.6-0.3,1.2-0.4,1.8-0.4c1.1,0,1.6,0.5,1.8,0.9
		C116.7,100.8,116.2,102.3,116,102.9z M106.5,100.7c1.3-0.9,2.3-2.3,2.9-3.9c0.3-1.1,0.6-2.8-0.6-4c-1.2-1.1-2.9-1.3-4.5-1.3h-6.6
		l-6.5,19.2H94l2.8-8.3h4.1c0.3,0,0.6,0,1-0.1l0,0C103.6,102.3,105.2,101.7,106.5,100.7z M101.3,100.3h-3.8l2.2-6.5h2.2h1.7
		c0.9,0,1.9,0.3,2.3,0.8c0.3,0.3,0.7,0.9,0.3,2.3c-0.5,1.4-1.3,2.2-1.7,2.5c-0.9,0.7-1.7,0.9-2.5,0.9
		C101.7,100.3,101.5,100.3,101.3,100.3z M381.4,97.5l-10.1,9.8l3.3-9.8h-2.6l-4.5,13.3h2.6l10.1-9.9l-3.3,9.9h2.6l4.5-13.3H381.4z"
		/>
</g>
</svg>
