<?xml version="1.0" encoding="utf-8"?>
<!-- Generator: Adobe Illustrator 26.0.3, SVG Export Plug-In . SVG Version: 6.00 Build 0)  -->
<svg version="1.1" id="Layer_1" xmlns="http://www.w3.org/2000/svg" xmlns:xlink="http://www.w3.org/1999/xlink" x="0px" y="0px"
	 viewBox="0 0 339.8 119.7" style="enable-background:new 0 0 339.8 119.7;" xml:space="preserve">
<style type="text/css">
	.st0{fill-rule:evenodd;clip-rule:evenodd;fill:#004396;}
	.st1{fill:#004396;}
</style>
<image style="overflow:visible;" width="457" height="191" xlink:href="3E11A23C.jpg"  transform="matrix(1 0 0 1 -8042.0308 -8099.4028)">
</image>
<g>
	<path class="st0" d="M140,38.7l-15.2,33.1H136l3.4-7.4h16.2l3.4,7.4h11.2l-15.6-33.1H140z M142.8,57.1l4.7-10.3l4.8,10.3H142.8z
		 M206.3,53.1c1.4-1.5,2.2-3.5,2.2-5.8c0-4.8-3.9-8.6-8.6-8.6h-24.5V46h21c1.6,0,2.9,1.3,2.9,2.9c0,1.6-1.3,2.9-2.9,2.9h-15.9v6.8
		h19.3c1.6,0,2.9,1.3,2.9,2.9s-1.3,2.9-2.9,2.9h-24.5v7.1h27.2c5.3,0,9.6-4.3,9.6-9.6C212.2,58,209.8,54.5,206.3,53.1z M243.1,38.7
		l-15.9,16.5V38.7h-10v32.8h10V55.3l2,1.8h0.1l13.8,14.4h11.3l-15.8-16.4l15.8-16.4H243.1z M268.9,61.3v-8.4h-8.9v18.6h8.9l7.5-8.3
		v8.3h8.9V52.9h-8.9L268.9,61.3z M327.2,41.8h-6v-3.1H311v3.1h-6.8c-6.9,0-12.5,5.6-12.5,12.5v1.1c0,6.9,5.6,12.5,12.5,12.5h6.8v3.5
		h10.2V68h6c6.9,0,12.5-5.6,12.5-12.5v-1.1C339.8,47.4,334.2,41.8,327.2,41.8z M311,61h-2.5c-3.4,0-6.1-2.8-6.1-6.1
		c0-3.4,2.8-6.1,6.1-6.1h2.5V61z M323.7,61h-2.5V48.7h2.5c3.4,0,6.1,2.8,6.1,6.1C329.8,58.2,327.1,61,323.7,61z"/>
	<path class="st0" d="M72.9,0L23.6,29.8l26,39.5L0,40.2v49.9l49.7,29.6l49.5-29.8V38.7L72.9,0z M88.9,84.1L63.2,99.9V74.2l25.7-15.8
		V84.1z"/>
	<g>
		<path class="st1" d="M126.3,81.8h0.8c0.9,0,1.4-0.4,1.4-0.8c0-0.5-0.4-0.8-1.2-0.8c-0.5,0-1.2,0.2-1.6,0.5l-0.4-1
			c0.7-0.4,1.6-0.6,2.4-0.6c1.1,0,2.5,0.4,2.5,1.7c0,0.8-0.8,1.3-1.4,1.5v0c0.9,0.1,1.7,0.6,1.7,1.6c0,1.5-1.7,2-3,2
			c-0.8,0-1.7-0.2-2.4-0.6l0.4-1.1c0.5,0.3,1.2,0.4,1.8,0.5c0.9,0,1.4-0.4,1.4-0.9c0-0.7-0.7-0.9-1.6-0.9h-0.8V81.8z"/>
		<path class="st1" d="M140.7,84.1c0,0.6,0,1.2,0.1,1.6h-1.5l-0.1-0.7h0c-0.4,0.5-1.1,0.9-1.9,0.9c-1.3,0-2.1-1-2.1-1.9
			c0-1.6,1.5-2.5,3.9-2.5v-0.1c0-0.4-0.2-1.1-1.3-1.1c-0.6,0-1.3,0.2-1.8,0.5l-0.3-1.1c0.5-0.3,1.3-0.6,2.4-0.6
			c2.1,0,2.7,1.3,2.7,2.8V84.1z M139.1,82.5c-1.2,0-2.3,0.2-2.3,1.2c0,0.6,0.4,0.9,0.9,0.9c0.7,0,1.1-0.4,1.3-0.9c0-0.1,0-0.2,0-0.4
			V82.5z"/>
		<path class="st1" d="M146.1,79.2c0.5-0.1,1.5-0.2,2.4-0.2c1.1,0,3.1,0.1,3.1,1.6c0,0.8-0.6,1.3-1.3,1.4v0c1,0.1,1.6,0.7,1.6,1.6
			c0,1.8-2.4,2-3.7,2c-0.8,0-1.7-0.1-2.1-0.1V79.2z M147.7,84.7c0.3,0,0.5,0,0.8,0c0.8,0,1.7-0.2,1.7-1c0-0.7-0.7-1-1.8-1h-0.7V84.7
			z M147.7,81.8h0.7c0.8,0,1.5-0.2,1.5-0.9c0-0.5-0.5-0.8-1.4-0.8c-0.3,0-0.5,0-0.8,0.1V81.8z"/>
		<path class="st1" d="M163.1,82.3c0,2.4-1.7,3.5-3.4,3.5c-1.8,0-3.3-1.3-3.3-3.4c0-2.1,1.4-3.5,3.4-3.5
			C161.8,79,163.1,80.4,163.1,82.3z M158.2,82.4c0,1.3,0.6,2.2,1.6,2.2c0.9,0,1.6-0.9,1.6-2.2c0-1-0.5-2.2-1.6-2.2
			C158.7,80.2,158.2,81.3,158.2,82.4z"/>
		<path class="st1" d="M173.7,79.1v5.3l0.7,0l-0.1,3.3h-1.3l-0.1-2.1h-4.3l-0.1,2.1h-1.3l-0.1-3.2l0.6,0c0.3-0.4,0.5-0.9,0.6-1.3
			c0.2-0.8,0.3-1.5,0.3-2.4v-1.6H173.7z M170.4,81.2c0,0.7-0.1,1.4-0.3,2c-0.1,0.4-0.3,0.8-0.5,1.2h2.5v-4.1h-1.8V81.2z"/>
		<path class="st1" d="M187.6,79.1v2.7h0.2l2-2.7h2l-2.6,2.9c0.9,0.1,1.4,0.8,1.9,1.9c0.2,0.5,0.4,1.2,0.7,1.8h-1.7
			c-0.2-0.3-0.4-0.8-0.6-1.4c-0.4-0.9-0.9-1.3-1.7-1.3h-0.2v2.7H186v-6.5H187.6z"/>
		<path class="st1" d="M196.5,81.3c0-0.9,0-1.6-0.1-2.2h1.4l0.1,1h0c0.5-0.7,1.2-1.2,2.2-1.2c1.5,0,2.8,1.3,2.8,3.3
			c0,2.4-1.5,3.5-3,3.5c-0.8,0-1.5-0.3-1.8-0.9h0v3.4h-1.7V81.3z M198.2,82.9c0,0.2,0,0.3,0,0.5c0.2,0.7,0.8,1.2,1.5,1.2
			c1,0,1.7-0.9,1.7-2.2c0-1.2-0.6-2.1-1.6-2.1c-0.7,0-1.3,0.5-1.5,1.2c0,0.1-0.1,0.3-0.1,0.4V82.9z"/>
		<path class="st1" d="M214.3,82.3c0,2.4-1.7,3.5-3.4,3.5c-1.8,0-3.3-1.3-3.3-3.4c0-2.1,1.4-3.5,3.4-3.5
			C213,79,214.3,80.4,214.3,82.3z M209.4,82.4c0,1.3,0.6,2.2,1.6,2.2c0.9,0,1.6-0.9,1.6-2.2c0-1-0.5-2.2-1.6-2.2
			C209.9,80.2,209.4,81.3,209.4,82.4z"/>
		<path class="st1" d="M219.4,79.2c0.5-0.1,1.5-0.2,2.4-0.2c1.1,0,3.1,0.1,3.1,1.6c0,0.8-0.6,1.3-1.3,1.4v0c1,0.1,1.6,0.7,1.6,1.6
			c0,1.8-2.4,2-3.7,2c-0.8,0-1.7-0.1-2.1-0.1V79.2z M221,84.7c0.3,0,0.5,0,0.8,0c0.8,0,1.7-0.2,1.7-1c0-0.7-0.7-1-1.8-1H221V84.7z
			 M221,81.8h0.7c0.8,0,1.5-0.2,1.5-0.9c0-0.5-0.5-0.8-1.4-0.8c-0.3,0-0.5,0-0.8,0.1V81.8z"/>
		<path class="st1" d="M235.8,79.1v6.5h-1.7v-5.3h-1.8v1.4c0,1.7-0.2,2.9-1,3.4c-0.4,0.4-0.9,0.5-1.6,0.5l-0.2-1.3
			c0.3,0,0.5-0.2,0.7-0.3c0.5-0.4,0.5-1.2,0.5-2.4v-2.6H235.8z"/>
		<path class="st1" d="M242.7,79.1v2.3c0,1,0,1.7-0.1,2.6h0.1c0.3-0.8,0.5-1.2,0.9-1.9l1.6-3.1h2v6.5h-1.6v-2.3c0-1,0-1.5,0.1-2.8
			h-0.1c-0.3,0.8-0.5,1.2-0.9,1.9c-0.5,1-1.1,2.1-1.7,3.2h-2v-6.5H242.7z"/>
		<path class="st1" d="M260.8,79.1v2.3c0,1,0,1.7-0.1,2.6h0.1c0.3-0.8,0.5-1.2,0.9-1.9l1.6-3.1h2v6.5h-1.6v-2.3c0-1,0-1.5,0.1-2.8
			h-0.1c-0.3,0.8-0.5,1.2-0.9,1.9c-0.5,1-1.1,2.1-1.7,3.2h-2v-6.5H260.8z"/>
		<path class="st1" d="M281.7,76.2l0,2.8c1.9,0.2,3.4,1.3,3.4,3.4c0,2.1-1.5,3.2-3.4,3.4l0,2.5h-1.6l0-2.5c-1.9-0.1-3.4-1.3-3.4-3.3
			c0-2.1,1.5-3.3,3.4-3.4l0-2.8H281.7z M280.2,80.1c-1.2,0.2-1.8,1.1-1.8,2.3c0,1.2,0.6,2.1,1.8,2.3V80.1z M281.7,84.7
			c1.1-0.2,1.7-1.1,1.7-2.3c0-1.2-0.6-2.1-1.7-2.3V84.7z"/>
		<path class="st1" d="M295.2,84.1c0,0.6,0,1.2,0.1,1.6h-1.5l-0.1-0.7h0c-0.4,0.5-1.1,0.9-1.9,0.9c-1.3,0-2.1-1-2.1-1.9
			c0-1.6,1.5-2.5,3.9-2.5v-0.1c0-0.4-0.2-1.1-1.3-1.1c-0.6,0-1.3,0.2-1.8,0.5l-0.3-1.1c0.5-0.3,1.3-0.6,2.4-0.6
			c2.1,0,2.7,1.3,2.7,2.8V84.1z M293.6,82.5c-1.2,0-2.3,0.2-2.3,1.2c0,0.6,0.4,0.9,0.9,0.9c0.7,0,1.1-0.4,1.3-0.9c0-0.1,0-0.2,0-0.4
			V82.5z"/>
		<path class="st1" d="M305.4,85.5c-0.3,0.2-1,0.3-1.9,0.3c-2,0-3.4-1.3-3.4-3.3c0-2,1.3-3.5,3.6-3.5c0.6,0,1.2,0.1,1.6,0.3
			l-0.3,1.2c-0.3-0.1-0.7-0.3-1.2-0.3c-1.3,0-2,0.9-2,2.1c0,1.3,0.9,2.1,2,2.1c0.6,0,1-0.1,1.3-0.3L305.4,85.5z"/>
		<path class="st1" d="M315.4,84.1c0,0.6,0,1.2,0.1,1.6H314l-0.1-0.7h0c-0.4,0.5-1.1,0.9-1.9,0.9c-1.3,0-2.1-1-2.1-1.9
			c0-1.6,1.5-2.5,3.9-2.5v-0.1c0-0.4-0.2-1.1-1.3-1.1c-0.6,0-1.3,0.2-1.8,0.5l-0.3-1.1c0.5-0.3,1.3-0.6,2.4-0.6
			c2.1,0,2.7,1.3,2.7,2.8V84.1z M313.8,82.5c-1.2,0-2.3,0.2-2.3,1.2c0,0.6,0.4,0.9,0.9,0.9c0.7,0,1.1-0.4,1.3-0.9c0-0.1,0-0.2,0-0.4
			V82.5z"/>
		<path class="st1" d="M326.5,79.1v5.3l0.7,0l-0.1,3.3h-1.3l-0.1-2.1h-4.3l-0.1,2.1h-1.3l-0.1-3.2l0.6,0c0.3-0.4,0.5-0.9,0.6-1.3
			c0.2-0.8,0.3-1.5,0.3-2.4v-1.6H326.5z M323.2,81.2c0,0.7-0.1,1.4-0.3,2c-0.1,0.4-0.3,0.8-0.5,1.2h2.5v-4.1h-1.8V81.2z"/>
		<path class="st1" d="M337.3,84.1c0,0.6,0,1.2,0.1,1.6H336l-0.1-0.7h0c-0.4,0.5-1.1,0.9-1.9,0.9c-1.3,0-2.1-1-2.1-1.9
			c0-1.6,1.5-2.5,3.9-2.5v-0.1c0-0.4-0.2-1.1-1.3-1.1c-0.6,0-1.3,0.2-1.8,0.5l-0.3-1.1c0.5-0.3,1.3-0.6,2.4-0.6
			c2.1,0,2.7,1.3,2.7,2.8V84.1z M335.7,82.5c-1.2,0-2.3,0.2-2.3,1.2c0,0.6,0.4,0.9,0.9,0.9c0.7,0,1.1-0.4,1.3-0.9c0-0.1,0-0.2,0-0.4
			V82.5z"/>
	</g>
</g>
</svg>
