<?xml version="1.0" encoding="utf-8"?>
<!-- Generator: Adobe Illustrator 26.0.3, SVG Export Plug-In . SVG Version: 6.00 Build 0)  -->
<svg version="1.1" id="Layer_1" xmlns="http://www.w3.org/2000/svg" xmlns:xlink="http://www.w3.org/1999/xlink" x="0px" y="0px"
	 viewBox="0 0 335.2 305.9" style="enable-background:new 0 0 335.2 305.9;" xml:space="preserve">
<style type="text/css">
	.st0{fill:#599EE1;}
	.st1{fill:#A3BF37;}
	.st2{fill:#414C5E;}
</style>
<g>
	<path class="st0" d="M300.6,100.8c0,36.8-29.8,66.6-66.6,66.6s-66.6-29.8-66.6-66.6c0-18.2,7.3-34.7,19.2-46.8
		c12.1-12.2,28.9-19.8,47.4-19.8C270.8,34.2,300.6,64,300.6,100.8z"/>
	<path class="st1" d="M180.3,185.8c66.7-23.3,43.1-96.6-13-152.3c-62.8,68-45,129.9-11.8,146.7c0.3,0.2,0.6,0.3,0.9,0.5
		C164.9,184.9,180.3,185.8,180.3,185.8z"/>
	<path class="st1" d="M236.1,67.8c1.9-1.1,3.1-3.2,3.2-5.4c0.1-2.2-0.8-4.3-2.3-6c-0.7-0.8-1.6-1.6-1.7-2.7
		c-0.1-1.6,1.7-2.5,3.2-3.1c3.8-1.6,7.5-3.7,10.8-6.2c1-0.8,2.1-1.9,1.7-3.1c-0.3-0.9-1.3-1.2-2.2-1.5c-15.1-4.5-32-2.5-45.7,5.4
		c-2.8,1.6-5.4,3.5-7.6,5.8c-1.7,1.8-0.6,1.7,1.1,2.3c1.5,0.5,2.7,1.6,3.6,2.8c1.5,1.9,2.7,4.1,4.9,5.1c3.4,1.7,7.6-0.3,11.4,0.1
		c2.4,0.3,4.5,1.5,6.5,2.8c2,1.3,3.9,2.8,6.1,3.7C231.4,68.7,234,69,236.1,67.8z M296.2,82.9c-2-6.3-4.8-12.3-7.7-18.3
		c-0.5-1.1-1.1-2.3-2.3-2.7c-1.7-0.6-3.4,0.9-5,1.9c-2.6,1.6-6.1,1.9-8.9,0.6c-1.1-0.5-2-1.2-3.1-1.6c-1.1-0.4-2.4-0.5-3.4,0.1
		c-2.6,1.7-0.4,6.3-2.4,8.6c-1.2,1.3-3.2,1.2-4.7,2.1c-3.7,2-3.3,8.1-7,10.1c-2.7,1.4-6.4,0-8.8,1.8c-2.1,0.2-3.8,2.5-3.8,4.8
		c0,2.5,1.5,4.8,3.1,6.8c1.5,1.8,3.5,3.6,5.8,3.4c2.3-0.2,4-2.4,6.3-2.7c2.3-0.2,4.3,1.6,5.6,3.6c1.3,1.9,2.2,4.2,4,5.6
		c1.8,1.4,5,1.5,6-0.6c1.9,4.7,2.6,9.9,1.9,14.9c-0.2,1.4-0.1,3.4,1.3,3.7c1.4,0.4,2.4-1.4,3.9-1.8c2.4-0.6,4.5,3.1,6.8,2.1
		c1.1-0.5,1.5-2,1.1-3.2c-0.3-1.2-1.2-2.1-1.9-3.1c-1.3-1.6-2.3-3.5-2.6-5.5s0.4-4.3,2-5.5c1.6-1.2,4.3-1.1,5.5,0.6
		c1.1,1.5,0.7,3.7,0.5,5.6c-0.2,1.9,0.3,4.3,2.1,4.8c1.2,0.4,2.6-0.2,3.4-1.2c0.8-1,1.2-2.2,1.6-3.4c1.2-3.9,2.4-7.9,2.9-11.9
		C299.2,95.9,298.1,89.2,296.2,82.9z M255.7,123.7c-0.5-1.8-1.1-3.7-1.8-5.4c-0.4-0.9-1.1-2.7-2.4-2.6c-1.2,0.1-2.4,2-3.1,2.9
		c-1.4,2-2.7,4-4.2,5.9c-0.5,0.6-1,1.2-1.3,1.9c-0.4,1.1,0.1,2.2,0,3.4c-0.1,1.3-1.1,2.4-1.8,3.5c-1.5,2.3-3.3,9.1,0.4,10.4
		c1,0.3,2-0.1,2.9-0.7c0.9-0.6,1.7-1.2,2.7-1.3c1.5-0.1,2.8,1.1,4.1,1.9c1.5,0.9,3.2,1.4,5,1.4c1.4,0,2.7-0.4,3.8-1.2
		c1.1-0.8,1.9-2,2-3.4c0.2-2.4-1.7-4.5-2.9-6.6C257.2,130.9,256.6,127.2,255.7,123.7z M237.9,106.4c-1.1-1.1-3-2.2-4.6-2.2
		c-1.8,0-2.3,1.9-2.4,3.4c-0.1,2.3,0.6,4.5,1.4,6.7c0.3,0.8,0.6,1.6,1.1,2.2c0.6,0.6,1.5,0.9,2.2,0.6c1-0.5,1.2-1.9,1.7-2.9
		c0.5-1.1,1.4-1.8,1.9-2.9C239.9,109.6,239.2,107.7,237.9,106.4z"/>
	<path class="st2" d="M166.7,305.9c-1.6,0-3.1-0.6-4.3-1.8c-1-1-105.1-104.4-132.6-131.4C-0.2,143.3-13,86.9,17.5,43.5
		C31.9,22.9,53.1,8.4,77.3,2.7c23.4-5.5,47.3-2.5,67.5,8.4c3,1.6,4.1,5.3,2.5,8.3c-1.6,3-5.3,4.1-8.3,2.5
		c-37.1-20.1-86-7.5-111.4,28.6C0.8,88.6,12,138.1,38.3,163.9c24.3,23.8,108.3,107.2,128.3,127.2l25.1-24.8c2.4-2.4,6.3-2.4,8.7,0.1
		c2.4,2.4,2.4,6.3-0.1,8.7L171,304.1C169.8,305.3,168.2,305.9,166.7,305.9z"/>
	<path class="st2" d="M180.3,191.9c-2.5,0-4.9-1.6-5.8-4.1c-1.1-3.2,0.6-6.7,3.8-7.8c19.7-6.9,31.5-18.5,35.2-34.7
		c3.2-14.2,0.1-31.9-9.1-51.1c-8.2-17.3-20.9-35-36.8-51.7c-37.6,43.2-38,77.9-34.7,95.1c3.3,17.3,13.1,31.3,26.3,37.6
		c3.1,1.5,4.4,5.1,2.9,8.2c-1.5,3.1-5.1,4.4-8.2,2.9c-16.6-7.9-29-25.2-33-46.3c-3.1-15.9-1.4-33.6,4.7-51.3c7-20,19.5-40,37.3-59.2
		c1.1-1.2,2.7-1.9,4.4-2c1.7,0,3.3,0.6,4.5,1.8c19.1,18.9,34.2,39.6,43.8,59.7c10.4,21.7,13.8,42.2,10,59.1
		c-4.6,20.3-19.5,35.4-43.1,43.6C181.7,191.8,181,191.9,180.3,191.9z"/>
	<path class="st2" d="M234,173.5c-8.2,0-16.3-1.4-24-4.1c-3.2-1.1-4.9-4.6-3.8-7.8c1.1-3.2,4.6-4.9,7.8-3.8c6.4,2.2,13.1,3.4,20,3.4
		c33.3,0,60.5-27.1,60.5-60.5S267.3,40.3,234,40.3c-16.3,0-31.6,6.4-43.1,18c-2.4,2.4-6.3,2.4-8.7,0.1c-2.4-2.4-2.4-6.3-0.1-8.7
		C196,35.7,214.4,28,234,28c40.1,0,72.8,32.6,72.8,72.8C306.7,140.9,274.1,173.5,234,173.5z"/>
	<path class="st2" d="M217.3,256.3c-1.6,0-3.1-0.6-4.3-1.8c-20.7-20.4-34.5-45.3-41-73.9c-5.5-24-5-45.7-4.7-61.6
		c0.1-3.3,0.1-6.4,0.1-9.1c0-3.4,2.7-6.1,6.1-6.1s6.1,2.7,6.1,6.1c0,2.8-0.1,6-0.1,9.3c-0.7,30-1.7,79.6,37.9,122.2l80.9-78.9
		c15.9-16.6,24.6-38.4,24.6-61.4c0-49-39.9-88.9-88.9-88.9c-24,0-46.5,9.4-63.3,26.5c-2.4,2.4-6.3,2.4-8.7,0.1
		c-2.4-2.4-2.4-6.3-0.1-8.7C181.1,10.7,206.7,0,234,0c27,0,52.4,10.5,71.6,29.6s29.6,44.5,29.6,71.6c0,26.2-10,51.1-28.1,70
		c0,0.1-0.1,0.1-0.1,0.2l-85.4,83.2C220.4,255.8,218.8,256.3,217.3,256.3z"/>
</g>
</svg>
