<?xml version="1.0" encoding="utf-8"?>
<!-- Generator: Adobe Illustrator 26.0.3, SVG Export Plug-In . SVG Version: 6.00 Build 0)  -->
<svg version="1.1" id="Layer_1" xmlns="http://www.w3.org/2000/svg" xmlns:xlink="http://www.w3.org/1999/xlink" x="0px" y="0px"
	 viewBox="0 0 280.7 167" style="enable-background:new 0 0 280.7 167;" xml:space="preserve">
<style type="text/css">
	.st0{fill:#57AC37;}
	.st1{fill:#19428A;}
	.st2{fill:#FFFFFF;}
</style>
<g>
	<circle class="st0" cx="140.5" cy="45" r="40"/>
	<path class="st1" d="M140.5,90.1c-24.8,0-45-20.2-45-45s20.2-45,45-45s45,20.2,45,45S165.3,90.1,140.5,90.1z M140.5,3
		c-23.2,0-42,18.9-42,42s18.9,42,42,42c23.2,0,42-18.9,42-42S163.6,3,140.5,3z"/>
	<path class="st2" d="M135,70.3c-12.6-0.6-28.9-14.2-23.3-20C117.4,44.6,130.9,58.8,135,70.3z"/>
	<path class="st2" d="M135.4,49.6c-10.2,0.2-24.1-10-19.8-15C119.8,29.7,131.5,40.6,135.4,49.6z"/>
	<path class="st2" d="M135.9,32.2c-7.8-0.3-17.9-8.6-14.5-12.1C124.9,16.5,133.4,25.2,135.9,32.2z"/>
	<path class="st2" d="M146.1,70.3c12.6-0.6,28.9-14.2,23.3-20S150.2,58.8,146.1,70.3z"/>
	<path class="st2" d="M145.7,49.6c10.2,0.2,24.1-10,19.8-15C161.3,29.7,149.6,40.6,145.7,49.6z"/>
	<path class="st2" d="M145.2,32.2c7.8-0.3,17.9-8.6,14.5-12.1C156.2,16.5,147.7,25.2,145.2,32.2z"/>
	<rect x="139.1" y="25.7" class="st2" width="2.7" height="55.8"/>
	<circle class="st2" cx="140.5" cy="17.3" r="4.9"/>
	<path class="st1" d="M167.6,107.7H153c-7.5,0-13.5,6.1-13.5,13.5v2c0,7.5,6.1,13.5,13.5,13.5h2v-7h-2c-3.6,0-6.5-2.9-6.5-6.5v-2
		c0-3.6,2.9-6.5,6.5-6.5h3.8v28.5h7v-28.5h3.8c3.6,0,6.5,2.9,6.5,6.5v2c0,3.6-2.9,6.5-6.5,6.5h-1.4v7h1.4c7.5,0,13.5-6.1,13.5-13.5
		v-2C181.2,113.8,175.1,107.7,167.6,107.7z"/>
	<path class="st0" d="M28.1,107.7H13.5c-7.5,0-13.5,6.1-13.5,13.5v2c0,7.5,6.1,13.5,13.5,13.5h2v-7h-2c-3.6,0-6.5-2.9-6.5-6.5v-2
		c0-3.6,2.9-6.5,6.5-6.5h3.8v28.5h7v-28.5h3.8c3.6,0,6.5,2.9,6.5,6.5v2c0,3.6-2.9,6.5-6.5,6.5h-1.4v7h1.4c7.5,0,13.5-6.1,13.5-13.5
		v-2C41.7,113.8,35.6,107.7,28.1,107.7z M63.5,129.8H56c-2.3,0-4.2-1.9-4.2-4.2v-17.3h-7v17.3c0,6.2,5,11.2,11.2,11.2h14.5v-28.5h-7
		V129.8z M73.9,114.7h9.3v21.6h7v-21.6h8.9v-7H73.9V114.7z M118.2,107.2h-1.6c-8.2,0-14.8,6.6-14.8,14.8v0.5
		c0,8.2,6.6,14.8,14.8,14.8h1.6c8.2,0,14.8-6.6,14.8-14.8V122C133,113.8,126.3,107.2,118.2,107.2z M126,122.5c0,4.3-3.5,7.8-7.8,7.8
		h-1.6c-4.3,0-7.8-3.5-7.8-7.8V122c0-4.3,3.5-7.8,7.8-7.8h1.6c4.3,0,7.8,3.5,7.8,7.8V122.5z"/>
	<path class="st1" d="M195.4,107.7c-7.2,0-13,5.8-13,13v10.6h16.7v-7h-9.7v-3.6c0-3.3,2.7-6,6-6s6,2.7,6,6v22.5h7v-22.5
		C208.4,113.5,202.5,107.7,195.4,107.7z"/>
	<path class="st1" d="M223,107.7h-11.9v35.5h7v-28.5h4.9c4.2,0,7.5,3.4,7.5,7.5s-3.4,7.5-7.5,7.5h-3.1v7h3.1c8,0,14.5-6.5,14.5-14.5
		S231,107.7,223,107.7z"/>
	<path class="st1" d="M251.9,107.7h-12.4v28.6h7v-21.6h5.4c2.5,0,4.5,2,4.5,4.5v17.1h7v-17.1C263.4,112.8,258.2,107.7,251.9,107.7z"
		/>
	<path class="st1" d="M269.2,107.7h-5.7v7h5.7c2.5,0,4.5,2,4.5,4.5v17.1h7v-17.1C280.7,112.8,275.5,107.7,269.2,107.7z"/>
	<g>
		<path class="st1" d="M55.7,166.7l-3.8-12.1h3.1l2.3,8l2.1-8h3.1l2,8l2.3-8h3.2L66,166.7h-3.1l-2.1-7.8l-2.1,7.8H55.7z"/>
		<path class="st1" d="M73.9,166.7L70,154.6h3.1l2.3,8l2.1-8h3.1l2,8l2.3-8h3.2l-3.9,12.1h-3.1l-2.1-7.8l-2.1,7.8H73.9z"/>
		<path class="st1" d="M92.1,166.7l-3.8-12.1h3.1l2.3,8l2.1-8h3.1l2,8l2.3-8h3.2l-3.9,12.1h-3.1l-2.1-7.8l-2.1,7.8H92.1z"/>
		<path class="st1" d="M107.1,166.7v-3.2h3.2v3.2H107.1z"/>
		<path class="st1" d="M112.2,154.6h1.8v-0.9c0-1,0.1-1.8,0.3-2.3s0.6-0.9,1.2-1.2c0.6-0.3,1.3-0.5,2.2-0.5c0.9,0,1.8,0.1,2.7,0.4
			l-0.4,2.2c-0.5-0.1-1-0.2-1.5-0.2c-0.5,0-0.8,0.1-1,0.3c-0.2,0.2-0.3,0.6-0.3,1.3v0.9h2.4v2.5h-2.4v9.6H114v-9.6h-1.8V154.6z"/>
		<path class="st1" d="M121.4,152.9v-3h3.2v3H121.4z M121.4,166.7v-12.1h3.2v12.1H121.4z"/>
		<path class="st1" d="M133.5,154.6v2.6h-2.2v4.9c0,1,0,1.6,0.1,1.7c0,0.2,0.1,0.3,0.3,0.4c0.1,0.1,0.3,0.2,0.5,0.2
			c0.3,0,0.7-0.1,1.3-0.3l0.3,2.5c-0.7,0.3-1.6,0.5-2.5,0.5c-0.6,0-1.1-0.1-1.6-0.3c-0.5-0.2-0.8-0.4-1-0.8s-0.4-0.7-0.5-1.3
			c-0.1-0.4-0.1-1.1-0.1-2.3v-5.3h-1.5v-2.6h1.5v-2.4l3.2-1.9v4.3H133.5z"/>
		<path class="st1" d="M135,160.5c0-1.1,0.3-2.1,0.8-3.1c0.5-1,1.3-1.8,2.2-2.3c1-0.5,2-0.8,3.2-0.8c1.8,0,3.3,0.6,4.5,1.8
			c1.2,1.2,1.8,2.7,1.8,4.5c0,1.8-0.6,3.4-1.8,4.6c-1.2,1.2-2.7,1.8-4.5,1.8c-1.1,0-2.2-0.3-3.2-0.8c-1-0.5-1.8-1.2-2.3-2.2
			C135.2,163,135,161.9,135,160.5z M138.3,160.6c0,1.2,0.3,2.1,0.9,2.8c0.6,0.6,1.3,1,2.1,1s1.5-0.3,2.1-1c0.6-0.6,0.9-1.6,0.9-2.8
			c0-1.2-0.3-2.1-0.9-2.7c-0.6-0.6-1.3-1-2.1-1s-1.5,0.3-2.1,1C138.5,158.5,138.3,159.4,138.3,160.6z"/>
		<path class="st1" d="M148.6,154.6h1.8v-0.9c0-1,0.1-1.8,0.3-2.3c0.2-0.5,0.6-0.9,1.2-1.2c0.6-0.3,1.3-0.5,2.2-0.5
			c0.9,0,1.8,0.1,2.7,0.4l-0.4,2.2c-0.5-0.1-1-0.2-1.5-0.2c-0.5,0-0.8,0.1-1,0.3c-0.2,0.2-0.3,0.6-0.3,1.3v0.9h2.4v2.5h-2.4v9.6
			h-3.2v-9.6h-1.8V154.6z"/>
		<path class="st1" d="M160.2,158.3l-2.9-0.5c0.3-1.2,0.9-2,1.7-2.6c0.8-0.6,2-0.8,3.6-0.8c1.4,0,2.5,0.2,3.2,0.5s1.2,0.8,1.5,1.3
			c0.3,0.5,0.4,1.5,0.4,2.9l0,3.7c0,1.1,0.1,1.9,0.2,2.4c0.1,0.5,0.3,1,0.6,1.6h-3.2c-0.1-0.2-0.2-0.5-0.3-0.9
			c-0.1-0.2-0.1-0.3-0.1-0.4c-0.5,0.5-1.1,0.9-1.8,1.2c-0.6,0.3-1.3,0.4-2,0.4c-1.2,0-2.2-0.3-3-1c-0.7-0.7-1.1-1.5-1.1-2.6
			c0-0.7,0.2-1.3,0.5-1.8c0.3-0.5,0.8-0.9,1.4-1.2c0.6-0.3,1.4-0.5,2.6-0.7c1.5-0.3,2.5-0.5,3.1-0.8v-0.3c0-0.6-0.2-1.1-0.5-1.3
			c-0.3-0.3-0.9-0.4-1.7-0.4c-0.6,0-1,0.1-1.3,0.3S160.4,157.7,160.2,158.3z M164.5,160.9c-0.4,0.1-1.1,0.3-2,0.5s-1.5,0.4-1.7,0.6
			c-0.4,0.3-0.6,0.7-0.6,1.1c0,0.5,0.2,0.8,0.5,1.2c0.3,0.3,0.8,0.5,1.3,0.5c0.6,0,1.1-0.2,1.7-0.6c0.4-0.3,0.6-0.6,0.8-1.1
			c0.1-0.3,0.1-0.8,0.1-1.6V160.9z"/>
		<path class="st1" d="M173.9,166.7h-3.2v-12.1h3v1.7c0.5-0.8,1-1.4,1.4-1.6s0.9-0.4,1.4-0.4c0.7,0,1.4,0.2,2.1,0.6l-1,2.8
			c-0.5-0.4-1-0.5-1.5-0.5c-0.5,0-0.8,0.1-1.1,0.4c-0.3,0.2-0.6,0.7-0.7,1.3c-0.2,0.6-0.3,2-0.3,4.1V166.7z"/>
		<path class="st1" d="M179.7,154.6h3v1.7c1.1-1.3,2.3-1.9,3.8-1.9c0.8,0,1.5,0.2,2,0.5c0.6,0.3,1,0.8,1.4,1.5
			c0.5-0.6,1.1-1.1,1.7-1.5c0.6-0.3,1.3-0.5,2-0.5c0.9,0,1.6,0.2,2.3,0.5c0.6,0.4,1.1,0.9,1.4,1.6c0.2,0.5,0.3,1.4,0.3,2.5v7.8h-3.2
			v-6.9c0-1.2-0.1-2-0.3-2.3c-0.3-0.5-0.8-0.7-1.4-0.7c-0.4,0-0.9,0.1-1.3,0.4s-0.7,0.7-0.9,1.2c-0.2,0.5-0.3,1.4-0.3,2.5v5.8H187
			v-6.7c0-1.2-0.1-1.9-0.2-2.3s-0.3-0.6-0.5-0.8c-0.2-0.2-0.6-0.3-1-0.3c-0.5,0-0.9,0.1-1.3,0.4c-0.4,0.3-0.7,0.7-0.9,1.2
			s-0.3,1.3-0.3,2.5v5.9h-3.2V154.6z"/>
		<path class="st1" d="M200.7,166.7v-3.2h3.2v3.2H200.7z"/>
		<path class="st1" d="M210.3,166.7h-3.2v-12.1h3v1.7c0.5-0.8,1-1.4,1.4-1.6c0.4-0.3,0.9-0.4,1.4-0.4c0.7,0,1.4,0.2,2.1,0.6l-1,2.8
			c-0.5-0.4-1-0.5-1.5-0.5c-0.5,0-0.8,0.1-1.1,0.4c-0.3,0.2-0.6,0.7-0.7,1.3c-0.2,0.6-0.3,2-0.3,4.1V166.7z"/>
		<path class="st1" d="M224.3,166.7v-1.8c-0.4,0.6-1,1.2-1.7,1.5c-0.7,0.4-1.5,0.6-2.3,0.6c-0.8,0-1.5-0.2-2.2-0.5
			c-0.6-0.4-1.1-0.9-1.4-1.5s-0.4-1.5-0.4-2.7v-7.7h3.2v5.6c0,1.7,0.1,2.8,0.2,3.1c0.1,0.4,0.3,0.7,0.6,0.9c0.3,0.2,0.7,0.3,1.2,0.3
			c0.5,0,1-0.2,1.5-0.5c0.4-0.3,0.7-0.7,0.9-1.1s0.2-1.5,0.2-3.3v-5.1h3.2v12.1H224.3z"/>
	</g>
</g>
</svg>
