<?xml version="1.0" encoding="utf-8"?>
<!-- Generator: Adobe Illustrator 26.0.3, SVG Export Plug-In . SVG Version: 6.00 Build 0)  -->
<svg version="1.1" id="Layer_1" xmlns="http://www.w3.org/2000/svg" xmlns:xlink="http://www.w3.org/1999/xlink" x="0px" y="0px"
	 viewBox="0 0 83.7 84.2" style="enable-background:new 0 0 83.7 84.2;" xml:space="preserve">
<style type="text/css">
	.st0{fill:#414C9C;}
	.st1{fill:#E73734;}
	.st2{fill:#00AEEA;}
</style>
<g>
	<path class="st0" d="M63.3,23.5v11.6h-3.5v5h8.5V23.5c0-4.2-3.4-7.7-7.7-7.7H50.1v5h10.5C62.1,20.8,63.3,22,63.3,23.5z M68.3,61
		V42.8h-8.5v5h3.5V61c0,1.5-1.2,2.7-2.7,2.7H33.2l-2.8,5h30.3C64.9,68.6,68.3,65.2,68.3,61z M76,61.9V22.5c0-8-6.5-14.5-14.5-14.5
		H50.1v5h11.4c5.2,0,9.5,4.2,9.5,9.5v39.4c0,5.2-4.2,9.5-9.5,9.5H28.8l-2.8,5h35.6C69.5,76.4,76,69.9,76,61.9z M60.9,0H50.1v5h10.8
		c9.8,0,17.8,8,17.8,17.8v38.6c0,9.8-8,17.8-17.8,17.8H24.4l-2.8,5h39.4c12.6,0,22.8-10.2,22.8-22.8V22.8C83.7,10.2,73.5,0,60.9,0z"
		/>
	<path class="st1" d="M22.9,48.2c0-0.2,24.3-40.3,24.3-40.3v33.3l9.7-14.5V54h-5.3V44L41.1,59.5V43.7L22.9,75.8V48.2z"/>
	<path class="st2" d="M15.5,23.5v60.7h5V23.5c0-1.5,1.2-2.7,2.7-2.7h12.7c1.1-1.7,2.1-3.4,3-5H23.1C18.9,15.8,15.5,19.3,15.5,23.5z
		 M22.8,0C10.2,0,0,10.2,0,22.8v61.4h5V22.8C5,13,13,5,22.8,5h22.6l3-5H22.8z M7.7,22.5v61.7h5V22.5c0-5.2,4.2-9.5,9.5-9.5h18.3
		c1.3-2.1,2.3-3.8,3-5H22.2C14.2,8.1,7.7,14.6,7.7,22.5z"/>
</g>
</svg>
