<?xml version="1.0" encoding="utf-8"?>
<!-- Generator: Adobe Illustrator 26.0.3, SVG Export Plug-In . SVG Version: 6.00 Build 0)  -->
<svg version="1.1" id="Layer_1" xmlns="http://www.w3.org/2000/svg" xmlns:xlink="http://www.w3.org/1999/xlink" x="0px" y="0px"
	 viewBox="0 0 76.4 38.1" style="enable-background:new 0 0 76.4 38.1;" xml:space="preserve">
<style type="text/css">
	.st0{fill:#E60000;}
</style>
<g>
	<path class="st0" d="M32.6,30.9c-1.1,0-2-0.9-2-2V18.7c0-1.1,0.9-2,2-2c1.1,0,2,0.9,2,2v10.2C34.7,29.9,33.8,30.8,32.6,30.9
		 M32.7,9.6c-5.4,0-9.8,4.4-9.8,9.8v8.6c0,5.4,4.4,9.8,9.8,9.8c5.4,0,9.8-4.4,9.8-9.8v-8.6C42.5,14.1,38.1,9.7,32.7,9.6 M54.3,8.4
		h2.1c2,0.2,3.7-1.3,3.9-3.3c0-0.1,0-0.2,0-0.2c0-2-1.7-3.6-3.7-3.5c-0.1,0-0.2,0-0.2,0h-2.1c-5.4,0-9.8,4.3-9.8,9.6c0,0,0,0,0,0.1
		v23c-0.1,2.2,1.5,4,3.7,4.1s4-1.5,4.1-3.7c0-0.1,0-0.3,0-0.4V18.8h2.7c2.2,0,3.9-1.3,3.9-3.5c0-2-1.7-3.6-3.7-3.5
		c-0.1,0-0.2,0-0.2,0h-2.7v-1.2c-0.1-1.1,0.7-2.1,1.8-2.2C54.1,8.4,54.2,8.4,54.3,8.4 M64.4,29.4c-2.4,0-4.3,1.9-4.3,4.3
		c0,2.4,1.9,4.3,4.3,4.3s4.3-1.9,4.3-4.3S66.8,29.4,64.4,29.4L64.4,29.4 M70.4,8.4h2.1c2,0.2,3.7-1.3,3.9-3.3c0-0.1,0-0.2,0-0.2
		c0-2-1.7-3.6-3.7-3.5c-0.1,0-0.2,0-0.2,0h-2.2c-5.4,0-9.8,4.3-9.8,9.6c0,0,0,0,0,0.1v13.2c0.1,2.2,1.9,3.8,4.1,3.7
		c2-0.1,3.6-1.7,3.7-3.7v-5.4H71c2.2,0,3.9-1.3,3.9-3.5c0-2-1.7-3.6-3.7-3.5c-0.1,0-0.2,0-0.2,0h-2.7v-1.2c-0.1-1.1,0.7-2.1,1.8-2.2
		C70.2,8.4,70.3,8.4,70.4,8.4 M17,0c-2.2,0-3.9,1.7-3.9,3.9v7.9H7.8V3.9C7.8,1.8,6.1,0,3.9,0S0,1.8,0,3.9V34c-0.1,2.2,1.5,4,3.7,4.1
		c2.2,0.1,4-1.5,4.1-3.7c0-0.1,0-0.3,0-0.4V18.8h3.3c1.1,0,2,0.9,2,2V34c0,2.2,1.7,3.9,3.9,3.9c2.2,0,3.9-1.7,3.9-3.9V3.9
		C20.9,1.8,19.2,0,17,0C17,0,17,0,17,0"/>
</g>
</svg>
