<?xml version="1.0" encoding="UTF-8"?> <svg xmlns="http://www.w3.org/2000/svg" id="Layer_1" data-name="Layer 1" viewBox="0 0 345 345"> <defs> <style>.cls-1{fill:#7b133a;}.cls-2{fill:#fff;}</style> </defs> <rect class="cls-1" width="345" height="345"></rect> <path class="cls-2" d="M50.57,177.07a9.25,9.25,0,0,1,6.64-2.86,9,9,0,0,1,8.95,7.08H63.41a6.24,6.24,0,0,0-6.2-4.33A6.51,6.51,0,0,0,52.49,179a7.08,7.08,0,0,0,0,9.82,6.61,6.61,0,0,0,11.09-2.52H66.3a9.27,9.27,0,0,1-9.09,7.33,9.13,9.13,0,0,1-6.64-2.86,9.93,9.93,0,0,1,0-13.72Z"></path> <polygon class="cls-2" points="94.02 182.42 102.14 182.42 102.14 174.32 104.94 174.32 104.94 193.51 102.14 193.51 102.14 185.16 94.02 185.16 94.02 193.51 91.24 193.51 91.24 174.32 94.02 174.32 94.02 182.42 94.02 182.42"></polygon> <path class="cls-2" d="M141.88,188.65h-7.79l-1.87,4.86h-3l7.71-19.46h2l7.71,19.46h-3l-1.84-4.86ZM133.51,173h0l3.32-3h2.36l3.27,3h-3l-1.56-1.29-1.4,1.29ZM135.1,186h5.77L138,178.47,135.1,186Z"></path> <polygon class="cls-2" points="173.17 193.51 173.17 176.93 167.35 176.93 167.35 174.29 181.73 174.29 181.73 176.93 175.94 176.93 175.94 193.51 173.17 193.51 173.17 193.51"></polygon> <polygon class="cls-2" points="208.79 190.74 217.71 190.74 217.71 193.51 205.99 193.51 205.99 174.32 217.69 174.32 217.69 177.09 208.79 177.09 208.79 182.5 217.49 182.5 217.49 185.3 208.79 185.3 208.79 190.74 208.79 190.74"></polygon> <path class="cls-2" d="M254,188.65h-7.8l-1.87,4.86h-3L249,174.05h2l7.71,19.46h-3L254,188.65ZM247.19,186H253l-2.88-7.57L247.19,186Z"></path> <path class="cls-2" d="M282.78,187.74V174.32h2.8v13.45c0,2.12,2.28,3.16,4.31,3.16s4.29-1.07,4.29-3.19V174.32H297v13.45c0,3.9-3.78,5.93-7.08,5.93s-7.11-2-7.11-6Z"></path> <path class="cls-2" d="M67.26,209c11.47,0,17.24,8.89,17.24,17.77s-5.77,17.69-17.24,17.69H55.57v17.69H47.82V209Zm0,27.87h0c6.46,0,9.64-5,9.64-10s-3.18-10.1-9.64-10.1H55.57v20.12Z"></path> <polygon class="cls-2" points="139.03 262.13 139.03 208.98 144.95 208.98 170.84 246.42 170.84 208.98 178.44 208.98 178.44 262.13 172.36 262.13 146.7 225 146.7 262.13 139.03 262.13 139.03 262.13"></polygon> <path class="cls-2" d="M201.6,216.12a27.23,27.23,0,0,1,38.8,0,27.69,27.69,0,0,1,0,38.88,27.23,27.23,0,0,1-38.8,0,27.69,27.69,0,0,1,0-38.88Zm33.26,5.54h0a19.54,19.54,0,0,0-13.9-5.84,19.19,19.19,0,0,0-13.74,5.84,19.62,19.62,0,0,0,0,27.79A19.16,19.16,0,0,0,221,255.3a19.76,19.76,0,0,0,13.9-33.64Z"></path> <polygon class="cls-2" points="273.29 262.13 273.29 216.27 257.19 216.27 257.19 208.98 296.97 208.98 296.97 216.27 280.95 216.27 280.95 262.13 273.29 262.13 273.29 262.13"></polygon> <polygon class="cls-2" points="106.66 262.13 114.52 262.13 114.52 208.98 106.66 208.98 106.66 262.13 106.66 262.13"></polygon> <path class="cls-2" d="M147.27,106.3a3.52,3.52,0,0,1-1.12.66,3.67,3.67,0,0,1-1.28.23,3.29,3.29,0,0,1-1.39-.28,3.75,3.75,0,0,1-1.21-.8,3.47,3.47,0,0,1-.73-1.32,5.89,5.89,0,0,1-.29-1.7c0-.14,0-.29,0-.45a6.77,6.77,0,0,1,2.4-4.79,7.32,7.32,0,0,1,4.68-1.77h.38a8.31,8.31,0,0,1,8.24,8.46,13.89,13.89,0,0,1-.92,4.9,12.79,12.79,0,0,1-2.56,4.15l-.07.08a11.81,11.81,0,0,1-9.93,3.43,17.08,17.08,0,0,1-9.79-4.37l-.1-.1a14.55,14.55,0,0,1-3.45-4.91A14.9,14.9,0,0,1,129,101.8a20.74,20.74,0,0,1,5.86-14.4,19.1,19.1,0,0,1,6.35-4.31,19.64,19.64,0,0,1,7.59-1.49,25.7,25.7,0,0,1,17.94,7.33,24.17,24.17,0,0,1,5.42,8,24.52,24.52,0,0,1,1.88,9.49,30.6,30.6,0,0,1-2.39,11.86,30.93,30.93,0,0,1-6.78,10.08,30.59,30.59,0,0,1-10,6.66,31.29,31.29,0,0,1-11.89,2.31,37.71,37.71,0,0,1-14.57-2.92A38.2,38.2,0,0,1,116,126.09a37.92,37.92,0,0,1-11.08-26.93,45.08,45.08,0,0,1,3.58-17.63,46.07,46.07,0,0,1,10.25-15,46.93,46.93,0,0,1,15.24-10,47.91,47.91,0,0,1,18-3.46,59.84,59.84,0,0,1,10.59.89,41.78,41.78,0,0,1,9.88,3c13.89,6.31,19.54,11.51,26.21,24.83-10.79-15-27.61-26.14-46.67-25.77h0a44.89,44.89,0,0,0-16.87,3.24,43.9,43.9,0,0,0-14.29,9.34,43,43,0,0,0-9.58,14,42.26,42.26,0,0,0-3.34,16.48,35.07,35.07,0,0,0,35.06,35.18,28.54,28.54,0,0,0,10.77-2.08,27.65,27.65,0,0,0,9.06-6,28.07,28.07,0,0,0,6.13-9.12A27.66,27.66,0,0,0,171,106.41a21.62,21.62,0,0,0-1.64-8.35,21.19,21.19,0,0,0-4.76-7,22.77,22.77,0,0,0-15.86-6.47,16.81,16.81,0,0,0-6.45,1.25A16.21,16.21,0,0,0,137,89.49a17.37,17.37,0,0,0-3.69,5.65A17.68,17.68,0,0,0,132,101.8a12.24,12.24,0,0,0,.93,4.76,11.77,11.77,0,0,0,2.75,3.92l.09.08a14.22,14.22,0,0,0,7.78,3.57,9,9,0,0,0,7.76-2.49l.06-.06a9.91,9.91,0,0,0,2-3.21,10.89,10.89,0,0,0,.71-3.82,5.79,5.79,0,0,0-1.61-3.92,5.38,5.38,0,0,0-3.72-1.72h-.12a6.27,6.27,0,0,0-3.59,1.37,4,4,0,0,0-1.81,2.71v.06a3,3,0,0,0,.59,2,2.14,2.14,0,0,0,1.68.63c1.3,0,2.14-1.45,2.69-2.45a3.18,3.18,0,0,1-.83,3.1Z"></path> <path class="cls-2" d="M198,130.91c2.56,0,5,1.08,7.36,2.16h0c2.11,1,4.22,1.9,6.17,1.9s4-.93,6.09-1.87l.07,0c2.4-1.08,4.8-2.16,7.36-2.16s5,1.08,7.36,2.16h0c2.11,1,4.22,1.9,6.17,1.9h.61a5.64,5.64,0,0,0-.25.58c-.29.63-1.47,1-3,1.07a11.14,11.14,0,0,1-4.6-.84l-.16-.07c-2.11-1-4.22-1.89-6.17-1.89s-4.05.94-6.16,1.89c-2.4,1.08-4.8,2.16-7.36,2.16s-5-1.08-7.36-2.16h0c-2.11-1-4.22-1.89-6.17-1.89s-4,.94-6.16,1.89c-2.4,1.08-4.8,2.16-7.36,2.16-4.22,0-7.1-2-9.85-3.85a26.75,26.75,0,0,0-3.85-2.34l-1.66-.77H171c2.56,0,5,1.08,7.36,2.16h0c2.11,1,4.22,1.9,6.17,1.9s4-.93,6.1-1.87l.06,0c2.4-1.08,4.8-2.16,7.36-2.16Z"></path> <path class="cls-2" d="M202.5,100.59a11,11,0,0,0,4.25-1.25c2.28-1.23,4.61-3.65,4.95-8.45a48,48,0,0,0,0-6.09v-.16c0-.11.32-6.88,5.05-11l.57-19.83a2.51,2.51,0,0,1-.9-.57,2.53,2.53,0,0,1,0-3.58A2.53,2.53,0,0,1,220,53.26a2.42,2.42,0,0,1-.9.57l.51,18a14.93,14.93,0,0,1,6.2-1.23,15.14,15.14,0,0,1,5.45.94l.69.28.51-18a2.63,2.63,0,0,1-.78-.53,2.53,2.53,0,1,1,3.57,0,2.57,2.57,0,0,1-1,.61l.56,19.75c.28.24.54.48.79.73a14.31,14.31,0,0,1,3,4.63,16.33,16.33,0,0,1,1.29,5.73v.42h0v21c0,11.72-4.48,16.76-11.17,21.92,4.65-6.35,8-12.39,8.2-21.94V85.13h0v-.42a13,13,0,0,0-1-4.56,11.54,11.54,0,0,0-2.42-3.69A9.08,9.08,0,0,0,232,75.22h-.11v-.07a9.09,9.09,0,0,0-1.71-.85,12.33,12.33,0,0,0-4.33-.72c-5.18,0-7.95,2.62-9.43,5.32a15,15,0,0,0-1.71,5.85l0,.43a50.12,50.12,0,0,1,0,5.92c-.85,11.8-11.3,12.44-12.47,12.48l0,0c-5-.48-13.14-1-18.19-1.44l18.52-1.59v0Z"></path> </svg> 