<?xml version="1.0" encoding="utf-8"?>
<!-- Generator: Adobe Illustrator 23.0.0, SVG Export Plug-In . SVG Version: 6.00 Build 0)  -->
<svg version="1.1" id="Слой_1" xmlns="http://www.w3.org/2000/svg" xmlns:xlink="http://www.w3.org/1999/xlink" x="0px" y="0px"
	 viewBox="0 0 150.93 153.08" style="enable-background:new 0 0 150.93 153.08;" xml:space="preserve">
<style type="text/css">
	.st0{fill-rule:evenodd;clip-rule:evenodd;fill:#165B8D;}
	.st1{fill:#165B8D;}
</style>
<g>
	<path class="st0" d="M14.88,141.72h1.47c0.65,0,2.13,0.11,2.13,1.76c0,1.66-1.47,1.76-2.13,1.76h-1.47V141.72L14.88,141.72z
		 M12.39,152.76h2.49v-5.09h1.27c3.91,0,4.82-2.47,4.82-4.16c0-1.27-0.51-4.2-4.82-4.2h-3.76V152.76L12.39,152.76z"/>
	<path class="st0" d="M28.95,150.66c-2.6,0-4.58-2.07-4.58-4.62c0-2.51,1.96-4.56,4.6-4.56c2.64,0,4.6,2.06,4.6,4.56
		C33.57,148.56,31.63,150.66,28.95,150.66L28.95,150.66z M28.97,139.06c-4.02,0-7.09,3.15-7.09,7.04c0,3.89,3.09,6.98,7.09,6.98
		c4,0,7.09-3.09,7.09-6.98C36.06,142.21,32.99,139.06,28.97,139.06L28.97,139.06z"/>
	<path class="st0" d="M47.59,143.15c-0.67-0.85-1.78-1.67-3.38-1.67c-2.69,0-4.56,2.18-4.56,4.55c0,2.53,2,4.64,4.58,4.64
		c1.2,0,2.4-0.47,3.24-1.56h2.89c-1.11,2.36-3.27,3.98-6.2,3.98c-4.71,0-7-3.96-7-7.06c0-3,2.27-6.96,7.04-6.96
		c2.78,0,5.11,1.51,6.24,4.09H47.59L47.59,143.15z"/>
	<polygon class="st0" points="52.03,139.3 55.41,139.3 59.16,149.59 62.91,139.3 66.29,139.3 66.29,152.76 63.8,152.76 63.8,142.68 
		60.21,152.76 58.1,152.76 54.52,142.68 54.52,152.76 52.03,152.76 52.03,139.3 	"/>
	<path class="st0" d="M75.14,150.66c-2.6,0-4.58-2.07-4.58-4.62c0-2.51,1.96-4.56,4.6-4.56c2.64,0,4.6,2.06,4.6,4.56
		C79.76,148.56,77.82,150.66,75.14,150.66L75.14,150.66z M75.16,139.06c-4.02,0-7.09,3.15-7.09,7.04c0,3.89,3.09,6.98,7.09,6.98
		c4,0,7.09-3.09,7.09-6.98C82.25,142.21,79.18,139.06,75.16,139.06L75.16,139.06z"/>
	<path class="st0" d="M86.53,141.72H88c0.65,0,2.13,0.11,2.13,1.76c0,1.66-1.47,1.76-2.13,1.76h-1.47V141.72L86.53,141.72z
		 M84.04,152.76h2.49v-5.09h1.27c3.91,0,4.82-2.47,4.82-4.16c0-1.27-0.51-4.2-4.82-4.2h-3.76V152.76L84.04,152.76z"/>
	<polygon class="st0" points="94.22,139.3 104.11,139.3 104.11,152.76 101.62,152.76 101.62,141.72 96.71,141.72 96.71,152.76 
		94.22,152.76 94.22,139.3 	"/>
	<path class="st0" d="M112.97,150.66c-2.6,0-4.58-2.07-4.58-4.62c0-2.51,1.96-4.56,4.6-4.56c2.64,0,4.6,2.06,4.6,4.56
		C117.59,148.56,115.64,150.66,112.97,150.66L112.97,150.66z M112.99,139.06c-4.02,0-7.09,3.15-7.09,7.04
		c0,3.89,3.09,6.98,7.09,6.98c4,0,7.09-3.09,7.09-6.98C120.08,142.21,117.01,139.06,112.99,139.06L112.99,139.06z"/>
	<path class="st0" d="M124.35,141.72h1.47c0.65,0,2.13,0.11,2.13,1.76c0,1.66-1.47,1.76-2.13,1.76h-1.47V141.72L124.35,141.72z
		 M121.86,152.76h2.49v-5.09h1.27c3.91,0,4.82-2.47,4.82-4.16c0-1.27-0.51-4.2-4.82-4.2h-3.76V152.76L121.86,152.76z"/>
	<polygon class="st0" points="133.39,141.72 130.9,141.72 130.9,139.3 138.38,139.3 138.38,141.72 135.88,141.72 135.88,152.76 
		133.39,152.76 133.39,141.72 	"/>
	<g>
		<g>
			<path class="st1" d="M73.47,113.12c-0.07-3.93-0.68-7.74-2.62-11.23c-2.15-3.87-5.44-6.01-9.86-6.18
				c-6.16-0.24-11.17,2.41-15.56,6.48c-0.32,0.3-0.63,0.64-0.99,0.89c-0.87,0.59-1.92,0.48-2.51-0.21c-0.75-0.87-0.78-2.03,0.03-2.8
				c2.32-2.22,4.33-4.64,5.86-7.48c4.18-7.77,1.24-14.75-6.12-18.63c-3.58-1.89-7.42-2.72-11.45-2.69
				c-1.29,0.01-2.03-0.57-2.14-1.61c-0.15-1.42,0.48-2.13,1.94-2.19c3.47-0.13,6.87-0.62,10.06-2.04c4.5-2,8.2-4.83,9.38-9.94
				c0.86-3.76-0.09-7.26-2.18-10.38c-1.49-2.23-3.37-4.2-5.02-6.33c-0.42-0.55-0.89-1.32-0.8-1.91c0.09-0.59,0.76-1.29,1.35-1.54
				c0.46-0.19,1.29,0.09,1.76,0.42c1.89,1.36,3.6,2.97,5.56,4.2c3.21,2.02,6.77,3.27,10.62,3.09c4.6-0.22,8.09-2.38,10.25-6.51
				c1.73-3.32,2.39-6.9,2.45-10.6c0.01-0.59-0.01-1.19,0.01-1.78c0.05-1.79,1.35-2.69,2.94-1.9c0.42,0.21,0.7,0.98,0.78,1.53
				c0.45,3.14,0.62,6.33,1.29,9.42c0.61,2.81,2.08,5.32,4.39,7.18c3.75,3.01,7.99,3.24,12.41,1.98c4.08-1.16,7.55-3.38,10.61-6.29
				c1.14-1.08,2.06-1.21,2.87-0.37c1.04,1.08,1,1.93-0.22,3.15c-2.67,2.66-5.01,5.55-6.43,9.1c-2.24,5.59-0.84,10.95,3.9,14.7
				c3.73,2.95,8.04,4.32,12.72,4.68c0.78,0.06,1.55,0.12,2.33,0.18c1.17,0.08,1.67,0.66,1.64,1.91c-0.02,1.11-0.7,1.89-1.77,1.87
				c-2.81-0.06-5.54,0.34-8.21,1.2c-3.6,1.16-6.8,2.98-9.13,6.04c-3.16,4.15-3.18,8.6-1.03,13.19c1.49,3.16,3.65,5.82,6.15,8.23
				c1.18,1.14,1,2.6-0.3,3.32c-0.86,0.47-1.5,0.16-2.21-0.38c-2.14-1.64-4.2-3.44-6.53-4.76c-3.94-2.22-8.22-3.15-12.73-1.9
				c-3.17,0.88-5.45,2.93-6.99,5.77c-1.69,3.11-2.41,6.5-2.52,10.03c-0.04,1.14-0.12,2.29-0.21,3.43c-0.08,0.96-0.77,1.3-1.61,1.38
				c-1.03,0.1-1.9-0.52-2.07-1.45c-0.07-0.36-0.05-0.74-0.05-1.11C73.46,113.86,73.47,113.49,73.47,113.12z M75.44,62.34
				c-3.04-0.35-7.08,2.51-7.13,6.97c-0.04,3.81,3.26,7.21,6.98,7.24c3.77,0.03,7.25-3.33,7.26-7
				C82.57,65.49,79.45,62.33,75.44,62.34z M72.05,91.97c-0.03-3.62,0.3-7.13-0.46-10.59c-0.27-1.24-1.09-1.53-2.17-0.73
				c-1.36,1.01-2.64,2.14-3.88,3.3c-1.26,1.17-2.43,2.43-3.72,3.74C64.97,89.96,68.2,91.45,72.05,91.97z M57.27,55.86
				c-0.25,0.12-0.34,0.13-0.38,0.18c-2.03,2.76-3.26,5.86-3.96,9.19c-0.15,0.73,0.34,0.68,0.8,0.68c2.19,0,4.37,0.05,6.56-0.01
				c1.06-0.03,2.14-0.19,3.18-0.43c1.17-0.27,1.51-0.99,0.8-1.95c-1.14-1.53-2.43-2.96-3.72-4.38C59.48,58,58.33,56.92,57.27,55.86z
				 M56.94,83.06c1.91-1.94,3.57-3.58,5.17-5.27c0.69-0.72,1.32-1.5,1.88-2.32c0.97-1.42,0.67-2.28-1.04-2.43
				c-3.13-0.27-6.28-0.3-9.42-0.43c-0.66-0.03-0.73,0.34-0.58,0.87c0.38,1.35,0.6,2.77,1.15,4.05
				C54.89,79.36,55.9,81.06,56.94,83.06z M93.46,55.61c-0.72,0.85-1.35,1.67-2.05,2.43c-1.51,1.67-3.13,3.25-4.56,4.98
				c-1.17,1.41-0.81,2.39,1.01,2.53c3.27,0.25,6.56,0.23,9.84,0.31c0.06,0,0.11-0.08,0.17-0.13C97.6,62.57,95.71,58.05,93.46,55.61z
				 M78.66,92c3.77-0.53,6.87-1.91,9.75-3.86c0.54-0.37,0.45-0.66,0.04-1.04c-1.86-1.79-3.69-3.61-5.59-5.37
				c-0.59-0.54-1.33-0.93-2.03-1.33c-0.65-0.37-1.14-0.11-1.43,0.54c-0.16,0.37-0.34,0.77-0.36,1.16
				C78.9,85.32,78.78,88.56,78.66,92z M71.86,46.73c-3.43,0.53-6.48,1.77-9.25,3.71c-0.45,0.32-0.6,0.64-0.14,1.07
				c2.28,2.11,4.5,4.29,6.86,6.3c1.33,1.14,2.24,0.77,2.36-0.95c0.23-3.24,0.24-6.5,0.33-9.75C72.03,47.01,71.94,46.91,71.86,46.73z
				 M98.01,72.67c-3.47-0.11-6.82-0.22-10.14,0.35c-1.73,0.3-2.09,1.18-0.97,2.54c1.4,1.71,2.96,3.28,4.48,4.89
				c0.75,0.79,1.55,1.54,2.42,2.4C96.05,79.73,97.42,76.45,98.01,72.67z M78.84,46.76c-0.03,0.44-0.08,0.83-0.07,1.23
				c0.06,2.63,0.07,5.26,0.25,7.87c0.06,0.85,0.59,1.66,0.91,2.49c0.75-0.33,1.64-0.5,2.23-1.02c1.75-1.54,3.39-3.2,5.06-4.83
				c0.52-0.5,1.01-1.03,1.51-1.55C86.8,49.08,82.08,47.06,78.84,46.76z"/>
			<path class="st1" d="M150.78,83.26c-1.78-0.53-3.47-1.03-5.32-1.58c-0.04,0.52-0.08,0.9-0.09,1.29
				c-0.06,1.96-0.11,3.92-0.18,5.89c-0.09,2.59-1.24,4.76-2.79,6.76c-3.65,4.71-5.88,9.94-5.55,16c0.08,1.53,0.57,3.03,0.85,4.43
				c-1.28-0.23-2.74-0.66-4.22-0.74c-5.91-0.29-11.25,1.56-15.81,5.19c-3.51,2.79-7.3,3.52-11.55,3.1
				c-0.83-0.08-1.68-0.01-2.75-0.01c0.5,1.81,0.97,3.49,1.5,5.39c-10.61,0.14-20.3-2.15-28.76-9.08c1.37-0.27,2.56-0.44,3.71-0.75
				c3.95-1.06,7.4-3.16,10.83-5.3c2.67-1.66,5.42-3.19,8.12-4.79c0.85-0.51,1.4-0.22,1.56,0.64c0.25,1.34,0.36,2.7,0.54,4.05
				c0.07,0.51,0.16,1.01,0.26,1.61c0.33-0.13,0.58-0.19,0.78-0.32c3.69-2.29,6.98-5.05,9.28-8.77c1.46-2.35,2.53-4.87,1.78-7.78
				c-0.51-1.98-1.71-3.5-3.11-4.91c-1.96-1.97-3.87-4-5.92-5.87c-1.14-1.03-1.39-2.17-1.18-3.56c0.35-2.28,1.37-4.19,3.11-5.87
				c2.8,2.82,5.56,5.61,8.34,8.38c0.97,0.97,1.9,1.99,2.98,2.83c2.71,2.12,5.72,2.32,8.79,0.94c4.88-2.2,8.24-6.05,11.02-10.48
				c0.07-0.12,0.09-0.27,0.2-0.65c-0.89-0.11-1.71-0.2-2.52-0.3c-0.95-0.12-1.92-0.15-2.85-0.37c-1.18-0.27-1.4-0.81-0.78-1.85
				c2.1-3.53,4.24-7.04,6.37-10.55c2.19-3.6,3.96-7.36,4.46-11.64C146.64,57.58,151.9,74.52,150.78,83.26z"/>
			<path class="st1" d="M45.91,128.99c0.56-1.88,1.05-3.56,1.59-5.38c-1.1,0-2.02-0.08-2.93,0.01c-4.3,0.42-8.05-0.48-11.61-3.26
				c-5-3.9-10.83-5.72-17.29-4.91c-0.47,0.06-0.94,0.22-1.4,0.36c-0.45,0.14-0.89,0.33-1.37,0.5c0.32-1.18,0.74-2.28,0.92-3.41
				c0.81-5.21-0.78-9.88-3.35-14.29c-0.83-1.43-1.92-2.71-2.87-4.08c-1.53-2.2-2.11-4.7-2.16-7.34c-0.03-1.78-0.01-3.55-0.01-5.53
				C3.61,82.2,1.9,82.7,0.02,83.26c-0.25-10.58,2-20.26,8.79-28.87c0.17,0.83,0.31,1.47,0.44,2.12c0.94,4.47,3.22,8.33,5.6,12.14
				c1.61,2.57,3.21,5.16,4.73,7.78c0.9,1.56,0.51,2.2-1.3,2.39c-1.18,0.12-2.36,0.22-3.53,0.34c-0.35,0.04-0.7,0.14-1.34,0.27
				c0.97,1.39,1.78,2.65,2.69,3.83c2.06,2.66,4.47,4.96,7.44,6.58c3.88,2.12,7.81,2.09,11.18-1.28c3.38-3.38,6.74-6.78,10.1-10.16
				c2.03,1.15,3.7,5.02,3.17,7.86c-0.06,0.33-0.36,0.64-0.61,0.89c-2.22,2.23-4.46,4.45-6.68,6.68c-1.35,1.36-2.46,2.86-2.89,4.78
				c-0.6,2.68,0.27,5.06,1.6,7.29c2.44,4.12,6.03,7.02,10.28,9.62c0.16-1.37,0.33-2.52,0.43-3.67c0.35-3.77,0.69-3.64,3.4-2.05
				c3.07,1.79,6.06,3.7,9.1,5.55c3.15,1.91,6.45,3.48,10.1,4.2c0.57,0.11,1.15,0.16,2.06,0.28
				C66.22,126.85,56.52,129.13,45.91,128.99z"/>
			<path class="st1" d="M104.88,17.91c1.41-1.46,2.67-2.71,3.85-4.03c0.21-0.23,0.22-0.77,0.13-1.11
				c-1.14-4.32,0.05-7.91,3.39-10.78c3.21-2.76,9.27-2.57,12.48,0.3c4.02,3.61,4.62,9.43,1.4,13.65c-2.33,3.07-6.5,4.48-10.35,3.43
				c-0.77-0.21-1.22-0.05-1.74,0.49c-1.13,1.17-2.33,2.27-3.6,3.49c1.55,1.57,2.98,3.01,4.41,4.44c2.93,2.94,5.88,5.86,8.81,8.81
				c1.41,1.43,1.29,3.73-0.24,5.17c-1.53,1.45-3.86,1.35-5.36-0.16c-4.15-4.18-8.32-8.34-12.49-12.51c-0.1-0.1-0.23-0.17-0.2-0.15
				c-2.55,2.46-5.07,4.85-7.56,7.29c-1.56,1.53-3.06,3.12-4.61,4.66c-0.18,0.18-0.43,0.3-0.67,0.38c-2.33,0.7-6.7-0.42-8.65-2.28
				c1.24-1.25,2.49-2.5,3.72-3.76c3.69-3.75,7.36-7.52,11.07-11.24c0.65-0.66,0.65-1.04-0.01-1.69c-4.04-3.98-8.03-8.01-12.04-12.03
				c-1.57-1.57-1.65-3.79-0.23-5.27c1.52-1.59,3.83-1.65,5.46-0.05c2.75,2.7,5.45,5.45,8.18,8.18
				C101.57,14.68,103.13,16.2,104.88,17.91z M118.33,15.22c2.92-0.01,5.42-2.5,5.4-5.38c-0.02-2.83-2.53-5.27-5.34-5.34
				c-3.09-0.08-5.46,2.51-5.47,5.37C112.91,12.77,115.43,15.23,118.33,15.22z"/>
			<path class="st1" d="M40.4,23.26c-1.37-1.29-2.63-2.54-3.97-3.71c-0.25-0.22-0.81-0.27-1.17-0.18
				c-4.94,1.21-9.53-0.85-11.65-5.27c-2.83-5.88,0.8-13.04,7.21-13.97c7.04-1.03,11.57,4.24,11.59,9.84c0,0.84-0.13,1.71-0.41,2.5
				c-0.29,0.8-0.11,1.3,0.47,1.84c0.97,0.91,1.92,1.86,2.83,2.84c0.5,0.54,0.82,0.53,1.34,0.01c3.71-3.69,7.44-7.34,11.17-11.01
				c0.4-0.39,0.79-0.79,1.18-1.18c1.36-1.4,3.86-1.51,5.23-0.22c1.57,1.48,1.68,3.86,0.19,5.37c-3.54,3.58-7.11,7.15-10.69,10.7
				c-0.76,0.75-1.59,1.42-2.49,2.2c5.41,5.51,10.56,10.76,15.76,16.06c-1.66,1.48-3.59,2.1-5.7,2.26c-0.04,0-0.08-0.01-0.11,0
				c-2.22,0.38-3.82-0.48-5.33-2.15c-2.94-3.23-6.08-6.28-9.14-9.4c-0.31-0.31-0.64-0.61-1.19-1.12c-1.78,1.85-3.49,3.68-5.25,5.46
				c-2.47,2.51-4.96,5-7.47,7.48c-1.44,1.42-3.55,1.62-4.96,0.55c-1.53-1.16-2.06-3.15-1.2-4.74c0.27-0.51,0.72-0.94,1.13-1.35
				c3.93-3.94,7.87-7.87,11.8-11.8C39.79,24.03,39.98,23.76,40.4,23.26z M32.53,15.21c2.95-0.01,5.34-2.41,5.36-5.39
				c0.02-2.9-2.45-5.3-5.44-5.31c-2.57-0.02-5.19,2.03-5.31,5.34C27.03,12.72,29.61,15.21,32.53,15.21z"/>
		</g>
	</g>
</g>
</svg>
