<?xml version="1.0" encoding="utf-8"?>
<!-- Generator: Adobe Illustrator 26.0.3, SVG Export Plug-In . SVG Version: 6.00 Build 0)  -->
<svg version="1.1" id="Layer_1" xmlns="http://www.w3.org/2000/svg" xmlns:xlink="http://www.w3.org/1999/xlink" x="0px" y="0px"
	 viewBox="0 0 241 241" style="enable-background:new 0 0 241 241;" xml:space="preserve">
<style type="text/css">
	.st0{fill:#FFFFFF;}
</style>
<g>
	<circle cx="120.5" cy="120.5" r="120.5"/>
	<circle class="st0" cx="120.5" cy="120.5" r="115.3"/>
	<circle cx="120.5" cy="119.1" r="108.2"/>
	<path class="st0" d="M68.1,66.1c0.7,0.2,1.4,0.2,2,0.2c1.5,0,3-0.4,4.3-1.2c0.6-0.4,0.9-1.3,0.7-1.9c-0.1-0.2-0.3-0.4-0.4-0.4
		c-0.2-0.1-0.4-0.1-0.5,0c-0.2,0.1-0.3,0.2-0.4,0.3l-0.1,0.1c-1.3,0.8-2.6,1.2-3.9,1.1c-1.7-0.1-2.9-0.9-3.7-2.4
		c-0.6-1.2-0.7-2.5-0.8-4.1l0-0.3c0-0.3,0-0.5,0-0.8c0.1-1.4,0.4-2.4,1-3.3c1-1.6,2.9-2.3,4.9-2c0.9,0.2,1.7,0.5,2.4,1
		c0.2,0.1,0.5,0.3,0.8,0.2c0.3-0.1,0.5-0.5,0.5-0.7c0.3-0.9,0.1-1.3-0.7-1.7c-1.6-0.9-3.4-1.2-5.4-0.9c-2.8,0.4-4.7,2.1-5.5,5
		c-0.7,2.4-0.7,4.8,0,7.3C64.2,64,65.7,65.6,68.1,66.1z M46.3,84.3c0.2,0,0.4,0,0.7,0l150.9,0l0.3,0c0.1,0,0.2,0,0.3,0
		c0.2,0,0.4,0,0.6,0c0.7-0.1,1.2-0.6,1.3-1.3c0-0.7-0.5-1.3-1.2-1.4c-0.3,0-0.6,0-0.9,0l-0.2,0l-149.5,0l-1.8,0c-0.2,0-0.3,0-0.5,0
		c-0.8,0.1-1.3,0.7-1.2,1.4C45,83.7,45.6,84.2,46.3,84.3z M159.3,135.2l1.2,0c1.3,0,2.6,0.1,3.8,0.1c0,0,0.1,0,0.1,0
		c1.8,0,3.6-0.2,5.2-0.7c2-0.6,3.4-1.5,4.4-2.8c1.3-1.6,1.8-3.6,1.6-6c-0.3-3.1-2.1-5.3-5.2-6.2c-0.1,0-0.1,0-0.2,0
		c1.2-0.7,2-1.7,2.6-2.9c0.7-1.5,0.9-3.2,0.7-5.1c-0.3-2.5-1.6-4.2-4-5.2c-1.6-0.7-3.2-0.8-4.5-0.8c-1.5,0-2.8,0-4.3,0l-1.5,0
		c-1,0-1.3,0.2-1.3,1.3l0,14.2l0,0l0,12.7C158,135,158.2,135.2,159.3,135.2z M161.3,114.1L161.3,114.1l0.1-1.9c0-1.1,0-2.2,0-3.3
		c0-0.1,0-0.1,0-0.2c0.1,0,0.1,0,0.1,0c0.5,0,1,0,1.5,0c1.2,0,2.5,0,3.8,0.1c2,0.2,3.2,1.5,3.5,3.5c0.2,2.1-0.2,3.7-1.4,4.9
		c-1,0.9-2.1,1.4-3.3,1.4c-0.8,0-1.6,0-2.4,0l-1.5,0c-0.1,0-0.2,0-0.3,0c0-0.1,0-0.2,0-0.3V114.1z M161.3,121.6c0.7,0,1.3,0,2,0
		c1.3,0,2.7,0,4,0.1c1,0.1,2.1,0.4,3.1,1.1c1.4,0.9,2.1,2.4,1.9,4.3c-0.1,2.2-1.3,3.7-3.5,4.6c-1.1,0.4-2.2,0.6-3.3,0.7
		c-1.4,0-2.7,0-4.1,0c0,0-0.1,0-0.1,0c0-0.1,0-0.1,0-0.2c0-1.3,0-2.5,0-3.8l0-1.4l0-0.5l0-0.9C161.3,124.3,161.3,123,161.3,121.6
		C161.3,121.6,161.3,121.6,161.3,121.6z M148.9,64.9c0,1.1,0.2,1.4,1.3,1.4l2.7,0l1.2,0l0.9,0c0.3,0,0.6,0,0.8,0c0.5,0,0.9,0,1.4,0
		c0.9,0,1-0.6,1.1-1.2c0-0.3-0.1-0.6-0.2-0.7c-0.3-0.3-0.7-0.3-0.9-0.3c-0.1,0-0.3,0-0.4,0l-1.4,0c-1.3,0-2.7,0-4,0
		c-0.1,0-0.2,0-0.2,0c0-0.1,0-0.1,0-0.2c0-1.7,0-3.3,0-5c0-0.1,0-0.2,0-0.3c0.1,0,0.2,0,0.3,0l4.4,0c0.3,0,0.8,0,1.1-0.7
		c0.1-0.3,0.2-0.7-0.1-1.1c-0.3-0.4-0.7-0.4-1-0.4c-1.6,0-3.1,0-4.7,0c0,0,0,0-0.1,0c0-1.7,0-3.3,0-5c0.2,0,0.4,0,0.6,0l0.5,0l4.9,0
		c0.3,0,0.9,0,1.1-0.7c0.1-0.3,0.2-0.8,0-1.1c-0.3-0.4-0.7-0.4-1-0.4c-2.1,0-4.2,0-6.3,0l-0.7,0c-1.1,0-1.3,0.2-1.3,1.3l0,9.3
		L148.9,64.9z M170.2,66.2C170.2,66.2,170.2,66.2,170.2,66.2c1.3,0,2.7,0,4,0c1.1,0,2.3,0,3.4,0c1,0,1-0.8,1.1-1.2
		c0-0.3-0.1-0.6-0.2-0.7c-0.3-0.3-0.7-0.3-0.8-0.2c-0.1,0-0.3,0-0.5,0l-1.6,0c-1.3,0-2.7,0-4,0c0,0-0.1,0-0.1,0c0,0,0,0,0-0.1
		c0-1,0-2,0-3c0-0.8,0-1.6,0-2.3c0,0,0-0.1,0-0.1c0,0,0.1,0,0.1,0c0.1,0,0.3,0,0.4,0l1,0c1,0,2.1,0,3.1,0c0.2,0,1,0,1.1-0.8
		c0.1-0.3,0.1-0.7-0.1-1c-0.2-0.3-0.6-0.3-0.9-0.3c-1.6,0-3.1,0-4.7,0c0,0,0,0-0.1,0c0-1.7,0-3.3,0-5c0.2,0,0.3,0,0.5,0l0.4,0l5,0
		c0.3,0,0.9,0,1.1-0.7c0.1-0.3,0.2-0.7,0-1.1c-0.3-0.4-0.8-0.4-1-0.4c-2.3,0-4.7,0-7,0c-1.1,0-1.3,0.2-1.3,1.3l0,14.4l0,0.1
		c0,0.2,0,0.6,0.2,0.9C169.6,66.1,169.9,66.2,170.2,66.2z M90,66.2c0.5,0.1,1.1,0.1,1.7,0.1c0.4,0,0.8,0,1.3-0.1
		c2.5-0.3,4.3-1.6,5.3-3.9c0.7-1.5,0.9-3.1,1-4.6l0-0.1l0-0.1c-0.1-0.4-0.1-0.8-0.2-1.1c-0.1-0.9-0.2-1.7-0.5-2.6
		c-0.7-2.6-2.5-4.2-5-4.7c-0.8-0.1-1.6-0.2-2.5-0.1c-3,0.2-5.3,2-6.1,4.9c-0.8,2.6-0.7,5.3,0.1,7.8C86,64.3,87.7,65.8,90,66.2z
		 M87.3,54.6c0.5-1.9,1.9-3.2,3.9-3.4c1.3-0.2,2.4,0,3.3,0.6c1.1,0.6,1.8,1.7,2.1,3.2c0.1,0.6,0.2,1.2,0.3,1.9
		c0,0.3,0.1,0.6,0.1,0.9c0,0.3-0.1,0.6-0.1,0.9c-0.1,0.7-0.2,1.4-0.4,2.1c-0.9,3.5-3.8,3.6-5.5,3.4c-1.9-0.2-3.1-1.4-3.7-3.3
		C86.8,58.9,86.8,56.8,87.3,54.6z M130.6,66.2c0.1,0,0.2,0,0.3,0c0.3,0,0.6,0,0.8-0.2c0.3-0.3,0.3-0.6,0.3-1.1l0-1.7
		c0-1.3,0-2.6,0-3.9l0-0.3c0-0.1,0-0.2,0-0.2c0.1,0,0.2,0,0.3,0l0.2,0c1.3,0,2.6,0,3.9,0c0.2,0,1,0,1.1-0.8c0-0.3,0.1-0.7-0.1-1
		c-0.2-0.3-0.6-0.3-1-0.3l-1.7,0c-0.8,0-1.6,0-2.3,0c-0.1,0-0.2,0-0.4,0c0-0.1,0-0.1,0-0.2c0-1.7,0-3.3,0-5c0,0,0-0.1,0-0.1
		c0.1,0,0.1,0,0.1,0c1.2,0,2.4,0,3.7,0l1,0c0.3,0,0.6,0,0.9,0c0.5,0,0.9-0.3,1-0.8c0.1-0.4,0.1-0.8-0.1-1.1c-0.2-0.3-0.6-0.3-1-0.3
		c-2.2,0-4.4,0-6.6,0c-1.1,0-1.3,0.2-1.3,1.3l0,7.2l0,1.4c0,1.1,0,2.3,0,3.4c0,0.9,0,1.8,0,2.6c0,0.1,0,0.5,0.2,0.7
		C130.1,66.2,130.5,66.2,130.6,66.2z M110.5,58.2l0,6c0,0.1,0,0.2,0,0.4c0,0.3,0,0.5,0,0.8c0,0.3,0.2,0.7,0.5,0.8
		c0.2,0.1,0.4,0.1,0.6,0.1c0.2,0,0.4-0.1,0.6-0.2c0.3-0.2,0.5-0.6,0.5-1.1l0-2.5c0-1.2,0-2.4,0-3.6c0,0,0-0.1,0-0.2c0,0,0.1,0,0.1,0
		c0.2,0,0.3,0,0.5,0l1.3,0c0.8,0,1.7,0,2.5,0c1,0,1.1-0.6,1.1-1.2c0-0.3-0.1-0.5-0.2-0.7c-0.2-0.2-0.6-0.2-0.8-0.2l-0.1,0
		c-0.1,0-0.2,0-0.3,0l-4,0c0,0-0.1,0-0.1,0c0-1.8,0-3.5,0-5.3c0.3,0,0.5,0,0.8,0c0.2,0,0.5,0,0.7,0c1.4,0,2.7,0,4.1,0
		c0.2,0,1,0,1.1-0.8c0.1-0.4,0.1-0.7-0.1-1c-0.2-0.3-0.6-0.3-1-0.3c-2.2,0-4.4,0-6.7,0c-0.5,0-0.8,0-1,0.2c-0.2,0.2-0.2,0.6-0.2,1
		L110.5,58.2L110.5,58.2z M84.5,120.9l0-14.3c0-0.3-0.1-0.5-0.2-0.6c-0.1-0.1-0.3-0.2-0.6-0.2l-1.6,0c0,0,0,0,0,0
		c-0.3,0-0.5,0.1-0.6,0.2c-0.2,0.2-0.2,0.4-0.2,0.7l0,0.5l0,11.1l0,0.2c0,0.1,0,0.2,0,0.3c0,0-0.1,0-0.1,0c-0.1,0-0.1,0-0.2,0l-15,0
		c-0.1,0-0.2,0-0.3,0c0-0.1,0-0.2,0-0.3l0-9.8c0-0.6,0-1.3,0-1.9c0-0.3,0-0.6-0.3-0.8c-0.2-0.2-0.4-0.3-0.8-0.2c-0.3,0-0.6,0-1,0
		l-0.4,0c-0.3,0-0.6,0.1-0.7,0.3c-0.1,0.1-0.2,0.3-0.2,0.7c0,0.1,0,0.2,0,0.3l0,0.2l0,26.8c0,1.1,0.2,1.3,1.3,1.3h0.6
		c0.5,0,0.8,0,1.1-0.3c0.2-0.2,0.2-0.6,0.2-1.1l-0.1-11.8c0-0.1,0-0.2,0-0.3c0.1,0,0.2,0,0.2,0c5.1,0,10.1,0,15.2,0
		c0.1,0,0.2,0,0.3,0c0,0.1,0,0.2,0,0.3l-0.1,11c0,1.1,0,1.6,0.4,1.9c0.2,0.2,0.5,0.3,0.9,0.3c0.3,0,0.6,0,1-0.1l0.3,0L84,135
		c0.1-0.1,0.3-0.2,0.4-0.5c0.1-0.2,0.1-0.4,0.1-0.6l0-0.1L84.5,120.9L84.5,120.9z M150.3,178.6c0-0.7-0.2-1.1-1.1-1.2
		c-0.3,0-0.6,0-0.9,0.2c-0.3,0.3-0.3,0.6-0.3,0.9l0,4.1c0,1.6,0,3.2,0,4.9c0,0.4,0,0.8-0.1,1.2c-0.2,1.4-0.9,2.3-2.1,2.6
		c-1.1,0.4-2.2,0.4-3.3,0c-0.7-0.2-1.2-0.6-1.5-1.2c-0.4-0.7-0.6-1.5-0.6-2.6c0-2,0-4,0-6l0-3c0-0.4,0-0.7-0.3-1
		c-0.3-0.3-0.6-0.2-1-0.2c-0.3,0-0.6,0.1-0.7,0.3c-0.3,0.3-0.2,0.6-0.2,0.9l0,0.1c0,3.1,0,6.1,0,9.2c0,0.4,0,0.9,0.1,1.4
		c0.4,2.2,1.8,3.8,3.9,4.3c0.6,0.2,1.3,0.2,1.9,0.2c0.6,0,1.2-0.1,1.7-0.2c2.1-0.5,3.4-1.7,3.9-3.7c0.2-0.6,0.3-1.4,0.3-2.1
		c0-1,0-2,0-3.1l0-0.7l0-1.9C150.3,180.9,150.3,179.7,150.3,178.6z M168.8,177.9L168.8,177.9c-0.8-0.3-1.8-0.4-2.4-0.4
		c-0.8,0-1.6,0-2.4,0c-0.3,0-0.6,0-0.9,0c-1,0-1.3,0.2-1.3,1.3l0,13.6l0,0.2c0,0.2,0,0.3,0,0.5c0,0.2,0.2,0.5,0.4,0.6
		c0.2,0.1,0.4,0.2,0.6,0.2c0.2,0,0.4-0.1,0.6-0.2c0.4-0.2,0.6-0.6,0.6-1.1c0-0.7,0-1.3,0-2c0-0.7,0-1.5,0-2.2c0,0,0-0.1,0-0.2
		c0.1,0,0.2,0,0.2,0c0.2,0,0.4,0,0.7,0c0.6,0,1.2,0,1.8-0.1c2.1-0.3,3.6-1.4,4.3-3.3c0.4-1,0.5-2.2,0.3-3.4
		C171,179.6,170.2,178.4,168.8,177.9z M168.9,183.6c-0.3,1.3-1.5,2.3-2.9,2.3c-0.6,0-1.2,0-1.8,0c0,0-0.1,0-0.1,0c0,0,0-0.1,0-0.1
		c0-0.7,0-1.5,0-2.2l0-0.4h0.1l0-1.4c0-0.7,0-1.5,0-2.2c0,0,0-0.1,0-0.1c0,0,0,0,0.1,0c0.4,0,0.7,0,1.1,0c0.4,0,0.8,0,1.1,0
		c1.8,0.1,2.7,1,2.7,2.8C169.1,182.7,169,183.2,168.9,183.6z M199.6,159L199.6,159c-0.3,0-0.6,0-0.9,0l-0.2,0l-76.5,0l-76.6,0
		l-0.1,0c-0.2,0-0.4,0-0.7,0c-0.7,0.1-1.2,0.6-1.3,1.3c0,0.7,0.5,1.3,1.2,1.4c0.2,0,0.5,0,0.8,0l153.1,0c0.1,0,0.1,0,0.2,0
		c0.1,0,0.3,0,0.4,0c0.1,0,0.3,0,0.5-0.1c0.7-0.2,1.1-0.7,1.1-1.4C200.8,159.7,200.3,159.1,199.6,159z M128,182.3
		c-0.6-2.5-2-4-4.2-4.7h0c-1.2-0.4-2.5-0.4-3.9-0.2c-2.4,0.4-4,1.8-4.8,4c-0.9,2.5-1,5.1-0.2,7.9c0.7,2.2,2.2,3.7,4.3,4.2
		c0.7,0.2,1.4,0.2,2.1,0.2c0.3,0,0.6,0,0.9,0c2.7-0.3,4.7-1.8,5.6-4.5c0.4-1.3,0.6-2.6,0.6-4.4c0-0.1,0-0.3-0.1-0.5
		C128.2,183.7,128.1,183,128,182.3z M126,186.5c-0.1,0.7-0.2,1.4-0.4,2.2c-0.9,3.1-3.6,3.2-5.1,3c-1.7-0.2-2.9-1.2-3.4-2.9
		c-0.7-2.1-0.7-4.3-0.1-6.3c0.6-2.1,2.1-3.2,4.3-3.2c0.2,0,0.4,0,0.6,0c2.3,0.2,3.5,1.5,4,4c0.1,0.5,0.1,0.9,0.2,1.5
		c0,0.3,0,0.6,0.1,0.9C126.1,186,126,186.2,126,186.5z M129.4,134c0,0.5,0,0.8,0.2,1c0.2,0.2,0.5,0.2,0.9,0.2l0.2,0l2.9,0
		c3.3,0,6.7,0,10,0c0.2,0,0.3,0,0.4,0c0,0,0.1,0,0.1,0c1,0,1.1-0.4,1.2-1.5l0-0.2c0.1-0.5,0.1-0.9-0.2-1.2c-0.3-0.3-0.6-0.3-1.1-0.3
		c-3.8,0-7.5,0.1-11.3,0.1c-0.1,0-0.2,0-0.3,0c0-0.1,0-0.2,0-0.3c0-3.3,0-6.7,0-10c0-0.1,0-0.3,0-0.4c0.1,0,0.3,0,0.4,0l8,0
		c0.8,0,1.3,0,1.7-0.4c0.3-0.4,0.4-0.9,0.4-1.7c0-0.3-0.1-0.6-0.3-0.7c-0.2-0.2-0.4-0.2-0.7-0.3l-9.3,0c-0.1,0-0.1,0-0.2,0
		c0-0.1,0-0.2,0-0.2c0-3.1,0-6.3,0.1-9.4c0,0,0-0.1,0-0.2c0.1,0,0.1,0,0.2,0c2.5,0,4.9,0,7.4,0c1.3,0,2.6,0,3.9,0.1
		c0.9,0,1.1-0.6,1.1-0.9c0-0.1,0-0.1,0-0.2l0-0.2c0.1-0.7,0.2-1.1-0.1-1.5c-0.3-0.3-0.7-0.3-1.4-0.3l-13.2,0l-0.1,0
		c-0.1,0-0.1,0-0.2,0c-0.3,0-0.6,0.1-0.7,0.2c-0.2,0.2-0.3,0.4-0.2,0.8c0,0.1,0,0.2,0,0.3l0,0.2l0,16.8c0,3.3,0,6.5,0,9.8L129.4,134
		z M209.1,133.8l-3.4-9.7c-1.5-4.4-3.1-8.9-4.6-13.3c-0.2-0.5-0.4-1.1-0.6-1.6c-0.3-0.9-0.6-1.7-0.9-2.6c-0.2-0.6-0.6-0.9-1.2-0.9
		c-0.3,0-0.5,0-0.8,0l-0.5,0c-1,0-1.2,0.1-1.5,1l-9.6,25.1c-0.3,0.7-0.5,1.4-0.8,2.1c-0.1,0.1-0.2,0.5,0,0.9
		c0.2,0.3,0.6,0.3,0.7,0.3c0,0,0,0,0.1,0c0.5,0,0.9,0,1.4,0c0.6,0,0.9-0.3,1.1-0.8c0.4-1.7,1-3.4,1.7-5c0.3-0.8,0.6-1.6,0.9-2.4
		c0-0.1,0.1-0.3,0.1-0.3c0.1,0,0.2,0,0.4,0l1.4,0c1.2,0,2.4-0.1,3.6,0c1.6,0,3.2,0,4.8,0.1l1.8,0c0.1,0,0.2,0,0.3,0.1
		c0.3,0.9,0.6,1.8,0.9,2.8c0.5,1.4,0.9,2.8,1.4,4.2l0.1,0.4c0.2,0.8,0.4,1.1,1.3,1.1c0.1,0,0.3,0,0.5,0h0.5c0.5,0,0.8,0,1-0.3
		C209.3,134.6,209.2,134.3,209.1,133.8z M202.2,123.6L202.2,123.6c-1.2,0-2.3,0-3.5,0l-1.5,0l-1.4,0c-1.2,0-2.3,0-3.5,0l5.2-13.6
		l0.1,0.3C199.2,114.7,200.7,119.1,202.2,123.6C202.3,123.6,202.3,123.6,202.2,123.6C202.3,123.6,202.3,123.6,202.2,123.6z
		 M108.7,108.7c0.1,0,0.2,0,0.2,0c1.4,0,2.8,0,4.1,0l2.2,0c0.2,0,0.4,0,0.5,0c1.2,0.1,1.2-0.4,1.4-1.6l0-0.1c0-0.3,0.1-0.7-0.2-1
		c-0.2-0.3-0.6-0.3-1-0.3l-0.3,0l-0.1,0l-4.9,0c-3.9,0-7.9,0-11.8,0l-0.5,0c-1.1,0-1.3,0.2-1.4,1.2c0,0.1,0,0.3-0.1,0.6
		c0,0.1-0.1,0.3,0.1,0.6c0.1,0.2,0.3,0.5,0.6,0.6c0.2,0.1,0.5,0.1,0.7,0l2.4,0c1.5,0,2.9,0,4.4,0c0.1,0,0.2,0,0.3,0
		c0,0.1,0,0.2,0,0.3l0,9l0,3.5l0,2.7c0,2.3,0,4.6,0,6.9c0,1,0,2.1,0,3.1c0,0.2,0,0.5,0.3,0.8c0.2,0.2,0.4,0.2,0.7,0.2
		c0,0,0.1,0,0.1,0c0.4,0,0.8,0,1.2,0l0.1,0c0.3,0,0.5-0.1,0.7-0.2c0.2-0.2,0.2-0.4,0.2-0.7c0-0.1,0-0.3,0-0.4l0-25
		C108.7,108.8,108.7,108.7,108.7,108.7z M48.4,129.9c1.1-2.9,0.6-5.4-1.4-7.5c-0.8-0.9-1.8-1.6-3-2.3c-0.9-0.5-1.7-0.9-2.6-1.3
		c-0.6-0.3-1.2-0.6-1.7-0.9c-1-0.5-2.1-1.1-3-2.1c-0.9-0.9-1.2-2-0.9-3.2c0.1-0.8,0.5-1.6,1-2.2c1.3-1.5,3.1-2.1,5.4-1.9
		c1.4,0.1,2.7,0.6,3.9,1.3c0.3,0.2,0.7,0.4,1.1,0.2c0.4-0.2,0.5-0.6,0.6-0.9c0-0.2,0.1-0.3,0.1-0.5c0-0.2,0.1-0.4,0.1-0.6
		c0.2-0.7-0.1-1.2-0.8-1.4c-0.3-0.1-0.6-0.2-0.9-0.3c-0.5-0.2-1.1-0.4-1.6-0.5c-2.3-0.5-4.4-0.5-6.3,0.1c-3.2,1-5.1,3-5.7,6
		c-0.4,1.9-0.1,3.7,0.9,5.2c0.7,1.1,1.6,1.9,2.5,2.5c0.8,0.4,1.5,0.9,2.3,1.3l0.9,0.5c0.5,0.3,0.9,0.5,1.4,0.7c1,0.5,2,1,2.9,1.6
		c1.3,0.9,2.1,2,2.2,3.3c0.1,1.4-0.5,2.8-1.6,3.8c-1.4,1.3-3.2,1.8-5.5,1.5c-2-0.3-3.7-1-5.1-2.1c-0.1-0.1-0.5-0.4-1-0.3
		c-0.4,0.2-0.5,0.7-0.5,0.9c0,0.2,0,0.4-0.1,0.5c0,0.2,0,0.5-0.1,0.7c-0.1,0.7,0.1,1.2,0.8,1.5c2.1,1.1,4.4,1.7,6.8,1.8
		c0.2,0,0.5,0,0.7-0.1c0.5,0,1.1-0.1,1.6-0.2C45.1,134.5,47.3,132.7,48.4,129.9z M104.7,192.1C104.6,192.1,104.6,192,104.7,192.1
		c-0.7-1-1.3-1.8-1.9-2.7c-0.5-0.7-1-1.5-1.5-2.2c0,0,0,0,0,0c0,0,0,0,0,0c2.9-1.4,3.5-4.4,2.8-6.8c-0.3-0.9-0.8-1.6-1.7-2.2
		c-1-0.6-2.1-0.7-3-0.7c-0.8,0-1.6,0-2.4,0l-0.9,0c-1,0-1.2,0.2-1.2,1.3l0,5l0,2.9c0,0.8,0,1.6,0,2.4c0,0.6,0,1.2,0,1.8
		c0,0.6,0,1.2,0,1.8c0,0.8,0.1,1.1,1,1.2c0.3,0,0.7,0,0.9-0.2c0.2-0.2,0.2-0.6,0.2-0.9c0-1.6,0-3.2,0-4.7c0,0,0,0,0,0c0,0,0,0,0,0
		c0.5,0,1.2,0,1.9,0c0.2,0,0.3,0,0.5,0.3c0.7,1.2,1.5,2.3,2.2,3.5l0.4,0.7c0.3,0.4,0.5,0.8,0.8,1.2c0.2,0.3,0.5,0.4,0.9,0.5
		c0.1,0,0.1,0,0.2,0c0.3,0,0.6-0.1,0.9-0.3c0.2-0.2,0.3-0.4,0.4-0.6C105,192.5,104.8,192.2,104.7,192.1z M100,185.4
		c-0.2,0.1-0.5,0.2-0.9,0.2h0c-0.6,0-1.2,0-1.8,0l-0.4,0c0,0-0.1,0-0.1,0c0,0,0-0.1,0-0.1c0-0.7,0-1.4,0-2V183h0l0-1.4
		c0-0.7,0-1.3,0-2c0-0.1,0-0.1,0-0.2c0.1,0,0.1,0,0.2,0l0.5,0c0.5,0,1,0,1.5,0c0.5,0,1,0.2,1.5,0.3c0.5,0.2,0.8,0.5,1.1,1.1
		C102.5,182.6,101.7,184.7,100,185.4z M77,179.5c1.1-0.2,2-0.2,2.8,0.1c0.4,0.1,0.9,0.3,1.3,0.5c0.3,0.1,0.6,0.2,0.9,0.3
		c0.2,0.1,0.7,0.2,1-0.1c0.3-0.3,0.4-0.7,0.4-1.1c-0.1-0.4-0.3-0.8-0.7-1c-1.8-0.9-3.8-1.2-5.9-0.8c-2.5,0.5-4.3,1.9-5.2,4.2
		c-1,2.5-1,5.1-0.2,7.8c0.8,2.5,2.7,4,5.4,4.3c0.4,0,0.7,0.1,1.1,0.1c1.6,0,3.2-0.4,4.7-0.8c0.7-0.2,0.7-0.8,0.7-1.1
		c0-0.5,0-1,0-1.5l0-0.6l0-0.5l0-0.1c0-0.5,0-1,0-1.5c0-0.3,0-0.6-0.3-0.9c-0.3-0.2-0.6-0.2-0.9-0.2c-0.4,0-1.1,0.2-1,1.1
		c0,1,0,2,0,3.1c0,0.1,0,0.3,0,0.4c-0.1,0-0.3,0.1-0.4,0.1l-0.2,0c-0.5,0.1-0.9,0.2-1.4,0.3c-0.7,0.1-1.5,0.1-2.2,0
		c-1.9-0.2-3.1-1.3-3.6-3.3c-0.4-1.7-0.4-3.5,0-5.2C73.9,181.1,75.1,179.9,77,179.5z"/>
</g>
</svg>
