<svg width="110" height="164" viewBox="0 0 110 164" fill="none" xmlns="http://www.w3.org/2000/svg">
<path d="M23.0315 153.424C20.7163 152.525 19.5359 151.745 19.5359 149.992C19.5359 148.171 20.8875 147.142 22.8328 147.142C24.011 147.142 25.2142 147.558 26.3011 148.654L27.1618 147.705C25.8353 146.415 24.358 145.879 22.8328 145.879C20.1957 145.879 18.1591 147.486 18.1591 149.992C18.1591 152.5 20.2208 153.815 22.6844 154.644C24.5521 155.275 26.8399 156.37 26.8399 158.879C26.8399 161.237 24.7759 162.36 22.4858 162.36C20.0724 162.36 18.6728 161.091 17.9102 159.123L16.6316 159.631C17.6157 162.191 19.7071 163.603 22.5611 163.603C25.3878 163.603 28.2646 162.191 28.2646 158.784C28.2669 155.618 25.7097 154.45 23.0315 153.424Z" fill="#2D2726"/>
<path d="M33.282 146.198H31.8193V163.24H33.282V146.198Z" fill="#2D2726"/>
<path d="M47.9458 159.927V155.399C47.9458 153.743 47.1603 152.649 46.1055 152.087L48.7609 146.198H47.2859L44.82 151.673C44.6031 151.648 44.3817 151.626 44.1602 151.626C41.9454 151.626 40.7422 153.135 40.7422 154.789C40.7422 156.348 41.7491 157.519 43.546 157.882L45.1443 154.38C44.9205 154.014 44.4319 153.867 43.9889 153.867L42.8542 156.42C42.2149 156.131 41.8952 155.521 41.8952 154.861C41.8952 153.84 42.6829 152.746 44.1853 152.746C45.5621 152.746 46.5416 153.693 46.5416 155.399V160.024C46.5416 162.435 47.6284 163.554 50.3066 163.237V161.972C48.8568 162.194 47.9458 162.02 47.9458 159.927Z" fill="#2D2726"/>
<path d="M39.4239 146.198H37.9612V163.24H39.4239V146.198Z" fill="#2D2726"/>
<path d="M56.937 152.281L58.0649 153.401L59.2202 152.281L58.0649 151.137L56.937 152.281Z" fill="#2D2726"/>
<path d="M61.9309 161.897H54.1565V163.235H61.9309V161.897Z" fill="#2D2726"/>
<path d="M58.0403 145.951C54.4991 145.951 51.645 148.532 51.645 152.282C51.645 156.058 54.4968 158.636 58.0403 158.636C61.6113 158.636 64.4608 156.056 64.4608 152.282C64.4631 148.532 61.6113 145.951 58.0403 145.951ZM58.0403 157.371C55.2137 157.371 52.9236 155.326 52.9236 152.282C52.9236 149.286 55.2388 147.217 58.0403 147.217C60.867 147.217 63.1822 149.286 63.1822 152.282C63.1822 155.324 60.8441 157.371 58.0403 157.371Z" fill="#2D2726"/>
<path d="M69.6011 146.198H68.1384V163.24H69.6011V146.198Z" fill="#2D2726"/>
<path d="M78.886 159.926V156.444C78.886 155.055 78.443 154.011 77.7307 153.279C77.9544 152.673 78.096 152.014 78.096 151.259C78.096 147.827 75.6872 145.951 72.8103 145.951C72.1687 145.951 71.6025 146.046 70.9632 146.22V147.483C71.6025 147.289 72.1687 147.192 72.7829 147.192C75.1438 147.192 76.79 148.556 76.79 151.211C76.79 151.742 76.7169 152.158 76.6187 152.477C75.8584 152.086 74.9725 151.916 74.0638 151.916C71.7737 151.916 70.5203 153.039 70.5203 154.524C70.5203 155.936 71.6299 156.835 73.13 156.835C74.2579 156.835 75.2671 156.345 76.2534 155.495C76.1553 155.01 75.9817 154.716 75.5867 154.549C74.7534 155.326 73.9862 155.645 73.1049 155.645C72.34 155.645 71.7464 155.279 71.7464 154.501C71.7464 153.475 72.7807 152.99 73.9382 152.99C76.1804 152.99 77.4795 154.255 77.4795 156.3V160.026C77.4795 162.437 78.5641 163.555 81.2423 163.239V161.974C79.7947 162.193 78.886 162.019 78.886 159.926Z" fill="#2D2726"/>
<path d="M82.4845 146.196H80.8589L86.0258 155.691L86.8889 154.55L82.4845 146.196Z" fill="#2D2726"/>
<path d="M92.8431 146.196H91.3682C91.9298 147.703 92.2769 149.068 90.9732 150.822L86.594 156.784V163.235H88.0689V157.126L91.9801 151.793C93.8751 149.19 93.3797 147.803 92.8431 146.196Z" fill="#2D2726"/>
<path d="M56.4719 37.9592C56.4719 37.0599 55.7321 36.3301 54.8256 36.3301C53.9169 36.3301 53.1794 37.0599 53.1794 37.9592C53.1794 38.8585 53.9169 39.5883 54.8256 39.5883C55.7344 39.5883 56.4719 38.8562 56.4719 37.9592ZM54.8256 38.9105C54.2959 38.9105 53.8644 38.4834 53.8644 37.9592C53.8644 37.435 54.2959 37.0079 54.8256 37.0079C55.3554 37.0079 55.7869 37.435 55.7869 37.9592C55.7869 38.4834 55.3554 38.9105 54.8256 38.9105Z" fill="#AD841F"/>
<path d="M49.4009 15.2978L51.933 18.2533L49.6497 21.1952L53.3349 20.7388L54.9126 24.3112L56.4926 20.7388L60.1754 21.1952L57.8922 18.2533L60.4243 15.2978L56.4926 15.752L55.1089 12.6248L56.4926 9.49535L60.1754 9.95178L57.8922 7.00986L60.4243 4.05438L56.4926 4.50855L54.9126 0.938477L53.3349 4.50855L49.4009 4.05438L51.933 7.00986L49.6497 9.95178L53.3349 9.49535L54.7162 12.6248L53.3349 15.752L49.4009 15.2978ZM53.7573 8.761L51.1909 9.07734L52.812 6.98952L51.0471 4.92882L53.7596 5.2429L54.9126 2.63087L56.0679 5.2429L58.7781 4.92882L57.0109 6.98952L58.632 9.07734L56.0679 8.761L54.9126 11.3753L53.7573 8.761ZM54.9126 13.8721L56.0679 16.4841L58.7781 16.17L57.0109 18.233L58.632 20.3208L56.0679 20.0045L54.9126 22.6188L53.7573 20.0045L51.1909 20.3208L52.812 18.233L51.0471 16.1723L53.7596 16.4864L54.9126 13.8721Z" fill="#AD841F"/>
<path d="M94.0101 65.2134V65.2202C94.001 65.2202 93.9918 65.2202 93.9827 65.2202H91.252C88.5007 65.2202 86.2608 63.0036 86.2608 60.2809C86.2608 57.5604 88.4961 55.346 91.2428 55.3415C91.4986 55.3483 91.6561 55.3935 91.6584 55.3935C92.1767 55.5177 92.5991 55.8205 92.8662 56.2544C93.1333 56.6882 93.2155 57.1966 93.0945 57.6892C92.9735 58.1817 92.6676 58.5998 92.2292 58.8641C91.7931 59.1285 91.2794 59.2076 90.7839 59.0901L90.4414 59.0155L90.3547 59.3793C90.0464 60.7463 90.9118 62.1224 92.284 62.4478C92.4872 62.4975 92.695 62.5201 92.8982 62.5201C93.3457 62.5201 93.7863 62.4003 94.1836 62.1766C94.243 62.3077 94.3115 62.4365 94.3891 62.5607C95.0558 63.6385 96.2225 64.2351 97.4144 64.2351C98.0446 64.2351 98.6793 64.0701 99.2547 63.7221C99.5241 63.5594 99.7638 63.3606 99.9785 63.1369L99.6428 62.319C99.2889 62.38 98.9122 62.2354 98.7295 61.9394C98.6907 61.8783 98.661 61.8106 98.6405 61.7405C98.5514 61.4513 98.7295 61.1485 98.9327 60.7983C99.9716 59.0133 99.7205 57.5016 99.6383 57.0068L99.6291 56.948C99.4944 56.1097 99.193 55.3076 98.7341 54.5642C98.056 53.4661 97.0947 52.6436 95.9988 52.1284C96.8367 51.7149 97.4144 50.8586 97.4144 49.8712C97.4144 48.5019 96.2911 47.3721 94.9074 47.3472L94.5284 47.345L94.5216 47.6884C94.5216 48.7052 93.6836 49.5322 92.6562 49.5322C91.462 49.5322 90.4917 48.5719 90.4917 47.3902C90.4917 46.8366 90.7108 46.3079 91.0944 45.9102C91.3684 45.9847 91.6515 46.0232 91.9369 46.0232C92.7383 46.0232 93.5375 45.7294 94.1517 45.1419L94.4302 44.8708L94.1882 44.62C93.7178 44.1523 93.4576 43.5309 93.4576 42.8711C93.4576 42.2091 93.7247 41.6012 94.1882 41.1064L94.227 41.0567C94.2841 40.9708 94.3389 40.8827 94.3914 40.7946L94.4371 40.7155C95.0079 39.7213 95.3093 38.5893 95.3093 37.4414C95.3093 33.8375 92.389 30.8978 88.7678 30.8142C88.7564 30.8142 88.7427 30.8119 88.7313 30.8119V30.8142C88.7085 30.8142 88.6879 30.8119 88.6651 30.8119C88.6628 30.8119 88.6582 30.8119 88.6559 30.8119C88.6537 30.8119 88.6422 30.8119 88.624 30.8119C88.6194 30.8119 88.6126 30.8119 88.608 30.8119C88.576 30.8119 88.5327 30.8119 88.4847 30.8119C88.4801 30.8119 88.4779 30.8119 88.4733 30.8119C88.3934 30.8119 88.3089 30.8119 88.2769 30.8119V30.8165C85.9206 30.8662 83.674 31.7542 81.9341 33.3336C79.9386 35.1457 78.7924 37.7216 78.7924 40.4014C78.7924 41.7368 79.0504 43.0135 79.5459 44.1839C78.5344 43.5354 77.3311 43.1558 76.0388 43.1558C75.1575 43.1558 74.3082 43.3208 73.5159 43.6439L73.4611 43.6665C72.9907 43.8563 71.5546 44.4302 70.5614 46.2378C70.3627 46.5971 70.1938 46.9044 69.8993 46.9789C69.8285 46.997 69.7554 47.0061 69.6823 47.0061C69.2531 47.0061 68.865 46.6445 68.817 46.1994L68.4768 46.1565L68.1617 46.1C67.9699 46.5406 67.8717 47.0083 67.8717 47.4919C67.8717 49.4238 69.4586 50.9941 71.4108 50.9941C71.5569 50.9941 71.703 50.9851 71.8491 50.967C71.8674 51.602 72.1185 52.2301 72.6072 52.7137C73.1117 53.213 73.7807 53.4638 74.4497 53.4638C75.1027 53.4638 75.758 53.2243 76.258 52.7453L76.5297 52.4809L76.2877 52.2301C75.5434 51.489 75.5457 50.2869 76.2923 49.548C76.6553 49.1888 77.1371 48.9922 77.6485 48.9922C78.1622 48.9922 78.644 49.1888 79.0048 49.548C79.0276 49.5684 79.2422 49.7672 79.4317 50.1491C79.6258 50.5942 79.7331 51.0823 79.7331 51.5974C79.7331 53.622 78.0686 55.2669 76.0251 55.2669L75.9818 55.2692C75.9681 55.2692 74.5114 55.4341 72.9177 54.4061C71.7076 53.6265 71.3103 53.1543 70.9267 52.6978C70.7737 52.5171 70.6162 52.3295 70.4153 52.1307C68.7805 50.5129 66.7233 49.5752 64.5748 49.4577C65.3693 46.6445 66.4995 44.9702 66.5178 44.9454L66.5406 44.9047C66.5589 44.8685 68.438 41.1945 72.92 38.221L73.4771 37.8527L72.8492 37.6222C72.6665 37.5567 68.3489 36.0292 64.5268 39.3485L64.1706 39.658L64.5793 39.8953C64.6136 39.9156 65.4424 40.4195 65.4127 41.3866C65.3876 42.2113 65.0246 42.6158 64.6478 42.8598C64.2026 42.3153 63.0313 40.659 62.9765 38.2571C63.7368 38.1125 64.3122 37.4505 64.3122 36.6574C64.3122 35.7581 63.5747 35.0282 62.666 35.0282C61.7573 35.0282 61.0198 35.7581 61.0198 36.6574C61.0198 37.1906 61.2801 37.6629 61.6819 37.9611C61.3075 38.5893 60.1864 40.1913 58.0059 41.1132C57.8872 40.8714 57.7502 40.4421 57.8667 39.9314C57.8689 39.9179 57.8712 39.9066 57.8758 39.893C57.8872 39.8433 57.9055 39.7913 57.9237 39.7394C58.3028 38.6254 59.3713 38.5441 59.417 38.5418L59.8736 38.5237L59.7252 38.0944C59.4672 37.342 59.1224 36.6935 58.7411 36.1332C63.6044 34.5244 66.9607 29.9126 66.9607 24.7473C66.9607 23.3668 66.7256 22.011 66.2644 20.7163L65.9401 19.8125L65.6182 20.7163C64.0154 25.206 59.7412 28.2225 54.9807 28.2225C54.9555 28.2225 54.9327 28.2202 54.9076 28.2202C54.9076 28.2202 54.9076 28.2202 54.9053 28.2202C54.9053 28.2202 54.9053 28.2202 54.903 28.2202C54.8779 28.2202 54.8551 28.2225 54.83 28.2225C50.0694 28.2225 45.793 25.206 44.1924 20.7163L43.8705 19.8125L43.5486 20.7163C43.0873 22.011 42.8522 23.3668 42.8522 24.7473C42.8522 29.9104 46.2085 34.5244 51.0695 36.1332C50.6859 36.6913 50.3434 37.3398 50.0854 38.0944L49.937 38.5237L50.3937 38.5418C50.4393 38.5441 51.5056 38.6254 51.8869 39.7394C51.9052 39.7913 51.9211 39.8411 51.9348 39.893C51.9371 39.9066 51.9394 39.9179 51.944 39.9314C52.0604 40.4421 51.9234 40.8714 51.8047 41.1132C49.6242 40.1913 48.5009 38.5893 48.1287 37.9611C48.5306 37.6629 48.7908 37.1906 48.7908 36.6574C48.7908 35.7581 48.0534 35.0282 47.1446 35.0282C46.2359 35.0282 45.4984 35.7581 45.4984 36.6574C45.4984 37.4505 46.0738 38.1125 46.8341 38.2571C46.7793 40.659 45.6103 42.3153 45.1628 42.8598C44.7838 42.618 44.423 42.2113 44.3979 41.3866C44.3682 40.4195 45.197 39.9156 45.2313 39.8953L45.64 39.658L45.2838 39.3485C41.464 36.0292 37.1441 37.5567 36.9615 37.6222L36.3336 37.8527L36.8907 38.221C41.3726 41.1945 43.2517 44.8663 43.27 44.9047L43.2928 44.9454C43.3088 44.9702 44.4413 46.6445 45.2359 49.4577C43.0873 49.5752 41.0302 50.5129 39.3954 52.1307C39.1944 52.3295 39.0369 52.5171 38.8839 52.6978C38.5003 53.1543 38.1008 53.6265 36.893 54.4061C35.2993 55.4341 33.8426 55.2692 33.8289 55.2692L33.7855 55.2669C31.7397 55.2669 30.0775 53.6197 30.0775 51.5974C30.0775 51.0823 30.1848 50.5942 30.3789 50.1491C30.5661 49.7672 30.7808 49.5684 30.8059 49.548C31.1689 49.1888 31.6507 48.9922 32.1621 48.9922C32.6736 48.9922 33.1576 49.1888 33.5183 49.548C34.265 50.2869 34.2672 51.489 33.5229 52.2301L33.2809 52.4809L33.5526 52.7453C34.0549 53.2243 34.7079 53.4638 35.3609 53.4638C36.0299 53.4638 36.6989 53.213 37.2035 52.7137C37.6921 52.2301 37.9432 51.602 37.9615 50.967C38.1076 50.9851 38.2538 50.9941 38.3999 50.9941C40.352 50.9941 41.9389 49.4238 41.9389 47.4919C41.9389 47.0083 41.8407 46.5406 41.6489 46.1L41.3338 46.1565L40.9936 46.1994C40.9457 46.6445 40.5575 47.0061 40.1283 47.0061C40.0552 47.0061 39.9822 46.997 39.9114 46.9789C39.6168 46.9044 39.4479 46.5948 39.2492 46.2378C38.2538 44.4324 36.8199 43.8563 36.3495 43.6665L36.2948 43.6439C35.5025 43.3208 34.6531 43.1558 33.7718 43.1558C32.4795 43.1558 31.2762 43.5331 30.2648 44.1839C30.7602 43.0135 31.0182 41.7368 31.0182 40.4014C31.0182 37.7216 29.8743 35.1457 27.8765 33.3336C26.1367 31.7542 23.89 30.8662 21.5337 30.8165V30.8119C21.504 30.8119 21.4195 30.8119 21.3373 30.8119C21.3328 30.8119 21.3305 30.8119 21.3259 30.8119C21.278 30.8119 21.2346 30.8119 21.2026 30.8119C21.1981 30.8119 21.1912 30.8119 21.1867 30.8119C21.1684 30.8119 21.157 30.8119 21.1547 30.8119C21.1524 30.8119 21.1478 30.8119 21.1456 30.8119C21.1227 30.8119 21.1022 30.8142 21.0793 30.8142V30.8119C21.0679 30.8119 21.0542 30.8142 21.0428 30.8142C17.4216 30.8978 14.5014 33.8375 14.5014 37.4414C14.5014 38.5893 14.8028 39.7213 15.3736 40.7155L15.4192 40.7946C15.4717 40.8827 15.5265 40.9708 15.5836 41.0567L15.6224 41.1064C16.0836 41.6012 16.3531 42.2091 16.3531 42.8711C16.3531 43.5309 16.0928 44.1523 15.6224 44.62L15.3804 44.8708L15.659 45.1419C16.2732 45.7294 17.0746 46.0232 17.8737 46.0232C18.1568 46.0232 18.4399 45.9847 18.7162 45.9102C19.0998 46.3079 19.319 46.8366 19.319 47.3902C19.319 48.5719 18.3486 49.5322 17.1545 49.5322C16.127 49.5322 15.2914 48.7052 15.2891 47.6884L15.2822 47.345L14.9032 47.3472C13.5219 47.3698 12.3962 48.5019 12.3962 49.8712C12.3962 50.8586 12.9739 51.7127 13.8118 52.1284C12.7182 52.6436 11.7547 53.4661 11.0765 54.5642C10.6176 55.3076 10.3139 56.1097 10.1815 56.948L10.1724 57.0068C10.0902 57.5039 9.83674 59.0155 10.8779 60.7983C11.0834 61.1508 11.2592 61.4536 11.1701 61.7405C11.1496 61.8106 11.1176 61.8761 11.0811 61.9394C10.8984 62.2354 10.5217 62.38 10.1678 62.319L9.83218 63.1369C10.0445 63.3606 10.2843 63.5572 10.556 63.7221C11.1313 64.0701 11.7683 64.2351 12.3962 64.2351C13.5881 64.2351 14.7548 63.6385 15.4215 62.5607C15.4991 62.4365 15.5654 62.3077 15.627 62.1766C16.0243 62.4026 16.4649 62.5201 16.9125 62.5201C17.1179 62.5201 17.3234 62.4952 17.5266 62.4478C18.8989 62.1201 19.7665 60.7441 19.456 59.3793L19.3692 59.0155L19.0267 59.0901C18.529 59.2076 18.0175 59.1262 17.5814 58.8641C17.1431 58.5998 16.8371 58.1817 16.7161 57.6892C16.5951 57.1966 16.6773 56.6859 16.9444 56.2544C17.2116 55.8205 17.634 55.5177 18.1522 55.3935C18.1545 55.3935 18.3121 55.3483 18.5678 55.3415C21.3168 55.346 23.5498 57.5604 23.5498 60.2809C23.5498 63.0036 21.3099 65.2202 18.5587 65.2202H15.8348C15.8256 65.2202 15.8165 65.2202 15.8074 65.2202V65.2134C7.30465 65.2134 0.386475 72.0598 0.386475 80.4744C0.386475 83.2785 1.16277 86.0215 2.6286 88.4053C3.16516 89.2775 3.71998 89.987 4.37298 90.64C5.03969 91.3066 5.13787 92.2398 4.61272 92.9109L4.40495 93.1865L4.70177 93.4125C5.11047 93.7175 5.59223 93.8644 6.0717 93.8644C6.59456 93.8644 7.11285 93.6881 7.5284 93.3515C8.92345 94.2327 10.4395 94.8812 12.0423 95.2789C12.8689 95.5071 13.4488 96.264 13.4511 97.1227C13.4511 97.6333 13.2524 98.1123 12.8871 98.4739C12.5218 98.8376 12.0355 99.0365 11.5172 99.0365C10.4738 99.0365 9.6244 98.2298 9.5833 97.1995H9.58102L9.57189 96.8063L9.19287 96.8086C7.78184 96.8312 6.63338 97.9881 6.63338 99.3845C6.63338 100.067 6.90508 100.688 7.34574 101.149C7.23158 101.237 7.1197 101.334 7.01696 101.436C6.34797 102.098 5.97581 102.982 5.96896 103.922C5.96211 104.866 6.32743 105.752 6.99413 106.412C7.29095 106.705 7.5832 106.931 7.87088 107.094L8.49421 106.583C8.30241 106.244 8.33895 105.833 8.60152 105.573C8.65403 105.521 8.71111 105.476 8.77504 105.44C9.03761 105.286 9.37781 105.386 9.77281 105.501C11.7661 106.082 13.1931 105.485 13.6611 105.289L13.7159 105.266C14.5059 104.941 15.2229 104.462 15.8485 103.845C16.9102 102.794 17.5609 101.427 17.7093 99.9606C17.9125 100.013 18.1226 100.042 18.3372 100.042C19.698 100.042 20.8236 98.9461 20.8465 97.5972L20.8487 97.2266L20.4994 97.2198C19.6318 97.2175 18.8806 96.6097 18.7116 95.7692C18.7116 95.7647 18.7094 95.7579 18.7094 95.7534H19.9583C20.1912 95.7534 21.2803 95.7534 21.3077 95.7534C24.2005 95.8189 26.5659 98.1507 26.6687 100.996C26.6687 102.455 25.47 103.641 23.995 103.641C22.5223 103.641 21.3236 102.455 21.3214 100.998L21.3145 100.654L20.9218 100.657C19.1021 100.686 17.6225 102.177 17.6225 103.978C17.6225 105.056 18.1454 106.012 18.9514 106.619C18.5609 106.619 18.4011 106.619 18.3372 106.619C18.3326 106.619 18.3281 106.619 18.3235 106.619C18.2938 106.619 18.2915 106.619 18.287 106.619C18.2847 106.619 18.2801 106.619 18.2778 106.619C18.255 106.619 18.2299 106.622 18.207 106.622V106.619C18.1933 106.619 18.1819 106.622 18.1682 106.624C14.3438 106.712 11.2592 109.817 11.2592 113.624C11.2592 114.837 11.5788 116.033 12.1816 117.081L12.2296 117.165C12.2844 117.257 12.3825 117.407 12.4419 117.497L12.4442 117.495C13.4397 118.713 13.4397 120.249 12.4419 121.241L12.1999 121.492L12.4807 121.763C13.1269 122.382 13.9694 122.692 14.8142 122.692C15.6772 122.692 16.538 122.368 17.1887 121.725C17.5152 121.401 17.7618 121.024 17.9285 120.617C18.0586 120.624 18.1911 120.629 18.3212 120.629C19.9195 120.708 20.9949 121.77 20.9949 123.275C20.9949 124.357 20.335 125.288 19.392 125.697C19.4834 125.896 19.6249 126.207 19.7437 126.47C23.0566 125.859 25.486 123.101 25.486 119.693C25.486 118.026 24.8992 116.426 23.8261 115.152C24.3626 114.562 24.6937 113.785 24.6937 112.93C24.6937 111.13 23.2142 109.638 21.3899 109.609L20.9994 109.607L20.9926 109.95C20.9903 111.407 19.7939 112.594 18.3189 112.594C16.8462 112.594 15.6453 111.407 15.6453 109.948C15.6453 108.447 16.7161 107.385 18.2961 107.304C18.3075 107.304 18.3166 107.304 18.3258 107.304C18.5427 107.304 20.319 107.304 20.9104 107.304C20.9332 107.304 20.9538 107.306 20.9766 107.306V107.304H21.0839L21.0702 106.626H20.9104C19.4674 106.59 18.3029 105.422 18.3029 103.985C18.3029 102.643 19.335 101.517 20.6524 101.359C20.8328 103.025 22.2598 104.324 23.9905 104.324C24.7941 104.324 25.5316 104.041 26.1116 103.574C25.2622 105.289 23.5292 106.497 21.5017 106.615C21.3625 106.622 21.2232 106.626 21.0816 106.626V107.304C21.1136 107.304 21.1456 107.302 21.1752 107.302V107.304C21.2962 107.304 21.415 107.3 21.536 107.293C23.0977 107.218 24.5613 106.764 25.8353 106.025V107.987C25.8581 120.665 34.2467 131.935 46.2336 135.397C47.2725 135.698 49.4279 136.19 50.5832 136.393C52.5696 136.741 54.008 137.826 54.4281 139.295L54.4966 139.536L54.8985 139.546H54.9007H54.903L55.3049 139.536L55.3734 139.295C55.7958 137.826 57.2342 136.741 59.2183 136.393C60.3736 136.19 62.5267 135.698 63.5679 135.397C75.5548 131.935 83.9434 120.665 83.9662 107.987V106.025C85.2402 106.766 86.7015 107.221 88.2655 107.293C88.3842 107.3 88.5052 107.304 88.6263 107.304V107.302C88.6582 107.302 88.6879 107.304 88.7199 107.304V106.626C88.5783 106.626 88.439 106.622 88.2998 106.615C86.2723 106.497 84.5393 105.289 83.6899 103.574C84.2676 104.041 85.0074 104.324 85.8111 104.324C87.5395 104.324 88.9665 103.025 89.1491 101.359C90.4665 101.517 91.4986 102.643 91.4986 103.985C91.4986 105.422 90.3341 106.592 88.8911 106.626H88.7313L88.7176 107.304H88.8249V107.306C88.8477 107.306 88.8683 107.304 88.8911 107.304C89.4825 107.304 91.2588 107.304 91.4757 107.304C91.4871 107.304 91.4963 107.304 91.5054 107.304C93.0854 107.385 94.1562 108.447 94.1562 109.948C94.1562 111.407 92.9575 112.594 91.4826 112.594C90.0099 112.594 88.8112 111.407 88.8089 109.95L88.8021 109.607L88.4116 109.609C86.5896 109.638 85.1078 111.13 85.1078 112.93C85.1078 113.785 85.4389 114.562 85.9754 115.152C84.9023 116.426 84.3155 118.026 84.3155 119.693C84.3155 123.103 86.7449 125.859 90.0578 126.47C90.1766 126.205 90.3181 125.896 90.4095 125.697C89.4665 125.288 88.8066 124.357 88.8066 123.275C88.8066 121.772 89.882 120.708 91.4803 120.629C91.6127 120.629 91.7429 120.624 91.873 120.617C92.0397 121.024 92.2886 121.401 92.6128 121.725C93.2635 122.368 94.1265 122.692 94.9873 122.692C95.8298 122.692 96.6723 122.382 97.3208 121.763L97.6016 121.492L97.3596 121.241C96.3618 120.251 96.3618 118.713 97.3573 117.495L97.3596 117.497C97.419 117.407 97.5149 117.257 97.5719 117.165L97.6199 117.081C98.2226 116.033 98.5423 114.837 98.5423 113.624C98.5423 109.817 95.4577 106.714 91.6333 106.624C91.6196 106.624 91.6082 106.622 91.5945 106.619V106.622C91.5716 106.622 91.5465 106.619 91.5237 106.619C91.5214 106.619 91.5168 106.619 91.5145 106.619C91.5123 106.619 91.51 106.619 91.478 106.619C91.4734 106.619 91.4689 106.619 91.4643 106.619C91.3981 106.619 91.2406 106.619 90.8501 106.619C91.6561 106.012 92.179 105.056 92.179 103.978C92.179 102.177 90.6994 100.686 88.8797 100.657L88.487 100.654L88.4801 100.998C88.4779 102.455 87.2814 103.641 85.8065 103.641C84.3338 103.641 83.1328 102.455 83.1328 100.996C83.2356 98.1507 85.5987 95.8189 88.4938 95.7534C88.5212 95.7534 89.6103 95.7534 89.8432 95.7534H91.0921C91.0921 95.7579 91.0899 95.7647 91.0899 95.7692C90.9209 96.6097 90.1697 97.2198 89.3021 97.2198L88.9528 97.2266L88.955 97.5972C88.9779 98.9461 90.1035 100.042 91.4643 100.042C91.6789 100.042 91.889 100.013 92.0945 99.9606C92.2429 101.427 92.8913 102.794 93.9553 103.845C94.5786 104.462 95.2956 104.941 96.0878 105.266L96.1426 105.289C96.6107 105.485 98.0354 106.082 100.031 105.501C100.426 105.386 100.766 105.286 101.029 105.44C101.09 105.476 101.15 105.521 101.202 105.573C101.465 105.833 101.501 106.244 101.31 106.583L101.933 107.094C102.218 106.931 102.513 106.705 102.81 106.412C103.476 105.752 103.842 104.866 103.835 103.922C103.828 102.982 103.456 102.098 102.787 101.436C102.684 101.334 102.572 101.237 102.458 101.149C102.899 100.688 103.17 100.067 103.17 99.3845C103.17 97.9881 102.022 96.8312 100.611 96.8086L100.232 96.8063L100.223 97.1995H100.22C100.179 98.2298 99.33 99.0365 98.2866 99.0365C97.7683 99.0365 97.282 98.8376 96.9166 98.4739C96.5513 98.1123 96.3527 97.6333 96.3527 97.1227C96.355 96.264 96.9326 95.5093 97.7614 95.2789C99.3643 94.8812 100.88 94.2304 102.275 93.3515C102.691 93.6881 103.209 93.8644 103.732 93.8644C104.212 93.8644 104.693 93.7175 105.102 93.4125L105.399 93.1865L105.191 92.9109C104.666 92.2398 104.764 91.3066 105.431 90.64C106.084 89.987 106.639 89.2775 107.175 88.4053C108.643 86.0215 109.417 83.2807 109.417 80.4744C109.431 72.0598 102.513 65.2134 94.0101 65.2134ZM18.3235 113.267C20.0519 113.267 21.4789 111.968 21.6616 110.303C22.9813 110.461 24.0133 111.586 24.0133 112.928C24.0133 114.388 22.8146 115.574 21.3396 115.574V116.252C22.0817 116.252 22.7644 116.01 23.3192 115.606C24.2781 116.756 24.8033 118.193 24.8033 119.693C24.8033 122.323 23.1959 124.522 20.8579 125.448C21.3693 124.865 21.6821 124.106 21.6821 123.275C21.6821 121.415 20.3145 120.048 18.3577 119.953H18.3418C18.2687 119.953 18.1979 119.949 18.1248 119.946C18.2139 119.442 18.1865 118.914 18.029 118.403L17.3737 118.602C17.6636 119.54 17.4079 120.552 16.707 121.245C15.748 122.195 14.2137 122.267 13.168 121.458C14.1794 120.22 14.1201 118.471 12.983 117.077C12.9305 116.995 12.8643 116.894 12.8232 116.826L12.7798 116.751C12.2364 115.805 11.9487 114.724 11.9487 113.629C11.9487 111.758 12.773 110.077 14.0813 108.917C13.6429 109.636 13.394 110.49 13.394 111.435C13.394 114.085 15.5745 116.243 18.2527 116.243V115.565C15.9512 115.565 14.079 113.712 14.079 111.435C14.079 110.226 14.5265 109.2 15.2982 108.472C15.0859 108.911 14.9671 109.408 14.9671 109.95C14.9649 111.776 16.4718 113.267 18.3235 113.267ZM96.4258 111.428C96.4258 110.483 96.1769 109.631 95.7385 108.911C97.0468 110.07 97.871 111.753 97.871 113.622C97.871 114.718 97.5834 115.798 97.0399 116.744L96.9966 116.819C96.9555 116.887 96.8893 116.989 96.8367 117.07C95.6997 118.464 95.6426 120.213 96.6518 121.451C95.6061 122.262 94.074 122.188 93.1128 121.239C92.4118 120.545 92.1584 119.533 92.4461 118.595L91.7908 118.396C91.6333 118.907 91.6059 119.433 91.6949 119.939C91.6219 119.942 91.5511 119.946 91.478 119.946H91.462C89.5053 120.043 88.1376 121.408 88.1376 123.268C88.1376 124.099 88.4505 124.859 88.9619 125.441C86.6239 124.515 85.0165 122.314 85.0165 119.686C85.0165 118.188 85.5416 116.749 86.5006 115.599C87.0577 116.003 87.7404 116.245 88.4824 116.245V115.567C87.0097 115.567 85.8088 114.381 85.8088 112.921C85.8088 111.579 86.8408 110.454 88.1605 110.296C88.3409 111.961 89.7679 113.26 91.4986 113.26C93.3503 113.26 94.8572 111.769 94.8572 109.937C94.8572 109.394 94.7385 108.897 94.5261 108.459C95.2978 109.186 95.7454 110.212 95.7454 111.421C95.7454 113.699 93.8731 115.551 91.5716 115.551V116.229C94.2453 116.236 96.4258 114.08 96.4258 111.428ZM92.6151 35.3762C92.6151 37.516 90.857 39.2558 88.6948 39.2558V39.9337C91.2337 39.9337 93.3 37.8888 93.3 35.3762C93.3 34.5289 93.09 33.7606 92.7155 33.1009C93.8914 34.1877 94.6266 35.7332 94.6266 37.4482C94.6266 38.4808 94.3549 39.4953 93.8434 40.3879L93.8023 40.4579C93.7544 40.537 93.7064 40.6161 93.6562 40.6929C93.0854 41.2826 92.7749 42.0577 92.7749 42.8756C92.7749 43.5964 93.0192 44.2811 93.4667 44.8369C92.4895 45.5848 91.0602 45.5125 90.1674 44.6268C89.5122 43.9783 89.2724 43.0293 89.5418 42.1503L88.8865 41.9537C88.7404 42.4305 88.7107 42.9231 88.7929 43.3976C88.7313 43.3998 88.6719 43.4021 88.6103 43.4021H88.5943C86.7357 43.4947 85.4366 44.7917 85.4366 46.5587C85.4366 47.4309 85.7973 48.2217 86.3773 48.7934C84.126 47.9008 82.5301 45.7204 82.5301 43.1784C82.5301 41.773 83.0209 40.424 83.916 39.3462C84.4411 39.7236 85.085 39.9495 85.7814 39.9495V39.2717C84.4 39.2717 83.2767 38.16 83.2767 36.7929C83.2767 35.5412 84.2333 34.4927 85.4617 34.3368C85.6444 35.9072 86.9938 37.1319 88.6285 37.1319C90.3866 37.1319 91.8182 35.7151 91.8182 33.9753C91.8182 33.4963 91.72 33.0557 91.5442 32.6602C92.2246 33.3381 92.6151 34.2758 92.6151 35.3762ZM69.9335 52.6188C70.1139 52.7973 70.2532 52.9645 70.4038 53.1407C70.8011 53.613 71.2509 54.1485 72.5478 54.9822C73.888 55.8454 75.1324 55.9651 75.7215 55.9651C75.8882 55.9651 76.0023 55.9561 76.0503 55.9516C78.4636 55.9403 80.4226 53.9948 80.4226 51.6042C80.4226 51.4167 80.4067 51.2337 80.3838 51.0506H80.3884C80.3427 50.5942 80.2194 50.2191 80.0802 49.9186C80.0756 49.9096 80.0733 49.9028 80.0687 49.8938C80.0573 49.8712 80.0459 49.8486 80.0368 49.826C79.3495 48.3143 77.8129 47.2569 76.032 47.2569V47.9347C76.6234 47.9347 77.1827 48.0771 77.6805 48.3211C77.6713 48.3211 77.6645 48.3189 77.6554 48.3189C76.959 48.3189 76.306 48.5877 75.8151 49.0735C74.8881 49.9909 74.8105 51.4302 75.5731 52.438C74.8264 52.9667 73.7693 52.9012 73.1003 52.2392C72.3514 51.498 72.3514 50.2937 73.1003 49.5526L72.6163 49.0735C72.2715 49.4147 72.0455 49.8305 71.9359 50.2688C71.7669 50.3005 71.5934 50.3208 71.4199 50.3208C69.8467 50.3208 68.5658 49.0532 68.5658 47.4964C68.5658 47.397 68.5704 47.2998 68.5818 47.2026C68.8672 47.5009 69.2645 47.6862 69.6938 47.6862C69.8262 47.6862 69.9563 47.6704 70.0819 47.6365C70.6641 47.4873 70.9336 46.997 71.1733 46.5654C72.0523 44.9702 73.2716 44.4799 73.7305 44.2946L73.7899 44.272C74.4999 43.9828 75.2603 43.8359 76.0525 43.8359C79.2422 43.8359 81.836 46.4028 81.836 49.5593C81.836 49.6859 81.8291 49.8124 81.8223 49.9389L82.5049 50C82.5163 49.8531 82.5232 49.7062 82.5232 49.5593C82.5232 48.1675 82.0711 46.8773 81.304 45.8266L81.3085 45.8243C80.1213 44.2946 79.4934 42.4192 79.4934 40.4037C79.4934 37.9137 80.5573 35.5208 82.4113 33.8352C84.0758 32.3236 86.2357 31.4921 88.4961 31.4921C88.5463 31.4921 88.592 31.4921 88.6194 31.4921C88.6308 31.4921 88.6422 31.4921 88.6537 31.4921C90.1355 31.5689 91.1378 32.5631 91.1378 33.9685C91.1378 35.3355 90.0145 36.4472 88.6331 36.4472C87.254 36.4472 86.1307 35.3378 86.1284 33.9708L86.1216 33.6251L85.7357 33.6296C84.005 33.659 82.5985 35.0734 82.5985 36.7862C82.5985 37.5928 82.9091 38.3272 83.4114 38.8853C82.4022 40.0896 81.8497 41.599 81.8497 43.1739C81.8497 46.4796 84.2721 49.234 87.4527 49.7943L87.8134 48.895C86.8339 48.5584 86.1261 47.6387 86.1261 46.5564C86.1261 45.1487 87.133 44.1523 88.6331 44.0777C88.7518 44.0777 88.8728 44.0732 88.9916 44.0687C89.1491 44.4505 89.3843 44.8053 89.688 45.108C89.9117 45.3295 90.1629 45.5102 90.4277 45.6503C90.035 46.1429 89.8135 46.7553 89.8135 47.3924C89.8135 48.947 91.0921 50.2123 92.663 50.2123C93.9439 50.2123 95.0033 49.2746 95.1837 48.0567C96.0604 48.2036 96.7363 48.9673 96.7363 49.8734C96.7363 50.8902 95.9006 51.7195 94.8709 51.7195C93.2247 51.2901 91.4095 51.4958 89.8455 52.4425C89.6263 52.5758 89.4208 52.725 89.2222 52.8809L89.6514 53.3486L89.6994 53.3667C89.8615 53.2424 90.0304 53.1249 90.204 53.0187C92.9256 51.3715 96.492 52.2233 98.1564 54.9167C98.5697 55.5855 98.8391 56.3041 98.9601 57.0542L98.9693 57.1152C99.0492 57.5988 99.2638 58.8845 98.3482 60.4548C98.0971 60.8842 97.8162 61.3677 97.9921 61.9371C98.0309 62.0614 98.0834 62.1811 98.1519 62.2918C98.3756 62.6534 98.7432 62.8906 99.1496 62.9765C99.072 63.0352 98.9898 63.0917 98.9031 63.1437C97.5605 63.9571 95.8002 63.5369 94.9782 62.2082C94.8869 62.0614 94.8161 61.9055 94.7544 61.7473C95.0832 61.4174 95.3161 61.0084 95.4303 60.5475L94.7636 60.3893C94.6426 60.8819 94.3366 61.2999 93.8982 61.5643C93.4621 61.8286 92.9461 61.9077 92.4484 61.7902C91.5305 61.5711 90.9209 60.7147 90.9871 59.8064C91.0693 59.8131 91.1538 59.8199 91.236 59.8199C91.7086 59.8199 92.1744 59.6911 92.5899 59.4403C93.1836 59.081 93.5991 58.5139 93.7635 57.8451C94.0992 56.4668 93.2429 55.0749 91.8502 54.7382C91.7931 54.7224 91.5808 54.6682 91.2611 54.6591H91.252C88.1217 54.6591 85.5759 57.1785 85.5759 60.2763C85.5759 63.3742 88.1217 65.8936 91.252 65.8936H93.9827C100.227 65.9116 105.31 70.9527 105.31 77.1348C105.31 79.4463 104.6 81.6561 103.307 83.5089C103.408 83.222 103.458 83.0299 103.465 83.0028C103.734 82.1509 103.876 81.2449 103.876 80.3252C103.876 75.4469 100.159 71.5311 95.3846 71.3413C94.533 70.2477 93.3297 69.4501 91.9255 69.0931L91.7543 69.7506C93.6631 70.2341 95.1586 71.6305 95.7591 73.4833C95.9965 74.2154 96.0856 74.9633 96.0239 75.7067H96.0376C96.0833 76.3326 96.3618 76.9088 96.8322 77.3359C97.2272 77.6929 97.7158 77.9098 98.2386 77.964C98.1268 78.7933 97.419 79.4598 96.5468 79.4982C95.9919 79.5186 95.4668 79.2949 95.1061 78.8769L95.0969 78.8859L94.8709 78.6283L94.5969 78.8656C94.3229 79.1525 93.9233 79.5683 93.9553 80.1512C93.9622 80.2778 93.9873 80.4066 94.0261 80.5286C94.1539 80.9217 94.4439 81.2336 94.807 81.4098C94.7225 81.446 94.6357 81.4776 94.549 81.507C93.8366 81.7329 93.0786 81.6697 92.4141 81.3307C91.7497 80.9918 91.2588 80.4179 91.0305 79.7129C90.978 79.5547 90.9483 79.3898 90.9255 79.2271C91.3159 78.9876 91.6356 78.6509 91.8502 78.2352L91.2406 77.9256C91.0099 78.3685 90.6195 78.6938 90.1423 78.8452C89.6651 78.9966 89.1537 78.9537 88.7085 78.7277C87.8796 78.3052 87.5006 77.3404 87.7883 76.4863C88.0509 76.5473 88.3203 76.5789 88.5897 76.5789C89.1879 76.5789 89.7839 76.4275 90.309 76.1293C91.1081 75.6774 91.6652 74.9498 91.8799 74.0776C92.099 73.1851 91.9552 72.2609 91.4712 71.4769C90.9894 70.6928 90.2291 70.1437 89.3272 69.9268C87.818 69.5653 86.8065 70.0059 85.8453 70.7945C85.9458 70.503 86.0234 70.2025 86.0805 69.8929C86.6421 67.5905 86.1079 64.7073 84.7585 62.8296C84.037 61.8286 82.8406 60.961 81.7812 60.6718L81.6967 60.6492C81.6008 60.6243 81.4455 60.5904 81.3496 60.5723V60.5746C79.9546 60.43 78.9819 59.4697 78.9819 58.2315L78.9751 57.888L78.5915 57.8903C76.9384 57.9174 75.5959 59.2686 75.5959 60.9022C75.5959 61.3067 75.6781 61.6976 75.8288 62.0569C75.7466 62.1292 75.6667 62.2037 75.5913 62.2806C74.5433 63.2205 73.2008 63.2205 72.251 62.2828C71.5934 61.6321 71.4085 60.6921 71.6893 59.8741L70.9199 59.5104C69.2257 61.9846 69.4632 65.2564 71.6482 67.4187C72.7145 68.4739 74.1072 69.1202 75.5982 69.2625C75.6438 69.9969 75.9498 70.6838 76.4818 71.208C77.0731 71.7932 77.854 72.0847 78.6349 72.0847C79.3997 72.0847 80.1623 71.8045 80.7491 71.2441L81.0254 70.9753L80.7857 70.7267C79.8678 69.8161 79.8678 68.3361 80.788 67.4255C81.6738 66.5488 83.6123 66.3342 84.69 67.3826C85.0393 67.7215 85.4046 68.3745 85.5005 68.8242C85.4982 69.1405 85.4686 69.4523 85.4138 69.7551C85.4069 69.7867 85.4001 69.8206 85.3909 69.8523L85.3955 69.8545C85.19 70.8984 84.6877 71.8384 83.9822 72.5818C83.8612 72.6993 83.7379 72.819 83.6077 72.9411C82.6328 73.7929 81.3565 74.3126 79.9614 74.3126C75.8516 74.3126 73.2624 71.9898 70.7577 69.7438C69.1846 68.3339 67.6708 66.9849 65.8762 66.307L65.8785 66.298C65.8625 66.2912 65.7415 66.2483 65.5292 66.1873C65.1661 66.0698 64.794 65.9794 64.4035 65.9229C64.4035 65.9252 64.4035 65.9274 64.4035 65.9274C63.9446 65.8461 63.3943 65.7715 62.7665 65.7354C62.7276 63.8374 63.3829 62.3393 63.6615 61.788C63.666 61.788 63.6706 61.7857 63.6775 61.7857L63.7802 61.666C64.4766 61.4355 64.9698 60.4526 64.9698 59.1985C64.9698 57.9671 64.4926 56.9977 63.8167 56.7469C63.8167 55.2308 63.8282 54.2276 63.8487 53.8434C63.9241 52.4741 64.1341 51.2269 64.4035 50.1287C66.4287 50.2123 68.3832 51.0845 69.9335 52.6188ZM97.7432 88.1319C96.6267 88.4844 95.4622 88.6674 94.2772 88.6697H89.8546C88.8477 88.6697 88.0303 87.8608 88.0303 86.8643L88.0235 86.5209L87.649 86.5231C86.286 86.5457 85.1786 87.6597 85.1786 89.0064C85.1786 89.1216 85.19 89.2346 85.2037 89.3453C84.7767 89.517 84.368 89.7159 83.9776 89.9441L83.9822 85.0477L83.852 84.946C80.24 82.0922 76.2306 79.8033 71.9724 78.1403C72.1642 76.6783 71.6916 75.3746 71.1824 74.6402C70.2988 73.3636 69.3718 72.6857 68.0841 72.3717C67.7302 72.2858 67.3923 72.1615 67.0703 72.0124L67.0749 72.0056C64.4378 70.7109 63.0793 68.9304 62.8098 66.4268C63.9766 66.5014 64.8602 66.7115 65.3077 66.8403C67.1343 67.43 68.68 68.8084 70.2897 70.2545C72.7693 72.4778 75.5799 74.9995 79.9546 74.9995C81.3473 74.9995 82.6351 74.5408 83.6717 73.7681L83.6922 73.7906C83.8201 73.6754 83.9456 73.5602 84.0667 73.4472C84.2014 73.3297 84.3292 73.2054 84.4548 73.0744C84.6626 72.871 84.8589 72.6744 85.0416 72.4914C86.4389 71.0905 87.3591 70.1641 89.1605 70.5957C89.882 70.7696 90.4939 71.2102 90.8798 71.8384C91.268 72.4688 91.3844 73.2099 91.2063 73.9262C91.0373 74.6154 90.5944 75.1916 89.962 75.5486C89.3112 75.9169 88.5212 76.0073 87.7952 75.7949L87.4344 75.6209L87.2655 75.9553C86.649 77.1912 87.1536 78.7074 88.3911 79.3378C88.7587 79.5254 89.1605 79.6203 89.5624 79.6203C89.7998 79.6203 90.035 79.5864 90.2679 79.5208C90.2953 79.6587 90.3295 79.7942 90.3729 79.9276C90.656 80.8043 91.268 81.5205 92.0968 81.9408C92.5968 82.1961 93.1402 82.3249 93.6882 82.3249C94.0466 82.3249 94.4051 82.2707 94.7544 82.16C95.2134 82.0154 95.6266 81.7826 95.9851 81.4731L95.8321 81.1454L95.6906 80.8856C95.259 80.9737 94.8024 80.7252 94.6745 80.3297C94.6517 80.262 94.6403 80.1919 94.6357 80.1219C94.6243 79.9366 94.7156 79.7716 94.8572 79.5977C95.3024 79.9773 95.8664 80.1897 96.4623 80.1897C96.4988 80.1897 96.5353 80.1897 96.5719 80.1874C97.9121 80.1287 98.9716 79.0034 98.9373 77.6771L98.9236 77.3042L98.5766 77.3133C98.1016 77.3313 97.645 77.1687 97.2934 76.8501C96.9418 76.5315 96.7363 76.0954 96.7157 75.6254C96.7614 74.8436 96.6609 74.0573 96.4121 73.289C96.2728 72.8575 96.0878 72.4485 95.8664 72.0666C100.024 72.4892 103.191 76.0005 103.191 80.3365C103.191 81.1861 103.061 82.0244 102.807 82.8288C102.796 82.8672 102.214 85.059 100.885 86.0599C100.588 86.2836 99.5492 86.9638 98.6679 86.2836L98.3916 86.0803L98.1656 86.3718C97.7751 86.8734 97.629 87.5151 97.7432 88.1319ZM54.9099 79.0757C54.9076 79.0757 54.9076 79.0757 54.9099 79.0757C54.9053 79.0757 54.903 79.0757 54.9007 79.0757C50.4348 78.9966 48.494 75.7655 48.4118 75.6276L48.3045 75.4401C47.8364 74.6267 47.1309 73.3975 45.6423 72.7083C45.003 72.4123 44.4025 72.2564 43.8568 72.1909C45.2496 71.3752 46.2633 70.381 46.9095 69.1857C47.2108 69.2354 47.5351 69.3258 47.8821 69.4862C48.8 69.911 49.2406 70.6793 49.5626 71.2419L49.6448 71.382C50.1722 72.2835 51.5992 73.7206 53.8687 74.1002C53.4532 74.3962 53.1792 74.8775 53.1792 75.4243C53.1792 76.3236 53.9167 77.0534 54.8254 77.0534C54.8528 77.0534 54.8802 77.0512 54.9099 77.0489C54.9373 77.0512 54.9647 77.0534 54.9944 77.0534C55.9031 77.0534 56.6406 76.3236 56.6406 75.4243C56.6406 74.8797 56.3666 74.3962 55.951 74.1002C58.2206 73.7206 59.6476 72.2835 60.175 71.382L60.2572 71.2419C60.5791 70.6793 61.0221 69.911 61.9376 69.4862C62.2938 69.3213 62.6295 69.2264 62.9354 69.1789C63.5679 70.3494 64.5519 71.33 65.899 72.1344C65.9242 72.1525 65.9493 72.1706 65.9744 72.1886C65.4264 72.2542 64.8236 72.4101 64.1798 72.7061C62.6911 73.3952 61.9856 74.6244 61.5175 75.4378L61.4102 75.6254C61.328 75.7655 59.385 78.9966 54.9213 79.0734C54.9145 79.0757 54.9122 79.0757 54.9099 79.0757ZM37.8451 78.1403C33.5891 79.8033 29.5775 82.0922 25.9654 84.946L25.8353 85.0477L25.8399 89.9441C25.4494 89.7181 25.0407 89.517 24.6138 89.3453C24.6298 89.2346 24.6389 89.1216 24.6389 89.0064C24.6389 87.6597 23.5315 86.5457 22.1684 86.5231L21.794 86.5209L21.7871 86.8643C21.7871 87.8585 20.9675 88.6697 19.9628 88.6697H15.5402C14.3552 88.6674 13.1908 88.4844 12.0743 88.1319C12.1885 87.5151 12.0401 86.8734 11.6519 86.3627L11.4259 86.0712L11.1496 86.2746C10.2683 86.9547 9.2294 86.2746 8.93258 86.0509C7.60375 85.0499 7.02153 82.8582 7.01011 82.8198C6.75667 82.0154 6.62653 81.1771 6.62653 80.3275C6.62653 75.9914 9.79564 72.4801 13.9511 72.0576C13.7296 72.4394 13.5447 72.8484 13.4054 73.28C13.1566 74.0482 13.0561 74.8345 13.1018 75.6164C13.0812 76.0886 12.8757 76.5224 12.5241 76.841C12.1725 77.1596 11.7158 77.3223 11.2409 77.3042L10.8939 77.2952L10.8802 77.668C10.8436 78.9944 11.9053 80.1196 13.2433 80.1784C13.2798 80.1806 13.3164 80.1806 13.3529 80.1806C13.9488 80.1806 14.5128 79.9682 14.958 79.5886C15.0996 79.7626 15.1909 79.9276 15.1795 80.1128C15.1749 80.1829 15.1612 80.2529 15.1407 80.3207C15.0128 80.7161 14.5562 80.9647 14.1246 80.8766L13.9831 81.1364L13.8301 81.464C14.1886 81.7759 14.6041 82.0063 15.0608 82.1509C15.4101 82.2617 15.7708 82.3159 16.127 82.3159C16.675 82.3159 17.2184 82.1871 17.7184 81.9318C18.545 81.5092 19.1569 80.7952 19.4423 79.9185C19.4856 79.7852 19.5199 79.6496 19.5473 79.5118C19.7802 79.5773 20.0176 79.6112 20.2528 79.6112C20.6569 79.6112 21.0565 79.5163 21.4241 79.3288C22.6616 78.6984 23.1662 77.1822 22.5497 75.9462L22.3808 75.6118L22.02 75.7858C21.294 75.9982 20.504 75.9078 19.8532 75.5395C19.2208 75.1825 18.7778 74.6041 18.6089 73.9172C18.4331 73.2009 18.5495 72.4598 18.9377 71.8294C19.3235 71.2012 19.9354 70.7606 20.6569 70.5866C22.4561 70.155 23.3785 71.0815 24.7759 72.4824C24.9608 72.6677 25.1572 72.8642 25.3627 73.0653C25.486 73.1941 25.6161 73.3184 25.7508 73.4382C25.8718 73.5534 25.9974 73.6664 26.1253 73.7816L26.1458 73.759C27.1847 74.5318 28.4701 74.9905 29.8629 74.9905C34.2376 74.9905 37.0482 72.4688 39.5278 70.2454C41.0941 68.84 42.601 67.5001 44.3614 66.8855C44.7107 66.7748 45.6834 66.5059 47.0373 66.42C46.7816 68.7903 45.5509 70.5098 43.1855 71.7864C43.1627 71.8 43.1399 71.8113 43.117 71.8226C43.0166 71.8768 42.9138 71.931 42.8088 71.983C42.4709 72.1434 42.1124 72.2745 41.738 72.3671C40.4502 72.6812 39.5232 73.3591 38.6396 74.6357C38.1259 75.3746 37.6533 76.6783 37.8451 78.1403ZM46.8524 61.5936C46.8912 61.5733 46.9277 61.5507 46.9643 61.5259C48.5077 62.9449 51.4462 63.8871 54.8962 63.8871C58.3553 63.8871 61.3006 62.9403 62.8395 61.5146C62.8875 61.5485 62.9377 61.5778 62.9879 61.6049C62.6226 62.3506 61.9262 64.0927 62.102 66.2641C62.1683 67.0888 62.3486 67.8481 62.6363 68.5462C62.3235 68.6095 61.9924 68.7112 61.6454 68.8739C60.5312 69.3891 60.006 70.3042 59.659 70.9075L59.5814 71.043C59.522 71.1425 58.1292 73.4607 54.919 73.5172C54.9167 73.5172 54.9144 73.5172 54.9122 73.5172C54.9122 73.5172 54.9122 73.5172 54.9099 73.5172C54.9099 73.5172 54.9099 73.5172 54.9076 73.5172C54.9053 73.5172 54.903 73.5172 54.9007 73.5172C51.6905 73.4607 50.2978 71.1425 50.2384 71.043L50.1608 70.9075C49.8137 70.3019 49.2886 69.3891 48.1744 68.8739C47.8365 68.718 47.5145 68.614 47.2108 68.5508C47.4985 67.8503 47.6789 67.0911 47.7451 66.2664C47.9209 64.0814 47.2154 62.3325 46.8524 61.5936ZM54.9099 45.3227C54.935 45.3227 54.9601 45.3227 54.9829 45.3227C58.2776 45.3227 61.5472 46.1113 64.4629 47.5981C64.0474 48.6962 63.6432 50.07 63.3921 51.672H46.43C46.1765 50.07 45.7724 48.6962 45.3592 47.5981C48.2748 46.109 51.5444 45.3227 54.8391 45.3227C54.8597 45.3227 54.8825 45.3227 54.9099 45.3227C54.9076 45.3227 54.9076 45.3227 54.9099 45.3227ZM63.4606 61.0491C63.0747 61.0491 62.6409 60.2628 62.6409 59.2076C62.6409 58.1524 63.0747 57.366 63.4606 57.366C63.8464 57.366 64.2802 58.1524 64.2802 59.2076C64.2802 60.2628 63.8487 61.0491 63.4606 61.0491ZM47.8205 58.6133C49.1995 58.2586 51.6038 57.9332 54.8939 57.9332C58.2069 57.9332 60.6202 58.2631 61.9947 58.6201C61.9696 58.8076 61.9559 59.0042 61.9559 59.2076C61.9559 59.4177 61.9696 59.6166 61.997 59.8086C60.6225 60.1656 58.2091 60.4955 54.8939 60.4955C51.6015 60.4955 49.1973 60.1701 47.8182 59.8176C47.8456 59.6233 47.8593 59.4177 47.8593 59.2053C47.8616 59.002 47.8456 58.8031 47.8205 58.6133ZM54.8962 57.2531C54.6359 57.2531 50.2544 57.2644 47.6721 57.9445C47.6058 57.7434 47.5214 57.5626 47.4255 57.4045C48.8434 56.121 51.6951 55.2195 54.8962 55.2195C58.111 55.2195 60.9718 56.1278 62.3829 57.4225C62.2915 57.5784 62.2116 57.7547 62.1477 57.949C59.5654 57.2666 55.1565 57.2531 54.8962 57.2531ZM47.6652 60.4842C50.2475 61.1643 54.6336 61.1756 54.8962 61.1756C55.1588 61.1756 59.5722 61.1643 62.15 60.4774C62.2162 60.6718 62.2961 60.848 62.3897 61.0039C60.981 62.3009 58.1155 63.2115 54.8962 63.2115C51.6883 63.2115 48.8365 62.3077 47.4209 61.0197C47.5168 60.8593 47.599 60.6808 47.6652 60.4842ZM54.8962 54.5439C51.4508 54.5439 48.5168 55.4839 46.9734 56.8983C46.8843 56.8351 46.7907 56.7831 46.6926 56.7492C46.6926 55.6556 46.6857 54.3089 46.6583 53.8163C46.6309 53.3102 46.5852 52.8221 46.5259 52.3521H63.2962C63.2368 52.8221 63.1934 53.3124 63.1637 53.8163C63.1363 54.3089 63.1295 55.6556 63.1295 56.7492C63.0267 56.7853 62.9286 56.8396 62.8372 56.9074C61.2938 55.4839 58.3484 54.5439 54.8962 54.5439ZM46.3569 57.3683C46.7428 57.3683 47.1766 58.1546 47.1766 59.2098C47.1766 60.265 46.7428 61.0514 46.3569 61.0514C45.9711 61.0514 45.5372 60.265 45.5372 59.2098C45.5372 58.1546 45.9688 57.3683 46.3569 57.3683ZM54.9099 76.3665C54.8802 76.3688 54.8551 76.3756 54.8254 76.3756C54.2957 76.3756 53.8642 75.9485 53.8642 75.4243C53.8642 74.9001 54.2957 74.473 54.8254 74.473C54.8528 74.473 54.8802 74.4775 54.9076 74.4821H54.9099H54.9122C54.9396 74.4798 54.967 74.473 54.9944 74.473C55.5241 74.473 55.9556 74.9001 55.9556 75.4243C55.9556 75.9485 55.5241 76.3756 54.9944 76.3756C54.9647 76.3756 54.9373 76.3688 54.9099 76.3665ZM39.2013 75.0221C39.9822 73.8946 40.7881 73.3003 41.8978 73.0292C41.9206 73.0247 41.9412 73.0156 41.9617 73.0111V73.0134C42.7129 72.7874 43.9093 72.6564 45.35 73.3229C46.5053 73.8584 47.1195 74.7735 47.5602 75.5214C44.4618 76.0027 41.4297 76.8026 38.5072 77.894C38.393 76.6828 38.8017 75.6005 39.2013 75.0221ZM64.4675 73.3207C65.9059 72.6541 67.1046 72.7851 67.8558 73.0111V73.0088C67.8763 73.0134 67.8969 73.0224 67.9197 73.0269C69.0293 73.2981 69.8353 73.8946 70.6162 75.0198C71.0157 75.596 71.4244 76.6806 71.3103 77.8872C68.3878 76.7958 65.3556 75.9982 62.2573 75.5147C62.698 74.7713 63.3121 73.8562 64.4675 73.3207ZM78.9203 65.5072C80.3656 64.0769 82.715 64.0769 84.1603 65.5072C84.4776 65.8213 84.7608 66.2619 84.9663 66.7409C83.5758 65.6066 81.3679 65.8913 80.2925 66.9555C79.192 68.0446 79.1143 69.7619 80.0505 70.9436C79.1303 71.6373 77.7924 71.5673 76.9544 70.7357C76.5092 70.2951 76.2626 69.7077 76.2626 69.084C76.2626 68.4604 76.5092 67.8729 76.9544 67.4323L76.4704 66.9533C76.016 67.4029 75.726 67.9701 75.6233 68.5847C74.3013 68.4514 73.0684 67.8797 72.1208 66.9442C70.4838 65.3241 70.0796 63.0059 70.8879 60.9949C70.9655 61.6434 71.2532 62.2715 71.7532 62.7663C72.3606 63.3674 73.1072 63.6656 73.8675 63.6679C74.6187 63.6679 75.3813 63.3742 76.0366 62.7889L75.806 62.5381L76.048 62.7776C76.0845 62.7415 76.1233 62.7076 76.1599 62.6737C76.427 63.0398 76.7786 63.3493 77.1964 63.5685L77.5184 62.9697C76.7466 62.563 76.2672 61.7722 76.2672 60.9067C76.2672 59.734 77.1599 58.7511 78.3084 58.5952C78.4796 60.012 79.6395 61.0785 81.256 61.2502C81.3405 61.2683 81.4455 61.2909 81.514 61.3089L81.5894 61.3293C82.4958 61.5756 83.5643 62.3551 84.1922 63.2273C84.7562 64.0114 85.1649 65.0101 85.3955 66.063C85.1991 65.6925 84.9526 65.3309 84.642 65.0259C82.9296 63.3312 80.1464 63.3312 78.4339 65.0259L78.9203 65.5072ZM67.7599 41.9492C67.6914 41.8159 67.6503 41.669 67.6503 41.5176C67.6503 40.9934 68.0818 40.5664 68.6115 40.5664C68.7302 40.5664 68.8444 40.589 68.9517 40.6296C68.4996 41.0883 68.1023 41.5335 67.7599 41.9492ZM62.6706 35.7151C63.2003 35.7151 63.6318 36.1422 63.6318 36.6664C63.6318 37.1906 63.2003 37.6177 62.6706 37.6177C62.1409 37.6177 61.7093 37.1906 61.7093 36.6664C61.7093 36.1422 62.1409 35.7151 62.6706 35.7151ZM43.5394 24.7586C43.5394 23.7735 43.665 22.8019 43.9162 21.8574C45.8386 26.1144 50.1105 28.9094 54.8345 28.9094C54.8596 28.9094 54.8825 28.9071 54.9076 28.9071C54.9327 28.9071 54.9555 28.9094 54.9807 28.9094C59.7047 28.9094 63.9766 26.1121 65.899 21.8574C66.1502 22.8019 66.2758 23.7735 66.2758 24.7586C66.2758 29.7138 63.0039 34.1267 58.2936 35.5728C57.5676 34.7051 56.5264 33.8036 55.0514 33.1573L54.9236 33.1009L54.9053 33.1076L54.8871 33.1009L54.7592 33.1573C53.2865 33.8036 52.2431 34.7051 51.517 35.5728C46.8113 34.1267 43.5394 29.7138 43.5394 24.7586ZM46.1857 36.6664C46.1857 36.1422 46.6172 35.7151 47.1469 35.7151C47.6766 35.7151 48.1082 36.1422 48.1082 36.6664C48.1082 37.1906 47.6766 37.6177 47.1469 37.6177C46.6172 37.6199 46.1857 37.1929 46.1857 36.6664ZM42.0599 41.9492C41.7151 41.5335 41.3178 41.0883 40.8658 40.6274C40.9731 40.5867 41.0895 40.5641 41.206 40.5641C41.7357 40.5641 42.1672 40.9912 42.1672 41.5154C42.1672 41.6713 42.1284 41.8159 42.0599 41.9492ZM45.1034 46.9654C44.5212 45.5735 43.9778 44.742 43.8773 44.5929C43.7997 44.4392 43.3682 43.6303 42.5097 42.5118C42.7312 42.2294 42.8545 41.8814 42.8545 41.5176C42.8545 40.6183 42.117 39.8885 41.2082 39.8885C40.9046 39.8885 40.61 39.9721 40.3543 40.1258C39.6511 39.4547 38.8337 38.7633 37.8884 38.0899C39.1511 37.8323 41.9503 37.586 44.5166 39.6038C44.1627 39.9292 43.6901 40.5302 43.7152 41.416C43.7609 42.9366 44.7587 43.4382 45.0852 43.6032L45.3089 43.7162L45.4847 43.5377C45.5669 43.4541 47.446 41.5086 47.5191 38.2842C47.9369 39.0073 49.2224 40.8692 51.8275 41.8633L52.0673 41.9537L52.2225 41.7526C52.2317 41.7413 52.2933 41.66 52.3664 41.5244V41.5267C52.3687 41.5289 52.3687 41.5289 52.3709 41.5312C52.5604 41.2149 52.8413 40.5551 52.6061 39.6942C52.3093 38.6096 51.4942 38.1215 50.8731 37.9521C51.0626 37.4844 51.2887 37.0641 51.5376 36.6867C51.5421 36.68 51.5467 36.6732 51.5513 36.6687C51.622 36.5625 51.6928 36.4608 51.7659 36.3614C52.4029 35.5005 53.3961 34.5311 54.9053 33.8397V33.842C54.9053 33.842 54.9053 33.842 54.9076 33.842C54.9076 33.842 54.9076 33.842 54.9099 33.842V33.8397C56.4191 34.5311 57.4123 35.5027 58.0493 36.3614C58.1224 36.4608 58.1932 36.5625 58.2639 36.6687C58.2685 36.6754 58.2731 36.6822 58.2776 36.6867C58.5265 37.0641 58.7525 37.4844 58.9421 37.9521C58.321 38.1215 57.5059 38.6074 57.2091 39.6942C56.9739 40.5573 57.2548 41.2149 57.4443 41.5312C57.4465 41.5289 57.4465 41.5289 57.4488 41.5267V41.5244C57.5219 41.66 57.5835 41.7413 57.5927 41.7526L57.7479 41.9537L57.9877 41.8633C60.5928 40.8692 61.8783 39.0073 62.2961 38.2842C62.3692 41.5086 64.246 43.4541 64.3305 43.5377L64.5063 43.7162L64.73 43.6032C65.0565 43.4382 66.0543 42.9389 66.1 41.416C66.1274 40.5302 65.6525 39.9269 65.2986 39.6038C67.8649 37.5838 70.6641 37.8323 71.9268 38.0899C70.9838 38.761 70.1641 39.4547 69.4609 40.1258C69.2052 39.9721 68.9129 39.8885 68.6092 39.8885C67.7005 39.8885 66.963 40.6183 66.963 41.5176C66.963 41.8814 67.0863 42.2294 67.3078 42.5118C66.447 43.628 66.0178 44.4392 65.9401 44.5929C65.8397 44.742 65.2963 45.5735 64.7141 46.9654C61.7185 45.447 58.3621 44.6448 54.9829 44.6448C54.9578 44.6448 54.935 44.6448 54.9099 44.6448C54.8848 44.6448 54.8619 44.6448 54.8368 44.6448C51.4554 44.6448 48.099 45.447 45.1034 46.9654ZM16.3485 44.8369C16.796 44.2811 17.0403 43.5964 17.0403 42.8756C17.0403 42.0554 16.7298 41.2826 16.159 40.6929C16.1088 40.6161 16.0585 40.537 16.0129 40.4579L15.9718 40.3879C15.4603 39.4976 15.1886 38.4808 15.1886 37.4482C15.1886 35.7332 15.9261 34.1877 17.0997 33.1009C16.7252 33.7584 16.5152 34.5289 16.5152 35.3762C16.5152 37.8888 18.5815 39.9337 21.1204 39.9337V39.2558C18.9582 39.2558 17.2001 37.516 17.2001 35.3762C17.2001 34.2758 17.5906 33.3381 18.2733 32.658C18.0974 33.0534 17.9993 33.494 17.9993 33.973C17.9993 35.7129 19.4309 37.1296 21.1889 37.1296C22.8237 37.1296 24.1731 35.9049 24.3558 34.3346C25.5819 34.4927 26.5408 35.5412 26.5408 36.7907C26.5408 38.1577 25.4175 39.2694 24.0361 39.2694V39.9473C24.7325 39.9473 25.3764 39.7213 25.9015 39.344C26.7965 40.424 27.2851 41.7707 27.2851 43.1761C27.2851 45.7204 25.6892 47.9008 23.4379 48.7911C24.0179 48.2194 24.3786 47.4286 24.3786 46.5564C24.3786 44.7895 23.0794 43.4925 21.2209 43.3998H21.2049C21.1433 43.3998 21.0839 43.3976 21.0223 43.3953C21.1022 42.9231 21.0748 42.4282 20.9286 41.9515L20.2734 42.1481C20.5451 43.027 20.3053 43.976 19.6478 44.6245C18.755 45.5148 17.328 45.5848 16.3485 44.8369ZM15.8348 65.8981H18.5655C21.6958 65.8981 24.2416 63.3787 24.2416 60.2809C24.2416 57.183 21.6958 54.6636 18.5655 54.6636H18.5564C18.239 54.6704 18.0267 54.7246 17.9673 54.7427C16.5768 55.0794 15.7183 56.4713 16.054 57.8496C16.2161 58.5184 16.6339 59.0856 17.2275 59.4448C17.6408 59.6956 18.1066 59.8244 18.5815 59.8244C18.6637 59.8244 18.7459 59.8176 18.8304 59.8109C18.8966 60.7192 18.287 61.5756 17.3691 61.7947C16.8714 61.9122 16.3553 61.8332 15.9193 61.5688C15.4809 61.3044 15.1749 60.8864 15.0539 60.3938L14.3872 60.552C14.4991 61.0129 14.7343 61.4219 15.063 61.7518C15.0014 61.91 14.9306 62.0659 14.8393 62.2128C14.0173 63.5414 12.2592 63.9616 10.9144 63.1482C10.8299 63.0962 10.7477 63.0397 10.6678 62.981C11.0742 62.8951 11.4418 62.6579 11.6656 62.2964C11.7341 62.1856 11.7889 62.0659 11.8254 61.9416C12.0012 61.3722 11.7181 60.8887 11.4692 60.4594C10.5537 58.8867 10.7683 57.6033 10.8482 57.1198L10.8573 57.0588C10.9784 56.3086 11.2478 55.5901 11.661 54.9212C13.3255 52.2279 16.8919 51.376 19.6135 53.0232C19.7893 53.1294 19.956 53.2469 20.1181 53.3712L20.166 53.3531L20.5953 52.8854C20.3967 52.7295 20.1889 52.5781 19.972 52.447C18.408 51.5003 16.5928 51.2947 14.9466 51.724C13.9191 51.724 13.0812 50.897 13.0812 49.8779C13.0812 48.9719 13.757 48.2081 14.6338 48.0613C14.8142 49.2792 15.8736 50.2169 17.1545 50.2169C18.7253 50.2169 20.0039 48.9515 20.0039 47.397C20.0039 46.7598 19.7825 46.1474 19.3898 45.6549C19.6569 45.5125 19.9058 45.334 20.1295 45.1126C20.4355 44.8098 20.6684 44.455 20.8259 44.0732C20.9446 44.08 21.0656 44.0822 21.1844 44.0822C22.6844 44.1568 23.6913 45.151 23.6913 46.5609C23.6913 47.6433 22.9858 48.5651 22.004 48.8996L22.3648 49.7989C25.5453 49.2385 27.9678 46.4841 27.9678 43.1784C27.9678 41.6058 27.4153 40.0941 26.4061 38.8898C26.9107 38.3317 27.2189 37.5973 27.2189 36.7907C27.2189 35.0802 25.8125 33.6635 24.0818 33.6341L23.6959 33.6296L23.6891 33.9753C23.6868 35.3401 22.5657 36.4517 21.1844 36.4517C19.803 36.4517 18.6797 35.3401 18.6797 33.973C18.6797 32.5676 19.682 31.5734 21.1638 31.4966C21.1752 31.4966 21.1867 31.4966 21.1981 31.4966C21.2255 31.4966 21.2711 31.4966 21.3214 31.4966C23.5818 31.4966 25.7417 32.3281 27.4062 33.8397C29.2601 35.5231 30.3241 37.9182 30.3241 40.4082C30.3241 42.4237 29.6962 44.2991 28.509 45.8288L28.5112 45.8311C27.7464 46.8818 27.292 48.172 27.292 49.5639C27.292 49.7107 27.2988 49.8576 27.3103 50.0045L27.9929 49.9435C27.9838 49.8169 27.9792 49.6904 27.9792 49.5639C27.9792 46.4073 30.573 43.8404 33.7627 43.8404C34.5549 43.8404 35.3152 43.9873 36.0253 44.2765L36.0847 44.2991C36.5436 44.4844 37.7629 44.9725 38.6419 46.57C38.8794 47.0015 39.1488 47.4919 39.7333 47.641C39.8589 47.6726 39.9913 47.6907 40.1214 47.6907C40.5507 47.6907 40.9457 47.5032 41.2334 47.2072C41.2425 47.3043 41.2493 47.4015 41.2493 47.5009C41.2493 49.0577 39.9685 50.3253 38.3953 50.3253C38.2218 50.3253 38.0506 50.305 37.8793 50.2734C37.7697 49.835 37.5437 49.4192 37.1989 49.0781L36.7149 49.5571C37.4638 50.2982 37.4638 51.5025 36.7149 52.2437C36.0459 52.9057 34.9887 52.9712 34.2421 52.4425C35.0047 51.4348 34.9271 49.9954 34.0001 49.0781C33.5092 48.5923 32.8539 48.3234 32.1598 48.3234C32.1507 48.3234 32.1438 48.3234 32.1347 48.3256C32.6325 48.0793 33.1896 47.9392 33.7832 47.9392V47.2614C32 47.2614 30.4657 48.3189 29.7784 49.8305C29.767 49.8531 29.7556 49.8757 29.7465 49.8983C29.7419 49.9073 29.7396 49.9141 29.735 49.9231C29.5958 50.2214 29.4725 50.5987 29.4268 51.0552H29.4314C29.4085 51.2359 29.3926 51.4212 29.3926 51.6087C29.3926 53.9993 31.3516 55.9448 33.7649 55.9561C33.8129 55.9606 33.927 55.9697 34.0937 55.9697C34.6828 55.9697 35.9272 55.8499 37.2674 54.9868C38.562 54.1507 39.0141 53.6152 39.4114 53.1452C39.5598 52.969 39.7013 52.8018 39.8817 52.6233C41.4297 51.0913 43.3864 50.2169 45.414 50.1423C45.6834 51.2404 45.8934 52.4854 45.9688 53.857C45.9893 54.2411 46.0007 55.2443 46.0007 56.7605C45.3249 57.0113 44.8477 57.9806 44.8477 59.2121C44.8477 60.4661 45.3409 61.449 46.0373 61.6795L46.1195 61.6772C46.3432 62.0907 47.1218 63.6837 47.0784 65.7489C46.5304 65.7806 46.0418 65.8393 45.6217 65.9094C43.0417 66.1986 41.1009 67.9271 39.0643 69.7551C36.5596 72.0011 33.9704 74.3239 29.8606 74.3239C28.4656 74.3239 27.1893 73.8065 26.2143 72.9524C26.0865 72.8303 25.9609 72.7128 25.8399 72.5931C25.1343 71.8497 24.632 70.9097 24.4265 69.8658L24.4311 69.8636C24.422 69.8319 24.4174 69.798 24.4083 69.7664C24.3535 69.4636 24.3238 69.1541 24.3215 68.8355C24.4174 68.3858 24.7827 67.7328 25.1321 67.3939C26.2097 66.3455 28.1482 66.5601 29.0341 67.4368C29.9542 68.3474 29.9542 69.8274 29.0364 70.738L28.7966 70.9866L29.0729 71.2554C29.6597 71.8158 30.4246 72.096 31.1872 72.096C31.968 72.096 32.7512 71.8022 33.3403 71.2193C33.87 70.6951 34.1782 70.0082 34.2239 69.2738C35.7148 69.1315 37.1076 68.4852 38.1738 67.43C40.3589 65.2677 40.5941 61.9958 38.9022 59.5216L38.1327 59.8854C38.4136 60.7034 38.2286 61.6434 37.5711 62.2941C36.6213 63.2318 35.281 63.2318 34.2307 62.2918C34.1531 62.215 34.0732 62.1405 33.9933 62.0682C34.144 61.7089 34.2262 61.318 34.2262 60.9135C34.2262 59.2799 32.8836 57.9287 31.2306 57.9016L30.847 57.8993L30.8401 58.2428C30.8378 59.4787 29.8652 60.4413 28.4724 60.5859V60.5836C28.3765 60.604 28.219 60.6379 28.1254 60.6605L28.0409 60.6831C26.9792 60.9723 25.7828 61.8377 25.0636 62.8409C23.7119 64.7186 23.1776 67.6018 23.7416 69.9042C23.7964 70.2138 23.8763 70.5143 23.9768 70.8058C23.0155 70.0172 22.004 69.5766 20.4948 69.9381C19.5952 70.155 18.8349 70.7041 18.3509 71.4882C17.8691 72.2722 17.723 73.1964 17.9422 74.0889C18.1568 74.9611 18.7139 75.6887 19.513 76.1406C20.0382 76.4366 20.6318 76.5902 21.2323 76.5902C21.4995 76.5902 21.7689 76.5586 22.0337 76.4976C22.3191 77.3517 21.9424 78.3165 21.1136 78.739C20.6661 78.9673 20.1569 79.0079 19.6797 78.8565C19.2002 78.7051 18.8121 78.3775 18.5815 77.9369L17.9719 78.2465C18.1865 78.66 18.5084 78.9989 18.8966 79.2384C18.8737 79.4033 18.8441 79.566 18.7915 79.7242C18.5632 80.4292 18.0723 81.0031 17.4079 81.342C16.7435 81.681 15.9855 81.742 15.2731 81.5183C15.1841 81.4912 15.0996 81.4573 15.0151 81.4211C15.3781 81.2449 15.6681 80.933 15.796 80.5399C15.8348 80.4179 15.8599 80.2913 15.8667 80.1625C15.901 79.5796 15.4991 79.1616 15.2252 78.8769L14.9512 78.6396L14.7251 78.8972L14.716 78.8882C14.3552 79.3084 13.8301 79.5321 13.2753 79.5095C12.4031 79.4711 11.6953 78.8068 11.5834 77.9753C12.1063 77.9211 12.5949 77.7042 12.9899 77.3472C13.4602 76.9201 13.7388 76.3439 13.7844 75.718H13.7981C13.7365 74.9746 13.8255 74.2267 14.063 73.4946C14.6635 71.6418 16.159 70.2454 18.0678 69.7619L17.8965 69.1044C16.4923 69.4614 15.2891 70.259 14.4374 71.3526C9.66322 71.5447 5.94613 75.4582 5.94613 80.3365C5.94613 81.2562 6.0854 82.1622 6.35711 83.0141C6.36396 83.0412 6.41419 83.2333 6.51465 83.5202C5.22234 81.6674 4.51226 79.4576 4.51226 77.1461C4.50998 70.9572 9.59015 65.9139 15.8348 65.8981ZM32.6165 63.5685C33.0343 63.347 33.3859 63.0398 33.6531 62.6737C33.6896 62.7076 33.7284 62.7415 33.7649 62.7776L34.007 62.5381L33.7764 62.7889C34.4316 63.3742 35.1942 63.6679 35.9454 63.6679C36.7057 63.6679 37.4523 63.3674 38.0597 62.7663C38.562 62.2693 38.8474 61.6411 38.925 60.9949C39.7356 63.0059 39.3292 65.3241 37.6921 66.9442C36.7468 67.8797 35.5116 68.4514 34.1896 68.5847C34.0869 67.9701 33.7969 67.4029 33.3425 66.9533L32.8585 67.4323C33.3037 67.8729 33.5503 68.4604 33.5503 69.084C33.5503 69.7077 33.3037 70.2951 32.8585 70.7357C32.0206 71.565 30.6826 71.635 29.7624 70.9436C30.7009 69.7619 30.6209 68.0424 29.5204 66.9555C28.445 65.8913 26.2371 65.6066 24.8467 66.7409C25.0522 66.2619 25.3353 65.8213 25.6526 65.5072C27.0979 64.0769 29.4474 64.0769 30.8926 65.5072L31.3767 65.0282C29.6643 63.3335 26.881 63.3335 25.1686 65.0282C24.8604 65.3332 24.6138 65.6947 24.4151 66.0653C24.6457 65.0123 25.0544 64.0114 25.6184 63.2296C26.244 62.3596 27.3148 61.5801 28.2213 61.3315L28.2966 61.3112C28.3651 61.2931 28.4701 61.2705 28.5546 61.2525C30.1711 61.0807 31.3333 60.0142 31.5023 58.5975C32.6507 58.7534 33.5435 59.7363 33.5435 60.909C33.5435 61.7744 33.064 62.5653 32.2923 62.972L32.6165 63.5685ZM25.7851 105.259C26.7646 104.177 27.3605 102.749 27.3605 101.188C27.3605 97.8932 24.6526 95.1501 21.3236 95.0778C21.3099 95.0778 19.9651 95.0778 19.924 95.0778H17.9901L17.997 95.4235C17.9993 95.5523 18.013 95.7466 18.0449 95.9048C18.2527 96.9396 19.1044 97.7192 20.1341 97.8728C19.9834 98.7201 19.2322 99.3686 18.3395 99.3686C18.0632 99.3686 17.7983 99.3099 17.5518 99.1924L17.4444 99.4161L17.5312 99.1856L17.0723 99.0003L17.0586 99.4906C17.0152 100.957 16.4147 102.335 15.3667 103.373C14.8073 103.926 14.1635 104.355 13.4557 104.647L13.3963 104.672C12.9396 104.864 11.7273 105.37 9.96689 104.857C9.48969 104.717 8.94857 104.561 8.43027 104.862C8.3184 104.927 8.21337 105.006 8.11976 105.099C7.83664 105.379 7.69508 105.752 7.69508 106.131C7.6243 106.07 7.55352 106.007 7.48274 105.935C6.94618 105.404 6.65393 104.69 6.65849 103.928C6.66306 103.167 6.96445 102.453 7.50557 101.917C7.62886 101.795 7.76586 101.691 7.90742 101.594C8.29785 101.827 8.75449 101.963 9.2431 101.963V101.285C8.18597 101.285 7.32519 100.433 7.32519 99.3845C7.32519 98.4467 8.02614 97.6604 8.93487 97.5113C9.12438 98.7653 10.2112 99.7121 11.524 99.7121C12.225 99.7121 12.8848 99.4409 13.3803 98.9506C13.8735 98.4603 14.1452 97.8095 14.1452 97.1181C14.1429 95.9522 13.3529 94.9264 12.225 94.6191L12.1611 94.8518L12.2204 94.6191C10.7249 94.2485 9.30703 93.6475 7.99875 92.834C8.43941 92.163 8.49877 91.2998 8.13346 90.5768L7.52155 90.8818C7.79782 91.4286 7.73389 92.0907 7.35488 92.5742C6.87997 93.1797 6.03517 93.3492 5.36619 93.0171C5.87078 92.111 5.69041 90.9835 4.86844 90.1633C4.24512 89.5419 3.73825 88.8912 3.22224 88.0529C1.81349 85.7752 1.07144 83.1542 1.07144 80.4744C1.07144 75.2413 3.87296 70.6454 8.06953 68.0717C5.47578 70.2612 3.82501 73.515 3.82501 77.1415C3.82501 80.7478 5.44838 84.119 8.27958 86.3966C8.35721 86.4667 8.43713 86.5322 8.51932 86.5955C9.09469 87.0293 9.70888 87.2485 10.2865 87.2485C10.629 87.2485 10.9555 87.1716 11.2569 87.0157C11.451 87.3953 11.4875 87.8382 11.3437 88.2494C11.2432 88.5409 11.0583 88.794 10.8117 88.9838C10.3025 89.3769 9.62669 89.4154 9.08784 89.1397C8.93715 89.3928 8.75449 89.7068 8.75678 89.7317C9.09013 89.9057 9.45773 89.9961 9.82761 89.9961C10.3185 89.9961 10.8162 89.8402 11.2318 89.5193C11.4944 89.3182 11.7067 89.0651 11.8574 88.7759C13.0447 89.151 14.2822 89.3453 15.5402 89.3498H19.9651C21.2232 89.3498 22.2643 88.4279 22.4447 87.2326C23.3009 87.3818 23.9585 88.1252 23.9585 89.0109C23.9585 90.0074 23.1388 90.8163 22.1342 90.8163V91.4941C23.1616 91.4941 24.0452 90.8795 24.4334 90.0051C27.6687 91.3337 29.8195 94.4971 29.8195 97.9858C29.8172 101.036 28.2076 103.723 25.7851 105.259ZM83.2904 107.98C83.2675 120.36 75.0822 131.364 63.3852 134.739C62.3829 135.029 60.2252 135.524 59.1087 135.718C57.0881 136.073 55.5583 137.13 54.9099 138.59C54.2614 137.128 52.7317 136.07 50.711 135.718C49.5945 135.521 47.4369 135.029 46.4346 134.739C34.7376 131.361 26.5522 120.357 26.5294 107.98V105.58C28.9314 103.89 30.5022 101.118 30.5022 97.9858C30.5022 94.9309 28.9724 92.1065 26.5294 90.3847V86.3447L26.5248 85.3753C32.7375 80.5015 40.1351 77.3133 47.9301 76.1473C48.8205 77.5279 51.1197 79.6315 54.7364 79.7513V79.7581C54.7912 79.7581 54.846 79.7558 54.9007 79.7558C54.903 79.7558 54.9053 79.7558 54.9076 79.7558C54.9076 79.7558 54.9076 79.7558 54.9099 79.7558C54.9099 79.7558 54.9099 79.7558 54.9122 79.7558C54.9144 79.7558 54.9167 79.7558 54.919 79.7558C54.9738 79.7558 55.0286 79.7581 55.0834 79.7581V79.7513C58.7023 79.6293 60.9992 77.5257 61.8897 76.1473C69.6846 77.3133 77.0823 80.5037 83.2949 85.3753L83.2904 86.3447V90.3847C80.8473 92.1065 79.3176 94.9309 79.3176 97.9858C79.3176 101.118 80.8884 103.892 83.2904 105.58V107.98ZM106.602 88.0506C106.086 88.8866 105.579 89.5374 104.956 90.161C104.136 90.9812 103.954 92.1087 104.458 93.0148C103.789 93.347 102.944 93.1775 102.469 92.5719C102.09 92.0907 102.024 91.4263 102.303 90.8795L101.691 90.5745C101.323 91.2976 101.383 92.1607 101.826 92.8318C100.517 93.643 99.1017 94.2463 97.6039 94.6168L97.6633 94.8495L97.5993 94.6168C96.4714 94.9219 95.6814 95.95 95.6791 97.1159C95.6769 97.8073 95.9486 98.458 96.444 98.9484C96.9395 99.4387 97.5993 99.7098 98.3003 99.7098C99.6131 99.7098 100.7 98.7631 100.889 97.509C101.798 97.6559 102.499 98.4445 102.499 99.3822C102.499 100.428 101.638 101.282 100.581 101.282V101.96C101.07 101.96 101.526 101.825 101.917 101.592C102.058 101.689 102.195 101.795 102.319 101.915C102.86 102.451 103.161 103.165 103.166 103.926C103.17 104.688 102.878 105.402 102.342 105.933C102.269 106.003 102.2 106.068 102.129 106.129C102.127 105.75 101.988 105.377 101.705 105.097C101.611 105.004 101.508 104.925 101.394 104.859C100.876 104.557 100.335 104.715 99.8574 104.855C98.0948 105.368 96.8847 104.862 96.428 104.67L96.3687 104.645C95.6609 104.353 95.017 103.924 94.4576 103.37C93.4096 102.333 92.8091 100.955 92.7657 99.4884L92.7521 98.9981L92.2931 99.1833L92.3799 99.4138L92.2726 99.1901C92.026 99.3076 91.7611 99.3664 91.4849 99.3664C90.5921 99.3664 89.8387 98.7156 89.6902 97.8706C90.7223 97.7169 91.5716 96.9374 91.7794 95.9025C91.8114 95.7466 91.8251 95.5523 91.8273 95.4212L91.8342 95.0755H89.9003C89.8592 95.0755 88.5144 95.0755 88.5007 95.0755C85.1717 95.1501 82.4638 97.8909 82.4638 101.185C82.4638 102.749 83.0598 104.175 84.0393 105.257C81.6168 103.721 80.0071 101.034 80.0071 97.9813C80.0071 94.4925 82.1579 91.3292 85.3932 90.0006C85.7814 90.8773 86.665 91.4896 87.6924 91.4896V90.8118C86.6855 90.8118 85.8681 90.0006 85.8681 89.0064C85.8681 88.1206 86.5257 87.3773 87.3819 87.2281C87.5623 88.4234 88.6034 89.3453 89.8615 89.3453H94.2864C95.5467 89.3408 96.7819 89.1465 97.9692 88.7714C98.1199 89.0583 98.3323 89.3114 98.5948 89.5148C99.0126 89.8356 99.5081 89.9915 99.999 89.9915C100.371 89.9915 100.739 89.8989 101.07 89.7272C101.072 89.7023 100.889 89.3882 100.739 89.1352C100.2 89.4108 99.5241 89.3724 99.0149 88.9793C98.7683 88.7895 98.5834 88.5341 98.4829 88.2449C98.3414 87.8337 98.3756 87.3908 98.5697 87.0112C98.8688 87.1671 99.1976 87.2439 99.5401 87.2439C100.118 87.2439 100.732 87.0248 101.307 86.5909C101.389 86.5277 101.469 86.4621 101.547 86.3921C104.378 84.1167 106.002 80.7432 106.002 77.137C106.002 73.5105 104.351 70.2567 101.757 68.0672C105.954 70.6408 108.755 75.2368 108.755 80.4698C108.746 83.1542 108.006 85.7752 106.602 88.0506Z" fill="#AD841F"/>
<path d="M74.2188 108.924C73.2461 108.924 72.3146 109.159 71.4766 109.609C71.4652 109.613 71.4561 109.62 71.4447 109.625C71.4629 109.656 71.4789 109.688 71.4926 109.722C71.4995 109.74 71.5063 109.756 71.5132 109.774C71.5999 109.925 71.6799 110.079 71.7529 110.235C71.7666 110.226 71.7826 110.217 71.7963 110.21C72.0269 110.115 72.2758 110.063 72.5338 110.063C73.5818 110.063 74.4357 110.908 74.4357 111.945C74.4357 112.982 73.5818 113.827 72.5338 113.827C72.084 113.827 71.6479 113.669 71.3054 113.382C70.9355 113.073 69.5747 111.794 68.7642 111.019C70.8762 109.03 72.463 106.475 73.2598 103.551C73.2347 103.524 73.2096 103.497 73.1845 103.47C73.1708 103.458 73.1548 103.447 73.1411 103.436C73.132 103.429 73.1228 103.42 73.1114 103.411C73.1571 103.481 73.1251 103.427 73.0703 103.377C73.0498 103.361 73.0292 103.343 73.0087 103.327C72.995 103.316 72.9813 103.302 72.9653 103.291C72.9562 103.284 72.947 103.278 72.9402 103.271C72.8717 103.214 72.8078 103.158 72.7438 103.097C72.7347 103.09 72.7278 103.083 72.721 103.076C70.1889 104.663 67.3052 105.585 64.3165 105.772C63.4123 104.575 62.4625 103.499 61.467 102.545C61.9122 102.591 62.362 102.613 62.8118 102.613C66.9673 102.613 70.9287 100.641 73.4105 97.335L73.2621 96.8176C61.6748 92.2149 57.5855 91.5438 53.7086 91.8805C50.7883 92.1335 48.6307 94.149 48.4206 96.7407C48.1832 96.6662 47.9549 96.5803 47.7288 96.4877C47.7288 96.4718 47.7311 96.4538 47.7311 96.438C47.5073 96.3521 47.3087 96.2572 47.1398 96.1465C44.7606 94.5671 43.5802 92.599 42.6327 91.0196C41.5778 89.2617 40.6668 87.7433 38.5914 87.7139C38.5799 87.7139 38.5685 87.7139 38.5594 87.7139C36.5753 87.7094 35.8583 89.0786 35.2807 90.179C35.0935 90.5383 34.9131 90.8795 34.6962 91.1484C34.1756 91.9144 33.3696 93.2769 32.6436 94.6168L32.5203 94.845L33.1801 95.4641L33.381 95.3873C34.6391 94.906 35.4725 94.6439 36.6826 95.2314C37.9635 95.7804 39.459 96.9983 39.8197 98.7766C40.0161 99.7324 39.838 100.975 39.6485 102.292C39.4636 103.583 39.2626 104.988 39.3745 106.369C39.6211 109.742 41.8427 112.75 45.0597 113.974L45.062 113.967C47.263 114.815 48.6855 116.871 48.6855 119.207V119.546H49.6627L49.6604 122.02C49.0805 122.018 48.343 121.162 47.9229 120.968C47.5325 120.76 47.0576 120.949 46.7927 121.264C47.1283 121.297 47.1991 121.349 47.3567 121.44L48.1832 121.946C47.3041 122.032 46.7904 121.785 46.158 121.837C45.594 121.892 45.3269 122.359 45.3246 122.814C45.4844 122.606 45.626 122.606 45.8018 122.606C46.5872 122.608 47.5005 122.592 48.0804 122.583C47.1831 122.723 46.4274 122.888 45.8497 123.232C45.3908 123.494 45.2835 124.086 45.6214 124.364C45.6397 124.174 45.9388 123.912 46.2744 123.774C47.4046 123.306 48.7608 123.049 50.1856 123.105C50.6103 123.315 50.9436 123.805 51.0829 124.05C51.6126 124.12 51.9277 124.192 52.1743 124.558C52.2222 124.233 52.2976 123.851 52.0396 123.561C53.0396 123.234 54.1766 123.06 55.3639 123.105C55.7909 123.315 56.122 123.805 56.2612 124.05C56.7909 124.12 57.106 124.192 57.3526 124.558C57.4074 124.192 57.4965 123.756 57.1083 123.458L55.8434 122.477L55.816 119.567L56.7498 119.546V119.207C56.7498 117.82 57.2636 116.5 58.1951 115.47C59.597 115.411 60.9601 115.174 62.2615 114.781C62.8666 115.391 64.1452 116.735 64.5174 117.171C64.8073 117.51 64.9672 117.942 64.9672 118.387C64.9672 119.424 64.1132 120.269 63.0652 120.269C62.0172 120.269 61.1633 119.424 61.1633 118.387C61.1633 118.132 61.2135 117.885 61.3117 117.66C61.3209 117.641 61.3323 117.623 61.3437 117.605C61.3414 117.603 61.3368 117.601 61.3346 117.601C61.1314 117.504 60.9281 117.406 60.7295 117.298C60.7227 117.314 60.7135 117.327 60.7044 117.343C60.2523 118.172 60.0149 119.094 60.0149 120.055C60.0149 123.211 62.6086 125.778 65.7983 125.778C68.9879 125.778 71.5817 123.211 71.5817 120.055C71.5817 119.946 71.5748 119.84 71.5703 119.732C72.3854 120.15 73.2895 120.371 74.2211 120.371C77.4107 120.371 80.0045 117.804 80.0045 114.648C80.0022 111.491 77.4085 108.924 74.2188 108.924ZM53.7748 92.5538C57.4508 92.2352 61.3597 92.8634 72.1844 97.1181C68.7847 98.3812 65.1201 98.6817 61.5286 97.9835C61.0195 97.8841 60.5103 97.762 60.0126 97.6242V98.3247C60.4692 98.4467 60.9304 98.5574 61.3962 98.6478C62.7068 98.9031 64.0242 99.0296 65.3393 99.0296C67.6294 99.0296 69.9012 98.641 72.0726 97.8773C69.7049 100.467 66.3965 101.933 62.8164 101.933C62.3483 101.933 61.2889 101.854 60.6427 101.786C57.6289 99.1697 54.2292 97.6265 50.4824 97.1836C50.012 97.1271 49.5508 97.0435 49.1056 96.9351C49.2243 94.6077 51.1491 92.782 53.7748 92.5538ZM38.564 88.3917C38.5731 88.3917 38.5822 88.3917 38.5891 88.3917C39.4613 88.403 40.08 88.7487 40.6166 89.3069L40.6074 89.3136C40.8563 89.6932 40.8928 90.0344 40.7033 90.222C40.5047 90.4231 40.0138 90.4728 39.4202 90.1045C38.4681 89.5147 37.242 89.517 36.178 89.9802C36.6552 89.1351 37.2557 88.3872 38.564 88.3917ZM51.4094 123.051L50.8409 122.61C50.8865 122.606 50.9322 122.606 50.9824 122.606C51.7678 122.608 52.6811 122.592 53.2611 122.583C52.5464 122.696 51.9254 122.829 51.4094 123.051ZM54.8411 122.023C54.2611 122.02 53.5236 121.164 53.1035 120.97C52.7131 120.762 52.2382 120.952 51.9733 121.266C52.309 121.3 52.3798 121.352 52.5373 121.442L53.3638 121.948C52.4848 122.034 51.9711 121.788 51.3386 121.84C51.0235 121.869 50.8043 122.032 50.6673 122.246L50.6422 119.571L51.9094 119.551L51.914 117.411H53.9072V119.551H54.8456L54.8411 122.023ZM56.074 118.871H54.5899V116.731H51.229L51.2244 118.871H49.3659C49.2358 116.394 47.674 114.245 45.3155 113.337L45.3109 113.344C42.4135 112.239 40.3951 109.57 40.0869 106.552C40.0755 106.436 40.0663 106.321 40.0595 106.206C40.0503 106.052 40.0412 105.901 40.0412 105.747C40.0412 105.637 40.0458 105.526 40.0481 105.415C40.0435 105.404 40.0412 105.393 40.0366 105.381C40.0503 104.367 40.1942 103.345 40.3312 102.39C40.5275 101.011 40.7148 99.712 40.4956 98.6433C40.0846 96.6097 38.3996 95.2268 36.9748 94.619C35.646 93.9683 34.6642 94.1897 33.4016 94.6574C34.0683 93.4441 34.7989 92.2149 35.2464 91.5528C35.3172 91.467 35.3674 91.345 35.4314 91.2478L35.4451 91.2613C36.2739 90.414 37.8242 89.9169 39.0549 90.6807C39.9818 91.2478 40.7947 91.0964 41.1897 90.6987C41.2833 90.6038 41.3563 90.4818 41.4111 90.344C41.6189 90.6626 41.8267 90.997 42.0482 91.3675C43.0322 93.008 44.256 95.0461 46.763 96.7114C46.8749 96.7859 46.9982 96.8537 47.1283 96.917C47.1238 96.9351 47.1215 96.9509 47.1169 96.9667C47.1375 96.9757 47.158 96.9848 47.1786 96.9938C48.2768 97.448 49.4184 97.7304 50.3979 97.8569C55.4279 98.5054 59.8368 101.124 63.4854 105.804C63.3826 105.806 63.2821 105.808 63.1794 105.808C59.2637 105.808 55.5489 104.579 52.4323 102.254L52.4231 102.265C51.5076 101.587 50.3911 101.212 49.2243 101.212C46.2813 101.212 43.8884 103.583 43.8884 106.493C43.8884 107.81 44.3816 109.071 45.2766 110.045L45.2721 110.049C48.3293 113.459 52.7063 115.432 57.3024 115.484C56.5718 116.467 56.1402 117.639 56.074 118.871ZM57.4965 114.808C53.0259 114.808 48.7586 112.908 45.7881 109.595V109.588C45.0072 108.739 44.5757 107.638 44.5757 106.491C44.5757 103.953 46.6626 101.888 49.2266 101.888C50.2335 101.888 51.2016 102.211 51.9985 102.796C52.0053 102.794 52.0122 102.792 52.019 102.792C52.0213 102.792 52.0213 102.792 52.0236 102.792C55.2612 105.207 59.1198 106.484 63.184 106.484C66.1316 106.484 69.0085 105.797 71.6045 104.486C68.6158 107.718 64.4192 109.566 60.0149 109.616V110.293C64.5859 110.246 68.9445 108.337 72.0589 104.997C69.7323 110.852 63.9808 114.808 57.4965 114.808ZM74.2188 119.693C73.2302 119.693 72.2803 119.413 71.4561 118.884C71.3008 118.148 71.004 117.447 70.5702 116.819L70.0062 117.203C70.5885 118.044 70.8967 119.029 70.8967 120.052C70.8967 122.834 68.6089 125.098 65.7983 125.098C62.9876 125.098 60.6998 122.834 60.6998 120.052C60.6998 119.863 60.7135 119.675 60.7341 119.487C61.1519 120.348 62.0378 120.945 63.0652 120.945C64.4923 120.945 65.6521 119.797 65.6521 118.385C65.6521 117.779 65.4352 117.194 65.0425 116.733C64.6977 116.331 63.6498 115.224 62.9853 114.544C64.9329 113.854 66.7207 112.808 68.2619 111.475C69.061 112.241 70.4583 113.556 70.867 113.9C71.3328 114.291 71.9264 114.505 72.5361 114.505C73.9631 114.505 75.123 113.357 75.123 111.945C75.123 110.928 74.5202 110.052 73.6503 109.638C73.8398 109.618 74.0293 109.604 74.2211 109.604C77.0317 109.604 79.3195 111.868 79.3195 114.65C79.3172 117.431 77.0294 119.693 74.2188 119.693Z" fill="#AD841F"/>
<path d="M36.8938 91.7856C36.4727 91.7856 36.1421 92.0206 36.1421 92.2918C36.1421 92.5584 36.4704 92.8002 36.8915 92.8024C37.2832 92.8024 37.6116 92.5629 37.6138 92.2963C37.6138 92.0229 37.2832 91.7856 36.8938 91.7856Z" fill="#AD841F"/>
</svg>
