<svg width="131" height="129" viewBox="0 0 131 129" fill="none" xmlns="http://www.w3.org/2000/svg">
<g clip-path="url(#clip0_614_8972)">
<path d="M130.743 0H0V129H130.743V0Z" fill="white"/>
<path d="M25.2311 4.52539H22.9374V6.78855H25.2311V4.52539Z" fill="black"/>
<path d="M29.8186 4.52539H27.5249V6.78855H29.8186V4.52539Z" fill="black"/>
<path d="M32.1124 4.52539H29.8186V6.78855H32.1124V4.52539Z" fill="black"/>
<path d="M36.6999 4.52539H34.4061V6.78855H36.6999V4.52539Z" fill="black"/>
<path d="M41.2873 4.52539H38.9936V6.78855H41.2873V4.52539Z" fill="black"/>
<path d="M50.4623 4.52539H48.1686V6.78855H50.4623V4.52539Z" fill="black"/>
<path d="M52.756 4.52539H50.4623V6.78855H52.756V4.52539Z" fill="black"/>
<path d="M61.931 4.52539H59.6373V6.78855H61.931V4.52539Z" fill="black"/>
<path d="M68.8122 4.52539H66.5185V6.78855H68.8122V4.52539Z" fill="black"/>
<path d="M71.106 4.52539H68.8122V6.78855H71.106V4.52539Z" fill="black"/>
<path d="M73.3997 4.52539H71.106V6.78855H73.3997V4.52539Z" fill="black"/>
<path d="M75.6935 4.52539H73.3997V6.78855H75.6935V4.52539Z" fill="black"/>
<path d="M77.9872 4.52539H75.6934V6.78855H77.9872V4.52539Z" fill="black"/>
<path d="M103.218 4.52539H100.925V6.78855H103.218V4.52539Z" fill="black"/>
<path d="M25.2311 6.78906H22.9374V9.05222H25.2311V6.78906Z" fill="black"/>
<path d="M29.8186 6.78906H27.5249V9.05222H29.8186V6.78906Z" fill="black"/>
<path d="M32.1124 6.78906H29.8186V9.05222H32.1124V6.78906Z" fill="black"/>
<path d="M34.4061 6.78906H32.1124V9.05222H34.4061V6.78906Z" fill="black"/>
<path d="M36.6999 6.78906H34.4061V9.05222H36.6999V6.78906Z" fill="black"/>
<path d="M38.9936 6.78906H36.6999V9.05222H38.9936V6.78906Z" fill="black"/>
<path d="M45.8748 6.78906H43.5811V9.05222H45.8748V6.78906Z" fill="black"/>
<path d="M48.1686 6.78906H45.8748V9.05222H48.1686V6.78906Z" fill="black"/>
<path d="M50.4623 6.78906H48.1686V9.05222H50.4623V6.78906Z" fill="black"/>
<path d="M52.756 6.78906H50.4623V9.05222H52.756V6.78906Z" fill="black"/>
<path d="M64.2247 6.78906H61.931V9.05222H64.2247V6.78906Z" fill="black"/>
<path d="M66.5185 6.78906H64.2247V9.05222H66.5185V6.78906Z" fill="black"/>
<path d="M73.3997 6.78906H71.106V9.05222H73.3997V6.78906Z" fill="black"/>
<path d="M77.9872 6.78906H75.6934V9.05222H77.9872V6.78906Z" fill="black"/>
<path d="M80.2809 6.78906H77.9872V9.05222H80.2809V6.78906Z" fill="black"/>
<path d="M84.8684 6.78906H82.5747V9.05222H84.8684V6.78906Z" fill="black"/>
<path d="M89.4559 6.78906H87.1622V9.05222H89.4559V6.78906Z" fill="black"/>
<path d="M91.7496 6.78906H89.4559V9.05222H91.7496V6.78906Z" fill="black"/>
<path d="M96.3371 6.78906H94.0434V9.05222H96.3371V6.78906Z" fill="black"/>
<path d="M98.6309 6.78906H96.3371V9.05222H98.6309V6.78906Z" fill="black"/>
<path d="M103.218 6.78906H100.925V9.05222H103.218V6.78906Z" fill="black"/>
<path d="M105.512 6.78906H103.218V9.05222H105.512V6.78906Z" fill="black"/>
<path d="M32.1124 9.05078H29.8186V11.3139H32.1124V9.05078Z" fill="black"/>
<path d="M36.6999 9.05078H34.4061V11.3139H36.6999V9.05078Z" fill="black"/>
<path d="M41.2873 9.05078H38.9936V11.3139H41.2873V9.05078Z" fill="black"/>
<path d="M57.3435 9.05078H55.0498V11.3139H57.3435V9.05078Z" fill="black"/>
<path d="M64.2247 9.05078H61.931V11.3139H64.2247V9.05078Z" fill="black"/>
<path d="M80.2809 9.05078H77.9872V11.3139H80.2809V9.05078Z" fill="black"/>
<path d="M84.8684 9.05078H82.5747V11.3139H84.8684V9.05078Z" fill="black"/>
<path d="M89.4559 9.05078H87.1622V11.3139H89.4559V9.05078Z" fill="black"/>
<path d="M91.7496 9.05078H89.4559V11.3139H91.7496V9.05078Z" fill="black"/>
<path d="M105.512 9.05078H103.218V11.3139H105.512V9.05078Z" fill="black"/>
<path d="M25.2311 11.3145H22.9374V13.5776H25.2311V11.3145Z" fill="black"/>
<path d="M29.8186 11.3145H27.5249V13.5776H29.8186V11.3145Z" fill="black"/>
<path d="M32.1124 11.3145H29.8186V13.5776H32.1124V11.3145Z" fill="black"/>
<path d="M41.2873 11.3145H38.9936V13.5776H41.2873V11.3145Z" fill="black"/>
<path d="M43.5811 11.3145H41.2873V13.5776H43.5811V11.3145Z" fill="black"/>
<path d="M50.4623 11.3145H48.1686V13.5776H50.4623V11.3145Z" fill="black"/>
<path d="M55.0498 11.3145H52.756V13.5776H55.0498V11.3145Z" fill="black"/>
<path d="M59.6373 11.3145H57.3435V13.5776H59.6373V11.3145Z" fill="black"/>
<path d="M64.2247 11.3145H61.931V13.5776H64.2247V11.3145Z" fill="black"/>
<path d="M68.8122 11.3145H66.5185V13.5776H68.8122V11.3145Z" fill="black"/>
<path d="M75.6935 11.3145H73.3997V13.5776H75.6935V11.3145Z" fill="black"/>
<path d="M77.9872 11.3145H75.6934V13.5776H77.9872V11.3145Z" fill="black"/>
<path d="M82.5747 11.3145H80.2809V13.5776H82.5747V11.3145Z" fill="black"/>
<path d="M84.8684 11.3145H82.5747V13.5776H84.8684V11.3145Z" fill="black"/>
<path d="M87.1621 11.3145H84.8684V13.5776H87.1621V11.3145Z" fill="black"/>
<path d="M89.4559 11.3145H87.1622V13.5776H89.4559V11.3145Z" fill="black"/>
<path d="M91.7496 11.3145H89.4559V13.5776H91.7496V11.3145Z" fill="black"/>
<path d="M96.3371 11.3145H94.0434V13.5776H96.3371V11.3145Z" fill="black"/>
<path d="M100.925 11.3145H98.6309V13.5776H100.925V11.3145Z" fill="black"/>
<path d="M103.218 11.3145H100.925V13.5776H103.218V11.3145Z" fill="black"/>
<path d="M107.806 11.3145H105.512V13.5776H107.806V11.3145Z" fill="black"/>
<path d="M27.5249 13.5781H25.2312V15.8413H27.5249V13.5781Z" fill="black"/>
<path d="M32.1124 13.5781H29.8186V15.8413H32.1124V13.5781Z" fill="black"/>
<path d="M38.9936 13.5781H36.6999V15.8413H38.9936V13.5781Z" fill="black"/>
<path d="M41.2873 13.5781H38.9936V15.8413H41.2873V13.5781Z" fill="black"/>
<path d="M43.5811 13.5781H41.2873V15.8413H43.5811V13.5781Z" fill="black"/>
<path d="M45.8748 13.5781H43.5811V15.8413H45.8748V13.5781Z" fill="black"/>
<path d="M48.1686 13.5781H45.8748V15.8413H48.1686V13.5781Z" fill="black"/>
<path d="M50.4623 13.5781H48.1686V15.8413H50.4623V13.5781Z" fill="black"/>
<path d="M52.756 13.5781H50.4623V15.8413H52.756V13.5781Z" fill="black"/>
<path d="M57.3435 13.5781H55.0498V15.8413H57.3435V13.5781Z" fill="black"/>
<path d="M59.6373 13.5781H57.3435V15.8413H59.6373V13.5781Z" fill="black"/>
<path d="M61.931 13.5781H59.6373V15.8413H61.931V13.5781Z" fill="black"/>
<path d="M64.2247 13.5781H61.931V15.8413H64.2247V13.5781Z" fill="black"/>
<path d="M66.5185 13.5781H64.2247V15.8413H66.5185V13.5781Z" fill="black"/>
<path d="M68.8122 13.5781H66.5185V15.8413H68.8122V13.5781Z" fill="black"/>
<path d="M71.106 13.5781H68.8122V15.8413H71.106V13.5781Z" fill="black"/>
<path d="M73.3997 13.5781H71.106V15.8413H73.3997V13.5781Z" fill="black"/>
<path d="M89.4559 13.5781H87.1622V15.8413H89.4559V13.5781Z" fill="black"/>
<path d="M91.7496 13.5781H89.4559V15.8413H91.7496V13.5781Z" fill="black"/>
<path d="M94.0434 13.5781H91.7496V15.8413H94.0434V13.5781Z" fill="black"/>
<path d="M103.218 13.5781H100.925V15.8413H103.218V13.5781Z" fill="black"/>
<path d="M29.8186 15.8418H27.5249V18.105H29.8186V15.8418Z" fill="black"/>
<path d="M32.1124 15.8418H29.8186V18.105H32.1124V15.8418Z" fill="black"/>
<path d="M34.4061 15.8418H32.1124V18.105H34.4061V15.8418Z" fill="black"/>
<path d="M36.6999 15.8418H34.4061V18.105H36.6999V15.8418Z" fill="black"/>
<path d="M38.9936 15.8418H36.6999V18.105H38.9936V15.8418Z" fill="black"/>
<path d="M41.2873 15.8418H38.9936V18.105H41.2873V15.8418Z" fill="black"/>
<path d="M43.5811 15.8418H41.2873V18.105H43.5811V15.8418Z" fill="black"/>
<path d="M48.1686 15.8418H45.8748V18.105H48.1686V15.8418Z" fill="black"/>
<path d="M50.4623 15.8418H48.1686V18.105H50.4623V15.8418Z" fill="black"/>
<path d="M52.756 15.8418H50.4623V18.105H52.756V15.8418Z" fill="black"/>
<path d="M55.0498 15.8418H52.756V18.105H55.0498V15.8418Z" fill="black"/>
<path d="M57.3435 15.8418H55.0498V18.105H57.3435V15.8418Z" fill="black"/>
<path d="M61.931 15.8418H59.6373V18.105H61.931V15.8418Z" fill="black"/>
<path d="M71.106 15.8418H68.8122V18.105H71.106V15.8418Z" fill="black"/>
<path d="M75.6935 15.8418H73.3997V18.105H75.6935V15.8418Z" fill="black"/>
<path d="M77.9872 15.8418H75.6934V18.105H77.9872V15.8418Z" fill="black"/>
<path d="M82.5747 15.8418H80.2809V18.105H82.5747V15.8418Z" fill="black"/>
<path d="M87.1621 15.8418H84.8684V18.105H87.1621V15.8418Z" fill="black"/>
<path d="M89.4559 15.8418H87.1622V18.105H89.4559V15.8418Z" fill="black"/>
<path d="M94.0434 15.8418H91.7496V18.105H94.0434V15.8418Z" fill="black"/>
<path d="M98.6309 15.8418H96.3371V18.105H98.6309V15.8418Z" fill="black"/>
<path d="M100.925 15.8418H98.6309V18.105H100.925V15.8418Z" fill="black"/>
<path d="M103.218 15.8418H100.925V18.105H103.218V15.8418Z" fill="black"/>
<path d="M25.2311 18.1035H22.9374V20.3667H25.2311V18.1035Z" fill="black"/>
<path d="M29.8186 18.1035H27.5249V20.3667H29.8186V18.1035Z" fill="black"/>
<path d="M34.4061 18.1035H32.1124V20.3667H34.4061V18.1035Z" fill="black"/>
<path d="M38.9936 18.1035H36.6999V20.3667H38.9936V18.1035Z" fill="black"/>
<path d="M43.5811 18.1035H41.2873V20.3667H43.5811V18.1035Z" fill="black"/>
<path d="M48.1686 18.1035H45.8748V20.3667H48.1686V18.1035Z" fill="black"/>
<path d="M52.756 18.1035H50.4623V20.3667H52.756V18.1035Z" fill="black"/>
<path d="M57.3435 18.1035H55.0498V20.3667H57.3435V18.1035Z" fill="black"/>
<path d="M61.931 18.1035H59.6373V20.3667H61.931V18.1035Z" fill="black"/>
<path d="M66.5185 18.1035H64.2247V20.3667H66.5185V18.1035Z" fill="black"/>
<path d="M71.106 18.1035H68.8122V20.3667H71.106V18.1035Z" fill="black"/>
<path d="M75.6935 18.1035H73.3997V20.3667H75.6935V18.1035Z" fill="black"/>
<path d="M80.2809 18.1035H77.9872V20.3667H80.2809V18.1035Z" fill="black"/>
<path d="M84.8684 18.1035H82.5747V20.3667H84.8684V18.1035Z" fill="black"/>
<path d="M89.4559 18.1035H87.1622V20.3667H89.4559V18.1035Z" fill="black"/>
<path d="M94.0434 18.1035H91.7496V20.3667H94.0434V18.1035Z" fill="black"/>
<path d="M98.6309 18.1035H96.3371V20.3667H98.6309V18.1035Z" fill="black"/>
<path d="M103.218 18.1035H100.925V20.3667H103.218V18.1035Z" fill="black"/>
<path d="M107.806 18.1035H105.512V20.3667H107.806V18.1035Z" fill="black"/>
<path d="M25.2311 20.3672H22.9374V22.6303H25.2311V20.3672Z" fill="black"/>
<path d="M32.1124 20.3672H29.8186V22.6303H32.1124V20.3672Z" fill="black"/>
<path d="M34.4061 20.3672H32.1124V22.6303H34.4061V20.3672Z" fill="black"/>
<path d="M36.6999 20.3672H34.4061V22.6303H36.6999V20.3672Z" fill="black"/>
<path d="M38.9936 20.3672H36.6999V22.6303H38.9936V20.3672Z" fill="black"/>
<path d="M41.2873 20.3672H38.9936V22.6303H41.2873V20.3672Z" fill="black"/>
<path d="M45.8748 20.3672H43.5811V22.6303H45.8748V20.3672Z" fill="black"/>
<path d="M48.1686 20.3672H45.8748V22.6303H48.1686V20.3672Z" fill="black"/>
<path d="M50.4623 20.3672H48.1686V22.6303H50.4623V20.3672Z" fill="black"/>
<path d="M52.756 20.3672H50.4623V22.6303H52.756V20.3672Z" fill="black"/>
<path d="M59.6373 20.3672H57.3435V22.6303H59.6373V20.3672Z" fill="black"/>
<path d="M61.931 20.3672H59.6373V22.6303H61.931V20.3672Z" fill="black"/>
<path d="M71.106 20.3672H68.8122V22.6303H71.106V20.3672Z" fill="black"/>
<path d="M80.2809 20.3672H77.9872V22.6303H80.2809V20.3672Z" fill="black"/>
<path d="M82.5747 20.3672H80.2809V22.6303H82.5747V20.3672Z" fill="black"/>
<path d="M89.4559 20.3672H87.1622V22.6303H89.4559V20.3672Z" fill="black"/>
<path d="M91.7496 20.3672H89.4559V22.6303H91.7496V20.3672Z" fill="black"/>
<path d="M96.3371 20.3672H94.0434V22.6303H96.3371V20.3672Z" fill="black"/>
<path d="M98.6309 20.3672H96.3371V22.6303H98.6309V20.3672Z" fill="black"/>
<path d="M100.925 20.3672H98.6309V22.6303H100.925V20.3672Z" fill="black"/>
<path d="M107.806 20.3672H105.512V22.6303H107.806V20.3672Z" fill="black"/>
<path d="M6.88122 22.6309H4.58748V24.894H6.88122V22.6309Z" fill="black"/>
<path d="M11.4687 22.6309H9.17496V24.894H11.4687V22.6309Z" fill="black"/>
<path d="M13.7624 22.6309H11.4687V24.894H13.7624V22.6309Z" fill="black"/>
<path d="M18.3499 22.6309H16.0562V24.894H18.3499V22.6309Z" fill="black"/>
<path d="M20.6437 22.6309H18.3499V24.894H20.6437V22.6309Z" fill="black"/>
<path d="M22.9374 22.6309H20.6437V24.894H22.9374V22.6309Z" fill="black"/>
<path d="M29.8186 22.6309H27.5249V24.894H29.8186V22.6309Z" fill="black"/>
<path d="M32.1124 22.6309H29.8186V24.894H32.1124V22.6309Z" fill="black"/>
<path d="M36.6999 22.6309H34.4061V24.894H36.6999V22.6309Z" fill="black"/>
<path d="M41.2873 22.6309H38.9936V24.894H41.2873V22.6309Z" fill="black"/>
<path d="M48.1686 22.6309H45.8748V24.894H48.1686V22.6309Z" fill="black"/>
<path d="M52.756 22.6309H50.4623V24.894H52.756V22.6309Z" fill="black"/>
<path d="M57.3435 22.6309H55.0498V24.894H57.3435V22.6309Z" fill="black"/>
<path d="M59.6373 22.6309H57.3435V24.894H59.6373V22.6309Z" fill="black"/>
<path d="M61.931 22.6309H59.6373V24.894H61.931V22.6309Z" fill="black"/>
<path d="M64.2247 22.6309H61.931V24.894H64.2247V22.6309Z" fill="black"/>
<path d="M66.5185 22.6309H64.2247V24.894H66.5185V22.6309Z" fill="black"/>
<path d="M68.8122 22.6309H66.5185V24.894H68.8122V22.6309Z" fill="black"/>
<path d="M71.106 22.6309H68.8122V24.894H71.106V22.6309Z" fill="black"/>
<path d="M80.2809 22.6309H77.9872V24.894H80.2809V22.6309Z" fill="black"/>
<path d="M82.5747 22.6309H80.2809V24.894H82.5747V22.6309Z" fill="black"/>
<path d="M84.8684 22.6309H82.5747V24.894H84.8684V22.6309Z" fill="black"/>
<path d="M98.6309 22.6309H96.3371V24.894H98.6309V22.6309Z" fill="black"/>
<path d="M100.925 22.6309H98.6309V24.894H100.925V22.6309Z" fill="black"/>
<path d="M105.512 22.6309H103.218V24.894H105.512V22.6309Z" fill="black"/>
<path d="M112.393 22.6309H110.1V24.894H112.393V22.6309Z" fill="black"/>
<path d="M119.275 22.6309H116.981V24.894H119.275V22.6309Z" fill="black"/>
<path d="M123.862 22.6309H121.568V24.894H123.862V22.6309Z" fill="black"/>
<path d="M126.156 22.6309H123.862V24.894H126.156V22.6309Z" fill="black"/>
<path d="M16.0562 24.8945H13.7624V27.1577H16.0562V24.8945Z" fill="black"/>
<path d="M22.9374 24.8945H20.6437V27.1577H22.9374V24.8945Z" fill="black"/>
<path d="M25.2311 24.8945H22.9374V27.1577H25.2311V24.8945Z" fill="black"/>
<path d="M43.5811 24.8945H41.2873V27.1577H43.5811V24.8945Z" fill="black"/>
<path d="M52.756 24.8945H50.4623V27.1577H52.756V24.8945Z" fill="black"/>
<path d="M55.0498 24.8945H52.756V27.1577H55.0498V24.8945Z" fill="black"/>
<path d="M57.3435 24.8945H55.0498V27.1577H57.3435V24.8945Z" fill="black"/>
<path d="M59.6373 24.8945H57.3435V27.1577H59.6373V24.8945Z" fill="black"/>
<path d="M61.931 24.8945H59.6373V27.1577H61.931V24.8945Z" fill="black"/>
<path d="M68.8122 24.8945H66.5185V27.1577H68.8122V24.8945Z" fill="black"/>
<path d="M75.6935 24.8945H73.3997V27.1577H75.6935V24.8945Z" fill="black"/>
<path d="M80.2809 24.8945H77.9872V27.1577H80.2809V24.8945Z" fill="black"/>
<path d="M89.4559 24.8945H87.1622V27.1577H89.4559V24.8945Z" fill="black"/>
<path d="M100.925 24.8945H98.6309V27.1577H100.925V24.8945Z" fill="black"/>
<path d="M103.218 24.8945H100.925V27.1577H103.218V24.8945Z" fill="black"/>
<path d="M105.512 24.8945H103.218V27.1577H105.512V24.8945Z" fill="black"/>
<path d="M110.1 24.8945H107.806V27.1577H110.1V24.8945Z" fill="black"/>
<path d="M114.687 24.8945H112.393V27.1577H114.687V24.8945Z" fill="black"/>
<path d="M119.275 24.8945H116.981V27.1577H119.275V24.8945Z" fill="black"/>
<path d="M126.156 24.8945H123.862V27.1577H126.156V24.8945Z" fill="black"/>
<path d="M13.7624 27.1562H11.4687V29.4194H13.7624V27.1562Z" fill="black"/>
<path d="M18.3499 27.1562H16.0562V29.4194H18.3499V27.1562Z" fill="black"/>
<path d="M20.6437 27.1562H18.3499V29.4194H20.6437V27.1562Z" fill="black"/>
<path d="M27.5249 27.1562H25.2312V29.4194H27.5249V27.1562Z" fill="black"/>
<path d="M29.8186 27.1562H27.5249V29.4194H29.8186V27.1562Z" fill="black"/>
<path d="M34.4061 27.1562H32.1124V29.4194H34.4061V27.1562Z" fill="black"/>
<path d="M41.2873 27.1562H38.9936V29.4194H41.2873V27.1562Z" fill="black"/>
<path d="M43.5811 27.1562H41.2873V29.4194H43.5811V27.1562Z" fill="black"/>
<path d="M45.8748 27.1562H43.5811V29.4194H45.8748V27.1562Z" fill="black"/>
<path d="M48.1686 27.1562H45.8748V29.4194H48.1686V27.1562Z" fill="black"/>
<path d="M52.756 27.1562H50.4623V29.4194H52.756V27.1562Z" fill="black"/>
<path d="M59.6373 27.1562H57.3435V29.4194H59.6373V27.1562Z" fill="black"/>
<path d="M66.5185 27.1562H64.2247V29.4194H66.5185V27.1562Z" fill="black"/>
<path d="M68.8122 27.1562H66.5185V29.4194H68.8122V27.1562Z" fill="black"/>
<path d="M75.6935 27.1562H73.3997V29.4194H75.6935V27.1562Z" fill="black"/>
<path d="M77.9872 27.1562H75.6934V29.4194H77.9872V27.1562Z" fill="black"/>
<path d="M96.3371 27.1562H94.0434V29.4194H96.3371V27.1562Z" fill="black"/>
<path d="M103.218 27.1562H100.925V29.4194H103.218V27.1562Z" fill="black"/>
<path d="M105.512 27.1562H103.218V29.4194H105.512V27.1562Z" fill="black"/>
<path d="M107.806 27.1562H105.512V29.4194H107.806V27.1562Z" fill="black"/>
<path d="M110.1 27.1562H107.806V29.4194H110.1V27.1562Z" fill="black"/>
<path d="M112.393 27.1562H110.1V29.4194H112.393V27.1562Z" fill="black"/>
<path d="M114.687 27.1562H112.393V29.4194H114.687V27.1562Z" fill="black"/>
<path d="M119.275 27.1562H116.981V29.4194H119.275V27.1562Z" fill="black"/>
<path d="M121.568 27.1562H119.275V29.4194H121.568V27.1562Z" fill="black"/>
<path d="M123.862 27.1562H121.568V29.4194H123.862V27.1562Z" fill="black"/>
<path d="M6.88122 29.4199H4.58748V31.6831H6.88122V29.4199Z" fill="black"/>
<path d="M9.17497 29.4199H6.88123V31.6831H9.17497V29.4199Z" fill="black"/>
<path d="M13.7624 29.4199H11.4687V31.6831H13.7624V29.4199Z" fill="black"/>
<path d="M16.0562 29.4199H13.7624V31.6831H16.0562V29.4199Z" fill="black"/>
<path d="M25.2311 29.4199H22.9374V31.6831H25.2311V29.4199Z" fill="black"/>
<path d="M32.1124 29.4199H29.8186V31.6831H32.1124V29.4199Z" fill="black"/>
<path d="M34.4061 29.4199H32.1124V31.6831H34.4061V29.4199Z" fill="black"/>
<path d="M38.9936 29.4199H36.6999V31.6831H38.9936V29.4199Z" fill="black"/>
<path d="M43.5811 29.4199H41.2873V31.6831H43.5811V29.4199Z" fill="black"/>
<path d="M52.756 29.4199H50.4623V31.6831H52.756V29.4199Z" fill="black"/>
<path d="M55.0498 29.4199H52.756V31.6831H55.0498V29.4199Z" fill="black"/>
<path d="M57.3435 29.4199H55.0498V31.6831H57.3435V29.4199Z" fill="black"/>
<path d="M59.6373 29.4199H57.3435V31.6831H59.6373V29.4199Z" fill="black"/>
<path d="M64.2247 29.4199H61.931V31.6831H64.2247V29.4199Z" fill="black"/>
<path d="M68.8122 29.4199H66.5185V31.6831H68.8122V29.4199Z" fill="black"/>
<path d="M71.106 29.4199H68.8122V31.6831H71.106V29.4199Z" fill="black"/>
<path d="M77.9872 29.4199H75.6934V31.6831H77.9872V29.4199Z" fill="black"/>
<path d="M84.8684 29.4199H82.5747V31.6831H84.8684V29.4199Z" fill="black"/>
<path d="M89.4559 29.4199H87.1622V31.6831H89.4559V29.4199Z" fill="black"/>
<path d="M91.7496 29.4199H89.4559V31.6831H91.7496V29.4199Z" fill="black"/>
<path d="M94.0434 29.4199H91.7496V31.6831H94.0434V29.4199Z" fill="black"/>
<path d="M100.925 29.4199H98.6309V31.6831H100.925V29.4199Z" fill="black"/>
<path d="M114.687 29.4199H112.393V31.6831H114.687V29.4199Z" fill="black"/>
<path d="M116.981 29.4199H114.687V31.6831H116.981V29.4199Z" fill="black"/>
<path d="M126.156 29.4199H123.862V31.6831H126.156V29.4199Z" fill="black"/>
<path d="M9.17497 31.6836H6.88123V33.9468H9.17497V31.6836Z" fill="black"/>
<path d="M11.4687 31.6836H9.17496V33.9468H11.4687V31.6836Z" fill="black"/>
<path d="M13.7624 31.6836H11.4687V33.9468H13.7624V31.6836Z" fill="black"/>
<path d="M16.0562 31.6836H13.7624V33.9468H16.0562V31.6836Z" fill="black"/>
<path d="M20.6437 31.6836H18.3499V33.9468H20.6437V31.6836Z" fill="black"/>
<path d="M29.8186 31.6836H27.5249V33.9468H29.8186V31.6836Z" fill="black"/>
<path d="M32.1124 31.6836H29.8186V33.9468H32.1124V31.6836Z" fill="black"/>
<path d="M34.4061 31.6836H32.1124V33.9468H34.4061V31.6836Z" fill="black"/>
<path d="M38.9936 31.6836H36.6999V33.9468H38.9936V31.6836Z" fill="black"/>
<path d="M41.2873 31.6836H38.9936V33.9468H41.2873V31.6836Z" fill="black"/>
<path d="M43.5811 31.6836H41.2873V33.9468H43.5811V31.6836Z" fill="black"/>
<path d="M55.0498 31.6836H52.756V33.9468H55.0498V31.6836Z" fill="black"/>
<path d="M66.5185 31.6836H64.2247V33.9468H66.5185V31.6836Z" fill="black"/>
<path d="M73.3997 31.6836H71.106V33.9468H73.3997V31.6836Z" fill="black"/>
<path d="M75.6935 31.6836H73.3997V33.9468H75.6935V31.6836Z" fill="black"/>
<path d="M77.9872 31.6836H75.6934V33.9468H77.9872V31.6836Z" fill="black"/>
<path d="M82.5747 31.6836H80.2809V33.9468H82.5747V31.6836Z" fill="black"/>
<path d="M89.4559 31.6836H87.1622V33.9468H89.4559V31.6836Z" fill="black"/>
<path d="M96.3371 31.6836H94.0434V33.9468H96.3371V31.6836Z" fill="black"/>
<path d="M103.218 31.6836H100.925V33.9468H103.218V31.6836Z" fill="black"/>
<path d="M105.512 31.6836H103.218V33.9468H105.512V31.6836Z" fill="black"/>
<path d="M107.806 31.6836H105.512V33.9468H107.806V31.6836Z" fill="black"/>
<path d="M110.1 31.6836H107.806V33.9468H110.1V31.6836Z" fill="black"/>
<path d="M116.981 31.6836H114.687V33.9468H116.981V31.6836Z" fill="black"/>
<path d="M123.862 31.6836H121.568V33.9468H123.862V31.6836Z" fill="black"/>
<path d="M126.156 31.6836H123.862V33.9468H126.156V31.6836Z" fill="black"/>
<path d="M6.88122 33.9473H4.58748V36.2104H6.88122V33.9473Z" fill="black"/>
<path d="M11.4687 33.9473H9.17496V36.2104H11.4687V33.9473Z" fill="black"/>
<path d="M13.7624 33.9473H11.4687V36.2104H13.7624V33.9473Z" fill="black"/>
<path d="M27.5249 33.9473H25.2312V36.2104H27.5249V33.9473Z" fill="black"/>
<path d="M34.4061 33.9473H32.1124V36.2104H34.4061V33.9473Z" fill="black"/>
<path d="M41.2873 33.9473H38.9936V36.2104H41.2873V33.9473Z" fill="black"/>
<path d="M43.5811 33.9473H41.2873V36.2104H43.5811V33.9473Z" fill="black"/>
<path d="M48.1686 33.9473H45.8748V36.2104H48.1686V33.9473Z" fill="black"/>
<path d="M50.4623 33.9473H48.1686V36.2104H50.4623V33.9473Z" fill="black"/>
<path d="M57.3435 33.9473H55.0498V36.2104H57.3435V33.9473Z" fill="black"/>
<path d="M59.6373 33.9473H57.3435V36.2104H59.6373V33.9473Z" fill="black"/>
<path d="M64.2247 33.9473H61.931V36.2104H64.2247V33.9473Z" fill="black"/>
<path d="M66.5185 33.9473H64.2247V36.2104H66.5185V33.9473Z" fill="black"/>
<path d="M73.3997 33.9473H71.106V36.2104H73.3997V33.9473Z" fill="black"/>
<path d="M77.9872 33.9473H75.6934V36.2104H77.9872V33.9473Z" fill="black"/>
<path d="M80.2809 33.9473H77.9872V36.2104H80.2809V33.9473Z" fill="black"/>
<path d="M87.1621 33.9473H84.8684V36.2104H87.1621V33.9473Z" fill="black"/>
<path d="M94.0434 33.9473H91.7496V36.2104H94.0434V33.9473Z" fill="black"/>
<path d="M100.925 33.9473H98.6309V36.2104H100.925V33.9473Z" fill="black"/>
<path d="M107.806 33.9473H105.512V36.2104H107.806V33.9473Z" fill="black"/>
<path d="M114.687 33.9473H112.393V36.2104H114.687V33.9473Z" fill="black"/>
<path d="M116.981 33.9473H114.687V36.2104H116.981V33.9473Z" fill="black"/>
<path d="M119.275 33.9473H116.981V36.2104H119.275V33.9473Z" fill="black"/>
<path d="M121.568 33.9473H119.275V36.2104H121.568V33.9473Z" fill="black"/>
<path d="M123.862 33.9473H121.568V36.2104H123.862V33.9473Z" fill="black"/>
<path d="M126.156 33.9473H123.862V36.2104H126.156V33.9473Z" fill="black"/>
<path d="M16.0562 36.209H13.7624V38.4721H16.0562V36.209Z" fill="black"/>
<path d="M20.6437 36.209H18.3499V38.4721H20.6437V36.209Z" fill="black"/>
<path d="M25.2311 36.209H22.9374V38.4721H25.2311V36.209Z" fill="black"/>
<path d="M32.1124 36.209H29.8186V38.4721H32.1124V36.209Z" fill="black"/>
<path d="M34.4061 36.209H32.1124V38.4721H34.4061V36.209Z" fill="black"/>
<path d="M36.6999 36.209H34.4061V38.4721H36.6999V36.209Z" fill="black"/>
<path d="M38.9936 36.209H36.6999V38.4721H38.9936V36.209Z" fill="black"/>
<path d="M43.5811 36.209H41.2873V38.4721H43.5811V36.209Z" fill="black"/>
<path d="M48.1686 36.209H45.8748V38.4721H48.1686V36.209Z" fill="black"/>
<path d="M50.4623 36.209H48.1686V38.4721H50.4623V36.209Z" fill="black"/>
<path d="M55.0498 36.209H52.756V38.4721H55.0498V36.209Z" fill="black"/>
<path d="M57.3435 36.209H55.0498V38.4721H57.3435V36.209Z" fill="black"/>
<path d="M59.6373 36.209H57.3435V38.4721H59.6373V36.209Z" fill="black"/>
<path d="M61.931 36.209H59.6373V38.4721H61.931V36.209Z" fill="black"/>
<path d="M64.2247 36.209H61.931V38.4721H64.2247V36.209Z" fill="black"/>
<path d="M68.8122 36.209H66.5185V38.4721H68.8122V36.209Z" fill="black"/>
<path d="M71.106 36.209H68.8122V38.4721H71.106V36.209Z" fill="black"/>
<path d="M73.3997 36.209H71.106V38.4721H73.3997V36.209Z" fill="black"/>
<path d="M94.0434 36.209H91.7496V38.4721H94.0434V36.209Z" fill="black"/>
<path d="M100.925 36.209H98.6309V38.4721H100.925V36.209Z" fill="black"/>
<path d="M103.218 36.209H100.925V38.4721H103.218V36.209Z" fill="black"/>
<path d="M105.512 36.209H103.218V38.4721H105.512V36.209Z" fill="black"/>
<path d="M110.1 36.209H107.806V38.4721H110.1V36.209Z" fill="black"/>
<path d="M114.687 36.209H112.393V38.4721H114.687V36.209Z" fill="black"/>
<path d="M126.156 36.209H123.862V38.4721H126.156V36.209Z" fill="black"/>
<path d="M13.7624 38.4727H11.4687V40.7358H13.7624V38.4727Z" fill="black"/>
<path d="M22.9374 38.4727H20.6437V40.7358H22.9374V38.4727Z" fill="black"/>
<path d="M32.1124 38.4727H29.8186V40.7358H32.1124V38.4727Z" fill="black"/>
<path d="M34.4061 38.4727H32.1124V40.7358H34.4061V38.4727Z" fill="black"/>
<path d="M36.6999 38.4727H34.4061V40.7358H36.6999V38.4727Z" fill="black"/>
<path d="M38.9936 38.4727H36.6999V40.7358H38.9936V38.4727Z" fill="black"/>
<path d="M43.5811 38.4727H41.2873V40.7358H43.5811V38.4727Z" fill="black"/>
<path d="M48.1686 38.4727H45.8748V40.7358H48.1686V38.4727Z" fill="black"/>
<path d="M55.0498 38.4727H52.756V40.7358H55.0498V38.4727Z" fill="black"/>
<path d="M61.931 38.4727H59.6373V40.7358H61.931V38.4727Z" fill="black"/>
<path d="M73.3997 38.4727H71.106V40.7358H73.3997V38.4727Z" fill="black"/>
<path d="M75.6935 38.4727H73.3997V40.7358H75.6935V38.4727Z" fill="black"/>
<path d="M77.9872 38.4727H75.6934V40.7358H77.9872V38.4727Z" fill="black"/>
<path d="M80.2809 38.4727H77.9872V40.7358H80.2809V38.4727Z" fill="black"/>
<path d="M84.8684 38.4727H82.5747V40.7358H84.8684V38.4727Z" fill="black"/>
<path d="M89.4559 38.4727H87.1622V40.7358H89.4559V38.4727Z" fill="black"/>
<path d="M91.7496 38.4727H89.4559V40.7358H91.7496V38.4727Z" fill="black"/>
<path d="M96.3371 38.4727H94.0434V40.7358H96.3371V38.4727Z" fill="black"/>
<path d="M98.6309 38.4727H96.3371V40.7358H98.6309V38.4727Z" fill="black"/>
<path d="M103.218 38.4727H100.925V40.7358H103.218V38.4727Z" fill="black"/>
<path d="M107.806 38.4727H105.512V40.7358H107.806V38.4727Z" fill="black"/>
<path d="M119.275 38.4727H116.981V40.7358H119.275V38.4727Z" fill="black"/>
<path d="M6.88122 40.7363H4.58748V42.9995H6.88122V40.7363Z" fill="black"/>
<path d="M20.6437 40.7363H18.3499V42.9995H20.6437V40.7363Z" fill="black"/>
<path d="M25.2311 40.7363H22.9374V42.9995H25.2311V40.7363Z" fill="black"/>
<path d="M27.5249 40.7363H25.2312V42.9995H27.5249V40.7363Z" fill="black"/>
<path d="M29.8186 40.7363H27.5249V42.9995H29.8186V40.7363Z" fill="black"/>
<path d="M32.1124 40.7363H29.8186V42.9995H32.1124V40.7363Z" fill="black"/>
<path d="M34.4061 40.7363H32.1124V42.9995H34.4061V40.7363Z" fill="black"/>
<path d="M36.6999 40.7363H34.4061V42.9995H36.6999V40.7363Z" fill="black"/>
<path d="M41.2873 40.7363H38.9936V42.9995H41.2873V40.7363Z" fill="black"/>
<path d="M45.8748 40.7363H43.5811V42.9995H45.8748V40.7363Z" fill="black"/>
<path d="M48.1686 40.7363H45.8748V42.9995H48.1686V40.7363Z" fill="black"/>
<path d="M50.4623 40.7363H48.1686V42.9995H50.4623V40.7363Z" fill="black"/>
<path d="M52.756 40.7363H50.4623V42.9995H52.756V40.7363Z" fill="black"/>
<path d="M59.6373 40.7363H57.3435V42.9995H59.6373V40.7363Z" fill="black"/>
<path d="M61.931 40.7363H59.6373V42.9995H61.931V40.7363Z" fill="black"/>
<path d="M64.2247 40.7363H61.931V42.9995H64.2247V40.7363Z" fill="black"/>
<path d="M68.8122 40.7363H66.5185V42.9995H68.8122V40.7363Z" fill="black"/>
<path d="M80.2809 40.7363H77.9872V42.9995H80.2809V40.7363Z" fill="black"/>
<path d="M84.8684 40.7363H82.5747V42.9995H84.8684V40.7363Z" fill="black"/>
<path d="M91.7496 40.7363H89.4559V42.9995H91.7496V40.7363Z" fill="black"/>
<path d="M94.0434 40.7363H91.7496V42.9995H94.0434V40.7363Z" fill="black"/>
<path d="M96.3371 40.7363H94.0434V42.9995H96.3371V40.7363Z" fill="black"/>
<path d="M107.806 40.7363H105.512V42.9995H107.806V40.7363Z" fill="black"/>
<path d="M114.687 40.7363H112.393V42.9995H114.687V40.7363Z" fill="black"/>
<path d="M121.568 40.7363H119.275V42.9995H121.568V40.7363Z" fill="black"/>
<path d="M123.862 40.7363H121.568V42.9995H123.862V40.7363Z" fill="black"/>
<path d="M6.88122 43H4.58748V45.2632H6.88122V43Z" fill="black"/>
<path d="M9.17497 43H6.88123V45.2632H9.17497V43Z" fill="black"/>
<path d="M18.3499 43H16.0562V45.2632H18.3499V43Z" fill="black"/>
<path d="M22.9374 43H20.6437V45.2632H22.9374V43Z" fill="black"/>
<path d="M29.8186 43H27.5249V45.2632H29.8186V43Z" fill="black"/>
<path d="M36.6999 43H34.4061V45.2632H36.6999V43Z" fill="black"/>
<path d="M38.9936 43H36.6999V45.2632H38.9936V43Z" fill="black"/>
<path d="M48.1686 43H45.8748V45.2632H48.1686V43Z" fill="black"/>
<path d="M50.4623 43H48.1686V45.2632H50.4623V43Z" fill="black"/>
<path d="M55.0498 43H52.756V45.2632H55.0498V43Z" fill="black"/>
<path d="M68.8122 43H66.5185V45.2632H68.8122V43Z" fill="black"/>
<path d="M77.9872 43H75.6934V45.2632H77.9872V43Z" fill="black"/>
<path d="M82.5747 43H80.2809V45.2632H82.5747V43Z" fill="black"/>
<path d="M84.8684 43H82.5747V45.2632H84.8684V43Z" fill="black"/>
<path d="M87.1621 43H84.8684V45.2632H87.1621V43Z" fill="black"/>
<path d="M112.393 43H110.1V45.2632H112.393V43Z" fill="black"/>
<path d="M114.687 43H112.393V45.2632H114.687V43Z" fill="black"/>
<path d="M9.17497 45.2617H6.88123V47.5249H9.17497V45.2617Z" fill="black"/>
<path d="M11.4687 45.2617H9.17496V47.5249H11.4687V45.2617Z" fill="black"/>
<path d="M13.7624 45.2617H11.4687V47.5249H13.7624V45.2617Z" fill="black"/>
<path d="M18.3499 45.2617H16.0562V47.5249H18.3499V45.2617Z" fill="black"/>
<path d="M20.6437 45.2617H18.3499V47.5249H20.6437V45.2617Z" fill="black"/>
<path d="M22.9374 45.2617H20.6437V47.5249H22.9374V45.2617Z" fill="black"/>
<path d="M29.8186 45.2617H27.5249V47.5249H29.8186V45.2617Z" fill="black"/>
<path d="M34.4061 45.2617H32.1124V47.5249H34.4061V45.2617Z" fill="black"/>
<path d="M36.6999 45.2617H34.4061V47.5249H36.6999V45.2617Z" fill="black"/>
<path d="M38.9936 45.2617H36.6999V47.5249H38.9936V45.2617Z" fill="black"/>
<path d="M43.5811 45.2617H41.2873V47.5249H43.5811V45.2617Z" fill="black"/>
<path d="M48.1686 45.2617H45.8748V47.5249H48.1686V45.2617Z" fill="black"/>
<path d="M52.756 45.2617H50.4623V47.5249H52.756V45.2617Z" fill="black"/>
<path d="M57.3435 45.2617H55.0498V47.5249H57.3435V45.2617Z" fill="black"/>
<path d="M59.6373 45.2617H57.3435V47.5249H59.6373V45.2617Z" fill="black"/>
<path d="M77.9872 45.2617H75.6934V47.5249H77.9872V45.2617Z" fill="black"/>
<path d="M82.5747 45.2617H80.2809V47.5249H82.5747V45.2617Z" fill="black"/>
<path d="M84.8684 45.2617H82.5747V47.5249H84.8684V45.2617Z" fill="black"/>
<path d="M87.1621 45.2617H84.8684V47.5249H87.1621V45.2617Z" fill="black"/>
<path d="M89.4559 45.2617H87.1622V47.5249H89.4559V45.2617Z" fill="black"/>
<path d="M98.6309 45.2617H96.3371V47.5249H98.6309V45.2617Z" fill="black"/>
<path d="M105.512 45.2617H103.218V47.5249H105.512V45.2617Z" fill="black"/>
<path d="M112.393 45.2617H110.1V47.5249H112.393V45.2617Z" fill="black"/>
<path d="M114.687 45.2617H112.393V47.5249H114.687V45.2617Z" fill="black"/>
<path d="M119.275 45.2617H116.981V47.5249H119.275V45.2617Z" fill="black"/>
<path d="M123.862 45.2617H121.568V47.5249H123.862V45.2617Z" fill="black"/>
<path d="M11.4687 47.5254H9.17496V49.7885H11.4687V47.5254Z" fill="black"/>
<path d="M16.0562 47.5254H13.7624V49.7885H16.0562V47.5254Z" fill="black"/>
<path d="M22.9374 47.5254H20.6437V49.7885H22.9374V47.5254Z" fill="black"/>
<path d="M25.2311 47.5254H22.9374V49.7885H25.2311V47.5254Z" fill="black"/>
<path d="M27.5249 47.5254H25.2312V49.7885H27.5249V47.5254Z" fill="black"/>
<path d="M32.1124 47.5254H29.8186V49.7885H32.1124V47.5254Z" fill="black"/>
<path d="M34.4061 47.5254H32.1124V49.7885H34.4061V47.5254Z" fill="black"/>
<path d="M38.9936 47.5254H36.6999V49.7885H38.9936V47.5254Z" fill="black"/>
<path d="M43.5811 47.5254H41.2873V49.7885H43.5811V47.5254Z" fill="black"/>
<path d="M57.3435 47.5254H55.0498V49.7885H57.3435V47.5254Z" fill="black"/>
<path d="M59.6373 47.5254H57.3435V49.7885H59.6373V47.5254Z" fill="black"/>
<path d="M66.5185 47.5254H64.2247V49.7885H66.5185V47.5254Z" fill="black"/>
<path d="M73.3997 47.5254H71.106V49.7885H73.3997V47.5254Z" fill="black"/>
<path d="M87.1621 47.5254H84.8684V49.7885H87.1621V47.5254Z" fill="black"/>
<path d="M89.4559 47.5254H87.1622V49.7885H89.4559V47.5254Z" fill="black"/>
<path d="M91.7496 47.5254H89.4559V49.7885H91.7496V47.5254Z" fill="black"/>
<path d="M98.6309 47.5254H96.3371V49.7885H98.6309V47.5254Z" fill="black"/>
<path d="M100.925 47.5254H98.6309V49.7885H100.925V47.5254Z" fill="black"/>
<path d="M105.512 47.5254H103.218V49.7885H105.512V47.5254Z" fill="black"/>
<path d="M107.806 47.5254H105.512V49.7885H107.806V47.5254Z" fill="black"/>
<path d="M110.1 47.5254H107.806V49.7885H110.1V47.5254Z" fill="black"/>
<path d="M114.687 47.5254H112.393V49.7885H114.687V47.5254Z" fill="black"/>
<path d="M119.275 47.5254H116.981V49.7885H119.275V47.5254Z" fill="black"/>
<path d="M121.568 47.5254H119.275V49.7885H121.568V47.5254Z" fill="black"/>
<path d="M11.4687 49.7891H9.17496V52.0522H11.4687V49.7891Z" fill="black"/>
<path d="M16.0562 49.7891H13.7624V52.0522H16.0562V49.7891Z" fill="black"/>
<path d="M18.3499 49.7891H16.0562V52.0522H18.3499V49.7891Z" fill="black"/>
<path d="M20.6437 49.7891H18.3499V52.0522H20.6437V49.7891Z" fill="black"/>
<path d="M22.9374 49.7891H20.6437V52.0522H22.9374V49.7891Z" fill="black"/>
<path d="M27.5249 49.7891H25.2312V52.0522H27.5249V49.7891Z" fill="black"/>
<path d="M34.4061 49.7891H32.1124V52.0522H34.4061V49.7891Z" fill="black"/>
<path d="M38.9936 49.7891H36.6999V52.0522H38.9936V49.7891Z" fill="black"/>
<path d="M41.2873 49.7891H38.9936V52.0522H41.2873V49.7891Z" fill="black"/>
<path d="M43.5811 49.7891H41.2873V52.0522H43.5811V49.7891Z" fill="black"/>
<path d="M48.1686 49.7891H45.8748V52.0522H48.1686V49.7891Z" fill="black"/>
<path d="M50.4623 49.7891H48.1686V52.0522H50.4623V49.7891Z" fill="black"/>
<path d="M52.756 49.7891H50.4623V52.0522H52.756V49.7891Z" fill="black"/>
<path d="M55.0498 49.7891H52.756V52.0522H55.0498V49.7891Z" fill="black"/>
<path d="M66.5185 49.7891H64.2247V52.0522H66.5185V49.7891Z" fill="black"/>
<path d="M71.106 49.7891H68.8122V52.0522H71.106V49.7891Z" fill="black"/>
<path d="M75.6935 49.7891H73.3997V52.0522H75.6935V49.7891Z" fill="black"/>
<path d="M77.9872 49.7891H75.6934V52.0522H77.9872V49.7891Z" fill="black"/>
<path d="M82.5747 49.7891H80.2809V52.0522H82.5747V49.7891Z" fill="black"/>
<path d="M96.3371 49.7891H94.0434V52.0522H96.3371V49.7891Z" fill="black"/>
<path d="M98.6309 49.7891H96.3371V52.0522H98.6309V49.7891Z" fill="black"/>
<path d="M103.218 49.7891H100.925V52.0522H103.218V49.7891Z" fill="black"/>
<path d="M105.512 49.7891H103.218V52.0522H105.512V49.7891Z" fill="black"/>
<path d="M107.806 49.7891H105.512V52.0522H107.806V49.7891Z" fill="black"/>
<path d="M110.1 49.7891H107.806V52.0522H110.1V49.7891Z" fill="black"/>
<path d="M112.393 49.7891H110.1V52.0522H112.393V49.7891Z" fill="black"/>
<path d="M114.687 49.7891H112.393V52.0522H114.687V49.7891Z" fill="black"/>
<path d="M119.275 49.7891H116.981V52.0522H119.275V49.7891Z" fill="black"/>
<path d="M126.156 49.7891H123.862V52.0522H126.156V49.7891Z" fill="black"/>
<path d="M6.88122 52.0508H4.58748V54.3139H6.88122V52.0508Z" fill="black"/>
<path d="M9.17497 52.0508H6.88123V54.3139H9.17497V52.0508Z" fill="black"/>
<path d="M13.7624 52.0508H11.4687V54.3139H13.7624V52.0508Z" fill="black"/>
<path d="M18.3499 52.0508H16.0562V54.3139H18.3499V52.0508Z" fill="black"/>
<path d="M27.5249 52.0508H25.2312V54.3139H27.5249V52.0508Z" fill="black"/>
<path d="M32.1124 52.0508H29.8186V54.3139H32.1124V52.0508Z" fill="black"/>
<path d="M34.4061 52.0508H32.1124V54.3139H34.4061V52.0508Z" fill="black"/>
<path d="M41.2873 52.0508H38.9936V54.3139H41.2873V52.0508Z" fill="black"/>
<path d="M48.1686 52.0508H45.8748V54.3139H48.1686V52.0508Z" fill="black"/>
<path d="M50.4623 52.0508H48.1686V54.3139H50.4623V52.0508Z" fill="black"/>
<path d="M52.756 52.0508H50.4623V54.3139H52.756V52.0508Z" fill="black"/>
<path d="M55.0498 52.0508H52.756V54.3139H55.0498V52.0508Z" fill="black"/>
<path d="M59.6373 52.0508H57.3435V54.3139H59.6373V52.0508Z" fill="black"/>
<path d="M61.931 52.0508H59.6373V54.3139H61.931V52.0508Z" fill="black"/>
<path d="M64.2247 52.0508H61.931V54.3139H64.2247V52.0508Z" fill="black"/>
<path d="M66.5185 52.0508H64.2247V54.3139H66.5185V52.0508Z" fill="black"/>
<path d="M68.8122 52.0508H66.5185V54.3139H68.8122V52.0508Z" fill="black"/>
<path d="M73.3997 52.0508H71.106V54.3139H73.3997V52.0508Z" fill="black"/>
<path d="M75.6935 52.0508H73.3997V54.3139H75.6935V52.0508Z" fill="black"/>
<path d="M87.1621 52.0508H84.8684V54.3139H87.1621V52.0508Z" fill="black"/>
<path d="M89.4559 52.0508H87.1622V54.3139H89.4559V52.0508Z" fill="black"/>
<path d="M91.7496 52.0508H89.4559V54.3139H91.7496V52.0508Z" fill="black"/>
<path d="M96.3371 52.0508H94.0434V54.3139H96.3371V52.0508Z" fill="black"/>
<path d="M98.6309 52.0508H96.3371V54.3139H98.6309V52.0508Z" fill="black"/>
<path d="M103.218 52.0508H100.925V54.3139H103.218V52.0508Z" fill="black"/>
<path d="M105.512 52.0508H103.218V54.3139H105.512V52.0508Z" fill="black"/>
<path d="M114.687 52.0508H112.393V54.3139H114.687V52.0508Z" fill="black"/>
<path d="M116.981 52.0508H114.687V54.3139H116.981V52.0508Z" fill="black"/>
<path d="M119.275 52.0508H116.981V54.3139H119.275V52.0508Z" fill="black"/>
<path d="M123.862 52.0508H121.568V54.3139H123.862V52.0508Z" fill="black"/>
<path d="M126.156 52.0508H123.862V54.3139H126.156V52.0508Z" fill="black"/>
<path d="M13.7624 54.3145H11.4687V56.5776H13.7624V54.3145Z" fill="black"/>
<path d="M16.0562 54.3145H13.7624V56.5776H16.0562V54.3145Z" fill="black"/>
<path d="M20.6437 54.3145H18.3499V56.5776H20.6437V54.3145Z" fill="black"/>
<path d="M22.9374 54.3145H20.6437V56.5776H22.9374V54.3145Z" fill="black"/>
<path d="M25.2311 54.3145H22.9374V56.5776H25.2311V54.3145Z" fill="black"/>
<path d="M27.5249 54.3145H25.2312V56.5776H27.5249V54.3145Z" fill="black"/>
<path d="M32.1124 54.3145H29.8186V56.5776H32.1124V54.3145Z" fill="black"/>
<path d="M38.9936 54.3145H36.6999V56.5776H38.9936V54.3145Z" fill="black"/>
<path d="M41.2873 54.3145H38.9936V56.5776H41.2873V54.3145Z" fill="black"/>
<path d="M45.8748 54.3145H43.5811V56.5776H45.8748V54.3145Z" fill="black"/>
<path d="M55.0498 54.3145H52.756V56.5776H55.0498V54.3145Z" fill="black"/>
<path d="M59.6373 54.3145H57.3435V56.5776H59.6373V54.3145Z" fill="black"/>
<path d="M64.2247 54.3145H61.931V56.5776H64.2247V54.3145Z" fill="black"/>
<path d="M68.8122 54.3145H66.5185V56.5776H68.8122V54.3145Z" fill="black"/>
<path d="M71.106 54.3145H68.8122V56.5776H71.106V54.3145Z" fill="black"/>
<path d="M73.3997 54.3145H71.106V56.5776H73.3997V54.3145Z" fill="black"/>
<path d="M80.2809 54.3145H77.9872V56.5776H80.2809V54.3145Z" fill="black"/>
<path d="M84.8684 54.3145H82.5747V56.5776H84.8684V54.3145Z" fill="black"/>
<path d="M103.218 54.3145H100.925V56.5776H103.218V54.3145Z" fill="black"/>
<path d="M105.512 54.3145H103.218V56.5776H105.512V54.3145Z" fill="black"/>
<path d="M121.568 54.3145H119.275V56.5776H121.568V54.3145Z" fill="black"/>
<path d="M9.17497 56.5781H6.88123V58.8413H9.17497V56.5781Z" fill="black"/>
<path d="M16.0562 56.5781H13.7624V58.8413H16.0562V56.5781Z" fill="black"/>
<path d="M18.3499 56.5781H16.0562V58.8413H18.3499V56.5781Z" fill="black"/>
<path d="M25.2311 56.5781H22.9374V58.8413H25.2311V56.5781Z" fill="black"/>
<path d="M32.1124 56.5781H29.8186V58.8413H32.1124V56.5781Z" fill="black"/>
<path d="M36.6999 56.5781H34.4061V58.8413H36.6999V56.5781Z" fill="black"/>
<path d="M38.9936 56.5781H36.6999V58.8413H38.9936V56.5781Z" fill="black"/>
<path d="M41.2873 56.5781H38.9936V58.8413H41.2873V56.5781Z" fill="black"/>
<path d="M43.5811 56.5781H41.2873V58.8413H43.5811V56.5781Z" fill="black"/>
<path d="M50.4623 56.5781H48.1686V58.8413H50.4623V56.5781Z" fill="black"/>
<path d="M52.756 56.5781H50.4623V58.8413H52.756V56.5781Z" fill="black"/>
<path d="M55.0498 56.5781H52.756V58.8413H55.0498V56.5781Z" fill="black"/>
<path d="M57.3435 56.5781H55.0498V58.8413H57.3435V56.5781Z" fill="black"/>
<path d="M59.6373 56.5781H57.3435V58.8413H59.6373V56.5781Z" fill="black"/>
<path d="M61.931 56.5781H59.6373V58.8413H61.931V56.5781Z" fill="black"/>
<path d="M73.3997 56.5781H71.106V58.8413H73.3997V56.5781Z" fill="black"/>
<path d="M80.2809 56.5781H77.9872V58.8413H80.2809V56.5781Z" fill="black"/>
<path d="M82.5747 56.5781H80.2809V58.8413H82.5747V56.5781Z" fill="black"/>
<path d="M84.8684 56.5781H82.5747V58.8413H84.8684V56.5781Z" fill="black"/>
<path d="M89.4559 56.5781H87.1622V58.8413H89.4559V56.5781Z" fill="black"/>
<path d="M91.7496 56.5781H89.4559V58.8413H91.7496V56.5781Z" fill="black"/>
<path d="M96.3371 56.5781H94.0434V58.8413H96.3371V56.5781Z" fill="black"/>
<path d="M100.925 56.5781H98.6309V58.8413H100.925V56.5781Z" fill="black"/>
<path d="M107.806 56.5781H105.512V58.8413H107.806V56.5781Z" fill="black"/>
<path d="M110.1 56.5781H107.806V58.8413H110.1V56.5781Z" fill="black"/>
<path d="M114.687 56.5781H112.393V58.8413H114.687V56.5781Z" fill="black"/>
<path d="M116.981 56.5781H114.687V58.8413H116.981V56.5781Z" fill="black"/>
<path d="M119.275 56.5781H116.981V58.8413H119.275V56.5781Z" fill="black"/>
<path d="M126.156 56.5781H123.862V58.8413H126.156V56.5781Z" fill="black"/>
<path d="M6.88122 58.8418H4.58748V61.105H6.88122V58.8418Z" fill="black"/>
<path d="M9.17497 58.8418H6.88123V61.105H9.17497V58.8418Z" fill="black"/>
<path d="M13.7624 58.8418H11.4687V61.105H13.7624V58.8418Z" fill="black"/>
<path d="M16.0562 58.8418H13.7624V61.105H16.0562V58.8418Z" fill="black"/>
<path d="M18.3499 58.8418H16.0562V61.105H18.3499V58.8418Z" fill="black"/>
<path d="M20.6437 58.8418H18.3499V61.105H20.6437V58.8418Z" fill="black"/>
<path d="M22.9374 58.8418H20.6437V61.105H22.9374V58.8418Z" fill="black"/>
<path d="M25.2311 58.8418H22.9374V61.105H25.2311V58.8418Z" fill="black"/>
<path d="M29.8186 58.8418H27.5249V61.105H29.8186V58.8418Z" fill="black"/>
<path d="M43.5811 58.8418H41.2873V61.105H43.5811V58.8418Z" fill="black"/>
<path d="M45.8748 58.8418H43.5811V61.105H45.8748V58.8418Z" fill="black"/>
<path d="M50.4623 58.8418H48.1686V61.105H50.4623V58.8418Z" fill="black"/>
<path d="M61.931 58.8418H59.6373V61.105H61.931V58.8418Z" fill="black"/>
<path d="M64.2247 58.8418H61.931V61.105H64.2247V58.8418Z" fill="black"/>
<path d="M66.5185 58.8418H64.2247V61.105H66.5185V58.8418Z" fill="black"/>
<path d="M68.8122 58.8418H66.5185V61.105H68.8122V58.8418Z" fill="black"/>
<path d="M71.106 58.8418H68.8122V61.105H71.106V58.8418Z" fill="black"/>
<path d="M73.3997 58.8418H71.106V61.105H73.3997V58.8418Z" fill="black"/>
<path d="M75.6935 58.8418H73.3997V61.105H75.6935V58.8418Z" fill="black"/>
<path d="M77.9872 58.8418H75.6934V61.105H77.9872V58.8418Z" fill="black"/>
<path d="M82.5747 58.8418H80.2809V61.105H82.5747V58.8418Z" fill="black"/>
<path d="M87.1621 58.8418H84.8684V61.105H87.1621V58.8418Z" fill="black"/>
<path d="M89.4559 58.8418H87.1622V61.105H89.4559V58.8418Z" fill="black"/>
<path d="M96.3371 58.8418H94.0434V61.105H96.3371V58.8418Z" fill="black"/>
<path d="M103.218 58.8418H100.925V61.105H103.218V58.8418Z" fill="black"/>
<path d="M107.806 58.8418H105.512V61.105H107.806V58.8418Z" fill="black"/>
<path d="M110.1 58.8418H107.806V61.105H110.1V58.8418Z" fill="black"/>
<path d="M112.393 58.8418H110.1V61.105H112.393V58.8418Z" fill="black"/>
<path d="M114.687 58.8418H112.393V61.105H114.687V58.8418Z" fill="black"/>
<path d="M116.981 58.8418H114.687V61.105H116.981V58.8418Z" fill="black"/>
<path d="M119.275 58.8418H116.981V61.105H119.275V58.8418Z" fill="black"/>
<path d="M121.568 58.8418H119.275V61.105H121.568V58.8418Z" fill="black"/>
<path d="M123.862 58.8418H121.568V61.105H123.862V58.8418Z" fill="black"/>
<path d="M6.88122 61.1035H4.58748V63.3667H6.88122V61.1035Z" fill="black"/>
<path d="M13.7624 61.1035H11.4687V63.3667H13.7624V61.1035Z" fill="black"/>
<path d="M16.0562 61.1035H13.7624V63.3667H16.0562V61.1035Z" fill="black"/>
<path d="M25.2311 61.1035H22.9374V63.3667H25.2311V61.1035Z" fill="black"/>
<path d="M29.8186 61.1035H27.5249V63.3667H29.8186V61.1035Z" fill="black"/>
<path d="M34.4061 61.1035H32.1124V63.3667H34.4061V61.1035Z" fill="black"/>
<path d="M43.5811 61.1035H41.2873V63.3667H43.5811V61.1035Z" fill="black"/>
<path d="M45.8748 61.1035H43.5811V63.3667H45.8748V61.1035Z" fill="black"/>
<path d="M50.4623 61.1035H48.1686V63.3667H50.4623V61.1035Z" fill="black"/>
<path d="M61.931 61.1035H59.6373V63.3667H61.931V61.1035Z" fill="black"/>
<path d="M71.106 61.1035H68.8122V63.3667H71.106V61.1035Z" fill="black"/>
<path d="M77.9872 61.1035H75.6934V63.3667H77.9872V61.1035Z" fill="black"/>
<path d="M87.1621 61.1035H84.8684V63.3667H87.1621V61.1035Z" fill="black"/>
<path d="M91.7496 61.1035H89.4559V63.3667H91.7496V61.1035Z" fill="black"/>
<path d="M94.0434 61.1035H91.7496V63.3667H94.0434V61.1035Z" fill="black"/>
<path d="M105.512 61.1035H103.218V63.3667H105.512V61.1035Z" fill="black"/>
<path d="M107.806 61.1035H105.512V63.3667H107.806V61.1035Z" fill="black"/>
<path d="M116.981 61.1035H114.687V63.3667H116.981V61.1035Z" fill="black"/>
<path d="M119.275 61.1035H116.981V63.3667H119.275V61.1035Z" fill="black"/>
<path d="M121.568 61.1035H119.275V63.3667H121.568V61.1035Z" fill="black"/>
<path d="M126.156 61.1035H123.862V63.3667H126.156V61.1035Z" fill="black"/>
<path d="M11.4687 63.3672H9.17496V65.6303H11.4687V63.3672Z" fill="black"/>
<path d="M16.0562 63.3672H13.7624V65.6303H16.0562V63.3672Z" fill="black"/>
<path d="M20.6437 63.3672H18.3499V65.6303H20.6437V63.3672Z" fill="black"/>
<path d="M25.2311 63.3672H22.9374V65.6303H25.2311V63.3672Z" fill="black"/>
<path d="M29.8186 63.3672H27.5249V65.6303H29.8186V63.3672Z" fill="black"/>
<path d="M41.2873 63.3672H38.9936V65.6303H41.2873V63.3672Z" fill="black"/>
<path d="M45.8748 63.3672H43.5811V65.6303H45.8748V63.3672Z" fill="black"/>
<path d="M48.1686 63.3672H45.8748V65.6303H48.1686V63.3672Z" fill="black"/>
<path d="M52.756 63.3672H50.4623V65.6303H52.756V63.3672Z" fill="black"/>
<path d="M55.0498 63.3672H52.756V65.6303H55.0498V63.3672Z" fill="black"/>
<path d="M57.3435 63.3672H55.0498V65.6303H57.3435V63.3672Z" fill="black"/>
<path d="M59.6373 63.3672H57.3435V65.6303H59.6373V63.3672Z" fill="black"/>
<path d="M61.931 63.3672H59.6373V65.6303H61.931V63.3672Z" fill="black"/>
<path d="M66.5185 63.3672H64.2247V65.6303H66.5185V63.3672Z" fill="black"/>
<path d="M71.106 63.3672H68.8122V65.6303H71.106V63.3672Z" fill="black"/>
<path d="M80.2809 63.3672H77.9872V65.6303H80.2809V63.3672Z" fill="black"/>
<path d="M89.4559 63.3672H87.1622V65.6303H89.4559V63.3672Z" fill="black"/>
<path d="M94.0434 63.3672H91.7496V65.6303H94.0434V63.3672Z" fill="black"/>
<path d="M96.3371 63.3672H94.0434V65.6303H96.3371V63.3672Z" fill="black"/>
<path d="M98.6309 63.3672H96.3371V65.6303H98.6309V63.3672Z" fill="black"/>
<path d="M103.218 63.3672H100.925V65.6303H103.218V63.3672Z" fill="black"/>
<path d="M107.806 63.3672H105.512V65.6303H107.806V63.3672Z" fill="black"/>
<path d="M112.393 63.3672H110.1V65.6303H112.393V63.3672Z" fill="black"/>
<path d="M116.981 63.3672H114.687V65.6303H116.981V63.3672Z" fill="black"/>
<path d="M119.275 63.3672H116.981V65.6303H119.275V63.3672Z" fill="black"/>
<path d="M126.156 63.3672H123.862V65.6303H126.156V63.3672Z" fill="black"/>
<path d="M13.7624 65.6309H11.4687V67.894H13.7624V65.6309Z" fill="black"/>
<path d="M16.0562 65.6309H13.7624V67.894H16.0562V65.6309Z" fill="black"/>
<path d="M25.2311 65.6309H22.9374V67.894H25.2311V65.6309Z" fill="black"/>
<path d="M27.5249 65.6309H25.2312V67.894H27.5249V65.6309Z" fill="black"/>
<path d="M29.8186 65.6309H27.5249V67.894H29.8186V65.6309Z" fill="black"/>
<path d="M36.6999 65.6309H34.4061V67.894H36.6999V65.6309Z" fill="black"/>
<path d="M38.9936 65.6309H36.6999V67.894H38.9936V65.6309Z" fill="black"/>
<path d="M45.8748 65.6309H43.5811V67.894H45.8748V65.6309Z" fill="black"/>
<path d="M59.6373 65.6309H57.3435V67.894H59.6373V65.6309Z" fill="black"/>
<path d="M61.931 65.6309H59.6373V67.894H61.931V65.6309Z" fill="black"/>
<path d="M71.106 65.6309H68.8122V67.894H71.106V65.6309Z" fill="black"/>
<path d="M75.6935 65.6309H73.3997V67.894H75.6935V65.6309Z" fill="black"/>
<path d="M77.9872 65.6309H75.6934V67.894H77.9872V65.6309Z" fill="black"/>
<path d="M82.5747 65.6309H80.2809V67.894H82.5747V65.6309Z" fill="black"/>
<path d="M89.4559 65.6309H87.1622V67.894H89.4559V65.6309Z" fill="black"/>
<path d="M91.7496 65.6309H89.4559V67.894H91.7496V65.6309Z" fill="black"/>
<path d="M96.3371 65.6309H94.0434V67.894H96.3371V65.6309Z" fill="black"/>
<path d="M98.6309 65.6309H96.3371V67.894H98.6309V65.6309Z" fill="black"/>
<path d="M103.218 65.6309H100.925V67.894H103.218V65.6309Z" fill="black"/>
<path d="M107.806 65.6309H105.512V67.894H107.806V65.6309Z" fill="black"/>
<path d="M116.981 65.6309H114.687V67.894H116.981V65.6309Z" fill="black"/>
<path d="M119.275 65.6309H116.981V67.894H119.275V65.6309Z" fill="black"/>
<path d="M6.88122 67.8945H4.58748V70.1577H6.88122V67.8945Z" fill="black"/>
<path d="M11.4687 67.8945H9.17496V70.1577H11.4687V67.8945Z" fill="black"/>
<path d="M13.7624 67.8945H11.4687V70.1577H13.7624V67.8945Z" fill="black"/>
<path d="M16.0562 67.8945H13.7624V70.1577H16.0562V67.8945Z" fill="black"/>
<path d="M18.3499 67.8945H16.0562V70.1577H18.3499V67.8945Z" fill="black"/>
<path d="M20.6437 67.8945H18.3499V70.1577H20.6437V67.8945Z" fill="black"/>
<path d="M22.9374 67.8945H20.6437V70.1577H22.9374V67.8945Z" fill="black"/>
<path d="M25.2311 67.8945H22.9374V70.1577H25.2311V67.8945Z" fill="black"/>
<path d="M27.5249 67.8945H25.2312V70.1577H27.5249V67.8945Z" fill="black"/>
<path d="M38.9936 67.8945H36.6999V70.1577H38.9936V67.8945Z" fill="black"/>
<path d="M43.5811 67.8945H41.2873V70.1577H43.5811V67.8945Z" fill="black"/>
<path d="M48.1686 67.8945H45.8748V70.1577H48.1686V67.8945Z" fill="black"/>
<path d="M50.4623 67.8945H48.1686V70.1577H50.4623V67.8945Z" fill="black"/>
<path d="M55.0498 67.8945H52.756V70.1577H55.0498V67.8945Z" fill="black"/>
<path d="M61.931 67.8945H59.6373V70.1577H61.931V67.8945Z" fill="black"/>
<path d="M64.2247 67.8945H61.931V70.1577H64.2247V67.8945Z" fill="black"/>
<path d="M66.5185 67.8945H64.2247V70.1577H66.5185V67.8945Z" fill="black"/>
<path d="M68.8122 67.8945H66.5185V70.1577H68.8122V67.8945Z" fill="black"/>
<path d="M71.106 67.8945H68.8122V70.1577H71.106V67.8945Z" fill="black"/>
<path d="M80.2809 67.8945H77.9872V70.1577H80.2809V67.8945Z" fill="black"/>
<path d="M84.8684 67.8945H82.5747V70.1577H84.8684V67.8945Z" fill="black"/>
<path d="M91.7496 67.8945H89.4559V70.1577H91.7496V67.8945Z" fill="black"/>
<path d="M94.0434 67.8945H91.7496V70.1577H94.0434V67.8945Z" fill="black"/>
<path d="M100.925 67.8945H98.6309V70.1577H100.925V67.8945Z" fill="black"/>
<path d="M107.806 67.8945H105.512V70.1577H107.806V67.8945Z" fill="black"/>
<path d="M110.1 67.8945H107.806V70.1577H110.1V67.8945Z" fill="black"/>
<path d="M112.393 67.8945H110.1V70.1577H112.393V67.8945Z" fill="black"/>
<path d="M114.687 67.8945H112.393V70.1577H114.687V67.8945Z" fill="black"/>
<path d="M116.981 67.8945H114.687V70.1577H116.981V67.8945Z" fill="black"/>
<path d="M119.275 67.8945H116.981V70.1577H119.275V67.8945Z" fill="black"/>
<path d="M123.862 67.8945H121.568V70.1577H123.862V67.8945Z" fill="black"/>
<path d="M9.17497 70.1562H6.88123V72.4194H9.17497V70.1562Z" fill="black"/>
<path d="M11.4687 70.1562H9.17496V72.4194H11.4687V70.1562Z" fill="black"/>
<path d="M22.9374 70.1562H20.6437V72.4194H22.9374V70.1562Z" fill="black"/>
<path d="M27.5249 70.1562H25.2312V72.4194H27.5249V70.1562Z" fill="black"/>
<path d="M34.4061 70.1562H32.1124V72.4194H34.4061V70.1562Z" fill="black"/>
<path d="M36.6999 70.1562H34.4061V72.4194H36.6999V70.1562Z" fill="black"/>
<path d="M43.5811 70.1562H41.2873V72.4194H43.5811V70.1562Z" fill="black"/>
<path d="M45.8748 70.1562H43.5811V72.4194H45.8748V70.1562Z" fill="black"/>
<path d="M50.4623 70.1562H48.1686V72.4194H50.4623V70.1562Z" fill="black"/>
<path d="M57.3435 70.1562H55.0498V72.4194H57.3435V70.1562Z" fill="black"/>
<path d="M59.6373 70.1562H57.3435V72.4194H59.6373V70.1562Z" fill="black"/>
<path d="M64.2247 70.1562H61.931V72.4194H64.2247V70.1562Z" fill="black"/>
<path d="M66.5185 70.1562H64.2247V72.4194H66.5185V70.1562Z" fill="black"/>
<path d="M68.8122 70.1562H66.5185V72.4194H68.8122V70.1562Z" fill="black"/>
<path d="M84.8684 70.1562H82.5747V72.4194H84.8684V70.1562Z" fill="black"/>
<path d="M87.1621 70.1562H84.8684V72.4194H87.1621V70.1562Z" fill="black"/>
<path d="M96.3371 70.1562H94.0434V72.4194H96.3371V70.1562Z" fill="black"/>
<path d="M98.6309 70.1562H96.3371V72.4194H98.6309V70.1562Z" fill="black"/>
<path d="M100.925 70.1562H98.6309V72.4194H100.925V70.1562Z" fill="black"/>
<path d="M105.512 70.1562H103.218V72.4194H105.512V70.1562Z" fill="black"/>
<path d="M107.806 70.1562H105.512V72.4194H107.806V70.1562Z" fill="black"/>
<path d="M110.1 70.1562H107.806V72.4194H110.1V70.1562Z" fill="black"/>
<path d="M6.88122 72.4199H4.58748V74.6831H6.88122V72.4199Z" fill="black"/>
<path d="M9.17497 72.4199H6.88123V74.6831H9.17497V72.4199Z" fill="black"/>
<path d="M13.7624 72.4199H11.4687V74.6831H13.7624V72.4199Z" fill="black"/>
<path d="M20.6437 72.4199H18.3499V74.6831H20.6437V72.4199Z" fill="black"/>
<path d="M22.9374 72.4199H20.6437V74.6831H22.9374V72.4199Z" fill="black"/>
<path d="M34.4061 72.4199H32.1124V74.6831H34.4061V72.4199Z" fill="black"/>
<path d="M36.6999 72.4199H34.4061V74.6831H36.6999V72.4199Z" fill="black"/>
<path d="M38.9936 72.4199H36.6999V74.6831H38.9936V72.4199Z" fill="black"/>
<path d="M41.2873 72.4199H38.9936V74.6831H41.2873V72.4199Z" fill="black"/>
<path d="M48.1686 72.4199H45.8748V74.6831H48.1686V72.4199Z" fill="black"/>
<path d="M61.931 72.4199H59.6373V74.6831H61.931V72.4199Z" fill="black"/>
<path d="M64.2247 72.4199H61.931V74.6831H64.2247V72.4199Z" fill="black"/>
<path d="M66.5185 72.4199H64.2247V74.6831H66.5185V72.4199Z" fill="black"/>
<path d="M68.8122 72.4199H66.5185V74.6831H68.8122V72.4199Z" fill="black"/>
<path d="M84.8684 72.4199H82.5747V74.6831H84.8684V72.4199Z" fill="black"/>
<path d="M87.1621 72.4199H84.8684V74.6831H87.1621V72.4199Z" fill="black"/>
<path d="M89.4559 72.4199H87.1622V74.6831H89.4559V72.4199Z" fill="black"/>
<path d="M96.3371 72.4199H94.0434V74.6831H96.3371V72.4199Z" fill="black"/>
<path d="M100.925 72.4199H98.6309V74.6831H100.925V72.4199Z" fill="black"/>
<path d="M105.512 72.4199H103.218V74.6831H105.512V72.4199Z" fill="black"/>
<path d="M114.687 72.4199H112.393V74.6831H114.687V72.4199Z" fill="black"/>
<path d="M116.981 72.4199H114.687V74.6831H116.981V72.4199Z" fill="black"/>
<path d="M9.17497 74.6836H6.88123V76.9468H9.17497V74.6836Z" fill="black"/>
<path d="M11.4687 74.6836H9.17496V76.9468H11.4687V74.6836Z" fill="black"/>
<path d="M13.7624 74.6836H11.4687V76.9468H13.7624V74.6836Z" fill="black"/>
<path d="M16.0562 74.6836H13.7624V76.9468H16.0562V74.6836Z" fill="black"/>
<path d="M25.2311 74.6836H22.9374V76.9468H25.2311V74.6836Z" fill="black"/>
<path d="M27.5249 74.6836H25.2312V76.9468H27.5249V74.6836Z" fill="black"/>
<path d="M29.8186 74.6836H27.5249V76.9468H29.8186V74.6836Z" fill="black"/>
<path d="M32.1124 74.6836H29.8186V76.9468H32.1124V74.6836Z" fill="black"/>
<path d="M41.2873 74.6836H38.9936V76.9468H41.2873V74.6836Z" fill="black"/>
<path d="M55.0498 74.6836H52.756V76.9468H55.0498V74.6836Z" fill="black"/>
<path d="M59.6373 74.6836H57.3435V76.9468H59.6373V74.6836Z" fill="black"/>
<path d="M61.931 74.6836H59.6373V76.9468H61.931V74.6836Z" fill="black"/>
<path d="M68.8122 74.6836H66.5185V76.9468H68.8122V74.6836Z" fill="black"/>
<path d="M75.6935 74.6836H73.3997V76.9468H75.6935V74.6836Z" fill="black"/>
<path d="M82.5747 74.6836H80.2809V76.9468H82.5747V74.6836Z" fill="black"/>
<path d="M89.4559 74.6836H87.1622V76.9468H89.4559V74.6836Z" fill="black"/>
<path d="M94.0434 74.6836H91.7496V76.9468H94.0434V74.6836Z" fill="black"/>
<path d="M96.3371 74.6836H94.0434V76.9468H96.3371V74.6836Z" fill="black"/>
<path d="M98.6309 74.6836H96.3371V76.9468H98.6309V74.6836Z" fill="black"/>
<path d="M100.925 74.6836H98.6309V76.9468H100.925V74.6836Z" fill="black"/>
<path d="M105.512 74.6836H103.218V76.9468H105.512V74.6836Z" fill="black"/>
<path d="M107.806 74.6836H105.512V76.9468H107.806V74.6836Z" fill="black"/>
<path d="M110.1 74.6836H107.806V76.9468H110.1V74.6836Z" fill="black"/>
<path d="M112.393 74.6836H110.1V76.9468H112.393V74.6836Z" fill="black"/>
<path d="M121.568 74.6836H119.275V76.9468H121.568V74.6836Z" fill="black"/>
<path d="M123.862 74.6836H121.568V76.9468H123.862V74.6836Z" fill="black"/>
<path d="M6.88122 76.9473H4.58748V79.2104H6.88122V76.9473Z" fill="black"/>
<path d="M9.17497 76.9473H6.88123V79.2104H9.17497V76.9473Z" fill="black"/>
<path d="M13.7624 76.9473H11.4687V79.2104H13.7624V76.9473Z" fill="black"/>
<path d="M20.6437 76.9473H18.3499V79.2104H20.6437V76.9473Z" fill="black"/>
<path d="M29.8186 76.9473H27.5249V79.2104H29.8186V76.9473Z" fill="black"/>
<path d="M32.1124 76.9473H29.8186V79.2104H32.1124V76.9473Z" fill="black"/>
<path d="M36.6999 76.9473H34.4061V79.2104H36.6999V76.9473Z" fill="black"/>
<path d="M41.2873 76.9473H38.9936V79.2104H41.2873V76.9473Z" fill="black"/>
<path d="M43.5811 76.9473H41.2873V79.2104H43.5811V76.9473Z" fill="black"/>
<path d="M45.8748 76.9473H43.5811V79.2104H45.8748V76.9473Z" fill="black"/>
<path d="M55.0498 76.9473H52.756V79.2104H55.0498V76.9473Z" fill="black"/>
<path d="M57.3435 76.9473H55.0498V79.2104H57.3435V76.9473Z" fill="black"/>
<path d="M66.5185 76.9473H64.2247V79.2104H66.5185V76.9473Z" fill="black"/>
<path d="M71.106 76.9473H68.8122V79.2104H71.106V76.9473Z" fill="black"/>
<path d="M75.6935 76.9473H73.3997V79.2104H75.6935V76.9473Z" fill="black"/>
<path d="M77.9872 76.9473H75.6934V79.2104H77.9872V76.9473Z" fill="black"/>
<path d="M82.5747 76.9473H80.2809V79.2104H82.5747V76.9473Z" fill="black"/>
<path d="M84.8684 76.9473H82.5747V79.2104H84.8684V76.9473Z" fill="black"/>
<path d="M91.7496 76.9473H89.4559V79.2104H91.7496V76.9473Z" fill="black"/>
<path d="M94.0434 76.9473H91.7496V79.2104H94.0434V76.9473Z" fill="black"/>
<path d="M98.6309 76.9473H96.3371V79.2104H98.6309V76.9473Z" fill="black"/>
<path d="M105.512 76.9473H103.218V79.2104H105.512V76.9473Z" fill="black"/>
<path d="M114.687 76.9473H112.393V79.2104H114.687V76.9473Z" fill="black"/>
<path d="M116.981 76.9473H114.687V79.2104H116.981V76.9473Z" fill="black"/>
<path d="M121.568 76.9473H119.275V79.2104H121.568V76.9473Z" fill="black"/>
<path d="M123.862 76.9473H121.568V79.2104H123.862V76.9473Z" fill="black"/>
<path d="M126.156 76.9473H123.862V79.2104H126.156V76.9473Z" fill="black"/>
<path d="M6.88122 79.209H4.58748V81.4721H6.88122V79.209Z" fill="black"/>
<path d="M9.17497 79.209H6.88123V81.4721H9.17497V79.209Z" fill="black"/>
<path d="M13.7624 79.209H11.4687V81.4721H13.7624V79.209Z" fill="black"/>
<path d="M18.3499 79.209H16.0562V81.4721H18.3499V79.209Z" fill="black"/>
<path d="M22.9374 79.209H20.6437V81.4721H22.9374V79.209Z" fill="black"/>
<path d="M25.2311 79.209H22.9374V81.4721H25.2311V79.209Z" fill="black"/>
<path d="M27.5249 79.209H25.2312V81.4721H27.5249V79.209Z" fill="black"/>
<path d="M32.1124 79.209H29.8186V81.4721H32.1124V79.209Z" fill="black"/>
<path d="M34.4061 79.209H32.1124V81.4721H34.4061V79.209Z" fill="black"/>
<path d="M41.2873 79.209H38.9936V81.4721H41.2873V79.209Z" fill="black"/>
<path d="M48.1686 79.209H45.8748V81.4721H48.1686V79.209Z" fill="black"/>
<path d="M52.756 79.209H50.4623V81.4721H52.756V79.209Z" fill="black"/>
<path d="M55.0498 79.209H52.756V81.4721H55.0498V79.209Z" fill="black"/>
<path d="M68.8122 79.209H66.5185V81.4721H68.8122V79.209Z" fill="black"/>
<path d="M71.106 79.209H68.8122V81.4721H71.106V79.209Z" fill="black"/>
<path d="M73.3997 79.209H71.106V81.4721H73.3997V79.209Z" fill="black"/>
<path d="M89.4559 79.209H87.1622V81.4721H89.4559V79.209Z" fill="black"/>
<path d="M96.3371 79.209H94.0434V81.4721H96.3371V79.209Z" fill="black"/>
<path d="M98.6309 79.209H96.3371V81.4721H98.6309V79.209Z" fill="black"/>
<path d="M103.218 79.209H100.925V81.4721H103.218V79.209Z" fill="black"/>
<path d="M110.1 79.209H107.806V81.4721H110.1V79.209Z" fill="black"/>
<path d="M112.393 79.209H110.1V81.4721H112.393V79.209Z" fill="black"/>
<path d="M114.687 79.209H112.393V81.4721H114.687V79.209Z" fill="black"/>
<path d="M116.981 79.209H114.687V81.4721H116.981V79.209Z" fill="black"/>
<path d="M126.156 79.209H123.862V81.4721H126.156V79.209Z" fill="black"/>
<path d="M9.17497 81.4727H6.88123V83.7358H9.17497V81.4727Z" fill="black"/>
<path d="M18.3499 81.4727H16.0562V83.7358H18.3499V81.4727Z" fill="black"/>
<path d="M20.6437 81.4727H18.3499V83.7358H20.6437V81.4727Z" fill="black"/>
<path d="M29.8186 81.4727H27.5249V83.7358H29.8186V81.4727Z" fill="black"/>
<path d="M34.4061 81.4727H32.1124V83.7358H34.4061V81.4727Z" fill="black"/>
<path d="M38.9936 81.4727H36.6999V83.7358H38.9936V81.4727Z" fill="black"/>
<path d="M41.2873 81.4727H38.9936V83.7358H41.2873V81.4727Z" fill="black"/>
<path d="M43.5811 81.4727H41.2873V83.7358H43.5811V81.4727Z" fill="black"/>
<path d="M45.8748 81.4727H43.5811V83.7358H45.8748V81.4727Z" fill="black"/>
<path d="M48.1686 81.4727H45.8748V83.7358H48.1686V81.4727Z" fill="black"/>
<path d="M50.4623 81.4727H48.1686V83.7358H50.4623V81.4727Z" fill="black"/>
<path d="M55.0498 81.4727H52.756V83.7358H55.0498V81.4727Z" fill="black"/>
<path d="M59.6373 81.4727H57.3435V83.7358H59.6373V81.4727Z" fill="black"/>
<path d="M61.931 81.4727H59.6373V83.7358H61.931V81.4727Z" fill="black"/>
<path d="M64.2247 81.4727H61.931V83.7358H64.2247V81.4727Z" fill="black"/>
<path d="M71.106 81.4727H68.8122V83.7358H71.106V81.4727Z" fill="black"/>
<path d="M73.3997 81.4727H71.106V83.7358H73.3997V81.4727Z" fill="black"/>
<path d="M77.9872 81.4727H75.6934V83.7358H77.9872V81.4727Z" fill="black"/>
<path d="M80.2809 81.4727H77.9872V83.7358H80.2809V81.4727Z" fill="black"/>
<path d="M100.925 81.4727H98.6309V83.7358H100.925V81.4727Z" fill="black"/>
<path d="M103.218 81.4727H100.925V83.7358H103.218V81.4727Z" fill="black"/>
<path d="M114.687 81.4727H112.393V83.7358H114.687V81.4727Z" fill="black"/>
<path d="M6.88122 83.7363H4.58748V85.9995H6.88122V83.7363Z" fill="black"/>
<path d="M9.17497 83.7363H6.88123V85.9995H9.17497V83.7363Z" fill="black"/>
<path d="M11.4687 83.7363H9.17496V85.9995H11.4687V83.7363Z" fill="black"/>
<path d="M18.3499 83.7363H16.0562V85.9995H18.3499V83.7363Z" fill="black"/>
<path d="M29.8186 83.7363H27.5249V85.9995H29.8186V83.7363Z" fill="black"/>
<path d="M32.1124 83.7363H29.8186V85.9995H32.1124V83.7363Z" fill="black"/>
<path d="M36.6999 83.7363H34.4061V85.9995H36.6999V83.7363Z" fill="black"/>
<path d="M55.0498 83.7363H52.756V85.9995H55.0498V83.7363Z" fill="black"/>
<path d="M57.3435 83.7363H55.0498V85.9995H57.3435V83.7363Z" fill="black"/>
<path d="M61.931 83.7363H59.6373V85.9995H61.931V83.7363Z" fill="black"/>
<path d="M66.5185 83.7363H64.2247V85.9995H66.5185V83.7363Z" fill="black"/>
<path d="M71.106 83.7363H68.8122V85.9995H71.106V83.7363Z" fill="black"/>
<path d="M73.3997 83.7363H71.106V85.9995H73.3997V83.7363Z" fill="black"/>
<path d="M75.6935 83.7363H73.3997V85.9995H75.6935V83.7363Z" fill="black"/>
<path d="M77.9872 83.7363H75.6934V85.9995H77.9872V83.7363Z" fill="black"/>
<path d="M82.5747 83.7363H80.2809V85.9995H82.5747V83.7363Z" fill="black"/>
<path d="M84.8684 83.7363H82.5747V85.9995H84.8684V83.7363Z" fill="black"/>
<path d="M89.4559 83.7363H87.1622V85.9995H89.4559V83.7363Z" fill="black"/>
<path d="M91.7496 83.7363H89.4559V85.9995H91.7496V83.7363Z" fill="black"/>
<path d="M100.925 83.7363H98.6309V85.9995H100.925V83.7363Z" fill="black"/>
<path d="M126.156 83.7363H123.862V85.9995H126.156V83.7363Z" fill="black"/>
<path d="M9.17497 86H6.88123V88.2632H9.17497V86Z" fill="black"/>
<path d="M20.6437 86H18.3499V88.2632H20.6437V86Z" fill="black"/>
<path d="M29.8186 86H27.5249V88.2632H29.8186V86Z" fill="black"/>
<path d="M34.4061 86H32.1124V88.2632H34.4061V86Z" fill="black"/>
<path d="M45.8748 86H43.5811V88.2632H45.8748V86Z" fill="black"/>
<path d="M48.1686 86H45.8748V88.2632H48.1686V86Z" fill="black"/>
<path d="M50.4623 86H48.1686V88.2632H50.4623V86Z" fill="black"/>
<path d="M52.756 86H50.4623V88.2632H52.756V86Z" fill="black"/>
<path d="M55.0498 86H52.756V88.2632H55.0498V86Z" fill="black"/>
<path d="M61.931 86H59.6373V88.2632H61.931V86Z" fill="black"/>
<path d="M68.8122 86H66.5185V88.2632H68.8122V86Z" fill="black"/>
<path d="M71.106 86H68.8122V88.2632H71.106V86Z" fill="black"/>
<path d="M73.3997 86H71.106V88.2632H73.3997V86Z" fill="black"/>
<path d="M77.9872 86H75.6934V88.2632H77.9872V86Z" fill="black"/>
<path d="M89.4559 86H87.1622V88.2632H89.4559V86Z" fill="black"/>
<path d="M94.0434 86H91.7496V88.2632H94.0434V86Z" fill="black"/>
<path d="M96.3371 86H94.0434V88.2632H96.3371V86Z" fill="black"/>
<path d="M100.925 86H98.6309V88.2632H100.925V86Z" fill="black"/>
<path d="M103.218 86H100.925V88.2632H103.218V86Z" fill="black"/>
<path d="M107.806 86H105.512V88.2632H107.806V86Z" fill="black"/>
<path d="M110.1 86H107.806V88.2632H110.1V86Z" fill="black"/>
<path d="M114.687 86H112.393V88.2632H114.687V86Z" fill="black"/>
<path d="M123.862 86H121.568V88.2632H123.862V86Z" fill="black"/>
<path d="M126.156 86H123.862V88.2632H126.156V86Z" fill="black"/>
<path d="M6.88122 88.2617H4.58748V90.5249H6.88122V88.2617Z" fill="black"/>
<path d="M9.17497 88.2617H6.88123V90.5249H9.17497V88.2617Z" fill="black"/>
<path d="M16.0562 88.2617H13.7624V90.5249H16.0562V88.2617Z" fill="black"/>
<path d="M22.9374 88.2617H20.6437V90.5249H22.9374V88.2617Z" fill="black"/>
<path d="M32.1124 88.2617H29.8186V90.5249H32.1124V88.2617Z" fill="black"/>
<path d="M34.4061 88.2617H32.1124V90.5249H34.4061V88.2617Z" fill="black"/>
<path d="M38.9936 88.2617H36.6999V90.5249H38.9936V88.2617Z" fill="black"/>
<path d="M45.8748 88.2617H43.5811V90.5249H45.8748V88.2617Z" fill="black"/>
<path d="M48.1686 88.2617H45.8748V90.5249H48.1686V88.2617Z" fill="black"/>
<path d="M50.4623 88.2617H48.1686V90.5249H50.4623V88.2617Z" fill="black"/>
<path d="M52.756 88.2617H50.4623V90.5249H52.756V88.2617Z" fill="black"/>
<path d="M55.0498 88.2617H52.756V90.5249H55.0498V88.2617Z" fill="black"/>
<path d="M57.3435 88.2617H55.0498V90.5249H57.3435V88.2617Z" fill="black"/>
<path d="M59.6373 88.2617H57.3435V90.5249H59.6373V88.2617Z" fill="black"/>
<path d="M61.931 88.2617H59.6373V90.5249H61.931V88.2617Z" fill="black"/>
<path d="M77.9872 88.2617H75.6934V90.5249H77.9872V88.2617Z" fill="black"/>
<path d="M80.2809 88.2617H77.9872V90.5249H80.2809V88.2617Z" fill="black"/>
<path d="M87.1621 88.2617H84.8684V90.5249H87.1621V88.2617Z" fill="black"/>
<path d="M91.7496 88.2617H89.4559V90.5249H91.7496V88.2617Z" fill="black"/>
<path d="M94.0434 88.2617H91.7496V90.5249H94.0434V88.2617Z" fill="black"/>
<path d="M96.3371 88.2617H94.0434V90.5249H96.3371V88.2617Z" fill="black"/>
<path d="M98.6309 88.2617H96.3371V90.5249H98.6309V88.2617Z" fill="black"/>
<path d="M112.393 88.2617H110.1V90.5249H112.393V88.2617Z" fill="black"/>
<path d="M114.687 88.2617H112.393V90.5249H114.687V88.2617Z" fill="black"/>
<path d="M121.568 88.2617H119.275V90.5249H121.568V88.2617Z" fill="black"/>
<path d="M123.862 88.2617H121.568V90.5249H123.862V88.2617Z" fill="black"/>
<path d="M126.156 88.2617H123.862V90.5249H126.156V88.2617Z" fill="black"/>
<path d="M6.88122 90.5254H4.58748V92.7885H6.88122V90.5254Z" fill="black"/>
<path d="M11.4687 90.5254H9.17496V92.7885H11.4687V90.5254Z" fill="black"/>
<path d="M13.7624 90.5254H11.4687V92.7885H13.7624V90.5254Z" fill="black"/>
<path d="M16.0562 90.5254H13.7624V92.7885H16.0562V90.5254Z" fill="black"/>
<path d="M20.6437 90.5254H18.3499V92.7885H20.6437V90.5254Z" fill="black"/>
<path d="M29.8186 90.5254H27.5249V92.7885H29.8186V90.5254Z" fill="black"/>
<path d="M32.1124 90.5254H29.8186V92.7885H32.1124V90.5254Z" fill="black"/>
<path d="M34.4061 90.5254H32.1124V92.7885H34.4061V90.5254Z" fill="black"/>
<path d="M38.9936 90.5254H36.6999V92.7885H38.9936V90.5254Z" fill="black"/>
<path d="M43.5811 90.5254H41.2873V92.7885H43.5811V90.5254Z" fill="black"/>
<path d="M57.3435 90.5254H55.0498V92.7885H57.3435V90.5254Z" fill="black"/>
<path d="M61.931 90.5254H59.6373V92.7885H61.931V90.5254Z" fill="black"/>
<path d="M64.2247 90.5254H61.931V92.7885H64.2247V90.5254Z" fill="black"/>
<path d="M75.6935 90.5254H73.3997V92.7885H75.6935V90.5254Z" fill="black"/>
<path d="M84.8684 90.5254H82.5747V92.7885H84.8684V90.5254Z" fill="black"/>
<path d="M91.7496 90.5254H89.4559V92.7885H91.7496V90.5254Z" fill="black"/>
<path d="M98.6309 90.5254H96.3371V92.7885H98.6309V90.5254Z" fill="black"/>
<path d="M105.512 90.5254H103.218V92.7885H105.512V90.5254Z" fill="black"/>
<path d="M112.393 90.5254H110.1V92.7885H112.393V90.5254Z" fill="black"/>
<path d="M114.687 90.5254H112.393V92.7885H114.687V90.5254Z" fill="black"/>
<path d="M119.275 90.5254H116.981V92.7885H119.275V90.5254Z" fill="black"/>
<path d="M121.568 90.5254H119.275V92.7885H121.568V90.5254Z" fill="black"/>
<path d="M126.156 90.5254H123.862V92.7885H126.156V90.5254Z" fill="black"/>
<path d="M6.88122 92.7891H4.58748V95.0522H6.88122V92.7891Z" fill="black"/>
<path d="M9.17497 92.7891H6.88123V95.0522H9.17497V92.7891Z" fill="black"/>
<path d="M11.4687 92.7891H9.17496V95.0522H11.4687V92.7891Z" fill="black"/>
<path d="M13.7624 92.7891H11.4687V95.0522H13.7624V92.7891Z" fill="black"/>
<path d="M16.0562 92.7891H13.7624V95.0522H16.0562V92.7891Z" fill="black"/>
<path d="M18.3499 92.7891H16.0562V95.0522H18.3499V92.7891Z" fill="black"/>
<path d="M25.2311 92.7891H22.9374V95.0522H25.2311V92.7891Z" fill="black"/>
<path d="M27.5249 92.7891H25.2312V95.0522H27.5249V92.7891Z" fill="black"/>
<path d="M29.8186 92.7891H27.5249V95.0522H29.8186V92.7891Z" fill="black"/>
<path d="M38.9936 92.7891H36.6999V95.0522H38.9936V92.7891Z" fill="black"/>
<path d="M41.2873 92.7891H38.9936V95.0522H41.2873V92.7891Z" fill="black"/>
<path d="M43.5811 92.7891H41.2873V95.0522H43.5811V92.7891Z" fill="black"/>
<path d="M45.8748 92.7891H43.5811V95.0522H45.8748V92.7891Z" fill="black"/>
<path d="M50.4623 92.7891H48.1686V95.0522H50.4623V92.7891Z" fill="black"/>
<path d="M52.756 92.7891H50.4623V95.0522H52.756V92.7891Z" fill="black"/>
<path d="M68.8122 92.7891H66.5185V95.0522H68.8122V92.7891Z" fill="black"/>
<path d="M73.3997 92.7891H71.106V95.0522H73.3997V92.7891Z" fill="black"/>
<path d="M75.6935 92.7891H73.3997V95.0522H75.6935V92.7891Z" fill="black"/>
<path d="M77.9872 92.7891H75.6934V95.0522H77.9872V92.7891Z" fill="black"/>
<path d="M80.2809 92.7891H77.9872V95.0522H80.2809V92.7891Z" fill="black"/>
<path d="M84.8684 92.7891H82.5747V95.0522H84.8684V92.7891Z" fill="black"/>
<path d="M94.0434 92.7891H91.7496V95.0522H94.0434V92.7891Z" fill="black"/>
<path d="M98.6309 92.7891H96.3371V95.0522H98.6309V92.7891Z" fill="black"/>
<path d="M103.218 92.7891H100.925V95.0522H103.218V92.7891Z" fill="black"/>
<path d="M105.512 92.7891H103.218V95.0522H105.512V92.7891Z" fill="black"/>
<path d="M110.1 92.7891H107.806V95.0522H110.1V92.7891Z" fill="black"/>
<path d="M112.393 92.7891H110.1V95.0522H112.393V92.7891Z" fill="black"/>
<path d="M114.687 92.7891H112.393V95.0522H114.687V92.7891Z" fill="black"/>
<path d="M116.981 92.7891H114.687V95.0522H116.981V92.7891Z" fill="black"/>
<path d="M123.862 92.7891H121.568V95.0522H123.862V92.7891Z" fill="black"/>
<path d="M6.88122 95.0508H4.58748V97.3139H6.88122V95.0508Z" fill="black"/>
<path d="M16.0562 95.0508H13.7624V97.3139H16.0562V95.0508Z" fill="black"/>
<path d="M18.3499 95.0508H16.0562V97.3139H18.3499V95.0508Z" fill="black"/>
<path d="M20.6437 95.0508H18.3499V97.3139H20.6437V95.0508Z" fill="black"/>
<path d="M22.9374 95.0508H20.6437V97.3139H22.9374V95.0508Z" fill="black"/>
<path d="M27.5249 95.0508H25.2312V97.3139H27.5249V95.0508Z" fill="black"/>
<path d="M29.8186 95.0508H27.5249V97.3139H29.8186V95.0508Z" fill="black"/>
<path d="M32.1124 95.0508H29.8186V97.3139H32.1124V95.0508Z" fill="black"/>
<path d="M36.6999 95.0508H34.4061V97.3139H36.6999V95.0508Z" fill="black"/>
<path d="M38.9936 95.0508H36.6999V97.3139H38.9936V95.0508Z" fill="black"/>
<path d="M43.5811 95.0508H41.2873V97.3139H43.5811V95.0508Z" fill="black"/>
<path d="M45.8748 95.0508H43.5811V97.3139H45.8748V95.0508Z" fill="black"/>
<path d="M48.1686 95.0508H45.8748V97.3139H48.1686V95.0508Z" fill="black"/>
<path d="M52.756 95.0508H50.4623V97.3139H52.756V95.0508Z" fill="black"/>
<path d="M59.6373 95.0508H57.3435V97.3139H59.6373V95.0508Z" fill="black"/>
<path d="M66.5185 95.0508H64.2247V97.3139H66.5185V95.0508Z" fill="black"/>
<path d="M68.8122 95.0508H66.5185V97.3139H68.8122V95.0508Z" fill="black"/>
<path d="M80.2809 95.0508H77.9872V97.3139H80.2809V95.0508Z" fill="black"/>
<path d="M82.5747 95.0508H80.2809V97.3139H82.5747V95.0508Z" fill="black"/>
<path d="M84.8684 95.0508H82.5747V97.3139H84.8684V95.0508Z" fill="black"/>
<path d="M91.7496 95.0508H89.4559V97.3139H91.7496V95.0508Z" fill="black"/>
<path d="M94.0434 95.0508H91.7496V97.3139H94.0434V95.0508Z" fill="black"/>
<path d="M96.3371 95.0508H94.0434V97.3139H96.3371V95.0508Z" fill="black"/>
<path d="M100.925 95.0508H98.6309V97.3139H100.925V95.0508Z" fill="black"/>
<path d="M103.218 95.0508H100.925V97.3139H103.218V95.0508Z" fill="black"/>
<path d="M114.687 95.0508H112.393V97.3139H114.687V95.0508Z" fill="black"/>
<path d="M116.981 95.0508H114.687V97.3139H116.981V95.0508Z" fill="black"/>
<path d="M119.275 95.0508H116.981V97.3139H119.275V95.0508Z" fill="black"/>
<path d="M123.862 95.0508H121.568V97.3139H123.862V95.0508Z" fill="black"/>
<path d="M9.17497 97.3145H6.88123V99.5776H9.17497V97.3145Z" fill="black"/>
<path d="M13.7624 97.3145H11.4687V99.5776H13.7624V97.3145Z" fill="black"/>
<path d="M16.0562 97.3145H13.7624V99.5776H16.0562V97.3145Z" fill="black"/>
<path d="M18.3499 97.3145H16.0562V99.5776H18.3499V97.3145Z" fill="black"/>
<path d="M27.5249 97.3145H25.2312V99.5776H27.5249V97.3145Z" fill="black"/>
<path d="M34.4061 97.3145H32.1124V99.5776H34.4061V97.3145Z" fill="black"/>
<path d="M45.8748 97.3145H43.5811V99.5776H45.8748V97.3145Z" fill="black"/>
<path d="M55.0498 97.3145H52.756V99.5776H55.0498V97.3145Z" fill="black"/>
<path d="M57.3435 97.3145H55.0498V99.5776H57.3435V97.3145Z" fill="black"/>
<path d="M61.931 97.3145H59.6373V99.5776H61.931V97.3145Z" fill="black"/>
<path d="M64.2247 97.3145H61.931V99.5776H64.2247V97.3145Z" fill="black"/>
<path d="M66.5185 97.3145H64.2247V99.5776H66.5185V97.3145Z" fill="black"/>
<path d="M68.8122 97.3145H66.5185V99.5776H68.8122V97.3145Z" fill="black"/>
<path d="M77.9872 97.3145H75.6934V99.5776H77.9872V97.3145Z" fill="black"/>
<path d="M82.5747 97.3145H80.2809V99.5776H82.5747V97.3145Z" fill="black"/>
<path d="M84.8684 97.3145H82.5747V99.5776H84.8684V97.3145Z" fill="black"/>
<path d="M96.3371 97.3145H94.0434V99.5776H96.3371V97.3145Z" fill="black"/>
<path d="M105.512 97.3145H103.218V99.5776H105.512V97.3145Z" fill="black"/>
<path d="M107.806 97.3145H105.512V99.5776H107.806V97.3145Z" fill="black"/>
<path d="M110.1 97.3145H107.806V99.5776H110.1V97.3145Z" fill="black"/>
<path d="M112.393 97.3145H110.1V99.5776H112.393V97.3145Z" fill="black"/>
<path d="M123.862 97.3145H121.568V99.5776H123.862V97.3145Z" fill="black"/>
<path d="M6.88122 99.5781H4.58748V101.841H6.88122V99.5781Z" fill="black"/>
<path d="M9.17497 99.5781H6.88123V101.841H9.17497V99.5781Z" fill="black"/>
<path d="M13.7624 99.5781H11.4687V101.841H13.7624V99.5781Z" fill="black"/>
<path d="M16.0562 99.5781H13.7624V101.841H16.0562V99.5781Z" fill="black"/>
<path d="M18.3499 99.5781H16.0562V101.841H18.3499V99.5781Z" fill="black"/>
<path d="M20.6437 99.5781H18.3499V101.841H20.6437V99.5781Z" fill="black"/>
<path d="M27.5249 99.5781H25.2312V101.841H27.5249V99.5781Z" fill="black"/>
<path d="M29.8186 99.5781H27.5249V101.841H29.8186V99.5781Z" fill="black"/>
<path d="M32.1124 99.5781H29.8186V101.841H32.1124V99.5781Z" fill="black"/>
<path d="M36.6999 99.5781H34.4061V101.841H36.6999V99.5781Z" fill="black"/>
<path d="M43.5811 99.5781H41.2873V101.841H43.5811V99.5781Z" fill="black"/>
<path d="M50.4623 99.5781H48.1686V101.841H50.4623V99.5781Z" fill="black"/>
<path d="M52.756 99.5781H50.4623V101.841H52.756V99.5781Z" fill="black"/>
<path d="M55.0498 99.5781H52.756V101.841H55.0498V99.5781Z" fill="black"/>
<path d="M71.106 99.5781H68.8122V101.841H71.106V99.5781Z" fill="black"/>
<path d="M77.9872 99.5781H75.6934V101.841H77.9872V99.5781Z" fill="black"/>
<path d="M82.5747 99.5781H80.2809V101.841H82.5747V99.5781Z" fill="black"/>
<path d="M84.8684 99.5781H82.5747V101.841H84.8684V99.5781Z" fill="black"/>
<path d="M87.1621 99.5781H84.8684V101.841H87.1621V99.5781Z" fill="black"/>
<path d="M91.7496 99.5781H89.4559V101.841H91.7496V99.5781Z" fill="black"/>
<path d="M94.0434 99.5781H91.7496V101.841H94.0434V99.5781Z" fill="black"/>
<path d="M98.6309 99.5781H96.3371V101.841H98.6309V99.5781Z" fill="black"/>
<path d="M105.512 99.5781H103.218V101.841H105.512V99.5781Z" fill="black"/>
<path d="M110.1 99.5781H107.806V101.841H110.1V99.5781Z" fill="black"/>
<path d="M116.981 99.5781H114.687V101.841H116.981V99.5781Z" fill="black"/>
<path d="M123.862 99.5781H121.568V101.841H123.862V99.5781Z" fill="black"/>
<path d="M9.17497 101.842H6.88123V104.105H9.17497V101.842Z" fill="black"/>
<path d="M11.4687 101.842H9.17496V104.105H11.4687V101.842Z" fill="black"/>
<path d="M22.9374 101.842H20.6437V104.105H22.9374V101.842Z" fill="black"/>
<path d="M25.2311 101.842H22.9374V104.105H25.2311V101.842Z" fill="black"/>
<path d="M27.5249 101.842H25.2312V104.105H27.5249V101.842Z" fill="black"/>
<path d="M29.8186 101.842H27.5249V104.105H29.8186V101.842Z" fill="black"/>
<path d="M41.2873 101.842H38.9936V104.105H41.2873V101.842Z" fill="black"/>
<path d="M48.1686 101.842H45.8748V104.105H48.1686V101.842Z" fill="black"/>
<path d="M50.4623 101.842H48.1686V104.105H50.4623V101.842Z" fill="black"/>
<path d="M55.0498 101.842H52.756V104.105H55.0498V101.842Z" fill="black"/>
<path d="M57.3435 101.842H55.0498V104.105H57.3435V101.842Z" fill="black"/>
<path d="M59.6373 101.842H57.3435V104.105H59.6373V101.842Z" fill="black"/>
<path d="M61.931 101.842H59.6373V104.105H61.931V101.842Z" fill="black"/>
<path d="M66.5185 101.842H64.2247V104.105H66.5185V101.842Z" fill="black"/>
<path d="M68.8122 101.842H66.5185V104.105H68.8122V101.842Z" fill="black"/>
<path d="M73.3997 101.842H71.106V104.105H73.3997V101.842Z" fill="black"/>
<path d="M82.5747 101.842H80.2809V104.105H82.5747V101.842Z" fill="black"/>
<path d="M87.1621 101.842H84.8684V104.105H87.1621V101.842Z" fill="black"/>
<path d="M89.4559 101.842H87.1622V104.105H89.4559V101.842Z" fill="black"/>
<path d="M94.0434 101.842H91.7496V104.105H94.0434V101.842Z" fill="black"/>
<path d="M105.512 101.842H103.218V104.105H105.512V101.842Z" fill="black"/>
<path d="M107.806 101.842H105.512V104.105H107.806V101.842Z" fill="black"/>
<path d="M112.393 101.842H110.1V104.105H112.393V101.842Z" fill="black"/>
<path d="M114.687 101.842H112.393V104.105H114.687V101.842Z" fill="black"/>
<path d="M121.568 101.842H119.275V104.105H121.568V101.842Z" fill="black"/>
<path d="M13.7624 104.104H11.4687V106.367H13.7624V104.104Z" fill="black"/>
<path d="M20.6437 104.104H18.3499V106.367H20.6437V104.104Z" fill="black"/>
<path d="M32.1124 104.104H29.8186V106.367H32.1124V104.104Z" fill="black"/>
<path d="M34.4061 104.104H32.1124V106.367H34.4061V104.104Z" fill="black"/>
<path d="M38.9936 104.104H36.6999V106.367H38.9936V104.104Z" fill="black"/>
<path d="M57.3435 104.104H55.0498V106.367H57.3435V104.104Z" fill="black"/>
<path d="M61.931 104.104H59.6373V106.367H61.931V104.104Z" fill="black"/>
<path d="M64.2247 104.104H61.931V106.367H64.2247V104.104Z" fill="black"/>
<path d="M66.5185 104.104H64.2247V106.367H66.5185V104.104Z" fill="black"/>
<path d="M68.8122 104.104H66.5185V106.367H68.8122V104.104Z" fill="black"/>
<path d="M71.106 104.104H68.8122V106.367H71.106V104.104Z" fill="black"/>
<path d="M75.6935 104.104H73.3997V106.367H75.6935V104.104Z" fill="black"/>
<path d="M77.9872 104.104H75.6934V106.367H77.9872V104.104Z" fill="black"/>
<path d="M82.5747 104.104H80.2809V106.367H82.5747V104.104Z" fill="black"/>
<path d="M84.8684 104.104H82.5747V106.367H84.8684V104.104Z" fill="black"/>
<path d="M87.1621 104.104H84.8684V106.367H87.1621V104.104Z" fill="black"/>
<path d="M91.7496 104.104H89.4559V106.367H91.7496V104.104Z" fill="black"/>
<path d="M96.3371 104.104H94.0434V106.367H96.3371V104.104Z" fill="black"/>
<path d="M98.6309 104.104H96.3371V106.367H98.6309V104.104Z" fill="black"/>
<path d="M103.218 104.104H100.925V106.367H103.218V104.104Z" fill="black"/>
<path d="M105.512 104.104H103.218V106.367H105.512V104.104Z" fill="black"/>
<path d="M107.806 104.104H105.512V106.367H107.806V104.104Z" fill="black"/>
<path d="M110.1 104.104H107.806V106.367H110.1V104.104Z" fill="black"/>
<path d="M112.393 104.104H110.1V106.367H112.393V104.104Z" fill="black"/>
<path d="M114.687 104.104H112.393V106.367H114.687V104.104Z" fill="black"/>
<path d="M116.981 104.104H114.687V106.367H116.981V104.104Z" fill="black"/>
<path d="M121.568 104.104H119.275V106.367H121.568V104.104Z" fill="black"/>
<path d="M123.862 104.104H121.568V106.367H123.862V104.104Z" fill="black"/>
<path d="M126.156 104.104H123.862V106.367H126.156V104.104Z" fill="black"/>
<path d="M25.2311 106.367H22.9374V108.63H25.2311V106.367Z" fill="black"/>
<path d="M27.5249 106.367H25.2312V108.63H27.5249V106.367Z" fill="black"/>
<path d="M36.6999 106.367H34.4061V108.63H36.6999V106.367Z" fill="black"/>
<path d="M41.2873 106.367H38.9936V108.63H41.2873V106.367Z" fill="black"/>
<path d="M45.8748 106.367H43.5811V108.63H45.8748V106.367Z" fill="black"/>
<path d="M50.4623 106.367H48.1686V108.63H50.4623V106.367Z" fill="black"/>
<path d="M57.3435 106.367H55.0498V108.63H57.3435V106.367Z" fill="black"/>
<path d="M59.6373 106.367H57.3435V108.63H59.6373V106.367Z" fill="black"/>
<path d="M61.931 106.367H59.6373V108.63H61.931V106.367Z" fill="black"/>
<path d="M71.106 106.367H68.8122V108.63H71.106V106.367Z" fill="black"/>
<path d="M75.6935 106.367H73.3997V108.63H75.6935V106.367Z" fill="black"/>
<path d="M77.9872 106.367H75.6934V108.63H77.9872V106.367Z" fill="black"/>
<path d="M89.4559 106.367H87.1622V108.63H89.4559V106.367Z" fill="black"/>
<path d="M91.7496 106.367H89.4559V108.63H91.7496V106.367Z" fill="black"/>
<path d="M100.925 106.367H98.6309V108.63H100.925V106.367Z" fill="black"/>
<path d="M103.218 106.367H100.925V108.63H103.218V106.367Z" fill="black"/>
<path d="M105.512 106.367H103.218V108.63H105.512V106.367Z" fill="black"/>
<path d="M107.806 106.367H105.512V108.63H107.806V106.367Z" fill="black"/>
<path d="M116.981 106.367H114.687V108.63H116.981V106.367Z" fill="black"/>
<path d="M119.275 106.367H116.981V108.63H119.275V106.367Z" fill="black"/>
<path d="M123.862 106.367H121.568V108.63H123.862V106.367Z" fill="black"/>
<path d="M25.2311 108.631H22.9374V110.894H25.2311V108.631Z" fill="black"/>
<path d="M27.5249 108.631H25.2312V110.894H27.5249V108.631Z" fill="black"/>
<path d="M29.8186 108.631H27.5249V110.894H29.8186V108.631Z" fill="black"/>
<path d="M34.4061 108.631H32.1124V110.894H34.4061V108.631Z" fill="black"/>
<path d="M36.6999 108.631H34.4061V110.894H36.6999V108.631Z" fill="black"/>
<path d="M41.2873 108.631H38.9936V110.894H41.2873V108.631Z" fill="black"/>
<path d="M45.8748 108.631H43.5811V110.894H45.8748V108.631Z" fill="black"/>
<path d="M48.1686 108.631H45.8748V110.894H48.1686V108.631Z" fill="black"/>
<path d="M55.0498 108.631H52.756V110.894H55.0498V108.631Z" fill="black"/>
<path d="M57.3435 108.631H55.0498V110.894H57.3435V108.631Z" fill="black"/>
<path d="M59.6373 108.631H57.3435V110.894H59.6373V108.631Z" fill="black"/>
<path d="M61.931 108.631H59.6373V110.894H61.931V108.631Z" fill="black"/>
<path d="M66.5185 108.631H64.2247V110.894H66.5185V108.631Z" fill="black"/>
<path d="M71.106 108.631H68.8122V110.894H71.106V108.631Z" fill="black"/>
<path d="M75.6935 108.631H73.3997V110.894H75.6935V108.631Z" fill="black"/>
<path d="M77.9872 108.631H75.6934V110.894H77.9872V108.631Z" fill="black"/>
<path d="M87.1621 108.631H84.8684V110.894H87.1621V108.631Z" fill="black"/>
<path d="M96.3371 108.631H94.0434V110.894H96.3371V108.631Z" fill="black"/>
<path d="M100.925 108.631H98.6309V110.894H100.925V108.631Z" fill="black"/>
<path d="M103.218 108.631H100.925V110.894H103.218V108.631Z" fill="black"/>
<path d="M105.512 108.631H103.218V110.894H105.512V108.631Z" fill="black"/>
<path d="M107.806 108.631H105.512V110.894H107.806V108.631Z" fill="black"/>
<path d="M112.393 108.631H110.1V110.894H112.393V108.631Z" fill="black"/>
<path d="M116.981 108.631H114.687V110.894H116.981V108.631Z" fill="black"/>
<path d="M121.568 108.631H119.275V110.894H121.568V108.631Z" fill="black"/>
<path d="M123.862 108.631H121.568V110.894H123.862V108.631Z" fill="black"/>
<path d="M25.2311 110.895H22.9374V113.158H25.2311V110.895Z" fill="black"/>
<path d="M32.1124 110.895H29.8186V113.158H32.1124V110.895Z" fill="black"/>
<path d="M36.6999 110.895H34.4061V113.158H36.6999V110.895Z" fill="black"/>
<path d="M38.9936 110.895H36.6999V113.158H38.9936V110.895Z" fill="black"/>
<path d="M43.5811 110.895H41.2873V113.158H43.5811V110.895Z" fill="black"/>
<path d="M45.8748 110.895H43.5811V113.158H45.8748V110.895Z" fill="black"/>
<path d="M50.4623 110.895H48.1686V113.158H50.4623V110.895Z" fill="black"/>
<path d="M61.931 110.895H59.6373V113.158H61.931V110.895Z" fill="black"/>
<path d="M71.106 110.895H68.8122V113.158H71.106V110.895Z" fill="black"/>
<path d="M73.3997 110.895H71.106V113.158H73.3997V110.895Z" fill="black"/>
<path d="M77.9872 110.895H75.6934V113.158H77.9872V110.895Z" fill="black"/>
<path d="M84.8684 110.895H82.5747V113.158H84.8684V110.895Z" fill="black"/>
<path d="M89.4559 110.895H87.1622V113.158H89.4559V110.895Z" fill="black"/>
<path d="M96.3371 110.895H94.0434V113.158H96.3371V110.895Z" fill="black"/>
<path d="M107.806 110.895H105.512V113.158H107.806V110.895Z" fill="black"/>
<path d="M116.981 110.895H114.687V113.158H116.981V110.895Z" fill="black"/>
<path d="M27.5249 113.156H25.2312V115.419H27.5249V113.156Z" fill="black"/>
<path d="M29.8186 113.156H27.5249V115.419H29.8186V113.156Z" fill="black"/>
<path d="M32.1124 113.156H29.8186V115.419H32.1124V113.156Z" fill="black"/>
<path d="M41.2873 113.156H38.9936V115.419H41.2873V113.156Z" fill="black"/>
<path d="M43.5811 113.156H41.2873V115.419H43.5811V113.156Z" fill="black"/>
<path d="M50.4623 113.156H48.1686V115.419H50.4623V113.156Z" fill="black"/>
<path d="M57.3435 113.156H55.0498V115.419H57.3435V113.156Z" fill="black"/>
<path d="M61.931 113.156H59.6373V115.419H61.931V113.156Z" fill="black"/>
<path d="M64.2247 113.156H61.931V115.419H64.2247V113.156Z" fill="black"/>
<path d="M66.5185 113.156H64.2247V115.419H66.5185V113.156Z" fill="black"/>
<path d="M68.8122 113.156H66.5185V115.419H68.8122V113.156Z" fill="black"/>
<path d="M71.106 113.156H68.8122V115.419H71.106V113.156Z" fill="black"/>
<path d="M73.3997 113.156H71.106V115.419H73.3997V113.156Z" fill="black"/>
<path d="M75.6935 113.156H73.3997V115.419H75.6935V113.156Z" fill="black"/>
<path d="M77.9872 113.156H75.6934V115.419H77.9872V113.156Z" fill="black"/>
<path d="M80.2809 113.156H77.9872V115.419H80.2809V113.156Z" fill="black"/>
<path d="M82.5747 113.156H80.2809V115.419H82.5747V113.156Z" fill="black"/>
<path d="M89.4559 113.156H87.1622V115.419H89.4559V113.156Z" fill="black"/>
<path d="M96.3371 113.156H94.0434V115.419H96.3371V113.156Z" fill="black"/>
<path d="M103.218 113.156H100.925V115.419H103.218V113.156Z" fill="black"/>
<path d="M105.512 113.156H103.218V115.419H105.512V113.156Z" fill="black"/>
<path d="M107.806 113.156H105.512V115.419H107.806V113.156Z" fill="black"/>
<path d="M110.1 113.156H107.806V115.419H110.1V113.156Z" fill="black"/>
<path d="M112.393 113.156H110.1V115.419H112.393V113.156Z" fill="black"/>
<path d="M114.687 113.156H112.393V115.419H114.687V113.156Z" fill="black"/>
<path d="M116.981 113.156H114.687V115.419H116.981V113.156Z" fill="black"/>
<path d="M119.275 113.156H116.981V115.419H119.275V113.156Z" fill="black"/>
<path d="M121.568 113.156H119.275V115.419H121.568V113.156Z" fill="black"/>
<path d="M123.862 113.156H121.568V115.419H123.862V113.156Z" fill="black"/>
<path d="M25.2311 115.42H22.9374V117.683H25.2311V115.42Z" fill="black"/>
<path d="M27.5249 115.42H25.2312V117.683H27.5249V115.42Z" fill="black"/>
<path d="M32.1124 115.42H29.8186V117.683H32.1124V115.42Z" fill="black"/>
<path d="M34.4061 115.42H32.1124V117.683H34.4061V115.42Z" fill="black"/>
<path d="M41.2873 115.42H38.9936V117.683H41.2873V115.42Z" fill="black"/>
<path d="M43.5811 115.42H41.2873V117.683H43.5811V115.42Z" fill="black"/>
<path d="M45.8748 115.42H43.5811V117.683H45.8748V115.42Z" fill="black"/>
<path d="M48.1686 115.42H45.8748V117.683H48.1686V115.42Z" fill="black"/>
<path d="M52.756 115.42H50.4623V117.683H52.756V115.42Z" fill="black"/>
<path d="M66.5185 115.42H64.2247V117.683H66.5185V115.42Z" fill="black"/>
<path d="M68.8122 115.42H66.5185V117.683H68.8122V115.42Z" fill="black"/>
<path d="M73.3997 115.42H71.106V117.683H73.3997V115.42Z" fill="black"/>
<path d="M94.0434 115.42H91.7496V117.683H94.0434V115.42Z" fill="black"/>
<path d="M110.1 115.42H107.806V117.683H110.1V115.42Z" fill="black"/>
<path d="M114.687 115.42H112.393V117.683H114.687V115.42Z" fill="black"/>
<path d="M116.981 115.42H114.687V117.683H116.981V115.42Z" fill="black"/>
<path d="M121.568 115.42H119.275V117.683H121.568V115.42Z" fill="black"/>
<path d="M126.156 115.42H123.862V117.683H126.156V115.42Z" fill="black"/>
<path d="M25.2311 117.684H22.9374V119.947H25.2311V117.684Z" fill="black"/>
<path d="M29.8186 117.684H27.5249V119.947H29.8186V117.684Z" fill="black"/>
<path d="M36.6999 117.684H34.4061V119.947H36.6999V117.684Z" fill="black"/>
<path d="M38.9936 117.684H36.6999V119.947H38.9936V117.684Z" fill="black"/>
<path d="M43.5811 117.684H41.2873V119.947H43.5811V117.684Z" fill="black"/>
<path d="M45.8748 117.684H43.5811V119.947H45.8748V117.684Z" fill="black"/>
<path d="M52.756 117.684H50.4623V119.947H52.756V117.684Z" fill="black"/>
<path d="M55.0498 117.684H52.756V119.947H55.0498V117.684Z" fill="black"/>
<path d="M64.2247 117.684H61.931V119.947H64.2247V117.684Z" fill="black"/>
<path d="M66.5185 117.684H64.2247V119.947H66.5185V117.684Z" fill="black"/>
<path d="M71.106 117.684H68.8122V119.947H71.106V117.684Z" fill="black"/>
<path d="M73.3997 117.684H71.106V119.947H73.3997V117.684Z" fill="black"/>
<path d="M75.6935 117.684H73.3997V119.947H75.6935V117.684Z" fill="black"/>
<path d="M80.2809 117.684H77.9872V119.947H80.2809V117.684Z" fill="black"/>
<path d="M87.1621 117.684H84.8684V119.947H87.1621V117.684Z" fill="black"/>
<path d="M94.0434 117.684H91.7496V119.947H94.0434V117.684Z" fill="black"/>
<path d="M96.3371 117.684H94.0434V119.947H96.3371V117.684Z" fill="black"/>
<path d="M98.6309 117.684H96.3371V119.947H98.6309V117.684Z" fill="black"/>
<path d="M100.925 117.684H98.6309V119.947H100.925V117.684Z" fill="black"/>
<path d="M103.218 117.684H100.925V119.947H103.218V117.684Z" fill="black"/>
<path d="M112.393 117.684H110.1V119.947H112.393V117.684Z" fill="black"/>
<path d="M32.1124 119.947H29.8186V122.21H32.1124V119.947Z" fill="black"/>
<path d="M36.6999 119.947H34.4061V122.21H36.6999V119.947Z" fill="black"/>
<path d="M43.5811 119.947H41.2873V122.21H43.5811V119.947Z" fill="black"/>
<path d="M45.8748 119.947H43.5811V122.21H45.8748V119.947Z" fill="black"/>
<path d="M48.1686 119.947H45.8748V122.21H48.1686V119.947Z" fill="black"/>
<path d="M50.4623 119.947H48.1686V122.21H50.4623V119.947Z" fill="black"/>
<path d="M57.3435 119.947H55.0498V122.21H57.3435V119.947Z" fill="black"/>
<path d="M66.5185 119.947H64.2247V122.21H66.5185V119.947Z" fill="black"/>
<path d="M75.6935 119.947H73.3997V122.21H75.6935V119.947Z" fill="black"/>
<path d="M77.9872 119.947H75.6934V122.21H77.9872V119.947Z" fill="black"/>
<path d="M80.2809 119.947H77.9872V122.21H80.2809V119.947Z" fill="black"/>
<path d="M82.5747 119.947H80.2809V122.21H82.5747V119.947Z" fill="black"/>
<path d="M89.4559 119.947H87.1622V122.21H89.4559V119.947Z" fill="black"/>
<path d="M91.7496 119.947H89.4559V122.21H91.7496V119.947Z" fill="black"/>
<path d="M96.3371 119.947H94.0434V122.21H96.3371V119.947Z" fill="black"/>
<path d="M100.925 119.947H98.6309V122.21H100.925V119.947Z" fill="black"/>
<path d="M103.218 119.947H100.925V122.21H103.218V119.947Z" fill="black"/>
<path d="M110.1 119.947H107.806V122.21H110.1V119.947Z" fill="black"/>
<path d="M114.687 119.947H112.393V122.21H114.687V119.947Z" fill="black"/>
<path d="M116.981 119.947H114.687V122.21H116.981V119.947Z" fill="black"/>
<path d="M123.862 119.947H121.568V122.21H123.862V119.947Z" fill="black"/>
<path d="M25.2311 122.209H22.9374V124.472H25.2311V122.209Z" fill="black"/>
<path d="M27.5249 122.209H25.2312V124.472H27.5249V122.209Z" fill="black"/>
<path d="M32.1124 122.209H29.8186V124.472H32.1124V122.209Z" fill="black"/>
<path d="M38.9936 122.209H36.6999V124.472H38.9936V122.209Z" fill="black"/>
<path d="M41.2873 122.209H38.9936V124.472H41.2873V122.209Z" fill="black"/>
<path d="M43.5811 122.209H41.2873V124.472H43.5811V122.209Z" fill="black"/>
<path d="M45.8748 122.209H43.5811V124.472H45.8748V122.209Z" fill="black"/>
<path d="M48.1686 122.209H45.8748V124.472H48.1686V122.209Z" fill="black"/>
<path d="M57.3435 122.209H55.0498V124.472H57.3435V122.209Z" fill="black"/>
<path d="M64.2247 122.209H61.931V124.472H64.2247V122.209Z" fill="black"/>
<path d="M66.5185 122.209H64.2247V124.472H66.5185V122.209Z" fill="black"/>
<path d="M80.2809 122.209H77.9872V124.472H80.2809V122.209Z" fill="black"/>
<path d="M84.8684 122.209H82.5747V124.472H84.8684V122.209Z" fill="black"/>
<path d="M91.7496 122.209H89.4559V124.472H91.7496V122.209Z" fill="black"/>
<path d="M94.0434 122.209H91.7496V124.472H94.0434V122.209Z" fill="black"/>
<path d="M96.3371 122.209H94.0434V124.472H96.3371V122.209Z" fill="black"/>
<path d="M107.806 122.209H105.512V124.472H107.806V122.209Z" fill="black"/>
<path d="M110.1 122.209H107.806V124.472H110.1V122.209Z" fill="black"/>
<path d="M112.393 122.209H110.1V124.472H112.393V122.209Z" fill="black"/>
<path d="M123.862 122.209H121.568V124.472H123.862V122.209Z" fill="black"/>
<path d="M18.2352 4.52539H6.99591H4.58748V6.90171V17.9912V20.3675H6.99591H18.2352H20.6437V17.9912V6.90171V4.52539H18.2352ZM18.2352 17.9912H6.99591V6.90171H18.2352V17.9912Z" fill="black"/>
<path d="M123.747 4.52539H112.508H110.1V6.90171V17.9912V20.3675H112.508H123.747H126.156V17.9912V6.90171V4.52539H123.747ZM123.747 17.9912H112.508V6.90171H123.747V17.9912Z" fill="black"/>
<path d="M18.2352 108.631H6.99591H4.58748V111.007V122.097V124.473H6.99591H18.2352H20.6437V122.097V111.007V108.631H18.2352ZM18.2352 122.097H6.99591V111.007H18.2352V122.097Z" fill="black"/>
<path d="M16.0562 9.05078H9.17496V15.8403H16.0562V9.05078Z" fill="black"/>
<path d="M121.568 9.05078H114.687V15.8403H121.568V9.05078Z" fill="black"/>
<path d="M16.0562 113.156H9.17496V119.946H16.0562V113.156Z" fill="black"/>
<path d="M80.2809 49.7891H50.4623V79.2101H80.2809V49.7891Z" fill="white"/>
<path d="M73.3394 71.2293C73.1462 71.5628 72.953 71.8844 72.7357 72.1941V72.1703C72.446 72.5872 72.1683 72.9326 71.9269 73.2185C71.6854 73.5043 71.4681 73.7426 71.275 73.9093C70.9973 74.1714 70.6955 74.362 70.3816 74.5049C70.0557 74.6478 69.7297 74.7193 69.4038 74.7312C69.1623 74.7312 68.8967 74.6955 68.607 74.624C68.3173 74.5525 68.0034 74.4573 67.6533 74.3143C67.3273 74.1833 67.0014 74.0761 66.6875 74.0046C66.3736 73.9331 66.0839 73.8974 65.8062 73.8974C65.5165 73.8974 65.2026 73.9331 64.8767 74.0046C64.5507 74.0761 64.2247 74.1714 63.8747 74.3143C63.5246 74.4573 63.2107 74.5525 62.933 74.624C62.6553 74.6955 62.4139 74.7312 62.2087 74.7312C61.8948 74.7431 61.5809 74.6836 61.255 74.5525C60.929 74.4215 60.6031 74.2071 60.2771 73.9093C60.0839 73.7426 59.8546 73.4924 59.6011 73.1946C59.3355 72.8849 59.0578 72.5157 58.7681 72.0869C58.4421 71.6462 58.1403 71.1578 57.8747 70.6218C57.6091 70.0858 57.3556 69.5259 57.1383 68.9304C56.9089 68.2753 56.7399 67.6439 56.6313 67.0126C56.5226 66.3933 56.4622 65.762 56.4622 65.1545C56.4622 64.4517 56.5347 63.7966 56.6916 63.201C56.8486 62.6054 57.0779 62.0575 57.3918 61.5572C57.6212 61.1403 57.8868 60.783 58.2127 60.4614C58.5387 60.1398 58.8888 59.8658 59.2992 59.6276C59.6856 59.4013 60.096 59.2345 60.5306 59.1035C60.9773 58.9725 61.424 58.9129 61.8948 58.9129C62.1604 58.9129 62.4501 58.9487 62.7881 59.032C63.1262 59.1035 63.5004 59.2226 63.9229 59.3775C64.3213 59.5323 64.6594 59.6514 64.9249 59.7229C65.1905 59.7944 65.3837 59.842 65.5165 59.842C65.601 59.842 65.7942 59.7944 66.0839 59.6991C66.3736 59.6038 66.772 59.4608 67.279 59.2703C67.7499 59.1154 68.1845 58.9963 68.5829 58.9248C68.9812 58.8534 69.3434 58.8295 69.6814 58.8653C70.5627 58.9367 71.3474 59.1392 72.0114 59.4966C72.6754 59.842 73.2428 60.3304 73.6895 60.9498C72.8927 61.4262 72.3011 61.998 71.9027 62.6531C71.5164 63.3082 71.3112 64.0705 71.3112 64.9282C71.3112 65.5952 71.4319 66.2027 71.6854 66.7506C71.939 67.2985 72.3011 67.7988 72.772 68.2395C72.9772 68.4301 73.2066 68.6088 73.448 68.7636C73.6895 68.9304 73.943 69.0614 74.2086 69.1567L74.2327 69.1805C74.1844 69.3473 74.1241 69.514 74.0637 69.6689C74.0033 69.8237 73.943 69.9786 73.8705 70.1334C73.7136 70.5384 73.5325 70.8958 73.3394 71.2293ZM69.5245 55.8398C69.3193 56.3282 69.0295 56.7927 68.6553 57.2453C68.1845 57.7813 67.6774 58.1863 67.1342 58.4841C66.5909 58.77 66.0115 58.901 65.4078 58.8415C65.3958 58.7938 65.3837 58.7343 65.3837 58.6628C65.3837 58.5913 65.3837 58.5318 65.3837 58.4603C65.3837 57.96 65.4923 57.4597 65.6976 56.9476C65.9028 56.4354 66.2046 55.9589 66.603 55.5063C66.7962 55.28 67.0135 55.0775 67.267 54.8988C67.5205 54.7201 67.7861 54.5534 68.0879 54.3985C68.4018 54.2675 68.6915 54.1484 68.9692 54.065C69.2468 53.9816 69.5245 53.934 69.8022 53.9102C69.8022 53.9935 69.8022 54.0769 69.8142 54.1365C69.8263 54.2079 69.8263 54.2794 69.8263 54.339C69.8263 54.8512 69.7297 55.3514 69.5245 55.8398Z" fill="black"/>
</g>
<defs>
<clipPath id="clip0_614_8972">
<rect width="130.743" height="129" fill="white"/>
</clipPath>
</defs>
</svg>
