<svg width="134" height="47" viewBox="0 0 134 47" fill="none" xmlns="http://www.w3.org/2000/svg">
<path d="M66.9688 40.9375C61.4632 40.9375 57 36.4743 57 30.9688L57 9.96876C57 4.46317 61.4632 1.39108e-07 66.9688 0C72.4743 -1.39107e-07 76.9375 4.46316 76.9375 9.96875V30.9688C76.9375 36.4743 72.4743 40.9375 66.9688 40.9375Z" fill="#F6F6F6"/>
<path d="M9.96876 46.9375C4.46316 46.9375 0 42.4743 0 36.9688V15.9688C-1.92745e-06 10.4632 4.46316 6 9.96875 6C15.4743 6 19.9375 10.4632 19.9375 15.9688L19.9375 36.9688C19.9375 42.4743 15.4743 46.9375 9.96876 46.9375Z" fill="#F6F6F6"/>
<path d="M114 36.9688C114 42.4743 118.463 46.9375 123.969 46.9375C129.474 46.9375 133.938 42.4743 133.938 36.9688V15.9688C133.938 10.4632 129.474 6 123.969 6C118.463 6 114 10.4632 114 15.9688V36.9688Z" fill="#F6F6F6"/>
</svg>
