<svg width="63" height="72" viewBox="0 0 63 72" fill="none" xmlns="http://www.w3.org/2000/svg">
<path d="M50.1013 2.63887C50.1459 2.58952 50.1617 2.52064 50.1422 2.45707C50.1233 2.39517 50.0739 2.34709 50.0115 2.32966C46.1545 1.25121 42.3489 0.847803 38.7386 3.12854C38.5542 3.24501 38.3459 3.08043 38.4682 2.89986C38.8182 2.40657 39.187 1.92412 39.5359 1.433C39.539 1.42738 39.5421 1.42174 39.5451 1.41609C39.6687 1.18673 39.5576 0.903343 39.3057 0.836718C38.8928 0.780017 38.4773 0.746 38.0609 0.734807C34.2663 0.683852 30.9581 2.01628 28.0967 4.58247C27.5113 5.10666 26.961 5.67257 26.3947 6.22086C26.3751 6.23988 26.345 6.24315 26.3218 6.22883C26.2952 6.21255 26.2856 6.17868 26.2996 6.15088C26.5364 5.67994 26.7733 5.20896 27.0127 4.73341C27.648 3.47121 26.6397 2.06874 25.2888 2.48309C24.9253 2.59457 24.5673 2.71455 24.2114 2.84024C20.5094 4.14582 17.2294 6.09325 14.5819 9.03028C14.2702 9.37604 13.6171 9.04674 13.7414 8.59813C13.7855 8.43894 13.83 8.27794 13.8752 8.11474C13.9184 7.95883 13.7608 7.83055 13.6263 7.92058C12.8972 8.5353 12.1493 9.12291 11.4577 9.77666C7.5703 13.4498 4.95476 17.9609 3.39648 23.154C2.14652 27.3064 1.60175 31.5812 1.48404 35.9102C1.39967 38.9968 1.46634 42.0899 1.46529 45.1776C1.46529 47.5063 1.46529 49.8344 1.46529 52.1617C1.46529 52.3961 1.73493 52.5122 1.86963 52.3204C1.8989 52.2787 1.92631 52.2355 1.95173 52.191C4.13916 48.6718 6.38804 45.1971 8.89838 41.9143C9.22576 41.5158 9.39488 41.0025 9.37127 40.4788C9.30565 38.6163 9.37128 36.7591 9.70252 34.9204C10.3726 31.2031 11.566 27.6091 13.2441 24.2545C13.7773 23.1763 14.3757 22.1274 14.9458 21.0739C14.9645 21.0394 15.0074 21.026 15.0423 21.0439C15.0753 21.0608 15.0901 21.0997 15.0771 21.1343C15.0119 21.3067 14.95 21.4817 14.8773 21.6514C13.5045 24.8432 12.3774 28.1162 11.7847 31.5725C11.416 33.679 11.1973 35.7931 11.2733 37.9332C11.2736 37.9405 11.2739 37.9478 11.2744 37.955C11.2922 38.2279 11.6796 38.3168 11.8545 38.1067C14.2585 35.2086 16.806 32.4427 19.4866 29.8205C19.6803 29.6206 19.8194 29.3706 19.8897 29.0963C20.2293 27.8094 20.4855 26.4943 20.8646 25.2215C21.8747 21.774 23.475 18.5448 25.5884 15.6896C26.0852 15.021 26.6399 14.3984 27.1704 13.7563C27.1966 13.7247 27.2433 13.7199 27.2751 13.7457C27.3059 13.7707 27.3119 13.8153 27.2887 13.8475C25.8701 15.821 24.7021 17.9767 23.8135 20.2615C22.9887 22.3913 22.3202 24.5684 21.9851 26.9515C21.9534 27.1775 22.2125 27.3441 22.3896 27.2001C24.8853 25.2797 27.3794 23.3571 29.8716 21.4324C30.1329 21.2252 30.3625 20.9781 30.5529 20.6995C32.8038 17.4611 35.3964 14.5665 38.4693 12.1531C38.6892 11.9802 38.9181 11.8192 39.1419 11.6532C39.1736 11.6296 39.2176 11.6338 39.2426 11.6644C39.2674 11.6948 39.2646 11.74 39.2358 11.7665C37.9689 12.9354 36.7916 14.2022 35.7137 15.5553C34.928 16.5415 36.0312 17.7534 37.1683 17.2082C38.6633 16.4913 40.172 15.8366 41.6986 15.2727C42.495 14.9786 42.7046 15.6471 41.9275 15.9889C41.4987 16.1754 41.074 16.3714 40.6536 16.5766C39.0661 17.3517 39.6659 19.7239 41.3359 20.3002C42.9463 20.8559 44.4616 21.6844 45.8638 22.8453C45.9412 22.9093 45.8941 22.9996 45.8138 22.9394C42.4712 20.8491 38.8661 20.1997 35.0475 20.9109C34.11 21.0855 33.0684 21.2969 32.3226 21.8509C30.2477 23.3871 28.28 25.0828 26.3155 26.7729C25.4381 27.5274 26.2627 29.0724 27.4163 28.9814C30.7067 28.7217 33.9229 29.1663 37.0619 30.5725C37.1998 30.6343 37.153 30.7863 37.0089 30.741C35.3767 30.2856 33.7205 29.982 32.0268 29.994C28.2186 30.0092 24.6478 31.0207 21.2917 32.8605C20.3792 33.3614 19.4491 33.8362 18.7751 34.7328C17.4929 36.4393 16.1388 38.085 14.8336 39.773C14.2852 40.4774 14.9685 41.4678 15.8367 41.2602C17.1246 40.9524 18.4012 40.6546 19.6876 40.416C21.7917 40.0257 23.9427 40.0614 26.0718 40.3021C28.1 40.5314 30.0753 41.0126 31.9337 41.9124C32.0192 41.9538 31.9956 42.0507 31.9059 42.0194C28.9363 41.1575 25.927 41.0437 22.8823 41.4632C20.2595 41.8221 17.7814 42.6927 15.3638 43.7454C13.3128 44.6398 11.4056 45.7771 9.99105 47.6288C9.039 48.8713 8.05986 50.092 7.14219 51.3616C5.2147 53.9944 3.6503 56.8948 2.49443 59.9784C1.21322 63.4477 0.515323 67.045 0.147627 70.7246C0.118261 71.0188 0.140638 71.318 0.146379 71.6593C0.147262 71.7118 0.241173 71.7472 0.251406 71.6957C0.252873 71.6883 0.253222 71.6881 0.25601 71.6811C0.34109 71.4678 0.427065 71.2545 0.506991 71.0412C1.44271 68.4435 2.9152 66.0915 4.82039 64.1514C7.23177 61.7012 10.0733 60.1302 13.4461 59.767C15.4617 59.5502 17.495 59.5058 19.5189 59.3626C23.2614 59.0992 26.9801 58.6352 30.6497 57.8036C31.1796 57.6835 31.6973 57.5088 32.2197 57.3553C32.2714 57.3401 32.307 57.2928 32.307 57.239C32.307 57.1965 32.2847 57.1571 32.2482 57.1353L30.2447 55.9363C29.9601 55.7661 30.0423 55.4323 30.3737 55.4434C31.5674 55.4814 32.6653 55.09 33.733 54.5902C36.8818 53.1103 39.5932 50.9496 42.2087 48.6447C42.7139 48.1991 42.6879 48.1026 42.1046 47.7774C41.5137 47.4436 41.6058 46.5264 42.2135 46.2242C43.9859 45.3426 45.3844 44.035 46.6877 42.5897C48.0906 41.034 49.3063 39.3471 50.4384 37.5043C50.7701 36.9643 50.4301 36.2692 49.8023 36.1832L48.9333 36.0642C48.8342 36.0506 48.7712 35.9475 48.837 35.872C48.8789 35.8239 48.9298 35.7853 48.9866 35.7584C50.1105 35.263 51.0522 34.5019 51.8865 33.5901C54.2292 31.0413 55.9145 28.0392 57.377 24.8876C57.4709 24.6856 57.2157 24.4839 56.9983 24.5326L56.2149 24.7081C56.1303 24.727 56.0007 24.6341 56.0624 24.5732C57.4697 23.1128 58.4748 21.3749 59.3498 19.534C60.9039 16.2642 61.9914 12.821 62.9487 9.32457C63.0736 8.87031 62.9768 8.56566 62.5612 8.34883C60.5946 7.31671 58.6644 6.20437 56.6624 5.25682C55.0043 4.45371 53.2169 3.97942 51.3917 3.85826C51.133 3.84539 50.8744 3.84735 50.6169 3.86395C50.096 3.89754 49.6372 3.15279 49.987 2.7654L50.1013 2.63887Z" fill="url(#paint0_radial_205_3320)"/>
<defs>
<radialGradient id="paint0_radial_205_3320" cx="0" cy="0" r="1" gradientUnits="userSpaceOnUse" gradientTransform="translate(43.5547 50.4627) rotate(-97.4792) scale(40.4348 34.3176)">
<stop stop-color="#37CA1F"/>
<stop offset="1" stop-color="#9BE63B"/>
</radialGradient>
</defs>
</svg>
