<svg width="132" height="129" viewBox="0 0 132 129" fill="none" xmlns="http://www.w3.org/2000/svg">
<g clip-path="url(#clip0_614_12776)">
<path d="M131.487 0H0.743286V129H131.487V0Z" fill="white"/>
<path d="M38.2515 4.66797H34.9724V7.90334H38.2515V4.66797Z" fill="black"/>
<path d="M44.8097 4.66797H41.5306V7.90334H44.8097V4.66797Z" fill="black"/>
<path d="M54.6436 4.66797H51.3645V7.90334H54.6436V4.66797Z" fill="black"/>
<path d="M61.1984 4.66797H57.9193V7.90334H61.1984V4.66797Z" fill="black"/>
<path d="M77.5872 4.66797H74.3081V7.90334H77.5872V4.66797Z" fill="black"/>
<path d="M84.1419 4.66797H80.8629V7.90334H84.1419V4.66797Z" fill="black"/>
<path d="M90.6968 4.66797H87.4177V7.90334H90.6968V4.66797Z" fill="black"/>
<path d="M44.8097 7.9043H41.5306V11.1397H44.8097V7.9043Z" fill="black"/>
<path d="M48.0854 7.9043H44.8063V11.1397H48.0854V7.9043Z" fill="black"/>
<path d="M51.3645 7.9043H48.0854V11.1397H51.3645V7.9043Z" fill="black"/>
<path d="M57.9193 7.9043H54.6402V11.1397H57.9193V7.9043Z" fill="black"/>
<path d="M61.1984 7.9043H57.9193V11.1397H61.1984V7.9043Z" fill="black"/>
<path d="M64.4741 7.9043H61.1951V11.1397H64.4741V7.9043Z" fill="black"/>
<path d="M67.7532 7.9043H64.4741V11.1397H67.7532V7.9043Z" fill="black"/>
<path d="M74.3081 7.9043H71.029V11.1397H74.3081V7.9043Z" fill="black"/>
<path d="M87.421 7.9043H84.142V11.1397H87.421V7.9043Z" fill="black"/>
<path d="M90.6968 7.9043H87.4177V11.1397H90.6968V7.9043Z" fill="black"/>
<path d="M93.9759 7.9043H90.6968V11.1397H93.9759V7.9043Z" fill="black"/>
<path d="M97.2516 7.9043H93.9725V11.1397H97.2516V7.9043Z" fill="black"/>
<path d="M34.9758 11.1348H31.6967V14.3701H34.9758V11.1348Z" fill="black"/>
<path d="M44.8097 11.1348H41.5306V14.3701H44.8097V11.1348Z" fill="black"/>
<path d="M54.6436 11.1348H51.3645V14.3701H54.6436V11.1348Z" fill="black"/>
<path d="M57.9193 11.1348H54.6402V14.3701H57.9193V11.1348Z" fill="black"/>
<path d="M61.1984 11.1348H57.9193V14.3701H61.1984V11.1348Z" fill="black"/>
<path d="M77.5872 11.1348H74.3081V14.3701H77.5872V11.1348Z" fill="black"/>
<path d="M80.8629 11.1348H77.5838V14.3701H80.8629V11.1348Z" fill="black"/>
<path d="M93.9759 11.1348H90.6968V14.3701H93.9759V11.1348Z" fill="black"/>
<path d="M97.2516 11.1348H93.9725V14.3701H97.2516V11.1348Z" fill="black"/>
<path d="M34.9758 14.3711H31.6967V17.6065H34.9758V14.3711Z" fill="black"/>
<path d="M38.2515 14.3711H34.9724V17.6065H38.2515V14.3711Z" fill="black"/>
<path d="M44.8097 14.3711H41.5306V17.6065H44.8097V14.3711Z" fill="black"/>
<path d="M48.0854 14.3711H44.8063V17.6065H48.0854V14.3711Z" fill="black"/>
<path d="M57.9193 14.3711H54.6402V17.6065H57.9193V14.3711Z" fill="black"/>
<path d="M61.1984 14.3711H57.9193V17.6065H61.1984V14.3711Z" fill="black"/>
<path d="M64.4741 14.3711H61.1951V17.6065H64.4741V14.3711Z" fill="black"/>
<path d="M67.7532 14.3711H64.4741V17.6065H67.7532V14.3711Z" fill="black"/>
<path d="M74.3081 14.3711H71.029V17.6065H74.3081V14.3711Z" fill="black"/>
<path d="M80.8629 14.3711H77.5838V17.6065H80.8629V14.3711Z" fill="black"/>
<path d="M84.1419 14.3711H80.8629V17.6065H84.1419V14.3711Z" fill="black"/>
<path d="M90.6968 14.3711H87.4177V17.6065H90.6968V14.3711Z" fill="black"/>
<path d="M93.9759 14.3711H90.6968V17.6065H93.9759V14.3711Z" fill="black"/>
<path d="M97.2516 14.3711H93.9725V17.6065H97.2516V14.3711Z" fill="black"/>
<path d="M34.9758 17.6035H31.6967V20.8389H34.9758V17.6035Z" fill="black"/>
<path d="M48.0854 17.6035H44.8063V20.8389H48.0854V17.6035Z" fill="black"/>
<path d="M51.3645 17.6035H48.0854V20.8389H51.3645V17.6035Z" fill="black"/>
<path d="M64.4741 17.6035H61.1951V20.8389H64.4741V17.6035Z" fill="black"/>
<path d="M67.7532 17.6035H64.4741V20.8389H67.7532V17.6035Z" fill="black"/>
<path d="M71.0323 17.6035H67.7532V20.8389H71.0323V17.6035Z" fill="black"/>
<path d="M74.3081 17.6035H71.029V20.8389H74.3081V17.6035Z" fill="black"/>
<path d="M80.8629 17.6035H77.5838V20.8389H80.8629V17.6035Z" fill="black"/>
<path d="M84.1419 17.6035H80.8629V20.8389H84.1419V17.6035Z" fill="black"/>
<path d="M90.6968 17.6035H87.4177V20.8389H90.6968V17.6035Z" fill="black"/>
<path d="M100.531 17.6035H97.2516V20.8389H100.531V17.6035Z" fill="black"/>
<path d="M34.9758 20.8379H31.6967V24.0733H34.9758V20.8379Z" fill="black"/>
<path d="M41.5306 20.8379H38.2515V24.0733H41.5306V20.8379Z" fill="black"/>
<path d="M44.8097 20.8379H41.5306V24.0733H44.8097V20.8379Z" fill="black"/>
<path d="M51.3645 20.8379H48.0854V24.0733H51.3645V20.8379Z" fill="black"/>
<path d="M57.9193 20.8379H54.6402V24.0733H57.9193V20.8379Z" fill="black"/>
<path d="M61.1984 20.8379H57.9193V24.0733H61.1984V20.8379Z" fill="black"/>
<path d="M64.4741 20.8379H61.1951V24.0733H64.4741V20.8379Z" fill="black"/>
<path d="M77.5872 20.8379H74.3081V24.0733H77.5872V20.8379Z" fill="black"/>
<path d="M90.6968 20.8379H87.4177V24.0733H90.6968V20.8379Z" fill="black"/>
<path d="M93.9759 20.8379H90.6968V24.0733H93.9759V20.8379Z" fill="black"/>
<path d="M97.2516 20.8379H93.9725V24.0733H97.2516V20.8379Z" fill="black"/>
<path d="M100.531 20.8379H97.2516V24.0733H100.531V20.8379Z" fill="black"/>
<path d="M34.9758 24.0742H31.6967V27.3096H34.9758V24.0742Z" fill="black"/>
<path d="M41.5306 24.0742H38.2515V27.3096H41.5306V24.0742Z" fill="black"/>
<path d="M48.0854 24.0742H44.8063V27.3096H48.0854V24.0742Z" fill="black"/>
<path d="M54.6436 24.0742H51.3645V27.3096H54.6436V24.0742Z" fill="black"/>
<path d="M61.1984 24.0742H57.9193V27.3096H61.1984V24.0742Z" fill="black"/>
<path d="M67.7532 24.0742H64.4741V27.3096H67.7532V24.0742Z" fill="black"/>
<path d="M74.3081 24.0742H71.029V27.3096H74.3081V24.0742Z" fill="black"/>
<path d="M80.8629 24.0742H77.5838V27.3096H80.8629V24.0742Z" fill="black"/>
<path d="M87.421 24.0742H84.142V27.3096H87.421V24.0742Z" fill="black"/>
<path d="M93.9759 24.0742H90.6968V27.3096H93.9759V24.0742Z" fill="black"/>
<path d="M100.531 24.0742H97.2516V27.3096H100.531V24.0742Z" fill="black"/>
<path d="M34.9758 27.3047H31.6967V30.5401H34.9758V27.3047Z" fill="black"/>
<path d="M38.2515 27.3047H34.9724V30.5401H38.2515V27.3047Z" fill="black"/>
<path d="M41.5306 27.3047H38.2515V30.5401H41.5306V27.3047Z" fill="black"/>
<path d="M44.8097 27.3047H41.5306V30.5401H44.8097V27.3047Z" fill="black"/>
<path d="M48.0854 27.3047H44.8063V30.5401H48.0854V27.3047Z" fill="black"/>
<path d="M51.3645 27.3047H48.0854V30.5401H51.3645V27.3047Z" fill="black"/>
<path d="M54.6436 27.3047H51.3645V30.5401H54.6436V27.3047Z" fill="black"/>
<path d="M57.9193 27.3047H54.6402V30.5401H57.9193V27.3047Z" fill="black"/>
<path d="M61.1984 27.3047H57.9193V30.5401H61.1984V27.3047Z" fill="black"/>
<path d="M64.4741 27.3047H61.1951V30.5401H64.4741V27.3047Z" fill="black"/>
<path d="M67.7532 27.3047H64.4741V30.5401H67.7532V27.3047Z" fill="black"/>
<path d="M77.5872 27.3047H74.3081V30.5401H77.5872V27.3047Z" fill="black"/>
<path d="M80.8629 27.3047H77.5838V30.5401H80.8629V27.3047Z" fill="black"/>
<path d="M84.1419 27.3047H80.8629V30.5401H84.1419V27.3047Z" fill="black"/>
<path d="M100.531 27.3047H97.2516V30.5401H100.531V27.3047Z" fill="black"/>
<path d="M8.75321 30.541H5.47412V33.7764H8.75321V30.541Z" fill="black"/>
<path d="M15.308 30.541H12.0289V33.7764H15.308V30.541Z" fill="black"/>
<path d="M18.5871 30.541H15.308V33.7764H18.5871V30.541Z" fill="black"/>
<path d="M21.8628 30.541H18.5837V33.7764H21.8628V30.541Z" fill="black"/>
<path d="M25.1419 30.541H21.8628V33.7764H25.1419V30.541Z" fill="black"/>
<path d="M28.421 30.541H25.1419V33.7764H28.421V30.541Z" fill="black"/>
<path d="M41.5306 30.541H38.2515V33.7764H41.5306V30.541Z" fill="black"/>
<path d="M44.8097 30.541H41.5306V33.7764H44.8097V30.541Z" fill="black"/>
<path d="M61.1984 30.541H57.9193V33.7764H61.1984V30.541Z" fill="black"/>
<path d="M84.1419 30.541H80.8629V33.7764H84.1419V30.541Z" fill="black"/>
<path d="M87.421 30.541H84.142V33.7764H87.421V30.541Z" fill="black"/>
<path d="M90.6968 30.541H87.4177V33.7764H90.6968V30.541Z" fill="black"/>
<path d="M93.9759 30.541H90.6968V33.7764H93.9759V30.541Z" fill="black"/>
<path d="M100.531 30.541H97.2516V33.7764H100.531V30.541Z" fill="black"/>
<path d="M107.085 30.541H103.806V33.7764H107.085V30.541Z" fill="black"/>
<path d="M110.365 30.541H107.085V33.7764H110.365V30.541Z" fill="black"/>
<path d="M113.64 30.541H110.361V33.7764H113.64V30.541Z" fill="black"/>
<path d="M116.919 30.541H113.64V33.7764H116.919V30.541Z" fill="black"/>
<path d="M120.198 30.541H116.919V33.7764H120.198V30.541Z" fill="black"/>
<path d="M18.5871 33.7734H15.308V37.0088H18.5871V33.7734Z" fill="black"/>
<path d="M21.8628 33.7734H18.5837V37.0088H21.8628V33.7734Z" fill="black"/>
<path d="M25.1419 33.7734H21.8628V37.0088H25.1419V33.7734Z" fill="black"/>
<path d="M31.6967 33.7734H28.4176V37.0088H31.6967V33.7734Z" fill="black"/>
<path d="M41.5306 33.7734H38.2515V37.0088H41.5306V33.7734Z" fill="black"/>
<path d="M44.8097 33.7734H41.5306V37.0088H44.8097V33.7734Z" fill="black"/>
<path d="M51.3645 33.7734H48.0854V37.0088H51.3645V33.7734Z" fill="black"/>
<path d="M57.9193 33.7734H54.6402V37.0088H57.9193V33.7734Z" fill="black"/>
<path d="M64.4741 33.7734H61.1951V37.0088H64.4741V33.7734Z" fill="black"/>
<path d="M67.7532 33.7734H64.4741V37.0088H67.7532V33.7734Z" fill="black"/>
<path d="M74.3081 33.7734H71.029V37.0088H74.3081V33.7734Z" fill="black"/>
<path d="M77.5872 33.7734H74.3081V37.0088H77.5872V33.7734Z" fill="black"/>
<path d="M80.8629 33.7734H77.5838V37.0088H80.8629V33.7734Z" fill="black"/>
<path d="M84.1419 33.7734H80.8629V37.0088H84.1419V33.7734Z" fill="black"/>
<path d="M100.531 33.7734H97.2516V37.0088H100.531V33.7734Z" fill="black"/>
<path d="M103.81 33.7734H100.531V37.0088H103.81V33.7734Z" fill="black"/>
<path d="M110.365 33.7734H107.085V37.0088H110.365V33.7734Z" fill="black"/>
<path d="M123.474 33.7734H120.195V37.0088H123.474V33.7734Z" fill="black"/>
<path d="M12.0323 37.0078H8.75321V40.2432H12.0323V37.0078Z" fill="black"/>
<path d="M15.308 37.0078H12.0289V40.2432H15.308V37.0078Z" fill="black"/>
<path d="M18.5871 37.0078H15.308V40.2432H18.5871V37.0078Z" fill="black"/>
<path d="M25.1419 37.0078H21.8628V40.2432H25.1419V37.0078Z" fill="black"/>
<path d="M28.421 37.0078H25.1419V40.2432H28.421V37.0078Z" fill="black"/>
<path d="M31.6967 37.0078H28.4176V40.2432H31.6967V37.0078Z" fill="black"/>
<path d="M34.9758 37.0078H31.6967V40.2432H34.9758V37.0078Z" fill="black"/>
<path d="M44.8097 37.0078H41.5306V40.2432H44.8097V37.0078Z" fill="black"/>
<path d="M51.3645 37.0078H48.0854V40.2432H51.3645V37.0078Z" fill="black"/>
<path d="M57.9193 37.0078H54.6402V40.2432H57.9193V37.0078Z" fill="black"/>
<path d="M61.1984 37.0078H57.9193V40.2432H61.1984V37.0078Z" fill="black"/>
<path d="M64.4741 37.0078H61.1951V40.2432H64.4741V37.0078Z" fill="black"/>
<path d="M71.0323 37.0078H67.7532V40.2432H71.0323V37.0078Z" fill="black"/>
<path d="M77.5872 37.0078H74.3081V40.2432H77.5872V37.0078Z" fill="black"/>
<path d="M80.8629 37.0078H77.5838V40.2432H80.8629V37.0078Z" fill="black"/>
<path d="M87.421 37.0078H84.142V40.2432H87.421V37.0078Z" fill="black"/>
<path d="M90.6968 37.0078H87.4177V40.2432H90.6968V37.0078Z" fill="black"/>
<path d="M93.9759 37.0078H90.6968V40.2432H93.9759V37.0078Z" fill="black"/>
<path d="M97.2516 37.0078H93.9725V40.2432H97.2516V37.0078Z" fill="black"/>
<path d="M100.531 37.0078H97.2516V40.2432H100.531V37.0078Z" fill="black"/>
<path d="M107.085 37.0078H103.806V40.2432H107.085V37.0078Z" fill="black"/>
<path d="M113.64 37.0078H110.361V40.2432H113.64V37.0078Z" fill="black"/>
<path d="M116.919 37.0078H113.64V40.2432H116.919V37.0078Z" fill="black"/>
<path d="M123.474 37.0078H120.195V40.2432H123.474V37.0078Z" fill="black"/>
<path d="M126.753 37.0078H123.474V40.2432H126.753V37.0078Z" fill="black"/>
<path d="M12.0323 40.2441H8.75321V43.4795H12.0323V40.2441Z" fill="black"/>
<path d="M21.8628 40.2441H18.5837V43.4795H21.8628V40.2441Z" fill="black"/>
<path d="M25.1419 40.2441H21.8628V43.4795H25.1419V40.2441Z" fill="black"/>
<path d="M34.9758 40.2441H31.6967V43.4795H34.9758V40.2441Z" fill="black"/>
<path d="M38.2515 40.2441H34.9724V43.4795H38.2515V40.2441Z" fill="black"/>
<path d="M41.5306 40.2441H38.2515V43.4795H41.5306V40.2441Z" fill="black"/>
<path d="M44.8097 40.2441H41.5306V43.4795H44.8097V40.2441Z" fill="black"/>
<path d="M51.3645 40.2441H48.0854V43.4795H51.3645V40.2441Z" fill="black"/>
<path d="M54.6436 40.2441H51.3645V43.4795H54.6436V40.2441Z" fill="black"/>
<path d="M57.9193 40.2441H54.6402V43.4795H57.9193V40.2441Z" fill="black"/>
<path d="M71.0323 40.2441H67.7532V43.4795H71.0323V40.2441Z" fill="black"/>
<path d="M74.3081 40.2441H71.029V43.4795H74.3081V40.2441Z" fill="black"/>
<path d="M77.5872 40.2441H74.3081V43.4795H77.5872V40.2441Z" fill="black"/>
<path d="M87.421 40.2441H84.142V43.4795H87.421V40.2441Z" fill="black"/>
<path d="M93.9759 40.2441H90.6968V43.4795H93.9759V40.2441Z" fill="black"/>
<path d="M100.531 40.2441H97.2516V43.4795H100.531V40.2441Z" fill="black"/>
<path d="M107.085 40.2441H103.806V43.4795H107.085V40.2441Z" fill="black"/>
<path d="M116.919 40.2441H113.64V43.4795H116.919V40.2441Z" fill="black"/>
<path d="M126.753 40.2441H123.474V43.4795H126.753V40.2441Z" fill="black"/>
<path d="M12.0323 43.4766H8.75321V46.7119H12.0323V43.4766Z" fill="black"/>
<path d="M15.308 43.4766H12.0289V46.7119H15.308V43.4766Z" fill="black"/>
<path d="M18.5871 43.4766H15.308V46.7119H18.5871V43.4766Z" fill="black"/>
<path d="M25.1419 43.4766H21.8628V46.7119H25.1419V43.4766Z" fill="black"/>
<path d="M28.421 43.4766H25.1419V46.7119H28.421V43.4766Z" fill="black"/>
<path d="M38.2515 43.4766H34.9724V46.7119H38.2515V43.4766Z" fill="black"/>
<path d="M41.5306 43.4766H38.2515V46.7119H41.5306V43.4766Z" fill="black"/>
<path d="M44.8097 43.4766H41.5306V46.7119H44.8097V43.4766Z" fill="black"/>
<path d="M48.0854 43.4766H44.8063V46.7119H48.0854V43.4766Z" fill="black"/>
<path d="M54.6436 43.4766H51.3645V46.7119H54.6436V43.4766Z" fill="black"/>
<path d="M57.9193 43.4766H54.6402V46.7119H57.9193V43.4766Z" fill="black"/>
<path d="M61.1984 43.4766H57.9193V46.7119H61.1984V43.4766Z" fill="black"/>
<path d="M64.4741 43.4766H61.1951V46.7119H64.4741V43.4766Z" fill="black"/>
<path d="M71.0323 43.4766H67.7532V46.7119H71.0323V43.4766Z" fill="black"/>
<path d="M74.3081 43.4766H71.029V46.7119H74.3081V43.4766Z" fill="black"/>
<path d="M80.8629 43.4766H77.5838V46.7119H80.8629V43.4766Z" fill="black"/>
<path d="M87.421 43.4766H84.142V46.7119H87.421V43.4766Z" fill="black"/>
<path d="M90.6968 43.4766H87.4177V46.7119H90.6968V43.4766Z" fill="black"/>
<path d="M93.9759 43.4766H90.6968V46.7119H93.9759V43.4766Z" fill="black"/>
<path d="M103.81 43.4766H100.531V46.7119H103.81V43.4766Z" fill="black"/>
<path d="M107.085 43.4766H103.806V46.7119H107.085V43.4766Z" fill="black"/>
<path d="M110.365 43.4766H107.085V46.7119H110.365V43.4766Z" fill="black"/>
<path d="M113.64 43.4766H110.361V46.7119H113.64V43.4766Z" fill="black"/>
<path d="M120.198 43.4766H116.919V46.7119H120.198V43.4766Z" fill="black"/>
<path d="M123.474 43.4766H120.195V46.7119H123.474V43.4766Z" fill="black"/>
<path d="M126.753 43.4766H123.474V46.7119H126.753V43.4766Z" fill="black"/>
<path d="M21.8628 46.7109H18.5837V49.9463H21.8628V46.7109Z" fill="black"/>
<path d="M25.1419 46.7109H21.8628V49.9463H25.1419V46.7109Z" fill="black"/>
<path d="M31.6967 46.7109H28.4176V49.9463H31.6967V46.7109Z" fill="black"/>
<path d="M38.2515 46.7109H34.9724V49.9463H38.2515V46.7109Z" fill="black"/>
<path d="M41.5306 46.7109H38.2515V49.9463H41.5306V46.7109Z" fill="black"/>
<path d="M44.8097 46.7109H41.5306V49.9463H44.8097V46.7109Z" fill="black"/>
<path d="M51.3645 46.7109H48.0854V49.9463H51.3645V46.7109Z" fill="black"/>
<path d="M54.6436 46.7109H51.3645V49.9463H54.6436V46.7109Z" fill="black"/>
<path d="M61.1984 46.7109H57.9193V49.9463H61.1984V46.7109Z" fill="black"/>
<path d="M67.7532 46.7109H64.4741V49.9463H67.7532V46.7109Z" fill="black"/>
<path d="M71.0323 46.7109H67.7532V49.9463H71.0323V46.7109Z" fill="black"/>
<path d="M74.3081 46.7109H71.029V49.9463H74.3081V46.7109Z" fill="black"/>
<path d="M84.1419 46.7109H80.8629V49.9463H84.1419V46.7109Z" fill="black"/>
<path d="M87.421 46.7109H84.142V49.9463H87.421V46.7109Z" fill="black"/>
<path d="M90.6968 46.7109H87.4177V49.9463H90.6968V46.7109Z" fill="black"/>
<path d="M100.531 46.7109H97.2516V49.9463H100.531V46.7109Z" fill="black"/>
<path d="M110.365 46.7109H107.085V49.9463H110.365V46.7109Z" fill="black"/>
<path d="M8.75321 49.9473H5.47412V53.1826H8.75321V49.9473Z" fill="black"/>
<path d="M12.0323 49.9473H8.75321V53.1826H12.0323V49.9473Z" fill="black"/>
<path d="M18.5871 49.9473H15.308V53.1826H18.5871V49.9473Z" fill="black"/>
<path d="M21.8628 49.9473H18.5837V53.1826H21.8628V49.9473Z" fill="black"/>
<path d="M28.421 49.9473H25.1419V53.1826H28.421V49.9473Z" fill="black"/>
<path d="M34.9758 49.9473H31.6967V53.1826H34.9758V49.9473Z" fill="black"/>
<path d="M44.8097 49.9473H41.5306V53.1826H44.8097V49.9473Z" fill="black"/>
<path d="M48.0854 49.9473H44.8063V53.1826H48.0854V49.9473Z" fill="black"/>
<path d="M54.6436 49.9473H51.3645V53.1826H54.6436V49.9473Z" fill="black"/>
<path d="M57.9193 49.9473H54.6402V53.1826H57.9193V49.9473Z" fill="black"/>
<path d="M67.7532 49.9473H64.4741V53.1826H67.7532V49.9473Z" fill="black"/>
<path d="M77.5872 49.9473H74.3081V53.1826H77.5872V49.9473Z" fill="black"/>
<path d="M80.8629 49.9473H77.5838V53.1826H80.8629V49.9473Z" fill="black"/>
<path d="M90.6968 49.9473H87.4177V53.1826H90.6968V49.9473Z" fill="black"/>
<path d="M93.9759 49.9473H90.6968V53.1826H93.9759V49.9473Z" fill="black"/>
<path d="M97.2516 49.9473H93.9725V53.1826H97.2516V49.9473Z" fill="black"/>
<path d="M100.531 49.9473H97.2516V53.1826H100.531V49.9473Z" fill="black"/>
<path d="M107.085 49.9473H103.806V53.1826H107.085V49.9473Z" fill="black"/>
<path d="M110.365 49.9473H107.085V53.1826H110.365V49.9473Z" fill="black"/>
<path d="M113.64 49.9473H110.361V53.1826H113.64V49.9473Z" fill="black"/>
<path d="M116.919 49.9473H113.64V53.1826H116.919V49.9473Z" fill="black"/>
<path d="M123.474 49.9473H120.195V53.1826H123.474V49.9473Z" fill="black"/>
<path d="M126.753 49.9473H123.474V53.1826H126.753V49.9473Z" fill="black"/>
<path d="M12.0323 53.1777H8.75321V56.4131H12.0323V53.1777Z" fill="black"/>
<path d="M18.5871 53.1777H15.308V56.4131H18.5871V53.1777Z" fill="black"/>
<path d="M25.1419 53.1777H21.8628V56.4131H25.1419V53.1777Z" fill="black"/>
<path d="M31.6967 53.1777H28.4176V56.4131H31.6967V53.1777Z" fill="black"/>
<path d="M38.2515 53.1777H34.9724V56.4131H38.2515V53.1777Z" fill="black"/>
<path d="M41.5306 53.1777H38.2515V56.4131H41.5306V53.1777Z" fill="black"/>
<path d="M48.0854 53.1777H44.8063V56.4131H48.0854V53.1777Z" fill="black"/>
<path d="M51.3645 53.1777H48.0854V56.4131H51.3645V53.1777Z" fill="black"/>
<path d="M57.9193 53.1777H54.6402V56.4131H57.9193V53.1777Z" fill="black"/>
<path d="M61.1984 53.1777H57.9193V56.4131H61.1984V53.1777Z" fill="black"/>
<path d="M77.5872 53.1777H74.3081V56.4131H77.5872V53.1777Z" fill="black"/>
<path d="M80.8629 53.1777H77.5838V56.4131H80.8629V53.1777Z" fill="black"/>
<path d="M93.9759 53.1777H90.6968V56.4131H93.9759V53.1777Z" fill="black"/>
<path d="M100.531 53.1777H97.2516V56.4131H100.531V53.1777Z" fill="black"/>
<path d="M103.81 53.1777H100.531V56.4131H103.81V53.1777Z" fill="black"/>
<path d="M110.365 53.1777H107.085V56.4131H110.365V53.1777Z" fill="black"/>
<path d="M113.64 53.1777H110.361V56.4131H113.64V53.1777Z" fill="black"/>
<path d="M123.474 53.1777H120.195V56.4131H123.474V53.1777Z" fill="black"/>
<path d="M126.753 53.1777H123.474V56.4131H126.753V53.1777Z" fill="black"/>
<path d="M8.75321 56.4141H5.47412V59.6494H8.75321V56.4141Z" fill="black"/>
<path d="M15.308 56.4141H12.0289V59.6494H15.308V56.4141Z" fill="black"/>
<path d="M25.1419 56.4141H21.8628V59.6494H25.1419V56.4141Z" fill="black"/>
<path d="M28.421 56.4141H25.1419V59.6494H28.421V56.4141Z" fill="black"/>
<path d="M31.6967 56.4141H28.4176V59.6494H31.6967V56.4141Z" fill="black"/>
<path d="M41.5306 56.4141H38.2515V59.6494H41.5306V56.4141Z" fill="black"/>
<path d="M44.8097 56.4141H41.5306V59.6494H44.8097V56.4141Z" fill="black"/>
<path d="M67.7532 56.4141H64.4741V59.6494H67.7532V56.4141Z" fill="black"/>
<path d="M74.3081 56.4141H71.029V59.6494H74.3081V56.4141Z" fill="black"/>
<path d="M84.1419 56.4141H80.8629V59.6494H84.1419V56.4141Z" fill="black"/>
<path d="M90.6968 56.4141H87.4177V59.6494H90.6968V56.4141Z" fill="black"/>
<path d="M93.9759 56.4141H90.6968V59.6494H93.9759V56.4141Z" fill="black"/>
<path d="M97.2516 56.4141H93.9725V59.6494H97.2516V56.4141Z" fill="black"/>
<path d="M103.81 56.4141H100.531V59.6494H103.81V56.4141Z" fill="black"/>
<path d="M107.085 56.4141H103.806V59.6494H107.085V56.4141Z" fill="black"/>
<path d="M110.365 56.4141H107.085V59.6494H110.365V56.4141Z" fill="black"/>
<path d="M113.64 56.4141H110.361V59.6494H113.64V56.4141Z" fill="black"/>
<path d="M120.198 56.4141H116.919V59.6494H120.198V56.4141Z" fill="black"/>
<path d="M12.0323 59.6465H8.75321V62.8819H12.0323V59.6465Z" fill="black"/>
<path d="M15.308 59.6465H12.0289V62.8819H15.308V59.6465Z" fill="black"/>
<path d="M38.2515 59.6465H34.9724V62.8819H38.2515V59.6465Z" fill="black"/>
<path d="M41.5306 59.6465H38.2515V62.8819H41.5306V59.6465Z" fill="black"/>
<path d="M57.9193 59.6465H54.6402V62.8819H57.9193V59.6465Z" fill="black"/>
<path d="M61.1984 59.6465H57.9193V62.8819H61.1984V59.6465Z" fill="black"/>
<path d="M80.8629 59.6465H77.5838V62.8819H80.8629V59.6465Z" fill="black"/>
<path d="M84.1419 59.6465H80.8629V62.8819H84.1419V59.6465Z" fill="black"/>
<path d="M90.6968 59.6465H87.4177V62.8819H90.6968V59.6465Z" fill="black"/>
<path d="M93.9759 59.6465H90.6968V62.8819H93.9759V59.6465Z" fill="black"/>
<path d="M100.531 59.6465H97.2516V62.8819H100.531V59.6465Z" fill="black"/>
<path d="M110.365 59.6465H107.085V62.8819H110.365V59.6465Z" fill="black"/>
<path d="M120.198 59.6465H116.919V62.8819H120.198V59.6465Z" fill="black"/>
<path d="M123.474 59.6465H120.195V62.8819H123.474V59.6465Z" fill="black"/>
<path d="M12.0323 62.8809H8.75321V66.1162H12.0323V62.8809Z" fill="black"/>
<path d="M15.308 62.8809H12.0289V66.1162H15.308V62.8809Z" fill="black"/>
<path d="M18.5871 62.8809H15.308V66.1162H18.5871V62.8809Z" fill="black"/>
<path d="M21.8628 62.8809H18.5837V66.1162H21.8628V62.8809Z" fill="black"/>
<path d="M28.421 62.8809H25.1419V66.1162H28.421V62.8809Z" fill="black"/>
<path d="M34.9758 62.8809H31.6967V66.1162H34.9758V62.8809Z" fill="black"/>
<path d="M38.2515 62.8809H34.9724V66.1162H38.2515V62.8809Z" fill="black"/>
<path d="M48.0854 62.8809H44.8063V66.1162H48.0854V62.8809Z" fill="black"/>
<path d="M51.3645 62.8809H48.0854V66.1162H51.3645V62.8809Z" fill="black"/>
<path d="M74.3081 62.8809H71.029V66.1162H74.3081V62.8809Z" fill="black"/>
<path d="M80.8629 62.8809H77.5838V66.1162H80.8629V62.8809Z" fill="black"/>
<path d="M87.421 62.8809H84.142V66.1162H87.421V62.8809Z" fill="black"/>
<path d="M93.9759 62.8809H90.6968V66.1162H93.9759V62.8809Z" fill="black"/>
<path d="M97.2516 62.8809H93.9725V66.1162H97.2516V62.8809Z" fill="black"/>
<path d="M103.81 62.8809H100.531V66.1162H103.81V62.8809Z" fill="black"/>
<path d="M113.64 62.8809H110.361V66.1162H113.64V62.8809Z" fill="black"/>
<path d="M123.474 62.8809H120.195V66.1162H123.474V62.8809Z" fill="black"/>
<path d="M126.753 62.8809H123.474V66.1162H126.753V62.8809Z" fill="black"/>
<path d="M12.0323 66.1172H8.75321V69.3526H12.0323V66.1172Z" fill="black"/>
<path d="M25.1419 66.1172H21.8628V69.3526H25.1419V66.1172Z" fill="black"/>
<path d="M31.6967 66.1172H28.4176V69.3526H31.6967V66.1172Z" fill="black"/>
<path d="M38.2515 66.1172H34.9724V69.3526H38.2515V66.1172Z" fill="black"/>
<path d="M44.8097 66.1172H41.5306V69.3526H44.8097V66.1172Z" fill="black"/>
<path d="M61.1984 66.1172H57.9193V69.3526H61.1984V66.1172Z" fill="black"/>
<path d="M67.7532 66.1172H64.4741V69.3526H67.7532V66.1172Z" fill="black"/>
<path d="M77.5872 66.1172H74.3081V69.3526H77.5872V66.1172Z" fill="black"/>
<path d="M80.8629 66.1172H77.5838V69.3526H80.8629V66.1172Z" fill="black"/>
<path d="M84.1419 66.1172H80.8629V69.3526H84.1419V66.1172Z" fill="black"/>
<path d="M97.2516 66.1172H93.9725V69.3526H97.2516V66.1172Z" fill="black"/>
<path d="M107.085 66.1172H103.806V69.3526H107.085V66.1172Z" fill="black"/>
<path d="M110.365 66.1172H107.085V69.3526H110.365V66.1172Z" fill="black"/>
<path d="M113.64 66.1172H110.361V69.3526H113.64V66.1172Z" fill="black"/>
<path d="M126.753 66.1172H123.474V69.3526H126.753V66.1172Z" fill="black"/>
<path d="M12.0323 69.3496H8.75321V72.585H12.0323V69.3496Z" fill="black"/>
<path d="M15.308 69.3496H12.0289V72.585H15.308V69.3496Z" fill="black"/>
<path d="M18.5871 69.3496H15.308V72.585H18.5871V69.3496Z" fill="black"/>
<path d="M25.1419 69.3496H21.8628V72.585H25.1419V69.3496Z" fill="black"/>
<path d="M28.421 69.3496H25.1419V72.585H28.421V69.3496Z" fill="black"/>
<path d="M31.6967 69.3496H28.4176V72.585H31.6967V69.3496Z" fill="black"/>
<path d="M34.9758 69.3496H31.6967V72.585H34.9758V69.3496Z" fill="black"/>
<path d="M41.5306 69.3496H38.2515V72.585H41.5306V69.3496Z" fill="black"/>
<path d="M48.0854 69.3496H44.8063V72.585H48.0854V69.3496Z" fill="black"/>
<path d="M54.6436 69.3496H51.3645V72.585H54.6436V69.3496Z" fill="black"/>
<path d="M64.4741 69.3496H61.1951V72.585H64.4741V69.3496Z" fill="black"/>
<path d="M74.3081 69.3496H71.029V72.585H74.3081V69.3496Z" fill="black"/>
<path d="M80.8629 69.3496H77.5838V72.585H80.8629V69.3496Z" fill="black"/>
<path d="M87.421 69.3496H84.142V72.585H87.421V69.3496Z" fill="black"/>
<path d="M90.6968 69.3496H87.4177V72.585H90.6968V69.3496Z" fill="black"/>
<path d="M93.9759 69.3496H90.6968V72.585H93.9759V69.3496Z" fill="black"/>
<path d="M103.81 69.3496H100.531V72.585H103.81V69.3496Z" fill="black"/>
<path d="M107.085 69.3496H103.806V72.585H107.085V69.3496Z" fill="black"/>
<path d="M113.64 69.3496H110.361V72.585H113.64V69.3496Z" fill="black"/>
<path d="M116.919 69.3496H113.64V72.585H116.919V69.3496Z" fill="black"/>
<path d="M120.198 69.3496H116.919V72.585H120.198V69.3496Z" fill="black"/>
<path d="M8.75321 72.584H5.47412V75.8194H8.75321V72.584Z" fill="black"/>
<path d="M21.8628 72.584H18.5837V75.8194H21.8628V72.584Z" fill="black"/>
<path d="M34.9758 72.584H31.6967V75.8194H34.9758V72.584Z" fill="black"/>
<path d="M51.3645 72.584H48.0854V75.8194H51.3645V72.584Z" fill="black"/>
<path d="M54.6436 72.584H51.3645V75.8194H54.6436V72.584Z" fill="black"/>
<path d="M61.1984 72.584H57.9193V75.8194H61.1984V72.584Z" fill="black"/>
<path d="M64.4741 72.584H61.1951V75.8194H64.4741V72.584Z" fill="black"/>
<path d="M67.7532 72.584H64.4741V75.8194H67.7532V72.584Z" fill="black"/>
<path d="M71.0323 72.584H67.7532V75.8194H71.0323V72.584Z" fill="black"/>
<path d="M74.3081 72.584H71.029V75.8194H74.3081V72.584Z" fill="black"/>
<path d="M77.5872 72.584H74.3081V75.8194H77.5872V72.584Z" fill="black"/>
<path d="M80.8629 72.584H77.5838V75.8194H80.8629V72.584Z" fill="black"/>
<path d="M84.1419 72.584H80.8629V75.8194H84.1419V72.584Z" fill="black"/>
<path d="M100.531 72.584H97.2516V75.8194H100.531V72.584Z" fill="black"/>
<path d="M116.919 72.584H113.64V75.8194H116.919V72.584Z" fill="black"/>
<path d="M12.0323 75.8164H8.75321V79.0518H12.0323V75.8164Z" fill="black"/>
<path d="M15.308 75.8164H12.0289V79.0518H15.308V75.8164Z" fill="black"/>
<path d="M18.5871 75.8164H15.308V79.0518H18.5871V75.8164Z" fill="black"/>
<path d="M21.8628 75.8164H18.5837V79.0518H21.8628V75.8164Z" fill="black"/>
<path d="M28.421 75.8164H25.1419V79.0518H28.421V75.8164Z" fill="black"/>
<path d="M31.6967 75.8164H28.4176V79.0518H31.6967V75.8164Z" fill="black"/>
<path d="M34.9758 75.8164H31.6967V79.0518H34.9758V75.8164Z" fill="black"/>
<path d="M41.5306 75.8164H38.2515V79.0518H41.5306V75.8164Z" fill="black"/>
<path d="M48.0854 75.8164H44.8063V79.0518H48.0854V75.8164Z" fill="black"/>
<path d="M54.6436 75.8164H51.3645V79.0518H54.6436V75.8164Z" fill="black"/>
<path d="M57.9193 75.8164H54.6402V79.0518H57.9193V75.8164Z" fill="black"/>
<path d="M61.1984 75.8164H57.9193V79.0518H61.1984V75.8164Z" fill="black"/>
<path d="M64.4741 75.8164H61.1951V79.0518H64.4741V75.8164Z" fill="black"/>
<path d="M74.3081 75.8164H71.029V79.0518H74.3081V75.8164Z" fill="black"/>
<path d="M77.5872 75.8164H74.3081V79.0518H77.5872V75.8164Z" fill="black"/>
<path d="M93.9759 75.8164H90.6968V79.0518H93.9759V75.8164Z" fill="black"/>
<path d="M97.2516 75.8164H93.9725V79.0518H97.2516V75.8164Z" fill="black"/>
<path d="M103.81 75.8164H100.531V79.0518H103.81V75.8164Z" fill="black"/>
<path d="M110.365 75.8164H107.085V79.0518H110.365V75.8164Z" fill="black"/>
<path d="M113.64 75.8164H110.361V79.0518H113.64V75.8164Z" fill="black"/>
<path d="M116.919 75.8164H113.64V79.0518H116.919V75.8164Z" fill="black"/>
<path d="M123.474 75.8164H120.195V79.0518H123.474V75.8164Z" fill="black"/>
<path d="M126.753 75.8164H123.474V79.0518H126.753V75.8164Z" fill="black"/>
<path d="M8.75321 79.0508H5.47412V82.2862H8.75321V79.0508Z" fill="black"/>
<path d="M38.2515 79.0508H34.9724V82.2862H38.2515V79.0508Z" fill="black"/>
<path d="M41.5306 79.0508H38.2515V82.2862H41.5306V79.0508Z" fill="black"/>
<path d="M51.3645 79.0508H48.0854V82.2862H51.3645V79.0508Z" fill="black"/>
<path d="M54.6436 79.0508H51.3645V82.2862H54.6436V79.0508Z" fill="black"/>
<path d="M57.9193 79.0508H54.6402V82.2862H57.9193V79.0508Z" fill="black"/>
<path d="M64.4741 79.0508H61.1951V82.2862H64.4741V79.0508Z" fill="black"/>
<path d="M67.7532 79.0508H64.4741V82.2862H67.7532V79.0508Z" fill="black"/>
<path d="M77.5872 79.0508H74.3081V82.2862H77.5872V79.0508Z" fill="black"/>
<path d="M80.8629 79.0508H77.5838V82.2862H80.8629V79.0508Z" fill="black"/>
<path d="M84.1419 79.0508H80.8629V82.2862H84.1419V79.0508Z" fill="black"/>
<path d="M100.531 79.0508H97.2516V82.2862H100.531V79.0508Z" fill="black"/>
<path d="M103.81 79.0508H100.531V82.2862H103.81V79.0508Z" fill="black"/>
<path d="M107.085 79.0508H103.806V82.2862H107.085V79.0508Z" fill="black"/>
<path d="M110.365 79.0508H107.085V82.2862H110.365V79.0508Z" fill="black"/>
<path d="M113.64 79.0508H110.361V82.2862H113.64V79.0508Z" fill="black"/>
<path d="M123.474 79.0508H120.195V82.2862H123.474V79.0508Z" fill="black"/>
<path d="M8.75321 82.2871H5.47412V85.5225H8.75321V82.2871Z" fill="black"/>
<path d="M12.0323 82.2871H8.75321V85.5225H12.0323V82.2871Z" fill="black"/>
<path d="M25.1419 82.2871H21.8628V85.5225H25.1419V82.2871Z" fill="black"/>
<path d="M28.421 82.2871H25.1419V85.5225H28.421V82.2871Z" fill="black"/>
<path d="M31.6967 82.2871H28.4176V85.5225H31.6967V82.2871Z" fill="black"/>
<path d="M38.2515 82.2871H34.9724V85.5225H38.2515V82.2871Z" fill="black"/>
<path d="M51.3645 82.2871H48.0854V85.5225H51.3645V82.2871Z" fill="black"/>
<path d="M61.1984 82.2871H57.9193V85.5225H61.1984V82.2871Z" fill="black"/>
<path d="M77.5872 82.2871H74.3081V85.5225H77.5872V82.2871Z" fill="black"/>
<path d="M84.1419 82.2871H80.8629V85.5225H84.1419V82.2871Z" fill="black"/>
<path d="M87.421 82.2871H84.142V85.5225H87.421V82.2871Z" fill="black"/>
<path d="M90.6968 82.2871H87.4177V85.5225H90.6968V82.2871Z" fill="black"/>
<path d="M93.9759 82.2871H90.6968V85.5225H93.9759V82.2871Z" fill="black"/>
<path d="M107.085 82.2871H103.806V85.5225H107.085V82.2871Z" fill="black"/>
<path d="M113.64 82.2871H110.361V85.5225H113.64V82.2871Z" fill="black"/>
<path d="M120.198 82.2871H116.919V85.5225H120.198V82.2871Z" fill="black"/>
<path d="M123.474 82.2871H120.195V85.5225H123.474V82.2871Z" fill="black"/>
<path d="M8.75321 85.5195H5.47412V88.7549H8.75321V85.5195Z" fill="black"/>
<path d="M15.308 85.5195H12.0289V88.7549H15.308V85.5195Z" fill="black"/>
<path d="M25.1419 85.5195H21.8628V88.7549H25.1419V85.5195Z" fill="black"/>
<path d="M31.6967 85.5195H28.4176V88.7549H31.6967V85.5195Z" fill="black"/>
<path d="M38.2515 85.5195H34.9724V88.7549H38.2515V85.5195Z" fill="black"/>
<path d="M41.5306 85.5195H38.2515V88.7549H41.5306V85.5195Z" fill="black"/>
<path d="M54.6436 85.5195H51.3645V88.7549H54.6436V85.5195Z" fill="black"/>
<path d="M57.9193 85.5195H54.6402V88.7549H57.9193V85.5195Z" fill="black"/>
<path d="M67.7532 85.5195H64.4741V88.7549H67.7532V85.5195Z" fill="black"/>
<path d="M74.3081 85.5195H71.029V88.7549H74.3081V85.5195Z" fill="black"/>
<path d="M77.5872 85.5195H74.3081V88.7549H77.5872V85.5195Z" fill="black"/>
<path d="M84.1419 85.5195H80.8629V88.7549H84.1419V85.5195Z" fill="black"/>
<path d="M87.421 85.5195H84.142V88.7549H87.421V85.5195Z" fill="black"/>
<path d="M100.531 85.5195H97.2516V88.7549H100.531V85.5195Z" fill="black"/>
<path d="M116.919 85.5195H113.64V88.7549H116.919V85.5195Z" fill="black"/>
<path d="M8.75321 88.7539H5.47412V91.9893H8.75321V88.7539Z" fill="black"/>
<path d="M18.5871 88.7539H15.308V91.9893H18.5871V88.7539Z" fill="black"/>
<path d="M28.421 88.7539H25.1419V91.9893H28.421V88.7539Z" fill="black"/>
<path d="M31.6967 88.7539H28.4176V91.9893H31.6967V88.7539Z" fill="black"/>
<path d="M34.9758 88.7539H31.6967V91.9893H34.9758V88.7539Z" fill="black"/>
<path d="M48.0854 88.7539H44.8063V91.9893H48.0854V88.7539Z" fill="black"/>
<path d="M51.3645 88.7539H48.0854V91.9893H51.3645V88.7539Z" fill="black"/>
<path d="M57.9193 88.7539H54.6402V91.9893H57.9193V88.7539Z" fill="black"/>
<path d="M61.1984 88.7539H57.9193V91.9893H61.1984V88.7539Z" fill="black"/>
<path d="M71.0323 88.7539H67.7532V91.9893H71.0323V88.7539Z" fill="black"/>
<path d="M93.9759 88.7539H90.6968V91.9893H93.9759V88.7539Z" fill="black"/>
<path d="M97.2516 88.7539H93.9725V91.9893H97.2516V88.7539Z" fill="black"/>
<path d="M100.531 88.7539H97.2516V91.9893H100.531V88.7539Z" fill="black"/>
<path d="M107.085 88.7539H103.806V91.9893H107.085V88.7539Z" fill="black"/>
<path d="M110.365 88.7539H107.085V91.9893H110.365V88.7539Z" fill="black"/>
<path d="M120.198 88.7539H116.919V91.9893H120.198V88.7539Z" fill="black"/>
<path d="M123.474 88.7539H120.195V91.9893H123.474V88.7539Z" fill="black"/>
<path d="M126.753 88.7539H123.474V91.9893H126.753V88.7539Z" fill="black"/>
<path d="M8.75321 91.9863H5.47412V95.2217H8.75321V91.9863Z" fill="black"/>
<path d="M15.308 91.9863H12.0289V95.2217H15.308V91.9863Z" fill="black"/>
<path d="M18.5871 91.9863H15.308V95.2217H18.5871V91.9863Z" fill="black"/>
<path d="M25.1419 91.9863H21.8628V95.2217H25.1419V91.9863Z" fill="black"/>
<path d="M34.9758 91.9863H31.6967V95.2217H34.9758V91.9863Z" fill="black"/>
<path d="M38.2515 91.9863H34.9724V95.2217H38.2515V91.9863Z" fill="black"/>
<path d="M44.8097 91.9863H41.5306V95.2217H44.8097V91.9863Z" fill="black"/>
<path d="M51.3645 91.9863H48.0854V95.2217H51.3645V91.9863Z" fill="black"/>
<path d="M57.9193 91.9863H54.6402V95.2217H57.9193V91.9863Z" fill="black"/>
<path d="M71.0323 91.9863H67.7532V95.2217H71.0323V91.9863Z" fill="black"/>
<path d="M74.3081 91.9863H71.029V95.2217H74.3081V91.9863Z" fill="black"/>
<path d="M77.5872 91.9863H74.3081V95.2217H77.5872V91.9863Z" fill="black"/>
<path d="M84.1419 91.9863H80.8629V95.2217H84.1419V91.9863Z" fill="black"/>
<path d="M93.9759 91.9863H90.6968V95.2217H93.9759V91.9863Z" fill="black"/>
<path d="M103.81 91.9863H100.531V95.2217H103.81V91.9863Z" fill="black"/>
<path d="M107.085 91.9863H103.806V95.2217H107.085V91.9863Z" fill="black"/>
<path d="M110.365 91.9863H107.085V95.2217H110.365V91.9863Z" fill="black"/>
<path d="M113.64 91.9863H110.361V95.2217H113.64V91.9863Z" fill="black"/>
<path d="M8.75321 95.2227H5.47412V98.458H8.75321V95.2227Z" fill="black"/>
<path d="M15.308 95.2227H12.0289V98.458H15.308V95.2227Z" fill="black"/>
<path d="M25.1419 95.2227H21.8628V98.458H25.1419V95.2227Z" fill="black"/>
<path d="M28.421 95.2227H25.1419V98.458H28.421V95.2227Z" fill="black"/>
<path d="M34.9758 95.2227H31.6967V98.458H34.9758V95.2227Z" fill="black"/>
<path d="M38.2515 95.2227H34.9724V98.458H38.2515V95.2227Z" fill="black"/>
<path d="M41.5306 95.2227H38.2515V98.458H41.5306V95.2227Z" fill="black"/>
<path d="M51.3645 95.2227H48.0854V98.458H51.3645V95.2227Z" fill="black"/>
<path d="M57.9193 95.2227H54.6402V98.458H57.9193V95.2227Z" fill="black"/>
<path d="M64.4741 95.2227H61.1951V98.458H64.4741V95.2227Z" fill="black"/>
<path d="M71.0323 95.2227H67.7532V98.458H71.0323V95.2227Z" fill="black"/>
<path d="M80.8629 95.2227H77.5838V98.458H80.8629V95.2227Z" fill="black"/>
<path d="M84.1419 95.2227H80.8629V98.458H84.1419V95.2227Z" fill="black"/>
<path d="M87.421 95.2227H84.142V98.458H87.421V95.2227Z" fill="black"/>
<path d="M90.6968 95.2227H87.4177V98.458H90.6968V95.2227Z" fill="black"/>
<path d="M97.2516 95.2227H93.9725V98.458H97.2516V95.2227Z" fill="black"/>
<path d="M100.531 95.2227H97.2516V98.458H100.531V95.2227Z" fill="black"/>
<path d="M103.81 95.2227H100.531V98.458H103.81V95.2227Z" fill="black"/>
<path d="M107.085 95.2227H103.806V98.458H107.085V95.2227Z" fill="black"/>
<path d="M110.365 95.2227H107.085V98.458H110.365V95.2227Z" fill="black"/>
<path d="M113.64 95.2227H110.361V98.458H113.64V95.2227Z" fill="black"/>
<path d="M116.919 95.2227H113.64V98.458H116.919V95.2227Z" fill="black"/>
<path d="M120.198 95.2227H116.919V98.458H120.198V95.2227Z" fill="black"/>
<path d="M123.474 95.2227H120.195V98.458H123.474V95.2227Z" fill="black"/>
<path d="M126.753 95.2227H123.474V98.458H126.753V95.2227Z" fill="black"/>
<path d="M34.9758 98.457H31.6967V101.692H34.9758V98.457Z" fill="black"/>
<path d="M38.2515 98.457H34.9724V101.692H38.2515V98.457Z" fill="black"/>
<path d="M61.1984 98.457H57.9193V101.692H61.1984V98.457Z" fill="black"/>
<path d="M71.0323 98.457H67.7532V101.692H71.0323V98.457Z" fill="black"/>
<path d="M74.3081 98.457H71.029V101.692H74.3081V98.457Z" fill="black"/>
<path d="M84.1419 98.457H80.8629V101.692H84.1419V98.457Z" fill="black"/>
<path d="M90.6968 98.457H87.4177V101.692H90.6968V98.457Z" fill="black"/>
<path d="M97.2516 98.457H93.9725V101.692H97.2516V98.457Z" fill="black"/>
<path d="M100.531 98.457H97.2516V101.692H100.531V98.457Z" fill="black"/>
<path d="M113.64 98.457H110.361V101.692H113.64V98.457Z" fill="black"/>
<path d="M116.919 98.457H113.64V101.692H116.919V98.457Z" fill="black"/>
<path d="M123.474 98.457H120.195V101.692H123.474V98.457Z" fill="black"/>
<path d="M41.5306 101.689H38.2515V104.925H41.5306V101.689Z" fill="black"/>
<path d="M48.0854 101.689H44.8063V104.925H48.0854V101.689Z" fill="black"/>
<path d="M57.9193 101.689H54.6402V104.925H57.9193V101.689Z" fill="black"/>
<path d="M61.1984 101.689H57.9193V104.925H61.1984V101.689Z" fill="black"/>
<path d="M67.7532 101.689H64.4741V104.925H67.7532V101.689Z" fill="black"/>
<path d="M74.3081 101.689H71.029V104.925H74.3081V101.689Z" fill="black"/>
<path d="M80.8629 101.689H77.5838V104.925H80.8629V101.689Z" fill="black"/>
<path d="M100.531 101.689H97.2516V104.925H100.531V101.689Z" fill="black"/>
<path d="M107.085 101.689H103.806V104.925H107.085V101.689Z" fill="black"/>
<path d="M113.64 101.689H110.361V104.925H113.64V101.689Z" fill="black"/>
<path d="M120.198 101.689H116.919V104.925H120.198V101.689Z" fill="black"/>
<path d="M126.753 101.689H123.474V104.925H126.753V101.689Z" fill="black"/>
<path d="M34.9758 104.924H31.6967V108.159H34.9758V104.924Z" fill="black"/>
<path d="M51.3645 104.924H48.0854V108.159H51.3645V104.924Z" fill="black"/>
<path d="M57.9193 104.924H54.6402V108.159H57.9193V104.924Z" fill="black"/>
<path d="M71.0323 104.924H67.7532V108.159H71.0323V104.924Z" fill="black"/>
<path d="M74.3081 104.924H71.029V108.159H74.3081V104.924Z" fill="black"/>
<path d="M84.1419 104.924H80.8629V108.159H84.1419V104.924Z" fill="black"/>
<path d="M87.421 104.924H84.142V108.159H87.421V104.924Z" fill="black"/>
<path d="M93.9759 104.924H90.6968V108.159H93.9759V104.924Z" fill="black"/>
<path d="M97.2516 104.924H93.9725V108.159H97.2516V104.924Z" fill="black"/>
<path d="M100.531 104.924H97.2516V108.159H100.531V104.924Z" fill="black"/>
<path d="M113.64 104.924H110.361V108.159H113.64V104.924Z" fill="black"/>
<path d="M116.919 104.924H113.64V108.159H116.919V104.924Z" fill="black"/>
<path d="M123.474 104.924H120.195V108.159H123.474V104.924Z" fill="black"/>
<path d="M34.9758 108.156H31.6967V111.392H34.9758V108.156Z" fill="black"/>
<path d="M44.8097 108.156H41.5306V111.392H44.8097V108.156Z" fill="black"/>
<path d="M48.0854 108.156H44.8063V111.392H48.0854V108.156Z" fill="black"/>
<path d="M57.9193 108.156H54.6402V111.392H57.9193V108.156Z" fill="black"/>
<path d="M67.7532 108.156H64.4741V111.392H67.7532V108.156Z" fill="black"/>
<path d="M71.0323 108.156H67.7532V111.392H71.0323V108.156Z" fill="black"/>
<path d="M74.3081 108.156H71.029V111.392H74.3081V108.156Z" fill="black"/>
<path d="M77.5872 108.156H74.3081V111.392H77.5872V108.156Z" fill="black"/>
<path d="M80.8629 108.156H77.5838V111.392H80.8629V108.156Z" fill="black"/>
<path d="M87.421 108.156H84.142V111.392H87.421V108.156Z" fill="black"/>
<path d="M90.6968 108.156H87.4177V111.392H90.6968V108.156Z" fill="black"/>
<path d="M93.9759 108.156H90.6968V111.392H93.9759V108.156Z" fill="black"/>
<path d="M97.2516 108.156H93.9725V111.392H97.2516V108.156Z" fill="black"/>
<path d="M100.531 108.156H97.2516V111.392H100.531V108.156Z" fill="black"/>
<path d="M103.81 108.156H100.531V111.392H103.81V108.156Z" fill="black"/>
<path d="M107.085 108.156H103.806V111.392H107.085V108.156Z" fill="black"/>
<path d="M110.365 108.156H107.085V111.392H110.365V108.156Z" fill="black"/>
<path d="M113.64 108.156H110.361V111.392H113.64V108.156Z" fill="black"/>
<path d="M120.198 108.156H116.919V111.392H120.198V108.156Z" fill="black"/>
<path d="M126.753 108.156H123.474V111.392H126.753V108.156Z" fill="black"/>
<path d="M34.9758 111.393H31.6967V114.628H34.9758V111.393Z" fill="black"/>
<path d="M38.2515 111.393H34.9724V114.628H38.2515V111.393Z" fill="black"/>
<path d="M41.5306 111.393H38.2515V114.628H41.5306V111.393Z" fill="black"/>
<path d="M44.8097 111.393H41.5306V114.628H44.8097V111.393Z" fill="black"/>
<path d="M51.3645 111.393H48.0854V114.628H51.3645V111.393Z" fill="black"/>
<path d="M54.6436 111.393H51.3645V114.628H54.6436V111.393Z" fill="black"/>
<path d="M57.9193 111.393H54.6402V114.628H57.9193V111.393Z" fill="black"/>
<path d="M61.1984 111.393H57.9193V114.628H61.1984V111.393Z" fill="black"/>
<path d="M77.5872 111.393H74.3081V114.628H77.5872V111.393Z" fill="black"/>
<path d="M84.1419 111.393H80.8629V114.628H84.1419V111.393Z" fill="black"/>
<path d="M90.6968 111.393H87.4177V114.628H90.6968V111.393Z" fill="black"/>
<path d="M103.81 111.393H100.531V114.628H103.81V111.393Z" fill="black"/>
<path d="M107.085 111.393H103.806V114.628H107.085V111.393Z" fill="black"/>
<path d="M113.64 111.393H110.361V114.628H113.64V111.393Z" fill="black"/>
<path d="M120.198 111.393H116.919V114.628H120.198V111.393Z" fill="black"/>
<path d="M126.753 111.393H123.474V114.628H126.753V111.393Z" fill="black"/>
<path d="M34.9758 114.627H31.6967V117.862H34.9758V114.627Z" fill="black"/>
<path d="M38.2515 114.627H34.9724V117.862H38.2515V114.627Z" fill="black"/>
<path d="M44.8097 114.627H41.5306V117.862H44.8097V114.627Z" fill="black"/>
<path d="M48.0854 114.627H44.8063V117.862H48.0854V114.627Z" fill="black"/>
<path d="M74.3081 114.627H71.029V117.862H74.3081V114.627Z" fill="black"/>
<path d="M77.5872 114.627H74.3081V117.862H77.5872V114.627Z" fill="black"/>
<path d="M80.8629 114.627H77.5838V117.862H80.8629V114.627Z" fill="black"/>
<path d="M87.421 114.627H84.142V117.862H87.421V114.627Z" fill="black"/>
<path d="M90.6968 114.627H87.4177V117.862H90.6968V114.627Z" fill="black"/>
<path d="M93.9759 114.627H90.6968V117.862H93.9759V114.627Z" fill="black"/>
<path d="M97.2516 114.627H93.9725V117.862H97.2516V114.627Z" fill="black"/>
<path d="M100.531 114.627H97.2516V117.862H100.531V114.627Z" fill="black"/>
<path d="M103.81 114.627H100.531V117.862H103.81V114.627Z" fill="black"/>
<path d="M120.198 114.627H116.919V117.862H120.198V114.627Z" fill="black"/>
<path d="M123.474 114.627H120.195V117.862H123.474V114.627Z" fill="black"/>
<path d="M126.753 114.627H123.474V117.862H126.753V114.627Z" fill="black"/>
<path d="M38.2515 117.859H34.9724V121.095H38.2515V117.859Z" fill="black"/>
<path d="M41.5306 117.859H38.2515V121.095H41.5306V117.859Z" fill="black"/>
<path d="M44.8097 117.859H41.5306V121.095H44.8097V117.859Z" fill="black"/>
<path d="M48.0854 117.859H44.8063V121.095H48.0854V117.859Z" fill="black"/>
<path d="M54.6436 117.859H51.3645V121.095H54.6436V117.859Z" fill="black"/>
<path d="M61.1984 117.859H57.9193V121.095H61.1984V117.859Z" fill="black"/>
<path d="M67.7532 117.859H64.4741V121.095H67.7532V117.859Z" fill="black"/>
<path d="M77.5872 117.859H74.3081V121.095H77.5872V117.859Z" fill="black"/>
<path d="M80.8629 117.859H77.5838V121.095H80.8629V117.859Z" fill="black"/>
<path d="M100.531 117.859H97.2516V121.095H100.531V117.859Z" fill="black"/>
<path d="M103.81 117.859H100.531V121.095H103.81V117.859Z" fill="black"/>
<path d="M113.64 117.859H110.361V121.095H113.64V117.859Z" fill="black"/>
<path d="M126.753 117.859H123.474V121.095H126.753V117.859Z" fill="black"/>
<path d="M34.9758 121.094H31.6967V124.329H34.9758V121.094Z" fill="black"/>
<path d="M38.2515 121.094H34.9724V124.329H38.2515V121.094Z" fill="black"/>
<path d="M48.0854 121.094H44.8063V124.329H48.0854V121.094Z" fill="black"/>
<path d="M51.3645 121.094H48.0854V124.329H51.3645V121.094Z" fill="black"/>
<path d="M54.6436 121.094H51.3645V124.329H54.6436V121.094Z" fill="black"/>
<path d="M64.4741 121.094H61.1951V124.329H64.4741V121.094Z" fill="black"/>
<path d="M87.421 121.094H84.142V124.329H87.421V121.094Z" fill="black"/>
<path d="M90.6968 121.094H87.4177V124.329H90.6968V121.094Z" fill="black"/>
<path d="M93.9759 121.094H90.6968V124.329H93.9759V121.094Z" fill="black"/>
<path d="M113.64 121.094H110.361V124.329H113.64V121.094Z" fill="black"/>
<path d="M116.919 121.094H113.64V124.329H116.919V121.094Z" fill="black"/>
<path d="M120.198 121.094H116.919V124.329H120.198V121.094Z" fill="black"/>
<path d="M123.474 121.094H120.195V124.329H123.474V121.094Z" fill="black"/>
<path d="M126.753 121.094H123.474V124.329H126.753V121.094Z" fill="black"/>
<path d="M24.9693 4.66797H8.90888H5.47412V8.05693V23.9033V27.2922H8.90888H24.9693H28.4041V23.9033V8.05693V4.66797H24.9693ZM24.9693 23.9033H8.90888V8.05693H24.9693V23.9033Z" fill="black"/>
<path d="M123.315 4.66797H107.255H103.82V8.05693V23.9033V27.2922H107.255H123.315H126.75V23.9033V8.05693V4.66797H123.315ZM123.315 23.9033H107.255V8.05693H123.315V23.9033Z" fill="black"/>
<path d="M24.9693 101.68H8.90888H5.47412V105.069V120.915V124.304H8.90888H24.9693H28.4041V120.938V105.092V101.703H24.9693V101.68ZM24.9693 120.938H8.90888V105.092H24.9693V120.938Z" fill="black"/>
<path d="M21.8628 11.1328H12.0255V20.8389H21.8628V11.1328Z" fill="black"/>
<path d="M120.195 11.1328H110.358V20.8389H120.195V11.1328Z" fill="black"/>
<path d="M21.8628 108.152H12.0255V117.858H21.8628V108.152Z" fill="black"/>
<path d="M84.316 49.8438H54.4643V79.2974H84.316V49.8438Z" fill="white"/>
<path d="M60.6038 56.176L69.7527 65.2029L60.7609 74.0986C60.6763 73.9436 60.6038 73.7766 60.5676 73.6097C60.5192 73.4427 60.5071 73.24 60.5071 73.0135V56.8914C60.5071 56.7603 60.5192 56.6291 60.5313 56.5099C60.5434 56.3906 60.5676 56.2714 60.6038 56.176ZM61.1839 55.377C61.474 55.1743 61.7882 55.0789 62.1145 55.0908C62.4408 55.1028 62.7672 55.2101 63.1176 55.4009L73.7531 61.2916L70.4658 64.5351L61.1839 55.377ZM70.4537 65.8945L73.4026 68.8279L63.1297 74.516C62.9364 74.6233 62.7551 74.6948 62.5738 74.7425C62.3925 74.7902 62.2112 74.8141 62.042 74.8141C61.9574 74.8141 61.8607 74.8022 61.764 74.7902C61.6674 74.7783 61.5828 74.7425 61.4861 74.7187L70.4537 65.8945ZM74.2969 68.339L71.1426 65.2029L74.6353 61.7805L77.7413 63.4738C78.0677 63.6646 78.3215 63.8912 78.5028 64.1416C78.672 64.4039 78.7686 64.6782 78.7686 64.9644C78.7686 65.2386 78.684 65.501 78.5028 65.7633C78.3336 66.0257 78.0798 66.2403 77.7413 66.4311L74.2969 68.339Z" fill="black"/>
</g>
<defs>
<clipPath id="clip0_614_12776">
<rect width="130.743" height="129" fill="white" transform="translate(0.743286)"/>
</clipPath>
</defs>
</svg>
