<svg width="2383" height="2819" viewBox="0 0 2383 2819" fill="none" xmlns="http://www.w3.org/2000/svg">
<path d="M1051.21 2192.59C1012.54 2238.71 982.642 2278.85 948.63 2314.79C804.627 2467.24 660.898 2619.99 513.055 2768.25C480.565 2793.72 442.929 2810.26 403.339 2816.47C353.143 2829.05 328.183 2792.81 297.736 2751.17C180.065 2591.24 158.123 2400.75 166.077 2212.06C172.111 2070.69 215.449 1928.42 257.416 1792.74C333.394 1546.24 421.99 1304.24 504.278 1060.44C512.213 1038.26 514.856 1014.25 511.959 990.652C491.621 1005.98 472.113 1022.58 453.535 1040.37C357.258 1144.3 262.901 1250.03 165.528 1353.06C74.1888 1448.9 35.2397 1436.02 8.08483 1302.74C0.0975699 1273.27 -2.00356 1242.27 1.92399 1211.84C5.85155 1181.4 15.7159 1152.24 30.8506 1126.33C172.659 906.49 309.531 682.456 458.472 467.407C555.022 328.734 669.402 205.036 775.552 74.4499C794.896 47.8362 820.22 27.145 849.061 14.3906C877.901 1.63632 909.275 -2.74672 940.127 1.66867C1012.54 10.654 1086.6 7.65886 1159.56 20.8373C1191.65 26.8275 1219.9 58.5756 1248.98 80.7394C1257.76 87.6281 1261.32 102.604 1270.1 110.69C1342.79 170.593 1364.46 221.809 1333.46 320.348C1265.71 535.995 1190.83 749.247 1119.24 963.397C1116.05 970.852 1114.4 978.98 1114.4 987.208C1114.4 995.436 1116.05 1003.56 1119.24 1011.02C1146.67 978.073 1174.1 946.324 1199.61 911.881C1334.83 728.58 1467.86 543.483 1604.73 361.68C1664.53 282.01 1732.01 208.93 1796.74 133.154C1861.47 57.3776 1950.62 68.7593 2034.82 76.8461C2094.34 82.5368 2153.59 92.72 2212.84 101.106C2216.68 101.106 2221.62 101.106 2224.36 101.106C2258.84 136.861 2296.2 169.139 2336 197.549C2394.69 232.292 2388.66 281.112 2370.01 332.029C2317.34 473.997 2264.68 615.965 2205.43 755.237C2065.82 1089.49 1917.43 1419.85 1829.93 1776.57C1793.17 1926.32 1766.02 2078.17 1732.28 2228.53C1710.58 2346.17 1655.38 2453.3 1574.56 2534.63C1523 2584.95 1490.36 2657.43 1445.92 2716.73C1424.31 2746.46 1398.25 2771.98 1368.84 2792.21C1299.72 2838.33 1259.13 2822.16 1219.63 2746.38C1186.44 2681.39 1139.54 2621.49 1120.06 2552C1088.79 2441.48 1075.35 2324.67 1051.21 2192.59Z" fill="#0E85F3"/>
</svg>
