<svg width="63" height="75" viewBox="0 0 63 75" fill="none" xmlns="http://www.w3.org/2000/svg">
<path d="M62.5158 38.4732C62.5472 38.862 62.5783 39.2487 62.6339 39.6282C62.8292 40.9566 62.8995 42.2694 62.8527 43.59C62.7589 46.6454 62.3838 49.6695 61.407 52.5686C58.1329 62.2661 51.6236 68.7128 42.1449 72.6668C35.7997 75.3081 26.4617 74.1594 25.438 73.964C20.0227 72.9169 15.2482 70.5648 11.052 67.0093C10.2393 66.3217 9.44225 65.6184 8.75459 64.7979C6.55879 62.649 4.86309 60.1328 3.47216 57.4056C3.02675 56.546 2.59696 55.6787 2.30783 54.7488C1.45608 52.9984 1.00285 51.1151 0.619956 49.2241C0.135473 46.8485 -0.0911407 44.4339 0.0338874 42.0115C0.119844 40.2924 0.252686 38.5811 0.57307 36.8932C0.68247 36.2993 0.987226 35.9164 1.58892 35.8226C2.22188 35.7289 2.65948 36.0102 2.93297 36.5806C3.85506 38.5029 4.94124 40.3393 6.23059 42.0428C6.25871 42.0793 6.28531 42.1177 6.31235 42.1566C6.4356 42.3342 6.56798 42.5249 6.8948 42.621C6.28529 41.1754 6.16807 39.6985 6.13682 38.2372C6.05868 34.0097 7.30114 30.126 9.30159 26.4534C10.6691 23.9372 12.3882 21.7023 14.6544 19.9206C15.7015 19.1001 16.8502 18.4203 18.1317 18.0061C18.1439 18.0025 18.1561 17.9988 18.1683 17.9951C18.4692 17.9044 18.775 17.8121 19.0303 18.0374C19.3273 18.3031 19.2335 18.6704 19.1397 18.9907C18.8115 20.0613 18.6084 21.1475 18.624 22.2727C18.6474 23.3667 19.2413 24.2185 20.2572 24.6248C21.2105 24.9999 22.2654 24.8045 22.9765 23.9762C24.6644 22.007 25.7271 19.694 26.3054 17.1935C27.501 12.0204 26.6258 7.19903 23.5782 2.81524C22.7968 1.68999 23.0781 0.400636 24.2346 0.0646235C25.3755 -0.263575 30.0328 0.72102 32.1583 1.60403C36.4796 3.13562 40.1679 5.67526 43.5436 8.70719C45.0205 9.94965 46.388 11.3093 47.6305 12.7784C49.2793 14.7242 50.7875 16.7481 52.1549 18.9204C54.1085 22.0383 55.5541 25.3203 56.2105 28.9227C56.5544 30.7981 56.7263 32.7204 56.6325 34.6427L56.6316 34.6655C56.6163 35.0483 56.6013 35.4239 56.6013 35.807C56.5934 36.6666 57.0154 37.362 57.6249 37.534C58.633 37.8153 59.3284 37.534 59.8442 36.6588C59.8637 36.6255 59.8829 36.5921 59.902 36.5586C60.0362 36.3245 60.1704 36.0903 60.4302 35.9399C61.1648 35.5179 62.0869 35.8539 62.2822 36.69C62.4194 37.2765 62.4678 37.8772 62.5158 38.4732Z" fill="url(#paint0_radial_205_3323)"/>
<path d="M4.43382 15.8886C6.91875 15.154 7.45794 16.2793 6.81717 17.3655C6.11389 18.561 5.6294 19.5925 6.69996 22.3041C7.18444 23.5231 6.89531 25.2813 5.62159 25.6486C2.37086 26.5941 0.370412 24.1326 0.190684 22.4369C-0.129701 19.9911 1.58162 16.7325 4.43382 15.8886Z" fill="url(#paint1_radial_205_3323)"/>
<defs>
<radialGradient id="paint0_radial_205_3323" cx="0" cy="0" r="1" gradientUnits="userSpaceOnUse" gradientTransform="translate(43.4219 52.0478) rotate(-97.1496) scale(42.2887 34.343)">
<stop stop-color="#FF5C00"/>
<stop offset="1" stop-color="#FFB700"/>
</radialGradient>
<radialGradient id="paint1_radial_205_3323" cx="0" cy="0" r="1" gradientUnits="userSpaceOnUse" gradientTransform="translate(43.4219 52.0478) rotate(-97.1496) scale(42.2887 34.343)">
<stop stop-color="#FF5C00"/>
<stop offset="1" stop-color="#FFB700"/>
</radialGradient>
</defs>
</svg>
