<svg width="214" height="43" viewBox="0 0 214 43" fill="none" xmlns="http://www.w3.org/2000/svg">
<path fill-rule="evenodd" clip-rule="evenodd" d="M0 17.6405C0.00181353 22.9981 1.70526 27.3183 5.11035 30.6013C8.51725 33.8861 13.8388 35.5285 21.0751 35.5285C28.3984 35.5303 33.8686 33.8987 37.4859 30.6336C41.1031 27.3685 42.9117 23.0375 42.9117 17.6405C42.9561 14.5044 42.1453 11.4143 40.5646 8.69521C38.998 6.03617 36.5748 3.92221 33.2948 2.35333C30.0148 0.784446 25.9416 5.9006e-06 21.0751 5.9006e-06C13.8388 -0.00358089 8.51725 1.62806 5.11035 4.89492C1.70345 8.16179 0 12.4103 0 17.6405ZM29.5198 17.7024C29.5162 19.8791 28.839 21.6156 27.4882 22.912C26.1338 24.2101 24.0831 24.8592 21.3362 24.8592C18.5838 24.8574 16.5731 24.2083 15.3039 22.912C14.0346 21.6156 13.4 19.8791 13.4 17.7024C13.4 15.6135 14.0346 13.9182 15.3039 12.6165C16.5731 11.3148 18.582 10.6639 21.3307 10.6639C24.0813 10.6675 26.1338 11.3291 27.4882 12.6488C28.8426 13.9685 29.5198 15.653 29.5198 17.7024Z" fill="#ffffff"/>
<path d="M72.048 12.1163C74.9273 12.1575 79.5399 12.2615 85.8859 12.4283L85.8832 0.62666H44.8155V12.4283C51.1651 12.2597 55.7569 12.1557 58.5909 12.1163V34.9019H72.048V12.1163Z" fill="#ffffff"/>
<path fill-rule="evenodd" clip-rule="evenodd" d="M164.739 25.9942H166.643V42.879H154.646V36.0315H134.588V43H122.589V25.9942H124.683C126.122 25.7844 127.21 25.2608 127.946 24.4235C128.683 23.5862 129.265 22.2056 129.692 20.2817C129.99 18.7755 130.138 15.1761 130.138 9.48324V0.62666L164.733 0.691206L164.739 25.9942ZM140.427 25.9942H152.614V11.2368H141.822V13.1195C141.781 15.549 141.717 17.4639 141.632 18.8643C141.508 20.5618 141.275 22.2498 140.933 23.9179C140.85 24.3787 140.681 25.0708 140.427 25.9942Z" fill="#ffffff"/>
<path fill-rule="evenodd" clip-rule="evenodd" d="M171.087 17.6405C171.085 22.9981 172.788 27.3183 176.197 30.6013C179.604 33.8861 184.922 35.5285 192.151 35.5285C199.463 35.5303 204.933 33.8987 208.559 30.6336C212.185 27.3685 213.998 23.0375 213.998 17.6405C214.043 14.504 213.231 11.4136 211.648 8.69521C210.084 6.03617 207.661 3.92221 204.381 2.35333C201.101 0.784446 197.028 5.9006e-06 192.162 5.9006e-06C184.925 -0.00358089 179.604 1.62806 176.197 4.89492C172.79 8.16179 171.087 12.4103 171.087 17.6405ZM200.604 17.7024C200.604 19.8791 199.926 21.6156 198.572 22.912C197.219 24.2101 195.163 24.8592 192.404 24.8592C189.653 24.8574 187.643 24.2083 186.374 22.912C185.105 21.6156 184.47 19.8791 184.47 17.7024C184.47 15.6135 185.105 13.9182 186.374 12.6165C187.643 11.3148 189.657 10.6639 192.415 10.6639C195.165 10.6675 197.218 11.3291 198.572 12.6488C199.926 13.9685 200.604 15.653 200.604 17.7024Z" fill="#ffffff"/>
<path d="M103.705 26.2225C103.348 26.6479 103.072 27.0181 102.758 27.3496C101.428 28.7557 100.101 30.1645 98.7366 31.5319C98.4366 31.7668 98.0891 31.9194 97.7236 31.9766C97.2602 32.0927 97.0298 31.7584 96.7487 31.3744C95.6624 29.8993 95.4598 28.1424 95.5332 26.4021C95.5889 25.0982 95.989 23.7861 96.3765 22.5347C97.0779 20.2612 97.8958 18.0292 98.6555 15.7806C98.7288 15.576 98.7532 15.3545 98.7264 15.1369C98.5387 15.2783 98.3586 15.4314 98.1871 15.5955C97.2982 16.554 96.4271 17.5292 95.5282 18.4794C94.6849 19.3634 94.3253 19.2446 94.0746 18.0154C94.0009 17.7435 93.9815 17.4576 94.0178 17.1769C94.054 16.8962 94.1451 16.6273 94.2848 16.3883C95.594 14.3607 96.8576 12.2944 98.2326 10.311C99.124 9.03196 100.18 7.89108 101.16 6.68666C101.339 6.4412 101.572 6.25036 101.839 6.13273C102.105 6.01509 102.394 5.97467 102.679 6.01539C103.348 6.09826 104.032 6.07064 104.705 6.19219C105.001 6.24743 105.262 6.54025 105.531 6.74467C105.612 6.80821 105.645 6.94633 105.726 7.02091C106.397 7.5734 106.597 8.04577 106.311 8.95461C105.685 10.9436 104.994 12.9104 104.333 14.8855C104.303 14.9543 104.288 15.0293 104.288 15.1051C104.288 15.181 104.303 15.256 104.333 15.3248C104.586 15.0209 104.839 14.7281 105.075 14.4104C106.323 12.7198 107.551 11.0126 108.815 9.33582C109.367 8.60102 109.99 7.92699 110.588 7.22809C111.185 6.5292 112.008 6.63418 112.786 6.70876C113.335 6.76125 113.882 6.85517 114.429 6.93252C114.465 6.93252 114.51 6.93252 114.535 6.93252C114.854 7.26228 115.199 7.55999 115.566 7.82202C116.108 8.14246 116.052 8.59273 115.88 9.06235C115.394 10.3717 114.908 11.6811 114.361 12.9656C113.072 16.0485 111.702 19.0955 110.894 22.3855C110.555 23.7667 110.304 25.1673 109.993 26.554C109.792 27.639 109.283 28.6271 108.536 29.3772C108.06 29.8413 107.759 30.5098 107.349 31.0568C107.149 31.3309 106.909 31.5663 106.637 31.7529C105.999 32.1783 105.624 32.0291 105.26 31.3302C104.953 30.7308 104.52 30.1783 104.34 29.5374C104.052 28.5181 103.928 27.4407 103.705 26.2225Z" fill="#FF5F19"/>
</svg>
