<svg width="766" height="636" viewBox="0 0 766 636" fill="none" xmlns="http://www.w3.org/2000/svg">
<path fill-rule="evenodd" clip-rule="evenodd" d="M0.222654 316.025C0.255005 411.775 30.6437 488.987 91.3888 547.662C152.166 606.368 247.1 635.721 376.192 635.721C506.836 635.753 604.422 606.592 668.952 548.239C733.481 489.885 765.746 412.48 765.746 316.025C766.538 259.975 752.074 204.749 723.875 156.152C695.928 108.629 652.698 70.8484 594.185 42.8092C535.672 14.7697 463.007 0.750109 376.192 0.750108C247.1 0.686004 152.166 29.8469 91.3888 88.2328C30.6114 146.619 0.222654 222.549 0.222654 316.025ZM526.841 317.13C526.777 356.033 514.696 387.068 490.598 410.237C466.436 433.437 429.853 445.038 380.849 445.038C331.749 445.006 295.878 433.405 273.236 410.237C250.594 387.068 239.273 356.033 239.273 317.13C239.273 279.798 250.594 249.499 273.236 226.235C295.878 202.97 331.717 191.338 380.752 191.338C429.821 191.402 466.436 203.226 490.598 226.811C514.76 250.396 526.841 280.503 526.841 317.13Z" fill="#00A7FF"/>
</svg>
