<svg id="Layer_1" data-name="Layer 1" xmlns="http://www.w3.org/2000/svg" viewBox="0 0 87.36 26.57">
  <defs>
    <style>
      .cls-1 {
        fill: #fff;
      }

      .cls-2 {
        fill: #00a7ff;
      }
    </style>
  </defs>
  <g>
    <rect class="cls-1" width="87.36" height="26.57" rx="3.38"/>
    <g>
      <path class="cls-2" d="M28.63,16.05h1.22v2.76a3.93,3.93,0,0,1-1.25.66,4.8,4.8,0,0,1-1.47.22,3.94,3.94,0,0,1-1.91-.46A3.32,3.32,0,0,1,23.89,18a3.44,3.44,0,0,1-.49-1.83,3.5,3.5,0,0,1,.49-1.84A3.42,3.42,0,0,1,25.23,13a4.06,4.06,0,0,1,1.92-.46,4.25,4.25,0,0,1,1.59.29,3.18,3.18,0,0,1,1.2.84l-.81.79a2.61,2.61,0,0,0-1.92-.79,2.66,2.66,0,0,0-1.3.31,2.17,2.17,0,0,0-.89.86,2.64,2.64,0,0,0,0,2.52,2.26,2.26,0,0,0,.89.87,2.62,2.62,0,0,0,1.29.31,2.76,2.76,0,0,0,1.43-.35Z"/>
      <path class="cls-2" d="M32.35,19.32a2.59,2.59,0,0,1-1-1,2.9,2.9,0,0,1,0-2.8,2.56,2.56,0,0,1,1-1,3.28,3.28,0,0,1,2.91,0,2.5,2.5,0,0,1,1,1,2.9,2.9,0,0,1,0,2.8,2.52,2.52,0,0,1-1,1,3.28,3.28,0,0,1-2.91,0Zm2.58-1.17a1.65,1.65,0,0,0,.45-1.2,1.62,1.62,0,0,0-.45-1.2,1.52,1.52,0,0,0-1.13-.45,1.5,1.5,0,0,0-1.12.45,1.62,1.62,0,0,0-.44,1.2,1.65,1.65,0,0,0,.44,1.2,1.5,1.5,0,0,0,1.12.45A1.52,1.52,0,0,0,34.93,18.15Z"/>
      <path class="cls-2" d="M38.74,19.32a2.52,2.52,0,0,1-1-1,2.9,2.9,0,0,1,0-2.8,2.5,2.5,0,0,1,1-1,3,3,0,0,1,1.45-.34,3.05,3.05,0,0,1,1.46.34,2.56,2.56,0,0,1,1,1,2.9,2.9,0,0,1,0,2.8,2.59,2.59,0,0,1-1,1,3.05,3.05,0,0,1-1.46.34A3,3,0,0,1,38.74,19.32Zm2.58-1.17a1.65,1.65,0,0,0,.44-1.2,1.62,1.62,0,0,0-.44-1.2,1.52,1.52,0,0,0-1.13-.45,1.48,1.48,0,0,0-1.12.45,1.62,1.62,0,0,0-.45,1.2,1.65,1.65,0,0,0,.45,1.2,1.48,1.48,0,0,0,1.12.45A1.52,1.52,0,0,0,41.32,18.15Z"/>
      <path class="cls-2" d="M49.45,14.3v4.49c0,1.86-1,2.8-2.85,2.8a5.29,5.29,0,0,1-1.45-.2A3.07,3.07,0,0,1,44,20.83l.56-.93a2.56,2.56,0,0,0,.87.46,3.4,3.4,0,0,0,1.08.18,1.8,1.8,0,0,0,1.28-.4,1.64,1.64,0,0,0,.4-1.21v-.28a2.08,2.08,0,0,1-.77.53,2.7,2.7,0,0,1-1,.18A2.79,2.79,0,0,1,45.08,19a2.32,2.32,0,0,1-1-.9,2.51,2.51,0,0,1-.35-1.34,2.47,2.47,0,0,1,.35-1.33,2.32,2.32,0,0,1,1-.9,3.12,3.12,0,0,1,2.4-.13,1.92,1.92,0,0,1,.79.58V14.3Zm-1.67,3.59a1.45,1.45,0,0,0,.45-1.1,1.41,1.41,0,0,0-.45-1.08,1.61,1.61,0,0,0-1.15-.41,1.64,1.64,0,0,0-1.17.41A1.41,1.41,0,0,0,45,16.79a1.45,1.45,0,0,0,.45,1.1,1.65,1.65,0,0,0,1.17.42A1.61,1.61,0,0,0,47.78,17.89Z"/>
      <path class="cls-2" d="M51.07,12.24h1.24v7.35H51.07Z"/>
      <path class="cls-2" d="M58.89,17.35H54.74a1.41,1.41,0,0,0,.57.92,1.86,1.86,0,0,0,1.14.34A2,2,0,0,0,57.89,18l.66.76a2.2,2.2,0,0,1-.9.65,3.37,3.37,0,0,1-1.23.21,3.25,3.25,0,0,1-1.53-.34,2.54,2.54,0,0,1-1-1A2.73,2.73,0,0,1,53.5,17a2.79,2.79,0,0,1,.35-1.39,2.54,2.54,0,0,1,1-1,2.83,2.83,0,0,1,1.41-.34,2.77,2.77,0,0,1,1.38.34,2.44,2.44,0,0,1,1,1A2.88,2.88,0,0,1,58.91,17C58.91,17.07,58.9,17.19,58.89,17.35Zm-3.66-1.76a1.47,1.47,0,0,0-.5.93h3a1.45,1.45,0,0,0-.48-.93,1.48,1.48,0,0,0-1-.35A1.46,1.46,0,0,0,55.23,15.59Z"/>
      <path class="cls-2" d="M67.37,13a2.29,2.29,0,0,1,1,.85,2.58,2.58,0,0,1,0,2.63,2.31,2.31,0,0,1-1,.86,4,4,0,0,1-1.57.29H64.24v2H63V12.66H65.8A3.79,3.79,0,0,1,67.37,13ZM67,16.15a1.25,1.25,0,0,0,.44-1,1.23,1.23,0,0,0-.44-1,2,2,0,0,0-1.28-.36h-1.5V16.5h1.5A2,2,0,0,0,67,16.15Z"/>
      <path class="cls-2" d="M70,12.24h1.24v7.35H70Z"/>
      <path class="cls-2" d="M76.69,14.81a2.12,2.12,0,0,1,.62,1.68v3.1H76.14V19a1.4,1.4,0,0,1-.64.53,2.59,2.59,0,0,1-1,.18,2.41,2.41,0,0,1-1-.2,1.55,1.55,0,0,1-.69-.56,1.48,1.48,0,0,1-.24-.82A1.42,1.42,0,0,1,73,16.93a2.67,2.67,0,0,1,1.67-.43h1.37v-.08a1.09,1.09,0,0,0-.34-.85,1.42,1.42,0,0,0-1-.29,2.93,2.93,0,0,0-.88.13,2.41,2.41,0,0,0-.73.39l-.48-.9a3.22,3.22,0,0,1,1-.49,4.53,4.53,0,0,1,1.24-.16A2.52,2.52,0,0,1,76.69,14.81Zm-1.12,3.74a1.18,1.18,0,0,0,.51-.61v-.61H74.8c-.72,0-1.07.23-1.07.7a.62.62,0,0,0,.27.53,1.14,1.14,0,0,0,.74.2A1.65,1.65,0,0,0,75.57,18.55Z"/>
      <path class="cls-2" d="M83.75,14.3,81.28,20a2.72,2.72,0,0,1-.85,1.21,2,2,0,0,1-1.2.36,2.66,2.66,0,0,1-.78-.13,1.74,1.74,0,0,1-.63-.36l.49-.91a1.51,1.51,0,0,0,.42.27,1.47,1.47,0,0,0,.5.09.84.84,0,0,0,.53-.16,1.46,1.46,0,0,0,.4-.57l.09-.21L77.94,14.3h1.29l1.66,3.92,1.67-3.92Z"/>
    </g>
    <g>
      <path class="cls-2" d="M21,12.94,17.69,11,15,13.67l2.51,2.42L21,14a.61.61,0,0,0,.31-.54A.62.62,0,0,0,21,12.94Z"/>
      <polygon class="cls-2" points="17.13 10.7 13.46 8.58 5.44 4.47 14.5 13.23 17.13 10.7"/>
      <polygon class="cls-2" points="5.57 22.74 13.48 18.39 16.89 16.41 14.5 14.11 5.57 22.74"/>
      <polygon class="cls-2" points="4.9 4.82 4.89 22.52 14.05 13.67 4.9 4.82"/>
    </g>
    <g>
      <path class="cls-2" d="M28.34,9.66H28l-.17-.81H24l-.16.81h-.31V8.45H24l1.71-4h.5l1.72,4h.45Zm-.92-1.21L25.92,5l-1.49,3.5Z"/>
      <path class="cls-2" d="M31.8,7.23a1.63,1.63,0,0,1-1.66,1.7,1.68,1.68,0,0,1-1.74-1.7,1.67,1.67,0,0,1,1.73-1.71A1.65,1.65,0,0,1,31.8,7.23Zm-2.95,0a1.24,1.24,0,0,0,1.28,1.29,1.2,1.2,0,0,0,1.22-1.28,1.25,1.25,0,1,0-2.5,0Z"/>
      <path class="cls-2" d="M35.67,7.89a1.89,1.89,0,0,1-.53.69A1.78,1.78,0,0,1,32.3,7.21a1.75,1.75,0,0,1,3.36-.63h-.49a1.3,1.3,0,1,0-1.11,1.94,1.26,1.26,0,0,0,1.11-.63Z"/>
      <path class="cls-2" d="M37.17,6V8.85h-.44V6h-.86V5.6H38V6Z"/>
      <path class="cls-2" d="M39.4,8.74,38.14,5.6h.48l1,2.59,1.1-2.59h.47L39.34,10h-.47Z"/>
      <path class="cls-2" d="M44,8.85V6H42.09V8.85h-.44V5.6h2.8V8.85Z"/>
      <path class="cls-2" d="M47.6,8.85V7.39h-2V8.85H45.2V5.6h.44V7h2V5.6H48V8.85Z"/>
      <path class="cls-2" d="M52.06,7.23a1.63,1.63,0,0,1-1.66,1.7,1.68,1.68,0,0,1-1.74-1.7,1.67,1.67,0,0,1,1.73-1.71A1.65,1.65,0,0,1,52.06,7.23Zm-3,0a1.24,1.24,0,0,0,1.28,1.29,1.2,1.2,0,0,0,1.22-1.28,1.25,1.25,0,1,0-2.5,0Z"/>
      <path class="cls-2" d="M56.32,7.1a.81.81,0,0,1,.61.78c0,.55-.49,1-1.2,1H54.34V5.6h1.3c.69,0,1.13.31,1.13.85A.74.74,0,0,1,56.32,7.1ZM55.57,6h-.79v1h.79c.45,0,.77-.15.77-.49S56,6,55.57,6Zm-.79,2.46h.84c.48,0,.87-.15.87-.57s-.39-.54-.87-.54h-.84Z"/>
    </g>
  </g>
</svg>
