<svg id="Layer_1" data-name="Layer 1" xmlns="http://www.w3.org/2000/svg" viewBox="0 0 87.36 26.57">
  <defs>
    <style>
      .cls-1 {
        fill: #fff;
      }

      .cls-2 {
        fill: #00a7ff;
      }
    </style>
  </defs>
  <g>
    <rect class="cls-1" width="87.36" height="26.57" rx="3.38"/>
    <g>
      <path class="cls-2" d="M7.94,10.86c-1.42,2.45-.52,6.19,1,8.45.78,1.13,1.58,2.15,2.66,2.15h.06A3.36,3.36,0,0,0,13,21.13a3.37,3.37,0,0,1,1.46-.35,3.27,3.27,0,0,1,1.39.33,2.72,2.72,0,0,0,1.33.32c1.22,0,2-1.11,2.64-2.08A9.4,9.4,0,0,0,20.92,17v0a.14.14,0,0,0-.08-.17h0a3.52,3.52,0,0,1-2.12-3.21,3.6,3.6,0,0,1,1.7-3h0a.15.15,0,0,0,.06-.09.22.22,0,0,0,0-.11,4,4,0,0,0-3.12-1.69h-.27a5.38,5.38,0,0,0-2,.49,3.13,3.13,0,0,1-.94.28,2.92,2.92,0,0,1-1-.29,4.73,4.73,0,0,0-1.71-.43h0A4.2,4.2,0,0,0,7.94,10.86Z"/>
      <path class="cls-2" d="M17.36,4.69A3.84,3.84,0,0,0,14.83,6a3.6,3.6,0,0,0-.91,2.66.15.15,0,0,0,.13.12h.18a3.21,3.21,0,0,0,2.38-1.22,3.77,3.77,0,0,0,.89-2.73A.14.14,0,0,0,17.36,4.69Z"/>
    </g>
    <g>
      <path class="cls-2" d="M31.72,18H28.17l-.7,1.64H26.11l3.2-7.09H30.6l3.21,7.09H32.43Zm-.44-1-1.34-3.1-1.32,3.1Z"/>
      <path class="cls-2" d="M39,14.47a2.47,2.47,0,0,1,1,1,3.18,3.18,0,0,1,0,2.9,2.5,2.5,0,0,1-1,1,2.89,2.89,0,0,1-1.41.35,2.23,2.23,0,0,1-1.74-.73v2.62H34.59V14.18h1.2v.71a2,2,0,0,1,.78-.58,2.73,2.73,0,0,1,1-.19A2.89,2.89,0,0,1,39,14.47Zm-.41,3.64a1.86,1.86,0,0,0,0-2.45,1.52,1.52,0,0,0-1.15-.46,1.63,1.63,0,0,0-.82.2,1.5,1.5,0,0,0-.57.6,1.7,1.7,0,0,0-.22.89,1.73,1.73,0,0,0,.22.89,1.47,1.47,0,0,0,.57.59,1.64,1.64,0,0,0,.82.21A1.49,1.49,0,0,0,38.59,18.11Z"/>
      <path class="cls-2" d="M46,14.47a2.47,2.47,0,0,1,1,1,3.1,3.1,0,0,1,0,2.9,2.5,2.5,0,0,1-1,1,2.83,2.83,0,0,1-1.41.35,2.19,2.19,0,0,1-1.73-.73v2.62H41.54V14.18h1.2v.71a2,2,0,0,1,.78-.58,2.8,2.8,0,0,1,1-.19A2.83,2.83,0,0,1,46,14.47Zm-.4,3.64a1.89,1.89,0,0,0,0-2.45,1.54,1.54,0,0,0-1.15-.46,1.58,1.58,0,0,0-.82.2A1.46,1.46,0,0,0,43,16a1.8,1.8,0,0,0-.21.89,1.83,1.83,0,0,0,.21.89,1.43,1.43,0,0,0,.58.59,1.59,1.59,0,0,0,.82.21A1.51,1.51,0,0,0,45.55,18.11Z"/>
      <path class="cls-2" d="M52,19.46a3.2,3.2,0,0,1-1.21-.62l.46-1a3.49,3.49,0,0,0,1.07.56,3.73,3.73,0,0,0,1.27.22,2.18,2.18,0,0,0,1.18-.25.77.77,0,0,0,.39-.67.63.63,0,0,0-.22-.5,1.47,1.47,0,0,0-.55-.31c-.22-.08-.53-.16-.91-.26a9,9,0,0,1-1.31-.38,2.2,2.2,0,0,1-.87-.6A1.65,1.65,0,0,1,51,14.52a1.9,1.9,0,0,1,.32-1.07,2.24,2.24,0,0,1,1-.77,3.87,3.87,0,0,1,1.57-.28,5,5,0,0,1,1.28.16,3.33,3.33,0,0,1,1.08.47l-.41,1a4.59,4.59,0,0,0-1-.42,3.87,3.87,0,0,0-1-.14,2,2,0,0,0-1.16.27.82.82,0,0,0-.38.7.61.61,0,0,0,.22.49,1.61,1.61,0,0,0,.55.31c.22.07.53.16.91.25a9.64,9.64,0,0,1,1.3.38,2.2,2.2,0,0,1,.87.6,1.6,1.6,0,0,1,.36,1.1,1.89,1.89,0,0,1-.32,1.06,2.16,2.16,0,0,1-1,.76,3.91,3.91,0,0,1-1.58.29A5.28,5.28,0,0,1,52,19.46Z"/>
      <path class="cls-2" d="M60.92,19.3a1.49,1.49,0,0,1-.55.27,2.41,2.41,0,0,1-.67.1,1.94,1.94,0,0,1-1.38-.47,1.8,1.8,0,0,1-.48-1.36v-2.6h-.9v-1h.9V13H59.1v1.23h1.45v1H59.1v2.57a.83.83,0,0,0,.2.6.69.69,0,0,0,.55.21,1.1,1.1,0,0,0,.71-.22Z"/>
      <path class="cls-2" d="M62.73,19.31a2.65,2.65,0,0,1-1-1,2.95,2.95,0,0,1,0-2.86,2.56,2.56,0,0,1,1-1,3.24,3.24,0,0,1,3,0,2.56,2.56,0,0,1,1,1,2.95,2.95,0,0,1,0,2.86,2.65,2.65,0,0,1-1,1,3.24,3.24,0,0,1-3,0Zm2.64-1.2a1.89,1.89,0,0,0,0-2.45,1.56,1.56,0,0,0-1.16-.46,1.52,1.52,0,0,0-1.15.46,1.89,1.89,0,0,0,0,2.45,1.49,1.49,0,0,0,1.15.47A1.53,1.53,0,0,0,65.37,18.11Z"/>
      <path class="cls-2" d="M71.45,14.12v1.21l-.3,0a1.52,1.52,0,0,0-1.15.43A1.69,1.69,0,0,0,69.58,17v2.62H68.32V14.18h1.2V15A2.12,2.12,0,0,1,71.45,14.12Z"/>
      <path class="cls-2" d="M77.54,17.29H73.29a1.47,1.47,0,0,0,.59.95,1.91,1.91,0,0,0,1.17.35A2,2,0,0,0,76.52,18l.67.78a2.29,2.29,0,0,1-.92.66,3.59,3.59,0,0,1-2.83-.13,2.55,2.55,0,0,1-1-1A2.75,2.75,0,0,1,72,16.89a2.87,2.87,0,0,1,.36-1.43,2.52,2.52,0,0,1,1-1,3.06,3.06,0,0,1,2.86,0,2.47,2.47,0,0,1,1,1,3,3,0,0,1,.35,1.47C77.56,17,77.55,17.13,77.54,17.29Zm-3.75-1.8a1.51,1.51,0,0,0-.51,1h3.07a1.49,1.49,0,0,0-.49-.95,1.65,1.65,0,0,0-2.07,0Z"/>
    </g>
    <g>
      <path class="cls-2" d="M30.69,8.17a2.16,2.16,0,0,1-2,1.23,2.24,2.24,0,0,1-2.31-2.26,2.22,2.22,0,0,1,2.28-2.29,2.15,2.15,0,0,1,2,1.22h-.5a1.39,1.39,0,0,0-.5-.54,1.89,1.89,0,0,0-1-.28,1.83,1.83,0,0,0-1.85,1.87A1.87,1.87,0,0,0,28.68,9a1.74,1.74,0,0,0,1.11-.38,2.59,2.59,0,0,0,.42-.44Z"/>
      <path class="cls-2" d="M31.77,6.07V7.52l1.49-1.45h.57L32.2,7.64l1.63,1.68h-.58L31.77,7.79V9.32h-.44V6.07Z"/>
      <path class="cls-2" d="M37.44,9.32H37V8.75a1.4,1.4,0,0,1-1.25.65,1.71,1.71,0,1,1,0-3.41A1.43,1.43,0,0,1,37,6.64V6.07h.44Zm-3-1.64A1.29,1.29,0,0,0,35.74,9a1.3,1.3,0,1,0-1.29-1.31Z"/>
      <path class="cls-2" d="M40.56,9.32h-.45V8a7.57,7.57,0,0,1-1,.06,1.25,1.25,0,0,1-.63-.18,1,1,0,0,1-.37-.85v-1h.44v1c0,.5.19.63.91.63a3.85,3.85,0,0,0,.67,0V6.07h.45Z"/>
      <path class="cls-2" d="M44.62,9.32h-.44V8.75a1.4,1.4,0,0,1-1.25.65A1.71,1.71,0,1,1,42.9,6a1.43,1.43,0,0,1,1.28.65V6.07h.44Zm-3-1.64A1.29,1.29,0,0,0,42.93,9a1.3,1.3,0,1,0-1.3-1.31Z"/>
      <path class="cls-2" d="M46.37,6.46V9.32h-.44V6.46h-.86V6.07h2.14v.39Z"/>
      <path class="cls-2" d="M50.18,8.34a1,1,0,0,1-1.12,1h-1.4V6.07h.44v1.3h1A1,1,0,0,1,50.18,8.34Zm-2.08.58h.84c.54,0,.79-.2.79-.58s-.25-.57-.79-.57H48.1Z"/>
      <path class="cls-2" d="M54.33,7.57a.81.81,0,0,1,.6.78c0,.55-.48,1-1.2,1H52.34V6.07h1.3c.69,0,1.13.3,1.13.85A.75.75,0,0,1,54.33,7.57Zm-.76-1.11h-.79v1h.79c.45,0,.78-.15.78-.49S54,6.46,53.57,6.46Zm-.79,2.46h.84c.49,0,.87-.15.87-.57s-.38-.54-.87-.54h-.84Z"/>
    </g>
  </g>
</svg>
