<svg width="2065" height="1702" viewBox="0 0 2065 1702" fill="none" xmlns="http://www.w3.org/2000/svg">
<path fill-rule="evenodd" clip-rule="evenodd" d="M6.92873e-05 845.073C-0.0869983 1101.73 81.8839 1308.69 245.911 1465.96C409.852 1623.32 665.752 1702 1013.61 1702C1365.49 1702.09 1628.67 1623.92 1803.17 1467.51C1977.67 1311.09 2064.92 1103.62 2064.92 845.073C2067.07 694.817 2028.01 546.772 1951.84 416.546C1876.54 289.164 1759.98 187.894 1602.15 112.737C1444.32 37.579 1248.31 0.000282669 1014.14 0.000282669C665.926 -0.171543 409.852 77.9923 245.911 234.492C81.971 390.992 6.92873e-05 594.519 6.92873e-05 845.073ZM1420.37 848.037C1420.37 952.313 1387.78 1035.5 1322.6 1097.6C1257.52 1159.79 1158.58 1190.88 1025.78 1190.88C893.427 1190.8 796.712 1159.7 735.638 1097.6C674.563 1035.5 644.027 952.313 644.027 848.037C644.027 747.97 674.563 666.756 735.638 604.397C796.712 542.037 893.601 510.858 1026.31 510.858C1158.66 511.03 1257.43 542.725 1322.6 605.943C1387.78 669.161 1420.37 749.859 1420.37 848.037Z" fill="#0F1E54" fill-opacity="0.03"/>
</svg>
