<svg width="29" height="32" viewBox="0 0 29 32" fill="none" xmlns="http://www.w3.org/2000/svg">
<rect width="29" height="32" fill="#FBFBFD"/>
<path d="M21.2812 3.69712C21.2975 3.67907 21.3033 3.65387 21.2961 3.63061C21.2892 3.60797 21.2711 3.59038 21.2483 3.584C19.8372 3.18944 18.4449 3.04186 17.1241 3.87627C17.0566 3.91888 16.9804 3.85867 17.0252 3.79261C17.1532 3.61214 17.2881 3.43563 17.4158 3.25595C17.4169 3.2539 17.418 3.25183 17.4191 3.24977C17.4644 3.16585 17.4237 3.06217 17.3315 3.0378C17.1805 3.01706 17.0285 3.00461 16.8761 3.00052C15.4879 2.98187 14.2775 3.46935 13.2307 4.4082C13.0165 4.59997 12.8152 4.80701 12.608 5.00761C12.6008 5.01457 12.5898 5.01576 12.5813 5.01053C12.5716 5.00457 12.5681 4.99217 12.5732 4.982C12.6598 4.80971 12.7465 4.6374 12.8341 4.46342C13.0665 4.00164 12.6976 3.48854 12.2034 3.64013C12.0704 3.68092 11.9394 3.72481 11.8092 3.77079C10.4548 4.24845 9.25486 4.96092 8.28624 6.03544C8.17221 6.16194 7.93328 6.04147 7.97874 5.87734C7.99487 5.8191 8.01118 5.7602 8.02772 5.70049C8.04351 5.64345 7.98584 5.59652 7.93666 5.62946C7.6699 5.85435 7.39628 6.06933 7.14324 6.30851C5.72103 7.65233 4.76413 9.30276 4.19402 11.2027C3.73672 12.7218 3.53741 14.2858 3.49435 15.8696C3.46348 16.9988 3.48787 18.1304 3.48749 19.2601C3.48749 20.112 3.48749 20.9638 3.48749 21.8152C3.48749 21.901 3.58614 21.9435 3.63542 21.8733C3.64613 21.858 3.65616 21.8422 3.66546 21.8259C4.46574 20.5384 5.2885 19.2672 6.20691 18.0662C6.32669 17.9204 6.38856 17.7326 6.37993 17.541C6.35592 16.8596 6.37993 16.1801 6.50111 15.5074C6.74626 14.1475 7.18286 12.8326 7.7968 11.6053C7.99189 11.2108 8.2108 10.8271 8.41939 10.4416C8.42623 10.429 8.44191 10.4241 8.4547 10.4307C8.46675 10.4368 8.47219 10.4511 8.46741 10.4638C8.44356 10.5268 8.42094 10.5908 8.39434 10.6529C7.89207 11.8206 7.47974 13.0181 7.2629 14.2826C7.128 15.0533 7.04797 15.8267 7.07579 16.6097C7.07588 16.6124 7.07602 16.615 7.07619 16.6177C7.08271 16.7175 7.22442 16.75 7.28843 16.6732C8.16795 15.6129 9.09995 14.601 10.0806 13.6416C10.1515 13.5685 10.2024 13.477 10.2281 13.3767C10.3524 12.9059 10.4461 12.4247 10.5848 11.9591C10.9543 10.6978 11.5398 9.51637 12.313 8.47179C12.4948 8.22718 12.6977 7.9994 12.8918 7.76447C12.9014 7.75291 12.9185 7.75117 12.9301 7.76061C12.9414 7.76974 12.9436 7.78608 12.9351 7.79785C12.4161 8.51984 11.9888 9.30854 11.6637 10.1444C11.3619 10.9236 11.1173 11.7201 10.9948 12.592C10.9831 12.6747 11.0779 12.7356 11.1427 12.6829C12.0558 11.9804 12.9682 11.277 13.8801 10.5728C13.9756 10.497 14.0597 10.4066 14.1293 10.3047C14.9528 9.11991 15.9013 8.06087 17.0255 7.17795C17.106 7.11467 17.1897 7.05577 17.2716 6.99504C17.2832 6.98642 17.2993 6.98795 17.3085 6.99916C17.3175 7.01025 17.3165 7.0268 17.306 7.03651C16.8425 7.46413 16.4118 7.92762 16.0174 8.42263C15.73 8.78345 16.1336 9.22683 16.5496 9.02737C17.0965 8.7651 17.6485 8.52556 18.207 8.31927C18.4984 8.21166 18.5751 8.45623 18.2907 8.58127C18.1339 8.64952 17.9785 8.72122 17.8247 8.79631C17.2439 9.07986 17.4633 9.94774 18.0743 10.1586C18.6635 10.3619 19.2179 10.665 19.7309 11.0897C19.7592 11.1131 19.7419 11.1462 19.7126 11.1241C18.4897 10.3594 17.1707 10.1218 15.7737 10.382C15.4307 10.4459 15.0496 10.5232 14.7768 10.7259C14.0176 11.288 13.2978 11.9083 12.579 12.5267C12.258 12.8027 12.5597 13.3679 12.9817 13.3346C14.1856 13.2396 15.3622 13.4023 16.5107 13.9168C16.5611 13.9394 16.544 13.995 16.4913 13.9784C15.8941 13.8118 15.2882 13.7007 14.6685 13.7051C13.2753 13.7106 11.9689 14.0807 10.7411 14.7538C10.4072 14.9371 10.0669 15.1108 9.82036 15.4388C9.35125 16.0631 8.85583 16.6652 8.37833 17.2828C8.1777 17.5405 8.42769 17.9028 8.74532 17.8269C9.21649 17.7143 9.68356 17.6053 10.1542 17.518C10.924 17.3752 11.7109 17.3883 12.4899 17.4764C13.2319 17.5602 13.9546 17.7363 14.6345 18.0655C14.6658 18.0806 14.6571 18.1161 14.6243 18.1046C13.5378 17.7893 12.4369 17.7477 11.323 17.9012C10.3634 18.0325 9.45681 18.351 8.57231 18.7361C7.82195 19.0633 7.12418 19.4794 6.60667 20.1569C6.25836 20.6114 5.90014 21.058 5.56441 21.5225C4.85923 22.4857 4.28689 23.5468 3.86401 24.675C3.39527 25.9443 3.13994 27.2603 3.00542 28.6065C2.99468 28.7142 3.00286 28.8236 3.00496 28.9485C3.00529 28.9677 3.03964 28.9806 3.04339 28.9618C3.04392 28.9591 3.04405 28.959 3.04507 28.9565C3.0762 28.8784 3.10765 28.8004 3.13689 28.7224C3.47923 27.772 4.01795 26.9115 4.71497 26.2017C5.59718 25.3053 6.63678 24.7305 7.87073 24.5977C8.60813 24.5183 9.35201 24.5021 10.0925 24.4497C11.4617 24.3533 12.8222 24.1836 14.1647 23.8794C14.3586 23.8354 14.548 23.7715 14.7391 23.7153C14.758 23.7098 14.771 23.6925 14.771 23.6728C14.771 23.6572 14.7629 23.6428 14.7495 23.6348L14.0165 23.1962C13.9124 23.1339 13.9425 23.0118 14.0637 23.0159C14.5005 23.0297 14.9021 22.8866 15.2927 22.7037C16.4448 22.1623 17.4367 21.3718 18.3936 20.5285C18.5785 20.3655 18.5689 20.3302 18.3555 20.2112C18.1393 20.0891 18.173 19.7535 18.3954 19.643C19.0438 19.3205 19.5554 18.8421 20.0323 18.3133C20.5455 17.7441 20.9903 17.127 21.4045 16.4528C21.5258 16.2552 21.4015 16.0009 21.1718 15.9694L20.8538 15.9259C20.8176 15.9209 20.7945 15.8832 20.8186 15.8556C20.8339 15.838 20.8526 15.8239 20.8733 15.814C21.2845 15.6328 21.629 15.3543 21.9343 15.0208C22.7913 14.0882 23.4079 12.9899 23.943 11.8369C23.9773 11.763 23.884 11.6892 23.8044 11.707L23.5178 11.7712C23.4869 11.7782 23.4395 11.7441 23.4621 11.7219C23.9769 11.1876 24.3446 10.5518 24.6648 9.87829C25.2333 8.68201 25.6312 7.42228 25.9814 6.14311C26.0271 5.97692 25.9917 5.86546 25.8396 5.78613C25.1202 5.40853 24.414 5.00157 23.6816 4.65491C23.0749 4.36109 22.421 4.18757 21.7533 4.14324C21.6586 4.13853 21.564 4.13925 21.4698 4.14533C21.2792 4.15761 21.1114 3.88514 21.2394 3.74342L21.2812 3.69712Z" fill="url(#paint0_radial_357_3316)"/>
<path d="M15.7173 9.48263C15.7287 9.47013 15.7327 9.45265 15.7277 9.43652C15.7229 9.42088 15.7104 9.40874 15.6946 9.40435C14.7128 9.13113 13.7441 9.02892 12.8251 9.60687C12.7782 9.63633 12.7255 9.59448 12.7566 9.54873C12.8457 9.42379 12.9395 9.30159 13.0284 9.1772C13.0291 9.17588 13.0298 9.17457 13.0305 9.17325C13.0621 9.11505 13.0338 9.04302 12.9698 9.02617C12.8647 9.01181 12.7589 9.00319 12.653 9.00036C11.6872 8.98745 10.8452 9.32493 10.117 9.97491C9.96801 10.1077 9.82795 10.251 9.68381 10.3899C9.67882 10.3947 9.67122 10.3955 9.66531 10.3919C9.65855 10.3878 9.65609 10.3792 9.65967 10.3721C9.72001 10.2526 9.78041 10.1332 9.84141 10.0125C10.0028 9.69339 9.74801 9.33791 9.40587 9.4421C9.31217 9.47063 9.21989 9.50139 9.12817 9.53363C8.18557 9.86445 7.3505 10.358 6.67652 11.1024C6.59721 11.19 6.43169 11.1062 6.46337 10.9924C6.4746 10.952 6.48595 10.9112 6.49745 10.8699C6.50848 10.8303 6.46843 10.7976 6.4342 10.8204C6.24863 10.9761 6.05828 11.1249 5.88225 11.2905C4.89289 12.2208 4.22722 13.3634 3.83063 14.6788C3.5125 15.7305 3.37385 16.8132 3.3439 17.9097C3.32242 18.6915 3.33939 19.4749 3.33913 20.257C3.33913 20.8468 3.33913 21.4365 3.33913 22.0259C3.33913 22.0854 3.40752 22.1149 3.44184 22.0664C3.44936 22.0558 3.4564 22.0447 3.46293 22.0333C4.01964 21.142 4.592 20.2619 5.2309 19.4304C5.31422 19.3295 5.35726 19.1995 5.35125 19.0669C5.33455 18.5951 5.35125 18.1247 5.43556 17.659C5.60609 16.7175 5.90981 15.8072 6.33691 14.9575C6.47262 14.6844 6.62491 14.4187 6.77002 14.1519C6.77478 14.1431 6.78564 14.1398 6.79452 14.1443C6.80292 14.1486 6.80672 14.1585 6.80337 14.1673C6.7868 14.211 6.77107 14.2552 6.75259 14.2982C6.40318 15.1066 6.11634 15.9356 5.9655 16.811C5.87165 17.3446 5.81598 17.88 5.83533 18.4221C5.83539 18.4238 5.83548 18.4256 5.83559 18.4273C5.84003 18.4967 5.93862 18.5194 5.98326 18.466C6.5951 17.732 7.24345 17.0314 7.92566 16.3673C7.97497 16.3166 8.01038 16.2533 8.02826 16.1838C8.11468 15.8579 8.1799 15.5248 8.27639 15.2024C8.53346 14.3292 8.94075 13.5113 9.47864 12.7882C9.60507 12.6188 9.74626 12.4611 9.88131 12.2984C9.88794 12.2904 9.89976 12.2892 9.90784 12.2958C9.91571 12.3021 9.91722 12.3135 9.91131 12.3217C9.55029 12.8215 9.25303 13.3675 9.0269 13.9461C8.81702 14.4854 8.64692 15.0367 8.56164 15.6401C8.55351 15.6976 8.61936 15.7401 8.6645 15.7036C9.29969 15.2172 9.93443 14.7302 10.5687 14.2427C10.6352 14.1902 10.6937 14.1277 10.7421 14.0571C11.315 13.2369 11.9748 12.5037 12.7569 11.8924C12.8129 11.8486 12.8712 11.8078 12.9282 11.7657C12.9362 11.7598 12.9473 11.7608 12.9537 11.7686C12.96 11.7763 12.9593 11.7878 12.9519 11.7946C12.6294 12.0906 12.3298 12.4116 12.0554 12.7543C11.8556 13.004 12.1346 13.3118 12.4232 13.174C12.8047 12.9919 13.1897 12.8256 13.5793 12.6824C13.7812 12.6082 13.8341 12.7777 13.637 12.864C13.5283 12.911 13.4205 12.9605 13.3139 13.0123C12.9107 13.2081 13.0622 13.8103 13.4861 13.9558C13.8961 14.0966 14.2818 14.3064 14.6388 14.6005C14.6584 14.6167 14.6465 14.6396 14.6261 14.6244C13.7754 14.095 12.8579 13.9305 11.886 14.1106C11.6474 14.1548 11.3823 14.2084 11.1925 14.3487C10.6644 14.7378 10.1637 15.1673 9.66368 15.5954C9.44086 15.7861 9.64919 16.178 9.94154 16.1549C10.7797 16.0888 11.599 16.2012 12.3986 16.5577C12.4336 16.5733 12.4218 16.6119 12.3852 16.6004C11.9698 16.4851 11.5483 16.4082 11.1172 16.4112C10.148 16.4151 9.23925 16.6713 8.38509 17.1373C8.15286 17.2641 7.91612 17.3844 7.7446 17.6115C7.41826 18.0437 7.07362 18.4605 6.74145 18.8881C6.60207 19.0662 6.77484 19.3176 6.99489 19.2652C7.32329 19.1871 7.64882 19.1115 7.97683 19.0509C8.51234 18.9521 9.05977 18.9611 9.60164 19.0221C10.1178 19.0802 10.6205 19.202 11.0935 19.4299C11.1152 19.4404 11.1092 19.465 11.0865 19.4571C10.3307 19.2388 9.56479 19.2099 8.7899 19.3162C8.12237 19.4071 7.49169 19.6276 6.87639 19.8942C6.3544 20.1208 5.869 20.4088 5.50899 20.8778C5.26669 21.1925 5.01749 21.5017 4.78393 21.8233C4.29337 22.4901 3.89523 23.2247 3.60105 24.0058C3.27497 24.8845 3.09735 25.7956 3.00377 26.7276C2.9963 26.8021 3.00199 26.8779 3.00345 26.9643C3.00368 26.9776 3.02755 26.9867 3.03018 26.9736C3.03056 26.9717 3.03065 26.9716 3.03136 26.9698C3.05301 26.9158 3.07489 26.8618 3.09523 26.8078C3.33338 26.1498 3.70814 25.5541 4.19302 25.0627C4.80673 24.4421 5.52993 24.0442 6.38833 23.9522C6.90131 23.8973 7.41879 23.8861 7.93388 23.8498C8.8864 23.7831 9.83281 23.6656 10.7668 23.4549C10.9017 23.4245 11.0335 23.3802 11.1665 23.3413C11.1795 23.3375 11.1885 23.3256 11.1885 23.3119C11.1885 23.3012 11.1829 23.2912 11.1736 23.2857L10.6639 22.9821C10.5916 22.9391 10.6124 22.8543 10.6965 22.8571C11.0003 22.8667 11.2797 22.7676 11.5515 22.641C12.3529 22.2662 13.0429 21.7189 13.7086 21.1351C13.8372 21.0223 13.8306 20.9978 13.6821 20.9155C13.5321 20.8312 13.5554 20.5985 13.7096 20.5222C14.1608 20.2989 14.5168 19.9676 14.8485 19.6015C15.2053 19.2078 15.5145 18.7809 15.8024 18.3145C15.8871 18.1775 15.8007 18.0006 15.6411 17.9788L15.4199 17.9487C15.3948 17.9453 15.3788 17.9191 15.3955 17.9C15.4062 17.8878 15.4192 17.8781 15.4336 17.8713C15.7197 17.7458 15.9593 17.553 16.1717 17.3221C16.7679 16.6765 17.1968 15.9161 17.569 15.1179C17.5929 15.0667 17.5283 15.0155 17.4732 15.0278L17.2731 15.0724C17.2516 15.0772 17.2188 15.0536 17.2345 15.0382C17.5926 14.6683 17.8485 14.2282 18.0711 13.7619C18.4667 12.9337 18.7434 12.0616 18.9871 11.176C19.0189 11.0609 18.9942 10.9838 18.8884 10.9289C18.3879 10.6674 17.8967 10.3857 17.3872 10.1457C16.9652 9.94229 16.5103 9.82216 16.0458 9.79147C15.9794 9.78819 15.9131 9.78872 15.8471 9.79301C15.7151 9.80159 15.5992 9.61275 15.6881 9.51479L15.7173 9.48263Z" fill="url(#paint1_radial_357_3316)"/>
<path d="M15.7173 9.48263C15.7287 9.47013 15.7327 9.45265 15.7277 9.43652C15.7229 9.42088 15.7104 9.40874 15.6946 9.40435C14.7128 9.13113 13.7441 9.02892 12.8251 9.60687C12.7782 9.63633 12.7255 9.59448 12.7566 9.54873C12.8457 9.42379 12.9395 9.30159 13.0284 9.1772C13.0291 9.17588 13.0298 9.17457 13.0305 9.17325C13.0621 9.11505 13.0338 9.04302 12.9698 9.02617C12.8647 9.01181 12.7589 9.00319 12.653 9.00036C11.6872 8.98745 10.8452 9.32493 10.117 9.97491C9.96801 10.1077 9.82795 10.251 9.68381 10.3899C9.67882 10.3947 9.67122 10.3955 9.66531 10.3919C9.65855 10.3878 9.65609 10.3792 9.65967 10.3721C9.72001 10.2526 9.78041 10.1332 9.84141 10.0125C10.0028 9.69339 9.74801 9.33791 9.40587 9.4421C9.31217 9.47063 9.21989 9.50139 9.12817 9.53363C8.18557 9.86445 7.3505 10.358 6.67652 11.1024C6.59721 11.19 6.43169 11.1062 6.46337 10.9924C6.4746 10.952 6.48595 10.9112 6.49745 10.8699C6.50848 10.8303 6.46843 10.7976 6.4342 10.8204C6.24863 10.9761 6.05828 11.1249 5.88225 11.2905C4.89289 12.2208 4.22722 13.3634 3.83063 14.6788C3.5125 15.7305 3.37385 16.8132 3.3439 17.9097C3.32242 18.6915 3.33939 19.4749 3.33913 20.257C3.33913 20.8468 3.33913 21.4365 3.33913 22.0259C3.33913 22.0854 3.40752 22.1149 3.44184 22.0664C3.44936 22.0558 3.4564 22.0447 3.46293 22.0333C4.01964 21.142 4.592 20.2619 5.2309 19.4304C5.31422 19.3295 5.35726 19.1995 5.35125 19.0669C5.33455 18.5951 5.35125 18.1247 5.43556 17.659C5.60609 16.7175 5.90981 15.8072 6.33691 14.9575C6.47262 14.6844 6.62491 14.4187 6.77002 14.1519C6.77478 14.1431 6.78564 14.1398 6.79452 14.1443C6.80292 14.1486 6.80672 14.1585 6.80337 14.1673C6.7868 14.211 6.77107 14.2552 6.75259 14.2982C6.40318 15.1066 6.11634 15.9356 5.9655 16.811C5.87165 17.3446 5.81598 17.88 5.83533 18.4221C5.83539 18.4238 5.83548 18.4256 5.83559 18.4273C5.84003 18.4967 5.93862 18.5194 5.98326 18.466C6.5951 17.732 7.24345 17.0314 7.92566 16.3673C7.97497 16.3166 8.01038 16.2533 8.02826 16.1838C8.11468 15.8579 8.1799 15.5248 8.27639 15.2024C8.53346 14.3292 8.94075 13.5113 9.47864 12.7882C9.60507 12.6188 9.74626 12.4611 9.88131 12.2984C9.88794 12.2904 9.89976 12.2892 9.90784 12.2958C9.91571 12.3021 9.91722 12.3135 9.91131 12.3217C9.55029 12.8215 9.25303 13.3675 9.0269 13.9461C8.81702 14.4854 8.64692 15.0367 8.56164 15.6401C8.55351 15.6976 8.61936 15.7401 8.6645 15.7036C9.29969 15.2172 9.93443 14.7302 10.5687 14.2427C10.6352 14.1902 10.6937 14.1277 10.7421 14.0571C11.315 13.2369 11.9748 12.5037 12.7569 11.8924C12.8129 11.8486 12.8712 11.8078 12.9282 11.7657C12.9362 11.7598 12.9473 11.7608 12.9537 11.7686C12.96 11.7763 12.9593 11.7878 12.9519 11.7946C12.6294 12.0906 12.3298 12.4116 12.0554 12.7543C11.8556 13.004 12.1346 13.3118 12.4232 13.174C12.8047 12.9919 13.1897 12.8256 13.5793 12.6824C13.7812 12.6082 13.8341 12.7777 13.637 12.864C13.5283 12.911 13.4205 12.9605 13.3139 13.0123C12.9107 13.2081 13.0622 13.8103 13.4861 13.9558C13.8961 14.0966 14.2818 14.3064 14.6388 14.6005C14.6584 14.6167 14.6465 14.6396 14.6261 14.6244C13.7754 14.095 12.8579 13.9305 11.886 14.1106C11.6474 14.1548 11.3823 14.2084 11.1925 14.3487C10.6644 14.7378 10.1637 15.1673 9.66368 15.5954C9.44086 15.7861 9.64919 16.178 9.94154 16.1549C10.7797 16.0888 11.599 16.2012 12.3986 16.5577C12.4336 16.5733 12.4218 16.6119 12.3852 16.6004C11.9698 16.4851 11.5483 16.4082 11.1172 16.4112C10.148 16.4151 9.23925 16.6713 8.38509 17.1373C8.15286 17.2641 7.91612 17.3844 7.7446 17.6115C7.41826 18.0437 7.07362 18.4605 6.74145 18.8881C6.60207 19.0662 6.77484 19.3176 6.99489 19.2652C7.32329 19.1871 7.64882 19.1115 7.97683 19.0509C8.51234 18.9521 9.05977 18.9611 9.60164 19.0221C10.1178 19.0802 10.6205 19.202 11.0935 19.4299C11.1152 19.4404 11.1092 19.465 11.0865 19.4571C10.3307 19.2388 9.56479 19.2099 8.7899 19.3162C8.12237 19.4071 7.49169 19.6276 6.87639 19.8942C6.3544 20.1208 5.869 20.4088 5.50899 20.8778C5.26669 21.1925 5.01749 21.5017 4.78393 21.8233C4.29337 22.4901 3.89523 23.2247 3.60105 24.0058C3.27497 24.8845 3.09735 25.7956 3.00377 26.7276C2.9963 26.8021 3.00199 26.8779 3.00345 26.9643C3.00368 26.9776 3.02755 26.9867 3.03018 26.9736C3.03056 26.9717 3.03065 26.9716 3.03136 26.9698C3.05301 26.9158 3.07489 26.8618 3.09523 26.8078C3.33338 26.1498 3.70814 25.5541 4.19302 25.0627C4.80673 24.4421 5.52993 24.0442 6.38833 23.9522C6.90131 23.8973 7.41879 23.8861 7.93388 23.8498C8.8864 23.7831 9.83281 23.6656 10.7668 23.4549C10.9017 23.4245 11.0335 23.3802 11.1665 23.3413C11.1795 23.3375 11.1885 23.3256 11.1885 23.3119C11.1885 23.3012 11.1829 23.2912 11.1736 23.2857L10.6639 22.9821C10.5916 22.9391 10.6124 22.8543 10.6965 22.8571C11.0003 22.8667 11.2797 22.7676 11.5515 22.641C12.3529 22.2662 13.0429 21.7189 13.7086 21.1351C13.8372 21.0223 13.8306 20.9978 13.6821 20.9155C13.5321 20.8312 13.5554 20.5985 13.7096 20.5222C14.1608 20.2989 14.5168 19.9676 14.8485 19.6015C15.2053 19.2078 15.5145 18.7809 15.8024 18.3145C15.8871 18.1775 15.8007 18.0006 15.6411 17.9788L15.4199 17.9487C15.3948 17.9453 15.3788 17.9191 15.3955 17.9C15.4062 17.8878 15.4192 17.8781 15.4336 17.8713C15.7197 17.7458 15.9593 17.553 16.1717 17.3221C16.7679 16.6765 17.1968 15.9161 17.569 15.1179C17.5929 15.0667 17.5283 15.0155 17.4732 15.0278L17.2731 15.0724C17.2516 15.0772 17.2188 15.0536 17.2345 15.0382C17.5926 14.6683 17.8485 14.2282 18.0711 13.7619C18.4667 12.9337 18.7434 12.0616 18.9871 11.176C19.0189 11.0609 18.9942 10.9838 18.8884 10.9289C18.3879 10.6674 17.8967 10.3857 17.3872 10.1457C16.9652 9.94229 16.5103 9.82216 16.0458 9.79147C15.9794 9.78819 15.9131 9.78872 15.8471 9.79301C15.7151 9.80159 15.5992 9.61275 15.6881 9.51479L15.7173 9.48263Z" fill="url(#paint2_linear_357_3316)"/>
<defs>
<radialGradient id="paint0_radial_357_3316" cx="0" cy="0" r="1" gradientUnits="userSpaceOnUse" gradientTransform="translate(18.886 21.1937) rotate(-97.4792) scale(14.7932 12.5552)">
<stop stop-color="#37CA1F"/>
<stop offset="1" stop-color="#9BE63B"/>
</radialGradient>
<radialGradient id="paint1_radial_357_3316" cx="0" cy="0" r="1" gradientUnits="userSpaceOnUse" gradientTransform="translate(14.0512 21.5956) rotate(-97.5149) scale(10.2423 8.73336)">
<stop stop-color="#37CA1F"/>
<stop offset="1" stop-color="#9BE63B"/>
</radialGradient>
<linearGradient id="paint2_linear_357_3316" x1="10.6537" y1="11.0739" x2="16.2375" y2="27.1328" gradientUnits="userSpaceOnUse">
<stop stop-color="#57A41B"/>
<stop offset="1" stop-color="#B5FF93"/>
</linearGradient>
</defs>
</svg>
