<svg width="29" height="32" viewBox="0 0 29 32" fill="none" xmlns="http://www.w3.org/2000/svg">
<rect width="29" height="32" fill="#FBFBFD"/>
<path d="M25.9148 16.8697C25.8634 16.5181 25.8691 16.1493 25.7862 15.7948C25.7147 15.4889 25.3774 15.3659 25.1086 15.5203C25 15.5832 24.9514 15.6861 24.8942 15.7833C24.7055 16.1035 24.4511 16.2064 24.0823 16.1035C23.8593 16.0406 23.7049 15.7862 23.7078 15.4717C23.7078 15.3288 23.7135 15.1887 23.7192 15.0457C23.7535 14.3425 23.6906 13.6392 23.5648 12.953C23.3247 11.6351 22.7958 10.4344 22.0811 9.29369C21.5808 8.49892 21.029 7.75847 20.4258 7.04661C19.9712 6.50914 19.4709 6.0117 18.9306 5.55714C17.6956 4.4479 16.3462 3.51876 14.7652 2.95842C13.9876 2.63537 12.2837 2.27515 11.8663 2.39522C11.4432 2.51816 11.3403 2.98987 11.6262 3.40155C12.7411 5.00538 13.0613 6.7693 12.6239 8.66187C12.4124 9.57671 12.0236 10.4229 11.406 11.1434C11.1459 11.4464 10.7599 11.5179 10.4112 11.3807C10.0395 11.232 9.82223 10.9204 9.81366 10.5201C9.80794 10.1085 9.88227 9.71108 10.0023 9.31942C10.0366 9.2022 10.071 9.06783 9.96232 8.97063C9.86512 8.88487 9.7479 8.92489 9.63355 8.9592C9.16469 9.11072 8.74444 9.35944 8.36135 9.65962C7.53228 10.3114 6.90332 11.1291 6.40302 12.0496C5.67115 13.3933 5.21659 14.8142 5.24518 16.3608C5.25661 16.8954 5.2995 17.4358 5.52249 17.9646C5.37669 17.9218 5.33666 17.8274 5.27948 17.7531C4.80777 17.1299 4.41039 16.458 4.07304 15.7547C3.97298 15.546 3.81288 15.4431 3.58131 15.4774C3.36118 15.5117 3.24968 15.6518 3.20966 15.8691C3.09245 16.4866 3.04385 17.1127 3.0124 17.7417C2.96666 18.6279 3.04956 19.5113 3.22681 20.3804C3.3669 21.0722 3.53271 21.7612 3.84433 22.4016C3.95011 22.7418 4.10735 23.0592 4.2703 23.3736C4.77918 24.3714 5.39956 25.2919 6.2029 26.0781C6.45448 26.3783 6.74609 26.6356 7.04341 26.8872C8.57862 28.188 10.3254 29.0485 12.3066 29.4316C12.6811 29.5031 16.0975 29.9233 18.4189 28.957C21.8867 27.5104 24.2681 25.1519 25.466 21.604C25.8233 20.5434 25.9606 19.437 25.9949 18.3191C26.012 17.836 25.9863 17.3557 25.9148 16.8697Z" fill="url(#paint0_radial_357_3315)"/>
<path d="M5.49401 8.72494C5.72844 8.32756 5.53118 7.91588 4.62206 8.18461C3.57857 8.49337 2.95248 9.68552 3.06969 10.5803C3.13544 11.2007 3.86732 12.1013 5.05661 11.7553C5.5226 11.621 5.62838 10.9777 5.45113 10.5317C5.05947 9.53972 5.23672 9.16235 5.49401 8.72494Z" fill="url(#paint1_linear_357_3315)"/>
<path d="M20.8729 19.3827C20.8501 19.2454 20.7957 19.1225 20.6442 19.0911C20.5013 19.0625 20.4241 19.1482 20.3469 19.2597C20.1754 19.5113 19.8752 19.5227 19.738 19.2912C19.6751 19.1854 19.7065 19.0653 19.7036 18.9538C19.6665 16.3008 17.2879 13.7392 16.8505 13.4333C16.7962 13.3647 15.827 12.6186 15.3467 12.387C14.7035 12.0754 14.0459 11.8352 13.3284 11.7895C13.1568 11.7781 12.991 11.7809 12.8881 11.961C12.7795 12.1469 12.891 12.2869 12.9824 12.4242C13.5399 13.2532 13.7057 14.1595 13.5313 15.1315C13.4341 15.6718 13.2054 16.1579 12.891 16.6038C12.7452 16.8097 12.5365 16.9069 12.2877 16.824C12.0447 16.7411 11.9304 16.5581 11.9304 16.2922C11.9332 16.095 11.9618 15.9063 12.0161 15.7176C12.039 15.6404 12.0733 15.5546 12.0076 15.4917C11.9361 15.4231 11.836 15.446 11.756 15.4803C11.6273 15.5346 11.493 15.5918 11.3786 15.6718C10.1093 16.5667 9.53178 17.8389 9.38312 19.3426C9.34881 19.6886 9.41171 20.0345 9.48889 20.3947C9.35739 20.3432 9.3145 20.2518 9.26018 20.1746C9.0572 19.883 8.87995 19.5771 8.72558 19.2569C8.67697 19.154 8.59693 19.0768 8.47971 19.0911C8.35678 19.1054 8.26816 19.1768 8.24814 19.3112C8.23671 19.3798 8.22527 19.4484 8.21098 19.5199C8.11378 19.9745 8.18525 20.4376 8.13379 20.895C8.15666 21.3095 8.2024 21.7184 8.32247 22.1186C8.40252 22.5646 8.58263 22.9791 8.77132 23.3879C9.06578 24.0283 9.49175 24.5772 9.96633 25.0947C10.2751 25.3749 10.5724 25.6607 10.924 25.8895C12.3735 26.8272 13.9373 27.2331 15.6469 26.8986C18.2313 26.3898 19.9095 24.846 20.71 22.3473C21.0244 21.3753 21.033 20.3804 20.8729 19.3827Z" fill="url(#paint2_linear_357_3315)"/>
<defs>
<radialGradient id="paint0_radial_357_3315" cx="0" cy="0" r="1" gradientUnits="userSpaceOnUse" gradientTransform="translate(18.886 21.4134) rotate(-97.1496) scale(15.4715 12.5645)">
<stop stop-color="#FF5C00"/>
<stop offset="1" stop-color="#FFB700"/>
</radialGradient>
<linearGradient id="paint1_linear_357_3315" x1="1.98386" y1="7.34617" x2="4.28386" y2="11.2508" gradientUnits="userSpaceOnUse">
<stop stop-color="#F15F05"/>
<stop offset="1" stop-color="#FFB700"/>
</linearGradient>
<linearGradient id="paint2_linear_357_3315" x1="14.2766" y1="13.5402" x2="19.1975" y2="26.9658" gradientUnits="userSpaceOnUse">
<stop stop-color="#FF3D00"/>
<stop offset="1" stop-color="#FF9900"/>
</linearGradient>
</defs>
</svg>
