<svg width="564" height="246" viewBox="0 0 564 246" fill="none" xmlns="http://www.w3.org/2000/svg">
<path d="M387.658 56.1539C387.067 50.7949 385.774 45.4241 383.725 40.1612C371.102 7.73771 334.585 -8.31384 302.161 4.30904L40.1612 106.309C7.73771 118.932 -8.31384 155.449 4.30904 187.873C16.9319 220.296 53.4492 236.348 85.8727 223.725L175.376 188.88C175.967 194.239 177.26 199.61 179.309 204.873C191.932 237.296 228.449 253.348 260.873 240.725L522.873 138.725C555.296 126.102 571.348 89.5846 558.725 57.1612C546.102 24.7377 509.585 8.68616 477.161 21.309L387.658 56.1539Z" fill="#0A81EE"/>
</svg>
