<svg width="143" height="45" viewBox="0 0 143 45" fill="none" xmlns="http://www.w3.org/2000/svg">
<path fill-rule="evenodd" clip-rule="evenodd" d="M18.2771 3.54271C14.7456 -0.646314 8.48895 -1.20141 4.2743 2.3108C0.0447848 5.83539 -0.526664 12.1213 2.99793 16.3508C3.04438 16.3419 3.0043 16.3585 3.0043 16.3585L3.01117 16.3667L3.02635 16.3848L3.06259 16.4278C3.08935 16.4594 3.12133 16.4969 3.15852 16.5402C3.2329 16.6266 3.32817 16.736 3.44435 16.8667C3.67667 17.128 3.99291 17.4751 4.3932 17.8954C5.19334 18.7356 6.33211 19.8713 7.81064 21.202C10.7643 23.8602 15.0979 27.3181 20.8202 30.7515C32.304 37.6418 49.3489 44.4065 71.828 44.4065C94.3072 44.4065 111.352 37.6418 122.836 30.7515C128.558 27.3181 132.892 23.8602 135.845 21.202C137.324 19.8713 138.463 18.7356 139.263 17.8954C139.663 17.4751 139.979 17.128 140.212 16.8667C140.328 16.736 140.423 16.6266 140.498 16.5402C140.535 16.4969 140.567 16.4594 140.594 16.4278L140.63 16.3848L140.645 16.3667L140.652 16.3585C140.652 16.3585 140.623 16.3419 140.658 16.3508C144.183 12.1213 143.611 5.83539 139.382 2.3108C135.167 -1.20135 128.911 -0.646333 125.379 3.5425C125.37 3.55328 125.347 3.57972 125.31 3.62092C125.224 3.71799 125.062 3.89663 124.825 4.14539C124.351 4.64338 123.578 5.41926 122.508 6.38253C120.364 8.31216 117.051 10.9714 112.578 13.6552C103.671 18.9994 90.1301 24.469 71.828 24.469C53.526 24.469 39.9849 18.9994 31.078 13.6552C26.605 10.9714 23.2922 8.31216 21.1481 6.38253C20.0778 5.41926 19.305 4.64338 18.8307 4.14539C18.5938 3.89663 18.4321 3.71799 18.3458 3.62092C18.3094 3.57999 18.2865 3.55363 18.2771 3.54271ZM125.383 3.53807C125.384 3.53643 125.384 3.53654 125.383 3.53807Z" fill="#FF5F19"/>
</svg>
