<svg width="146" height="40" viewBox="0 0 146 40" fill="none" xmlns="http://www.w3.org/2000/svg">
<path fill-rule="evenodd" clip-rule="evenodd" d="M114.874 22.1135C105.4 19.9486 92.6254 19.8953 78.8258 28.6863C59.5963 40.9365 40.871 40.955 27.169 37.8906C20.3793 36.3722 14.7973 34.1007 10.8889 32.1988C8.92672 31.2439 7.36272 30.3706 6.2529 29.7113C5.6973 29.3812 5.2534 29.1034 4.92815 28.8943C4.76546 28.7896 4.63224 28.702 4.52936 28.6335C4.47791 28.5992 4.43402 28.5696 4.39781 28.5451L4.34924 28.512L4.32929 28.4983L4.3204 28.4922C4.3204 28.4922 4.33753 28.4716 4.31224 28.4866C-0.220854 25.3621 -1.36273 19.1544 1.76178 14.6213C4.877 10.1017 11.0571 8.95313 15.5866 12.043C15.6011 12.0527 15.6436 12.0809 15.7124 12.1251C15.85 12.2136 16.0936 12.367 16.4364 12.5707C17.1235 12.9789 18.2001 13.5838 19.613 14.2713C22.4546 15.6541 26.5601 17.3244 31.5204 18.4338C41.3183 20.625 54.3431 20.6436 68.1136 11.871C87.314 -0.36059 105.789 -0.413872 119.315 2.67693C126.003 4.20521 131.478 6.49176 135.307 8.408C137.229 9.37001 138.759 10.2505 139.846 10.9166C140.39 11.2501 140.826 11.5311 141.145 11.7435C141.305 11.8497 141.437 11.9389 141.538 12.009C141.589 12.0441 141.633 12.0744 141.669 12.0997L141.718 12.1339L141.738 12.1482L141.747 12.1546C141.747 12.1546 141.707 12.1801 141.755 12.1605C146.239 15.3556 147.283 21.5805 144.088 26.0641C140.903 30.5331 134.708 31.5853 130.228 28.4279C130.215 28.4187 130.177 28.3928 130.115 28.352C129.987 28.2667 129.756 28.1166 129.429 27.9163C128.774 27.5149 127.742 26.9172 126.383 26.2368C123.648 24.8682 119.686 23.213 114.874 22.1135ZM130.195 28.4042L130.192 28.4024Z" fill="#F6F6F6"/>
</svg>
