<?xml version="1.0" encoding="utf-8"?>
<!-- Generator: Adobe Illustrator 26.0.3, SVG Export Plug-In . SVG Version: 6.00 Build 0)  -->
<svg version="1.1" id="Layer_1" xmlns="http://www.w3.org/2000/svg" xmlns:xlink="http://www.w3.org/1999/xlink" x="0px" y="0px"
	 viewBox="0 0 144.3 93.9" style="enable-background:new 0 0 144.3 93.9;" xml:space="preserve">
<path d="M49.3,48.3c0.1-0.2,0.1-0.4,0.2-0.6c0.5-0.9,1-1.8,1.5-2.7c3.2,0,6.5,0,9.7,0c0.4,0,1.6-1.2,1-1.2c-3.4,0-6.7,0-10.1,0
	c5-8.2,11.3-14.9,19.3-12.1c0.6,0.2,2.5-0.9,1.6-1.3c-8.5-3.1-15.8,3.8-20.4,10.3c-0.7,1-1.3,2-2,3c-0.8,0-1.7,0-2.5,0
	c-0.4,0-1.7,1.1-1,1.2c1.2,0.1,1.5,1.1,1.5,2.2c-4,7-7.4,14.4-11.7,21.2C31,77.1,21.6,92.7,9.7,92.5c-4.5,0-7.8-3.1-8-7.6
	c-0.2-5.7,3.8-10.4,8.8-12.5c1.2-0.5,0.8-1.5-0.4-1C3.7,74.2-3.2,82,0.6,89.5c3.7,7.3,13.8,4.1,19,0.6c9.8-6.6,16.6-17.8,22.5-27.8
	c1.9-3.2,4.2-8.4,6.9-13.5C49.1,48.6,49.2,48.4,49.3,48.3z M49.5,45c0,0,0,0.1-0.1,0.1c0,0,0-0.1,0-0.1C49.4,45,49.5,45,49.5,45z
	 M84.1,60c0,0.6,1.2,0.3,1.2-0.2c0.1-4.2-0.1-9.1-1.6-13.4c0-0.3,0.2-0.6,0.4-0.8c0.1-0.1,0.2-0.1,0.3-0.2c0.1,0,0.1-0.1,0.1-0.1
	c0.3,0,0.6-0.1,0.7-0.3c0.2-0.3-0.2-0.6-0.4-0.7c-0.2-0.1-0.4-0.1-0.6,0c-0.1,0-0.1,0-0.2,0c-0.3,0-0.5,0-0.8,0c-0.1,0-0.2,0-0.3,0
	c-0.6-1.3-1.4-2.6-2.3-3.7c-0.2-0.3-0.5-0.5-0.8-0.8c0.7-0.1,1.4-0.3,2.1-0.5c2.2-0.7,4.3-1.6,6.3-2.6c1-0.5,1.9-1.1,2.8-1.6
	c0.3,0.1,0.6,0.3,1,0.4c0.5,0.2,1-0.4,0.8-0.9c0.1,0.2,0,0,0,0c0,0.1,0-0.2,0.1-0.3c0.1-0.4,0.5-0.8,0.9-1.1c2.2-1.7,4.3-3.7,6-6
	c1.6-2.1,5.1-6.8,2.8-9.5c-1.1-1.4-3.2-1.4-4.8-1.4c-2.4,0.1-4.7,0.9-6.7,2.2c-1.3,0.8-3,2.2-3.4,3.8c-0.3,1.4,0.9,2.2,2.1,2.4
	c0.6,0.1,1.2-0.8,0.4-0.9c-1.9-0.3-1.5-1.7-0.5-2.9c1.4-1.7,3.6-2.7,5.8-3.2c1.7-0.4,4.7-0.9,6,0.6c1.1,1.2,0.3,3.2-0.2,4.5
	c-2.1,4.6-5.9,8.3-10.1,11.1c-2.7-1.1-5.5-2.3-8.2-3.4c-0.5-0.2-0.9-0.4-1.4-0.6c-0.6-0.2-1.3,0.7-0.6,1c3,1.3,6,2.5,9,3.8
	c-3.4,2.1-7,3.6-10.9,4.4c-0.5-0.5-0.8-1.2-1.2-1.8c-0.8-1.3-1.4-2.8-1.9-4.2c-0.6-1.5-1-3.1-1.4-4.7c0.5,0.2,1,0.4,1.6,0.5
	c0.6,0.2,1.2,0.4,1.8,0.6c0.3,0.1,0.7,0,0.8-0.3c0.1-0.3-0.2-0.5-0.4-0.6c-1.3-0.5-2.7-0.9-4-1.4c-0.3-1.4-0.6-2.8-0.8-4.1
	C72.7,18,72.2,12.7,73,7.5c0.3-2.2,1-7.1,4.2-6.5c2.4,0.5,4,2.7,5.2,4.7c1.4,2.3,2.6,4.9,2.9,7.6c0.1,0.8,0.3,2-0.2,2.7
	c-0.5,0.8-1.5,0.4-2.2,0c-0.5-0.2-1.5,0.5-0.8,0.8c1.5,0.7,3.6,0.9,4.3-1c0.7-1.9-0.1-4.4-0.8-6.3c-0.9-2.6-2.3-5.1-4.1-7.2
	c-1.5-1.7-4.1-3.1-6.3-2c-2.6,1.4-3.1,5.2-3.5,7.8c-0.4,2.6-0.4,5.1-0.3,7.7c0.2,2.9,0.5,6,1,9c0,0.3,0,0.5-0.1,0.8
	c-0.1,0.2-0.1,0.3-0.2,0.4c-0.1,0.1-0.1,0.1-0.2,0.2c0,0,0,0,0,0c0,0,0,0,0,0c0,0-0.1,0-0.1,0.1c0,0-0.1,0.1-0.2,0.1c0,0,0,0-0.1,0
	c-0.1,0-0.2,0.1-0.2,0.1c-0.1,0.1-0.3,0.1-0.4,0.3c-0.1,0.3,0.2,0.5,0.4,0.6c0.5,0.2,1.1,0.3,1.6,0.5c0.7,3.1,1.7,6.1,3.1,8.8
	c0.4,0.8,0.8,1.6,1.3,2.3c0.1,0.1,0.2,0.2,0.3,0.3c-0.1,0-0.2,0-0.3,0.1c-3.9,0.8-7.6,2.7-10.9,4.9c-0.6,0-1.2,0-1.8,0
	c-0.2,0-0.5,0.2-0.7,0.3c0,0-0.4,0.3-0.2,0.3c0.7,0.2,0.7,0.6,0.4,1.1c-0.2,0.1-0.4,0.3-0.6,0.4c-3.1,2.3-6.1,4.7-8.8,7.5
	c-2.3,2.4-4.9,5.3-5.8,8.6c-0.8,3.1,1.2,4.9,4.1,5.3c4.4,0.7,9.3-0.7,12.6-3.8c1.9-1.7,3.6-5,0.1-6c-0.6-0.2-1.2,0.7-0.4,0.9
	c1.4,0.4,1.5,1.5,0.9,2.7c-0.8,1.6-2.4,2.7-3.9,3.6c-2,1.1-4.2,1.7-6.5,1.8c-1.7,0.1-4.3,0-5.4-1.6c-1.9-2.6,1.6-6.7,3.1-8.6
	c2.3-2.8,5-5.2,7.8-7.5c1.9-1.5,3.9-3.1,6-4.5c1.3,0,2.7,0,4,0c0.3,0,0.6-0.2,0.8-0.3c0.1-0.1,0.4-0.3,0.1-0.3c-1.3,0-2.6,0-3.9,0
	c2.2-1.4,4.5-2.6,6.9-3.4c1.1-0.4,2.2-0.6,3.3-0.8c0.3,0.3,0.5,0.5,0.8,0.8c0.9,1,1.6,2.2,2.2,3.4c-0.2,0-0.4,0-0.6,0
	c-1.7,0-3.4,0-5.2,0c-0.4,0-0.8,0-1.2,0c-0.3,0-0.5,0.2-0.4,0.5c0.1,0.3,0.4,0.5,0.7,0.5c2.4,0,4.7,0,7.1,0c0.2,0.4,0.3,0.8,0.5,1.2
	C83.9,50.9,84.2,55.5,84.1,60z M84.9,45.3C84.9,45.3,84.9,45.3,84.9,45.3C84.9,45.3,84.9,45.3,84.9,45.3
	C84.9,45.3,84.9,45.3,84.9,45.3z M71.9,27.3C71.9,27.3,72,27.3,71.9,27.3C72,27.3,72,27.3,71.9,27.3C72,27.4,72,27.4,71.9,27.3z
	 M65.4,45.1c0,0,0-0.1,0-0.1c0,0,0.1,0,0.1,0C65.5,45,65.5,45,65.4,45.1z M100.1,48.5c-0.6,0.4-1.2,1-1.9,1.4
	c-2.1,1.5-4.4,3.1-6.9,3.9c-0.6,0.2-1.7,0.7-2.1-0.1c-0.5-1,0.2-2.6,0.5-3.6c1.2-3.2,3-6.2,4.5-9.2c0.3-0.5-0.9-0.3-1.1,0.1
	c-1.1,2.1-2.2,4.1-3.3,6.3c-0.9,1.9-2.2,4.3-1.9,6.4c0.4,3.6,7.2-0.9,8.4-1.6c1.4-0.9,2.9-1.8,4.2-2.9c0.3,0,0.7,0.1,1,0.1
	c-3.2,4.8-6.4,10.3-7.6,16c-0.6,2.8-0.5,6.7,3.1,7.2c3.6,0.6,7.1-2.2,9.3-4.6c1.2-1.4,2.7-3.3,2.7-5.3c0-1.7-1.7-2.3-3.2-2.3
	c-0.8,0-0.5,0.8,0.2,0.8c4.1,0,0,5.5-1.2,6.8c-1.3,1.4-2.8,2.6-4.6,3.3c-1.1,0.4-2.5,0.9-3.7,0.4c-3.1-1.3-1.3-6.7-0.6-8.9
	c1.6-4.8,4.2-9.3,7-13.4c2.3,0,4.6-0.2,6.8-0.4c0.5,0,1.1-0.9,0.3-0.8c-2.1,0.1-4.3,0.2-6.5,0.3c1.1-1.6,2.3-3.1,3.6-4.6
	c1-1.1,2-2.3,3.3-3c0.6-0.3-0.5-0.8-1-0.6c-1.3,0.7-2.4,1.9-3.4,3c-1.5,1.6-2.8,3.3-4,5.1C101.5,48.2,100.6,48.2,100.1,48.5z
	 M96.2,38c0.1-0.1,0.1-0.2,0.1-0.4c0-0.1-0.2-0.2-0.3-0.3c-0.3-0.1-0.6,0-0.8,0.3c-0.4,0.5-0.8,1-1.1,1.6c-0.1,0.1,0,0.3,0,0.4
	c0.1,0.1,0.2,0.2,0.4,0.2c0.2,0,0.3,0,0.5-0.1c0.1-0.1,0.2-0.2,0.3-0.3c0,0,0,0,0,0.1C95.5,38.9,95.9,38.4,96.2,38z M26.7,49.8
	c1,0.4,2.4,0.1,3.3-0.3c0.9-0.3,2.1-0.8,2.5-1.8c0.1-0.2-0.2-0.3-0.3-0.1c-0.5,1.1-2,1.6-3,1.8c-0.6,0.1-3.4,0.6-2.6-0.7
	c0.6-0.9,1.7-1.6,2.6-2c0.4-0.2,0.8-0.3,1.1-0.5c0.6-0.2,1.3-0.4,1.9-0.5c0.5,0.1,0.9,0.1,1.4,0.2c0.2,0,0.3-0.2,0.1-0.3
	c-0.2-0.1-0.5-0.1-0.7-0.1c0.9-0.1,1.9-0.3,2.8-0.5c0,0.1,0.1,0.1,0.1,0.2c0.3,0.3,0.7,0.7,1,1.2c-0.1,0-0.3-0.1-0.4-0.1
	c-0.4-0.1-0.9-0.1-1.3-0.2c-0.2,0-0.5-0.1-0.7-0.1c-0.2,0-0.2,0.3,0,0.3c0.6,0.1,1.1,0.1,1.7,0.2c0.3,0.1,0.7,0.1,1,0.2
	c0.2,0.3,0.3,0.6,0.4,0.8c0,0.1,0,0.3,0.1,0.4c0,0,0,0,0,0c0.1,0.4,0,0.9-0.2,1.3c-0.8,1.4-3.5-0.2-2.8-1.7c0.1-0.1-0.2-0.2-0.3-0.1
	c-0.7,1.4,1.3,2.7,2.5,2.5c0.6-0.1,1-0.8,1.1-1.4c0-0.2,0-0.5,0-0.7c0,0,0,0,0,0c0,0,0,0,0,0c0-0.1,0-0.1,0-0.2c0-0.2,0-0.3,0-0.5
	c0-0.1,0.1-0.2,0.2-0.3c0.1-0.3-0.2-0.4-0.4-0.5c-0.1,0-0.2,0-0.3-0.1c-0.1-0.2-0.3-0.5-0.5-0.7c-0.2-0.3-0.5-0.6-0.7-0.8
	c1.3-0.3,2.6-0.7,3.7-1.4c0.1,0.1,0.2,0.1,0.3,0.2c0.1,0,0.2,0.1,0.2,0.1c0,0,0.1,0.1,0.1,0c0,0,0,0,0,0c0,0,0,0,0,0
	c0.1,0.1,0.3-0.1,0.2-0.2c0,0,0,0,0,0c0,0,0,0,0,0c-0.1,0-0.1-0.1-0.2-0.2c0-0.2,0-0.3,0.2-0.4c0,0,0.1-0.1,0.1-0.1
	c1-0.8,1.8-1.8,2.3-2.9c0.3-0.6,0.6-1.5,0.3-2.1c-0.4-0.8-1.6-0.6-2.3-0.4c-1.1,0.3-2.2,1.1-2.2,2.3c0,0.2,0.3,0.2,0.3,0
	c0-0.9,0.8-1.5,1.6-1.9c0.5-0.2,1.6-0.6,2.1-0.2c0.9,0.5,0,2.3-0.4,2.9c-0.7,1.2-1.7,2-2.8,2.7c-0.4-0.2-0.8-0.4-1.2-0.5
	c-0.6-0.3-1.3-0.6-1.9-0.8c-0.1-0.1-0.3,0.2-0.1,0.3c0.6,0.3,1.3,0.5,1.9,0.8c0.4,0.2,0.7,0.3,1.1,0.5c-1.1,0.6-2.3,1-3.5,1.3
	c-0.4-0.5-0.7-0.9-1-1.5c-0.3-0.7-0.6-1.4-0.8-2.1c0.3,0.1,0.7,0.2,1,0.3c0.2,0.1,0.3,0.1,0.5,0.2c0.1,0.1,0.3-0.1,0.2-0.2
	c-0.3-0.2-0.7-0.3-1.1-0.4c-0.2-0.1-0.5-0.1-0.7-0.2c-0.1-0.4-0.2-0.7-0.3-1.1c0-0.1,0-0.3-0.1-0.4c-0.2-1.2-0.3-2.3-0.3-3.5
	c0.1-1.1,0.3-2.7,1.3-3.3c1.3-0.9,2.6,1,3.1,1.9c0.4,0.7,0.8,1.6,0.5,2.3c-0.2,0.7-1,0.9-1.6,0.4c-0.1-0.1-0.3,0-0.2,0.1
	c0.5,0.4,1.2,0.5,1.7,0.1c0.7-0.6,0.4-1.8,0.1-2.5c-0.5-1.2-2.2-3.7-3.8-2.6c-0.9,0.6-1.2,2-1.3,2.9c-0.1,1.2-0.1,2.4,0.1,3.5
	c0,0.2,0.1,0.3,0.1,0.5c0,0,0,0,0,0c0.1,0.2,0.1,0.5,0.1,0.7c0,0.2,0,0.3,0,0.5c0,0.1,0,0.1-0.1,0.1c0,0,0,0,0,0c0,0,0,0,0,0
	c0,0,0,0,0,0c0,0-0.1,0-0.1,0c0,0,0,0,0,0c0,0,0,0-0.1,0c-0.1,0-0.2,0.1-0.1,0.2c0,0,0.1,0.1,0.1,0.1c0,0,0,0,0,0c0,0,0.1,0,0.1,0
	c0,0,0.1,0,0.1,0c0.1,0,0.3,0.1,0.4,0.1c0.4,1.3,0.9,2.7,1.8,3.7c-0.4,0.1-0.7,0.1-1.1,0.2c-0.8,0.1-1.6,0.2-2.4,0.4
	c-0.2,0-0.5-0.1-0.7-0.1c-0.1,0-0.6-0.1-0.5,0.2c0,0,0.1,0.1,0.1,0.1c-0.1,0-0.1,0.1-0.2,0.1c-0.1,0.1-0.3,0.1-0.4,0.2
	c-0.8,0.3-1.6,0.8-2.4,1.2C27.5,47.4,25.2,49.1,26.7,49.8z M37.7,46.8C37.7,46.8,37.8,46.8,37.7,46.8c0.1,0.1,0,0.2,0,0.2
	c0-0.1-0.1-0.2-0.1-0.3C37.6,46.8,37.7,46.8,37.7,46.8z M40.3,43.2c0,0.1,0,0.1,0,0.2c0,0-0.1,0-0.1-0.1
	C40.2,43.3,40.3,43.3,40.3,43.2z M33.8,40.7C33.8,40.7,33.8,40.7,33.8,40.7C33.8,40.7,33.8,40.7,33.8,40.7
	C33.8,40.7,33.8,40.7,33.8,40.7z M31.4,45.5C31.4,45.5,31.4,45.5,31.4,45.5C31.4,45.5,31.4,45.5,31.4,45.5
	C31.4,45.5,31.4,45.5,31.4,45.5z M130.7,56.5c-0.5,1.1-2,1.6-3,1.8c-0.6,0.1-3.4,0.6-2.6-0.7c0.6-0.9,1.7-1.6,2.6-2
	c0.4-0.2,0.8-0.3,1.1-0.5c0.6-0.2,1.3-0.4,1.9-0.5c0.5,0.1,0.9,0.1,1.4,0.2c0.2,0,0.3-0.2,0.1-0.3c-0.2-0.1-0.5-0.1-0.7-0.1
	c0.9-0.1,1.9-0.3,2.8-0.5c0,0.1,0.1,0.1,0.1,0.2c0.3,0.3,0.7,0.7,1,1.2c-0.1,0-0.3-0.1-0.4-0.1c-0.4-0.1-0.9-0.1-1.3-0.2
	c-0.2,0-0.5-0.1-0.7-0.1c-0.2,0-0.2,0.3,0,0.3c0.6,0.1,1.1,0.1,1.7,0.2c0.3,0.1,0.7,0.1,1,0.2c0.2,0.3,0.3,0.6,0.4,0.8
	c0,0.1,0,0.3,0.1,0.4c0,0,0,0,0,0c0.1,0.4,0,0.9-0.2,1.3c-0.8,1.4-3.5-0.2-2.8-1.7c0.1-0.1-0.2-0.2-0.3-0.1
	c-0.7,1.4,1.3,2.7,2.5,2.5c0.6-0.1,1-0.8,1.1-1.4c0-0.2,0-0.5,0-0.7c0,0,0,0,0,0c0,0,0,0,0,0c0-0.1,0-0.1,0-0.2c0-0.2,0-0.3,0-0.5
	c0-0.1,0.1-0.2,0.2-0.3c0.1-0.3-0.2-0.4-0.4-0.5c-0.1,0-0.2,0-0.3-0.1c-0.1-0.2-0.3-0.5-0.5-0.7c-0.2-0.3-0.5-0.6-0.7-0.8
	c1.3-0.3,2.6-0.7,3.7-1.4c0.1,0.1,0.2,0.1,0.3,0.2c0.1,0,0.2,0.1,0.2,0.1c0,0,0.1,0.1,0.1,0c0,0,0,0,0,0c0,0,0,0,0,0
	c0.1,0.1,0.3-0.1,0.2-0.2c0,0,0,0,0,0c0,0,0,0,0,0c-0.1,0-0.1-0.1-0.2-0.2c0-0.2,0-0.3,0.2-0.4c0,0,0.1-0.1,0.1-0.1
	c1-0.8,1.8-1.8,2.3-2.9c0.3-0.6,0.6-1.5,0.3-2.1c-0.4-0.8-1.6-0.6-2.3-0.4c-1.1,0.3-2.2,1.1-2.2,2.3c0,0.2,0.3,0.2,0.3,0
	c0-0.9,0.8-1.5,1.6-1.9c0.5-0.2,1.6-0.6,2.1-0.2c0.9,0.5,0,2.3-0.4,2.9c-0.7,1.2-1.7,2-2.8,2.7c-0.4-0.2-0.8-0.4-1.2-0.5
	c-0.6-0.3-1.3-0.6-1.9-0.8c-0.1-0.1-0.3,0.2-0.1,0.3c0.6,0.3,1.3,0.5,1.9,0.8c0.4,0.2,0.7,0.3,1.1,0.5c-1.1,0.6-2.3,1-3.5,1.3
	c-0.4-0.5-0.7-0.9-1-1.5c-0.3-0.7-0.6-1.4-0.8-2.1c0.3,0.1,0.7,0.2,1,0.3c0.2,0.1,0.3,0.1,0.5,0.2c0.1,0.1,0.3-0.1,0.2-0.2
	c-0.3-0.2-0.7-0.3-1.1-0.4c-0.2-0.1-0.5-0.1-0.7-0.2c-0.1-0.4-0.2-0.7-0.3-1.1c0-0.1,0-0.3-0.1-0.4c-0.2-1.2-0.3-2.3-0.3-3.5
	c0.1-1.1,0.3-2.7,1.3-3.3c1.3-0.9,2.6,1,3.1,1.9c0.4,0.7,0.8,1.6,0.5,2.3c-0.2,0.7-1,0.9-1.6,0.4c-0.1-0.1-0.3,0-0.2,0.1
	c0.5,0.4,1.2,0.5,1.7,0.1c0.7-0.6,0.4-1.8,0.1-2.5c-0.5-1.2-2.2-3.7-3.8-2.6c-0.9,0.6-1.2,2-1.3,2.9c-0.1,1.2-0.1,2.4,0.1,3.5
	c0,0.2,0.1,0.3,0.1,0.5c0,0,0,0,0,0c0.1,0.2,0.1,0.5,0.1,0.7c0,0.2,0,0.3,0,0.5c0,0.1,0,0.1-0.1,0.1c0,0,0,0,0,0c0,0,0,0,0,0
	c0,0,0,0,0,0c0,0-0.1,0-0.1,0c0,0,0,0,0,0c0,0,0,0-0.1,0c-0.1,0-0.2,0.1-0.1,0.2c0,0,0.1,0.1,0.1,0.1c0,0,0,0,0,0c0,0,0.1,0,0.1,0
	c0,0,0.1,0,0.1,0c0.1,0,0.3,0.1,0.4,0.1c0.4,1.3,0.9,2.7,1.8,3.7c-0.4,0.1-0.7,0.1-1.1,0.2c-0.8,0.1-1.6,0.2-2.4,0.4
	c-0.2,0-0.5-0.1-0.7-0.1c-0.1,0-0.6-0.1-0.5,0.2c0,0,0.1,0.1,0.1,0.1c-0.1,0-0.1,0.1-0.2,0.1c-0.1,0.1-0.3,0.1-0.4,0.2
	c-0.8,0.3-1.6,0.8-2.4,1.2c-0.6,0.4-2.9,2.1-1.4,2.7c1,0.4,2.4,0.1,3.3-0.3c0.9-0.3,2.1-0.8,2.5-1.8
	C131.1,56.4,130.8,56.3,130.7,56.5z M136.2,55.7c0,0,0.1,0,0.1,0.1c0,0.1-0.1,0.1-0.1,0.2c0-0.1-0.1-0.2-0.1-0.3
	C136.1,55.6,136.1,55.6,136.2,55.7z M138.8,52.1c0,0.1,0,0.1,0,0.2c0,0-0.1,0-0.1-0.1C138.7,52.2,138.7,52.1,138.8,52.1z
	 M132.2,49.6C132.2,49.6,132.2,49.6,132.2,49.6C132.2,49.6,132.3,49.6,132.2,49.6C132.2,49.6,132.2,49.6,132.2,49.6z M129.8,54.4
	C129.8,54.4,129.8,54.4,129.8,54.4C129.8,54.4,129.8,54.4,129.8,54.4C129.8,54.4,129.8,54.4,129.8,54.4z M143.7,74.7
	c-0.3-0.5-1.1-0.4-1.5-0.3c-0.6,0.1-1.3,0.4-1.5,1.1c0,0.1,0.2,0.2,0.2,0c0.1-0.5,0.6-0.8,1-0.9c0.4-0.1,1.1-0.2,1.4,0
	c0.6,0.4-0.3,1.5-0.6,1.8c-0.6,0.6-1.3,1-2,1.3c-0.1-0.1-0.2-0.2-0.3-0.2c-0.4-0.3-0.8-0.6-1.2-0.8c-0.1-0.1-0.2-0.1-0.3-0.2
	c-0.1-0.1-0.2,0.1-0.1,0.1c0.6,0.4,1.1,0.8,1.7,1.2c-0.7,0.2-1.5,0.3-2.3,0.3c-0.2-0.3-0.3-0.7-0.4-1.1c-0.1-0.4-0.2-0.9-0.2-1.3
	c0,0,0,0,0.1,0c0.2,0.1,0.3,0.2,0.5,0.2c0.1,0.1,0.2,0.1,0.3,0.2c0.1,0.1,0.2,0,0.1-0.1c-0.1-0.1-0.2-0.1-0.2-0.2
	c-0.1-0.1-0.2-0.1-0.4-0.2c-0.1-0.1-0.2-0.1-0.4-0.2c0-0.3,0-0.5,0-0.8c0-0.7,0.1-1.5,0.3-2.2c0.2-0.7,0.5-1.8,1.3-2.1
	c1-0.4,1.6,1.4,1.7,2.1c0.1,0.4,0.1,0.8-0.2,1.1c-0.3,0.4-0.7,0.3-1,0c0-0.1-0.2,0-0.1,0.1c0.2,0.3,0.6,0.4,0.9,0.3
	c0.5-0.2,0.6-0.7,0.5-1.2c0-0.9-0.8-2.9-2-2.5c-0.6,0.2-1,1-1.2,1.6c-0.3,0.7-0.4,1.5-0.4,2.3c0,0.1,0,0.3,0,0.4c0,0.1,0,0.2,0,0.3
	c0,0.1,0,0.2-0.1,0.3c0,0.1,0,0.1-0.1,0.1c0,0,0,0,0,0c-0.1,0-0.1,0-0.2,0c0,0,0,0.1,0,0.1c0,0,0,0,0.1,0c0,0,0,0,0,0c0,0,0,0,0,0
	c0,0,0.1,0,0.1,0.1c0.1,0,0.1,0.1,0.2,0.1c0.1,0.9,0.2,1.8,0.6,2.5c-0.3,0-0.6,0-1,0c-0.4,0-0.8-0.1-1.2-0.1
	c-0.2-0.1-0.3-0.1-0.5-0.2c-0.1,0-0.4-0.1-0.3,0c0,0,0,0,0,0.1c0,0-0.1,0-0.1,0c-0.1,0-0.2,0.1-0.3,0.1c0,0,0,0,0,0
	c-0.7,0.1-1.3,0.3-1.9,0.6c-0.6,0.3-1.7,1-0.7,1.5c1,0.4,3,0.3,3.6-0.6c0.1-0.1-0.1-0.2-0.2-0.1c-0.4,0.6-1.5,0.7-2.1,0.7
	c-0.5,0-2.2-0.2-1.4-0.9c0.5-0.4,1.1-0.7,1.7-0.8c0,0,0,0,0.1,0c0.3-0.1,0.5-0.1,0.8-0.2c0.4-0.1,0.9-0.1,1.3-0.1
	c0.3,0.1,0.6,0.2,0.8,0.3c0.1,0,0.2-0.1,0.1-0.1c-0.1-0.1-0.3-0.1-0.4-0.2c0.1,0,0.1,0,0.2,0c0.5,0,1,0.1,1.6,0c0,0,0,0.1,0,0.1
	c0.1,0.2,0.3,0.6,0.5,0.9c-0.1,0-0.2-0.1-0.2-0.1c-0.3-0.1-0.5-0.2-0.8-0.3c-0.1-0.1-0.3-0.1-0.4-0.2c-0.1,0-0.2,0.1-0.1,0.2
	c0.3,0.1,0.7,0.2,1,0.4c0.2,0.1,0.4,0.2,0.6,0.2c0.1,0.2,0.1,0.4,0.1,0.6c0,0.1,0,0.2,0,0.2c0,0,0,0,0,0c0,0.3-0.1,0.6-0.4,0.9
	c-0.7,0.6-2-0.7-1.4-1.5c0.1-0.1-0.1-0.1-0.2-0.1c-0.6,0.7,0.4,1.8,1.2,1.8c0.7,0,0.9-0.5,0.9-1.1c0,0,0,0,0-0.1
	c0-0.1,0-0.3,0.1-0.4c0-0.1,0.1-0.1,0.1-0.1c0.1-0.1-0.1-0.3-0.2-0.4c-0.1,0-0.1-0.1-0.2-0.1c0-0.2-0.1-0.3-0.2-0.4
	c-0.1-0.2-0.2-0.4-0.3-0.6c0.8,0,1.7-0.1,2.4-0.4c0.1,0.1,0.1,0.1,0.2,0.2c0,0,0.1,0.1,0.1,0.1c0,0,0,0,0,0c0,0,0,0,0,0
	c0.1,0.1,0.2,0,0.2-0.1c0,0,0,0,0,0c0,0,0,0,0,0c0,0-0.1-0.1-0.1-0.2c0-0.1,0.1-0.2,0.1-0.2c0.2-0.1,0.4-0.2,0.6-0.3
	c0.6-0.4,1.1-0.9,1.5-1.5C143.7,75.6,143.9,75.1,143.7,74.7z M137.4,75.4C137.4,75.3,137.4,75.3,137.4,75.4
	C137.5,75.3,137.5,75.4,137.4,75.4C137.4,75.4,137.4,75.4,137.4,75.4z M135.3,78C135.3,78,135.3,78,135.3,78
	C135.3,78,135.3,78,135.3,78C135.3,78,135.3,78,135.3,78z M139.1,79.6C139.1,79.6,139.1,79.6,139.1,79.6
	C139.1,79.7,139.1,79.7,139.1,79.6c0,0.1,0,0.1-0.1,0.2c0-0.1,0-0.2,0-0.2C139,79.6,139,79.6,139.1,79.6z M141.1,77.9
	C141.1,77.8,141.1,77.8,141.1,77.9C141.1,77.8,141,77.8,141.1,77.9c0-0.1,0-0.1,0-0.1C141.1,77.8,141.1,77.8,141.1,77.9z M112,38.1
	c0.8,0.2,1.6-0.5,1.8-1.3c0-0.1-0.3-0.2-0.3-0.1c-0.1,0.5-0.4,0.9-0.9,1.1c-0.3,0.2-0.8,0.2-1-0.2c-0.1-0.4,0.1-0.8,0.2-1.1
	c0.2-0.5,0.5-0.9,0.9-1.3c0.4-0.5,0.8-0.9,1.2-1.3c0.1,0.1,0.2,0.3,0.3,0.4c0.4,0.6,1,1.1,1.3,1.8c0.2,0.4,0.4,1-0.1,1.3
	c-0.5,0.4-1-0.3-1.1-0.7c0-0.1-0.3-0.1-0.3,0c0.2,0.6,0.8,1.2,1.5,0.9c0.9-0.4,0.2-1.7-0.2-2.2c-0.4-0.6-0.9-1.1-1.3-1.7
	c0.5-0.4,0.9-0.8,1.4-1.2c0.5-0.3,1.5-1.2,0.9-1.9c-0.5-0.5-1.2-0.1-1.6,0.3c-0.4-0.8-0.9-1.7-1.8-1.9c-0.5-0.1-1,0.3-1.1,0.8
	c-0.1,0.4,0.1,0.8,0.2,1.1c0.2,0.5,0.5,1.1,0.8,1.5c0.2,0.4,0.5,0.8,0.8,1.1c-0.2,0.2-0.4,0.3-0.5,0.5
	C112.9,34.7,110.1,37.7,112,38.1z M113,32c-0.4-0.6-1.1-1.7-0.5-2.5c0.8-1.1,2,1.2,2.2,1.7c0,0.1,0.2,0.1,0.3,0.1
	c0.2-0.3,0.7-0.9,1.2-0.7c0.4,0.2,0.2,0.8,0,1c-0.3,0.5-0.9,0.8-1.4,1.2c-0.3,0.2-0.5,0.4-0.7,0.7C113.7,33,113.3,32.5,113,32z
	 M122.1,43.2c0-1.1,0-2.6-1-3.2c-0.6-0.4-1.4-0.1-1.7,0.5c-0.3,0.5-0.3,1.1-0.3,1.6c0,0.8,0.1,1.6,0.2,2.5c0,0.4,0.1,0.7,0.2,1.1
	c-1.3,0.4-2.6,0.9-3.7,1.7c-0.6,0.4-1.7,1.3-1,2.1c0.8,0.9,2.3,0.4,3-0.4c0.1-0.1-0.2-0.2-0.3-0.1c-0.5,0.5-1.2,0.9-1.9,0.7
	c-0.6-0.2-0.7-0.8-0.4-1.2c0.3-0.5,0.8-0.8,1.3-1.1c0.7-0.4,1.4-0.7,2.1-1c0.3-0.1,0.7-0.2,1-0.4c0.1,0.5,0.2,1.1,0.3,1.6
	c0.2,0.8,0.5,1.6,0.3,2.4c-0.1,0.4-0.4,1.1-1,0.9c-0.6-0.2-0.7-1-0.6-1.5c0-0.1-0.3-0.2-0.4-0.1c-0.1,0.8,0.3,1.8,1.2,1.8
	c1.1,0,1.2-1.4,1.1-2.2c-0.2-1-0.4-2-0.6-3.1c0.4-0.1,0.7-0.2,1.1-0.3c0.7-0.2,1.5-0.2,2.2-0.5c0.6-0.2,1.4-0.8,1-1.5
	C123.6,42.8,122.7,42.9,122.1,43.2z M123.7,44.2c-0.3,0.5-0.9,0.7-1.4,0.8c-0.8,0.2-1.7,0.3-2.5,0.6c0,0,0,0,0,0
	c-0.1-0.8-0.3-1.5-0.3-2.3c-0.1-0.9-0.3-2.7,0.8-3.2c1.4-0.7,1.5,2.7,1.5,3.3c0,0.1,0.2,0.2,0.3,0.1c0.4-0.2,1-0.5,1.4-0.2
	C123.8,43.5,123.9,43.9,123.7,44.2z M79.1,84.6h-0.9l-1.7,2.2v0.3l1.7,2.2h0.9L77.6,87L79.1,84.6z M105.1,79.7
	c-0.2,0.2-0.5,0.2-0.8,0.2s-0.6-0.1-0.8-0.2s-0.4-0.4-0.5-0.8l-0.9,0.5c0.2,0.5,0.5,0.9,0.9,1.1s0.8,0.3,1.3,0.3s0.9-0.1,1.3-0.3
	s0.7-0.6,0.9-1.1l-0.9-0.5C105.5,79.2,105.3,79.5,105.1,79.7z M80.8,84.6L79,86.8v0.3l1.7,2.2h0.9L80.2,87l1.5-2.3H80.8z M68.6,81.5
	c-1.1,0-1.9,0.4-2.6,1.1s-1,1.8-1,3.1v0.5c0,1.3,0.3,2.3,1,3.1s1.5,1.1,2.6,1.1s1.9-0.4,2.6-1.1s1-1.8,1-3.1v-0.5
	c0-1.3-0.3-2.3-1-3.1S69.7,81.5,68.6,81.5z M71.1,86.2c0,1-0.2,1.8-0.7,2.4s-1,0.9-1.8,0.9s-1.3-0.3-1.8-0.9s-0.7-1.4-0.7-2.4v-0.5
	c0-1,0.2-1.8,0.7-2.4s1-0.9,1.8-0.9s1.3,0.3,1.8,0.9s0.7,1.4,0.7,2.4V86.2z M118.6,84.6l1.5,2.3l-1.5,2.3h0.9l1.7-2.2v-0.3l-1.7-2.2
	H118.6z M51.5,81.5c-1.1,0-1.9,0.4-2.6,1.1s-1,1.8-1,3.1v0.5c0,1.3,0.3,2.3,1,3.1s1.5,1.1,2.6,1.1s1.9-0.4,2.6-1.1s1-1.8,1-3.1v-0.5
	c0-1.3-0.3-2.3-1-3.1S52.6,81.5,51.5,81.5z M54,86.2c0,1-0.2,1.8-0.7,2.4s-1,0.9-1.8,0.9s-1.3-0.3-1.8-0.9S49,87.2,49,86.2v-0.5
	c0-1,0.2-1.8,0.7-2.4s1-0.9,1.8-0.9s1.3,0.3,1.8,0.9s0.7,1.4,0.7,2.4V86.2z M60.1,81.5c-1.1,0-1.9,0.4-2.6,1.1s-1,1.8-1,3.1v0.5
	c0,1.3,0.3,2.3,1,3.1s1.5,1.1,2.6,1.1s1.9-0.4,2.6-1.1s1-1.8,1-3.1v-0.5c0-1.3-0.3-2.3-1-3.1S61.1,81.5,60.1,81.5z M62.5,86.2
	c0,1-0.2,1.8-0.7,2.4s-1,0.9-1.8,0.9s-1.3-0.3-1.8-0.9s-0.7-1.4-0.7-2.4v-0.5c0-1,0.2-1.8,0.7-2.4s1-0.9,1.8-0.9s1.3,0.3,1.8,0.9
	s0.7,1.4,0.7,2.4V86.2z M118.7,86.8l-1.7-2.2H116l1.5,2.3l-1.5,2.3h0.9l1.7-2.2V86.8z M95.7,81.6l-3.2,8.6h1.1l0.8-2.2H98l0.8,2.2
	h1.2l-3.2-8.6H95.7z M94.7,87l1.2-3.3c0-0.1,0.1-0.3,0.1-0.4s0.1-0.2,0.1-0.4h0.1c0,0.1,0.1,0.3,0.1,0.4s0.1,0.2,0.1,0.4l1.2,3.3
	H94.7z M88,82.7h-0.2v-1.1h-1.1v1.1h-0.2c-1.2,0-2.2,0.3-2.8,0.9s-1,1.3-1,2.3s0.3,1.8,1,2.3s1.6,0.9,2.8,0.9h0.2v1.3h1.1v-1.3H88
	c1.2,0,2.2-0.3,2.8-0.9s1-1.3,1-2.3s-0.3-1.8-1-2.3S89.3,82.7,88,82.7z M86.8,88.2h-0.2c-1,0-1.7-0.2-2.1-0.6s-0.6-1-0.6-1.7
	c0-0.7,0.2-1.3,0.6-1.7s1.1-0.6,2.1-0.6h0.2V88.2z M90.1,87.6C89.7,88,89,88.2,88,88.2h-0.2v-4.6H88c1,0,1.7,0.2,2.1,0.6
	s0.6,1,0.6,1.7C90.7,86.6,90.5,87.2,90.1,87.6z M102.5,88c-0.1,0.1-0.1,0.2-0.2,0.4s-0.1,0.2-0.2,0.3h0c0-0.1,0-0.2,0-0.4
	s0-0.3,0-0.4v-6.2h-1.1v8.5h1.2l3.9-6.3c0.1-0.1,0.1-0.2,0.2-0.4s0.1-0.2,0.2-0.3h0c0,0.1,0,0.2,0,0.4s0,0.3,0,0.4v6.2h1.1v-8.5
	h-1.2L102.5,88z M108.7,82.6h2.7v7.6h1.1v-7.6h2.7v-0.9h-6.6V82.6z"/>
</svg>
