<?xml version="1.0" encoding="utf-8"?>
<!-- Generator: Adobe Illustrator 26.0.3, SVG Export Plug-In . SVG Version: 6.00 Build 0)  -->
<svg version="1.1" id="Layer_1" xmlns="http://www.w3.org/2000/svg" xmlns:xlink="http://www.w3.org/1999/xlink" x="0px" y="0px"
	 viewBox="0 0 286.5 58.9" style="enable-background:new 0 0 286.5 58.9;" xml:space="preserve">
<style type="text/css">
	.st0{fill:#4B85E6;}
</style>
<g>
	<g>
		<path class="st0" d="M68.9,29.9V5.4h7.4l4.4,16.7l4.4-16.7h7.4v24.4H88V10.6l-4.8,19.2h-4.7l-4.8-19.2v19.2H68.9z"/>
		<path class="st0" d="M97.5,5.4h4.9v20.3h9.6V5.4h4.9v20.3h2v9.4h-4.1v-5.3H97.5V5.4z"/>
		<path class="st0" d="M139.9,13.5l-4.3,7.5l4.3,7.7h-3.7L131,21l5.3-7.5H139.9z M146.4,13.5l-4.3,7.5l4.3,7.7h-3.7l-5.3-7.7
			l5.3-7.5H146.4z"/>
		<path class="st0" d="M166.4,20.9l4.8,1.5c-0.7,2.7-2,4.6-3.7,5.9s-3.9,1.9-6.5,1.9c-3.2,0-5.9-1.1-8-3.3c-2.1-2.2-3.1-5.2-3.1-9.1
			c0-4.1,1-7.2,3.1-9.5c2.1-2.2,4.9-3.4,8.3-3.4c3,0,5.4,0.9,7.3,2.6c1.1,1,1.9,2.5,2.5,4.5l-4.9,1.2c-0.3-1.3-0.9-2.3-1.8-3
			s-2-1.1-3.3-1.1c-1.8,0-3.3,0.6-4.4,1.9c-1.1,1.3-1.7,3.4-1.7,6.3c0,3.1,0.6,5.3,1.7,6.6c1.1,1.3,2.6,2,4.3,2
			c1.3,0,2.4-0.4,3.4-1.2S166,22.7,166.4,20.9z"/>
		<path class="st0" d="M190,27v2.8h-4.8V27c-3.9-0.1-6.7-1.1-8.3-2.9c-1.6-1.8-2.4-4-2.4-6.7c0-2.8,0.8-5.1,2.5-6.8
			c1.7-1.7,4.4-2.6,8.1-2.8V5.5h4.8v2.4c3.9,0.1,6.6,1.1,8.2,2.9c1.6,1.8,2.4,4,2.4,6.7c0,2.7-0.8,4.9-2.4,6.7
			C196.6,25.9,193.8,26.9,190,27z M185.1,22.9V12c-2.1,0-3.6,0.5-4.5,1.4c-0.9,0.9-1.4,2.3-1.4,4.2
			C179.2,21.1,181.2,22.9,185.1,22.9z M190,22.9c1.3,0,2.4-0.2,3.3-0.6c0.9-0.4,1.6-1,2-1.7s0.6-1.8,0.6-3.2c0-3.5-2-5.3-5.9-5.3
			V22.9z"/>
		<path class="st0" d="M204.6,29.9V5.4h18.1v4.1h-13.2V15h12.3v4.1h-12.3v6.6h13.6v4.1H204.6z"/>
		<path class="st0" d="M227.3,29.9V5.4h7.9c3,0,5,0.1,5.9,0.4c1.4,0.4,2.6,1.2,3.5,2.4c0.9,1.2,1.4,2.8,1.4,4.8
			c0,1.5-0.3,2.8-0.8,3.8s-1.2,1.8-2.1,2.4s-1.7,1-2.6,1.2c-1.2,0.2-2.9,0.4-5.1,0.4h-3.2v9.2H227.3z M232.3,9.6v6.9h2.7
			c1.9,0,3.2-0.1,3.9-0.4c0.7-0.3,1.2-0.7,1.5-1.2s0.6-1.2,0.6-1.9c0-0.9-0.3-1.6-0.8-2.2c-0.5-0.6-1.2-0.9-2-1.1
			c-0.6-0.1-1.8-0.2-3.5-0.2H232.3z"/>
		<path class="st0" d="M269.1,29.9h-5.4l-2.1-5.5h-9.8l-2,5.5h-5.2l9.5-24.4h5.2L269.1,29.9z M260.1,20.2l-3.4-9.1l-3.3,9.1H260.1z"
			/>
		<path class="st0" d="M271,28.7l4.3-7.5l-4.3-7.7h3.7l5.3,7.7l-5.3,7.5H271z M277.6,28.7l4.3-7.5l-4.3-7.7h3.7l5.3,7.7l-5.3,7.5
			H277.6z"/>
	</g>
	<g>
		<path class="st0" d="M73.1,49.3c-0.5,0.2-1.4,0.5-2.7,0.5c-2.8,0-5-1.8-5-5.1c0-3.2,2.1-5.3,5.3-5.3c1.2,0,2,0.3,2.4,0.4l-0.3,1.1
			c-0.5-0.2-1.2-0.4-2-0.4c-2.4,0-3.9,1.5-3.9,4.2c0,2.5,1.4,4.1,3.9,4.1c0.8,0,1.6-0.2,2.1-0.4L73.1,49.3z"/>
		<path class="st0" d="M79.9,44.8H76v3.6h4.4v1.1h-5.7V39.5h5.5v1.1H76v3.2h3.9V44.8z"/>
		<path class="st0" d="M84.1,40.6H81v-1.1h7.5v1.1h-3.1v9h-1.3V40.6z"/>
		<path class="st0" d="M90.9,39.5v3.8c0.3,0,0.9-0.1,1.2-0.1c2.1,0,3.9,0.9,3.9,3.1c0,0.9-0.3,1.6-0.8,2.2c-0.8,0.9-2.2,1.2-3.6,1.2
			c-0.9,0-1.6-0.1-2-0.1v-10H90.9z M90.9,48.6c0.3,0.1,0.6,0.1,1.1,0.1c1.5,0,2.7-0.7,2.7-2.2c0-1.6-1.3-2.2-2.7-2.2
			c-0.3,0-0.7,0-1.1,0.1V48.6z"/>
		<path class="st0" d="M109.4,45.1c-0.1-1.4-0.2-3.1-0.2-4.4h0c-0.4,1.2-0.8,2.4-1.3,3.8l-1.8,4.9h-1l-1.6-4.8
			c-0.5-1.4-0.9-2.7-1.2-3.9h0c0,1.3-0.1,2.9-0.2,4.5l-0.3,4.3h-1.2l0.7-10.1h1.7l1.7,4.9c0.4,1.2,0.7,2.3,1,3.4h0
			c0.3-1,0.6-2.1,1.1-3.4l1.8-4.9h1.7l0.6,10.1h-1.3L109.4,45.1z"/>
		<path class="st0" d="M118.1,44.8h-3.9v3.6h4.4v1.1h-5.7V39.5h5.5v1.1h-4.1v3.2h3.9V44.8z"/>
		<path class="st0" d="M127.5,39.5v9l0.9,0l-0.1,3.5h-1l-0.1-2.4h-6.4l-0.1,2.4h-1l-0.1-3.5l0.7,0c0.4-0.7,0.7-1.4,1-2.2
			c0.3-1.2,0.5-2.5,0.5-4.2v-2.6H127.5z M123.1,42.5c0,1.6-0.1,3-0.5,4.1c-0.2,0.7-0.5,1.4-0.8,1.9h4.5v-7.9h-3.1V42.5z"/>
		<path class="st0" d="M131.2,39.5v4.2c0,1.6,0,2.9-0.1,4.3l0,0c0.5-1,1.1-2.1,1.9-3.3l3.3-5.2h1.3v10.1h-1.2v-4.3
			c0-1.6,0-2.8,0.1-4.1l0,0c-0.5,1.1-1.2,2.3-1.9,3.4l-3.2,5H130V39.5H131.2z"/>
		<path class="st0" d="M141.2,39.5v9h4.6v-9h1.3v9l0.9,0l-0.1,3.5h-1l-0.1-2.4h-6.9V39.5H141.2z"/>
		<path class="st0" d="M150.8,39.5v4.2c0,1.6,0,2.9-0.1,4.3l0,0c0.5-1,1.1-2.1,1.9-3.3l3.3-5.2h1.3v10.1H156v-4.3
			c0-1.6,0-2.8,0.1-4.1l0,0c-0.5,1.1-1.2,2.3-1.9,3.4l-3.2,5h-1.4V39.5H150.8z"/>
		<path class="st0" d="M160.8,39.5v4.2h4.9v-4.2h1.3v10.1h-1.3v-4.7h-4.9v4.7h-1.3V39.5H160.8z"/>
		<path class="st0" d="M176.2,49.3c-0.5,0.2-1.4,0.5-2.7,0.5c-2.8,0-5-1.8-5-5.1c0-3.2,2.1-5.3,5.3-5.3c1.2,0,2,0.3,2.4,0.4
			l-0.3,1.1c-0.5-0.2-1.2-0.4-2-0.4c-2.4,0-3.9,1.5-3.9,4.2c0,2.5,1.4,4.1,3.9,4.1c0.8,0,1.6-0.2,2.1-0.4L176.2,49.3z"/>
		<path class="st0" d="M179.2,39.5V44h0.4l3.5-4.5h1.6l-3.8,4.6c1.7,0.2,2.3,1.2,2.8,2.6c0.4,1,0.7,2,1.1,2.9h-1.4
			c-0.4-0.7-0.6-1.6-0.9-2.4c-0.5-1.3-1.1-2.2-2.8-2.2h-0.4v4.6h-1.3V39.5H179.2z"/>
		<path class="st0" d="M187.2,39.5v4.2c0,1.6,0,2.9-0.1,4.3l0,0c0.5-1,1.1-2.1,1.9-3.3l3.3-5.2h1.3v10.1h-1.2v-4.3
			c0-1.6,0-2.8,0.1-4.1l0,0c-0.5,1.1-1.2,2.3-1.9,3.4l-3.2,5H186V39.5H187.2z"/>
		<path class="st0" d="M201.4,49.6l-1.3-2.2c-0.5-0.9-0.8-1.4-1.2-2h0c-0.3,0.6-0.6,1.1-1.1,2l-1.2,2.2h-1.5l3.1-5.1l-3-5h1.5
			l1.3,2.4c0.4,0.7,0.7,1.2,0.9,1.7h0c0.3-0.6,0.5-1.1,0.9-1.7l1.4-2.4h1.5l-3.1,4.9l3.1,5.2H201.4z"/>
		<path class="st0" d="M208.9,39.5v9h4.6v-9h1.3v9l0.9,0l-0.1,3.5h-1l-0.1-2.4h-6.9V39.5H208.9z"/>
		<path class="st0" d="M222.5,44.8h-3.9v3.6h4.4v1.1h-5.7V39.5h5.5v1.1h-4.1v3.2h3.9V44.8z"/>
		<path class="st0" d="M226,39.5v4.2h4.9v-4.2h1.3v10.1h-1.3v-4.7H226v4.7h-1.3V39.5H226z"/>
		<path class="st0" d="M236.3,40.6h-3.1v-1.1h7.5v1.1h-3.1v9h-1.3V40.6z"/>
		<path class="st0" d="M241.9,39.6c0.6-0.1,1.5-0.2,2.5-0.2c1.3,0,2.2,0.3,2.8,0.8c0.5,0.5,0.9,1.2,0.9,2.1c0,0.9-0.3,1.6-0.8,2.2
			c-0.7,0.7-1.8,1.1-3.1,1.1c-0.4,0-0.7,0-1-0.1v4h-1.3V39.6z M243.2,44.5c0.3,0.1,0.6,0.1,1.1,0.1c1.6,0,2.5-0.8,2.5-2.1
			c0-1.3-1-2-2.4-2c-0.6,0-1,0-1.2,0.1V44.5z"/>
		<path class="st0" d="M258.3,44.4c0,3.5-2.1,5.3-4.7,5.3c-2.7,0-4.5-2.1-4.5-5.1c0-3.2,2-5.3,4.7-5.3
			C256.5,39.3,258.3,41.4,258.3,44.4z M250.5,44.6c0,2.2,1.2,4.1,3.2,4.1c2.1,0,3.2-1.9,3.2-4.2c0-2-1-4.1-3.2-4.1
			C251.5,40.4,250.5,42.4,250.5,44.6z"/>
		<path class="st0" d="M260,39.6c0.6-0.1,1.5-0.2,2.4-0.2c1.3,0,2.1,0.2,2.8,0.7c0.5,0.4,0.9,1,0.9,1.8c0,1-0.7,1.8-1.7,2.2v0
			c1,0.2,2.1,1,2.1,2.5c0,0.9-0.3,1.5-0.9,2c-0.7,0.6-1.8,0.9-3.5,0.9c-0.9,0-1.6-0.1-2-0.1V39.6z M261.3,43.8h1.2
			c1.4,0,2.2-0.7,2.2-1.7c0-1.2-0.9-1.6-2.2-1.6c-0.6,0-0.9,0-1.2,0.1V43.8z M261.3,48.6c0.3,0,0.6,0.1,1.1,0.1c1.3,0,2.6-0.5,2.6-2
			c0-1.4-1.2-1.9-2.6-1.9h-1.1V48.6z"/>
	</g>
	<circle class="st0" cx="29.5" cy="29.5" r="6.8"/>
	<path class="st0" d="M29.5,58.9C13.2,58.9,0,45.7,0,29.5S13.2,0,29.5,0s29.5,13.2,29.5,29.5S45.7,58.9,29.5,58.9z M29.5,7
		C17.1,7,7,17.1,7,29.5c0,12.4,10.1,22.5,22.5,22.5s22.5-10.1,22.5-22.5C51.9,17.1,41.8,7,29.5,7z"/>
</g>
</svg>
