<?xml version="1.0" encoding="utf-8"?>
<!-- Generator: Adobe Illustrator 26.0.3, SVG Export Plug-In . SVG Version: 6.00 Build 0)  -->
<svg version="1.1" id="Layer_1" xmlns="http://www.w3.org/2000/svg" xmlns:xlink="http://www.w3.org/1999/xlink" x="0px" y="0px"
	 viewBox="0 0 131.4 63.4" style="enable-background:new 0 0 131.4 63.4;" xml:space="preserve">
<style type="text/css">
	.st0{fill:#284077;}
	.st1{fill:#A4C0E1;}
	.st2{fill:#5493CE;}
	.st3{fill:#4B98CB;}
</style>
<g>
	<path class="st0" d="M8.2,56.9c-0.7,0.8-1.7,1.2-2.7,1.2c-2,0-3.6-1.6-3.6-3.6c0-2,1.6-3.6,3.6-3.6c1,0,2,0.4,2.7,1.2l0.1,0.1
		l1.4-1.4l-0.1-0.1C8.6,49.6,7.1,49,5.5,49C2.5,49,0,51.5,0,54.5s2.5,5.6,5.5,5.6c1.5,0,3-0.6,4.1-1.8l0.1-0.1l-1.4-1.4L8.2,56.9z
		 M9.5,54.3h2.3v5.6h2v-5.6H16v-2H9.5V54.3z M20.9,52.2c-0.8,0-1.6,0.3-2.1,0.9v-0.7h-2v11.1h2v-4.2c0.5,0.5,1.2,0.9,2.1,0.9
		c2.1,0,3.8-1.7,3.8-3.9C24.6,53.9,23,52.2,20.9,52.2z M20.7,58.1c-1.1,0-2-0.9-2-2c0-1.1,0.9-2,2-2s2,0.9,2,2
		C22.7,57.2,21.8,58.1,20.7,58.1z M29.3,52.2c-2.2,0-3.9,1.8-3.9,3.9s1.8,3.9,3.9,3.9s3.9-1.8,3.9-3.9S31.5,52.2,29.3,52.2z
		 M29.3,58.1c-1.1,0-2-0.9-2-2c0-1.1,0.9-2,2-2s2,0.9,2,2C31.3,57.2,30.4,58.1,29.3,58.1z M36.3,56.7v-4.3h-2v7.6h1.8l3.4-4.3v4.3h2
		v-7.6h-1.8L36.3,56.7z M45.1,56.1v-7h-2v10.8h1.8l4.8-7v7h2V49.1h-1.8L45.1,56.1z M58.5,55.2h-3.2v-2.8h-2v7.6h2v-2.8h3.2v2.8h2
		v-7.6h-2V55.2z M72.9,52.4h-2.5L68,55.1v-2.8h-2v2.8l-2.3-2.8h-2.5l3.1,3.7L61,59.9h2.5l2.5-3v3h2v-3l2.5,3H73L69.8,56L72.9,52.4z
		 M75.6,56.7v-4.3h-2v7.6h1.8l3.4-4.3v4.3h2v-7.6h-1.8L75.6,56.7z M87.4,55.2h-3.2v-2.8h-2v7.6h2v-2.8h3.2v2.8h2v-7.6h-2V55.2z
		 M92.9,56.7v-4.3h-2v7.6h1.8l3.4-4.3v4.3h2v-7.6h-1.8L92.9,56.7z M103.7,52.2c-0.8,0-1.6,0.3-2.1,0.9v-0.7h-2v11.1h2v-4.2
		c0.5,0.5,1.2,0.9,2.1,0.9c2.1,0,3.8-1.7,3.8-3.9C107.5,53.9,105.9,52.2,103.7,52.2z M103.6,58.1c-1.1,0-2-0.9-2-2c0-1.1,0.9-2,2-2
		s2,0.9,2,2C105.5,57.2,104.6,58.1,103.6,58.1z M110.6,56.7v-4.3h-2v7.6h1.8l3.4-4.3v4.3h2v-7.6H114L110.6,56.7z M122.4,55.2h-3.2
		v-2.8h-2v7.6h2v-2.8h3.2v2.8h2v-7.6h-2V55.2z M125.9,52.4v7.6h2v-5.7h3.5v-1.9H125.9z M40.1,50.9l-2.2-1.4l-2.2,1.4l2.2,1.4
		L40.1,50.9z"/>
	<g>
		<path class="st1" d="M48.8,11.3L46.1,13l0,9.1L65.5,0L55.1,6.8l0-3.6h-6.4L48.8,11.3z"/>
		<path class="st2" d="M65.5,9.2l-19.4,13L65.5,0l19.3,13l-6.6,4.6L65.5,9.2z"/>
		<path class="st0" d="M65.5,25.7l-6.4-4l6.4-3.9l6.4,3.9L65.5,25.7z"/>
		<path class="st0" d="M65.5,44.4l-19.3-13l6.6-4.6l12.7,8.5l19.2-12.9L65.5,44.4z"/>
		<path class="st3" d="M84.7,31.5l-19.2,13l19.2-22.1V31.5z"/>
	</g>
</g>
</svg>
