<svg id="Layer_1" data-name="Layer 1" xmlns="http://www.w3.org/2000/svg" xmlns:xlink="http://www.w3.org/1999/xlink" viewBox="0 0 200 200"><defs><style>.cls-1,.cls-2,.cls-3,.cls-4,.cls-5,.cls-6,.cls-7,.cls-8,.cls-9{fill-rule:evenodd;}.cls-1{fill:url(#linear-gradient);}.cls-2{fill:url(#linear-gradient-2);}.cls-3{fill:url(#linear-gradient-3);}.cls-4{fill:url(#linear-gradient-4);}.cls-5{fill:url(#linear-gradient-5);}.cls-6{fill:url(#linear-gradient-6);}.cls-7{fill:url(#linear-gradient-7);}.cls-8{fill:#00529c;}.cls-9{fill:#5d5d5c;}</style><linearGradient id="linear-gradient" x1="144.38" y1="188.63" x2="154.83" y2="198.95" gradientTransform="translate(0 -88)" gradientUnits="userSpaceOnUse"><stop offset="0" stop-color="#c00808"/><stop offset="0.3" stop-color="#e3000f"/><stop offset="0.33" stop-color="#e5221c"/><stop offset="0.39" stop-color="#ea4e3f"/><stop offset="0.47" stop-color="#f1897f"/><stop offset="0.53" stop-color="#f6b1b5"/><stop offset="0.55" stop-color="#f39892"/><stop offset="0.59" stop-color="#ee7466"/><stop offset="0.62" stop-color="#ea5444"/><stop offset="0.66" stop-color="#e7382c"/><stop offset="0.69" stop-color="#e5221c"/><stop offset="0.72" stop-color="#e30c12"/><stop offset="0.75" stop-color="#e3000f"/><stop offset="1" stop-color="#c00808"/></linearGradient><linearGradient id="linear-gradient-2" x1="140.36" y1="180.93" x2="165.61" y2="199.28" gradientTransform="translate(0 -88)" gradientUnits="userSpaceOnUse"><stop offset="0" stop-color="#fff"/><stop offset="0.34" stop-color="#fff"/><stop offset="0.54" stop-color="#fff"/><stop offset="0.91" stop-color="#d3daf0"/><stop offset="1" stop-color="#d3daf0"/></linearGradient><linearGradient id="linear-gradient-3" x1="144.75" y1="186.54" x2="158.74" y2="200.35" gradientTransform="translate(0 -88)" gradientUnits="userSpaceOnUse"><stop offset="0" stop-color="#004993"/><stop offset="0.13" stop-color="#004993"/><stop offset="0.17" stop-color="#0e539c"/><stop offset="0.31" stop-color="#5577b7"/><stop offset="0.41" stop-color="#7a91c9"/><stop offset="0.46" stop-color="#889cd0"/><stop offset="0.47" stop-color="#8197cd"/><stop offset="0.55" stop-color="#3e69ad"/><stop offset="0.61" stop-color="#04519a"/><stop offset="0.64" stop-color="#004993"/><stop offset="0.92" stop-color="#004993"/></linearGradient><linearGradient id="linear-gradient-4" x1="158.55" y1="188.86" x2="164.19" y2="192.53" gradientTransform="translate(0 -88)" gradientUnits="userSpaceOnUse"><stop offset="0" stop-color="#c00808"/><stop offset="0.47" stop-color="#e3000f"/><stop offset="1" stop-color="#f6b1b5"/></linearGradient><linearGradient id="linear-gradient-5" x1="163.31" y1="175.48" x2="179.02" y2="188.53" gradientTransform="translate(0 -88)" gradientUnits="userSpaceOnUse"><stop offset="0" stop-color="#d3ddf2"/><stop offset="0.07" stop-color="#d3ddf2"/><stop offset="0.12" stop-color="#bbc8e7"/><stop offset="0.21" stop-color="#7f96c9"/><stop offset="0.35" stop-color="#0d539b"/><stop offset="0.37" stop-color="#004993"/><stop offset="0.43" stop-color="#004e97"/><stop offset="0.52" stop-color="#215aa0"/><stop offset="0.63" stop-color="#4b71b1"/><stop offset="0.76" stop-color="#7e96c9"/><stop offset="0.9" stop-color="#bdc9e7"/><stop offset="0.95" stop-color="#d3ddf2"/><stop offset="1" stop-color="#d3ddf2"/></linearGradient><linearGradient id="linear-gradient-6" x1="166.61" y1="171.72" x2="181.48" y2="184.08" gradientTransform="translate(0 -88)" gradientUnits="userSpaceOnUse"><stop offset="0" stop-color="#fff"/><stop offset="0.17" stop-color="#fff"/><stop offset="0.24" stop-color="#fafafd"/><stop offset="0.32" stop-color="#ebeef8"/><stop offset="0.35" stop-color="#e2e6f5"/><stop offset="0.45" stop-color="#eff1fa"/><stop offset="0.58" stop-color="#fbfcfe"/><stop offset="0.7" stop-color="#fff"/><stop offset="1" stop-color="#fff"/></linearGradient><linearGradient id="linear-gradient-7" x1="160.85" y1="180.73" x2="174.1" y2="191.74" gradientTransform="translate(0 -88)" gradientUnits="userSpaceOnUse"><stop offset="0" stop-color="#f6b1b5"/><stop offset="0.06" stop-color="#f6b1b5"/><stop offset="0.07" stop-color="#f4a4a3"/><stop offset="0.13" stop-color="#ee7769"/><stop offset="0.18" stop-color="#ea4e3f"/><stop offset="0.22" stop-color="#e62f24"/><stop offset="0.25" stop-color="#e41315"/><stop offset="0.28" stop-color="#e3000f"/><stop offset="0.29" stop-color="#e0010e"/><stop offset="0.44" stop-color="#c9070a"/><stop offset="0.52" stop-color="#c00808"/><stop offset="0.57" stop-color="#c9070a"/><stop offset="0.68" stop-color="#e0010e"/><stop offset="0.69" stop-color="#e3000f"/><stop offset="0.89" stop-color="#f4a7a7"/><stop offset="1" stop-color="#f6b1b5"/></linearGradient></defs><path class="cls-1" d="M140.17,110.77c8.52-6.54,13-9.1,23.22-9.24l-2.18,3.14a1.44,1.44,0,0,1-1.74.78c-7.28-.06-12.27.47-21,7.17Z"/><path class="cls-2" d="M140.58,110.25C148.91,102.36,156,98.77,162.15,98c.58-.72,2.45-3.31,3-4.19C151.34,96.24,145,105.78,140.58,110.25Z"/><path class="cls-3" d="M140.58,110.3c-.08.08-.38.44-.66.72l-.25.27a65.43,65.43,0,0,1,7.89-5.62,33.28,33.28,0,0,1,11.8-3.86c.47-.58,2.07-2.71,2.79-3.86C152.63,99.41,146.32,105,140.58,110.3Z"/><path class="cls-4" d="M161,105.06c.11-.33.28-.63-.71-1.24-1.3-.77-1.74-.44-1.44-1.21s2.9-1.8,4.86-1A38,38,0,0,0,161,105.06Z"/><path class="cls-5" d="M168.52,92.93a5.42,5.42,0,0,0-4.05,1.79l-2.71,3.86c.64-.58,2.4-.86,4.33-.86h.47c.28,0,.58,0,.86,0,2.78-.06,6.59-.47,8.9-3.28l3.29-4.91L180,89C177.1,92.87,170.59,92.54,168.52,92.93Z"/><path class="cls-6" d="M173.54,88.43a9.45,9.45,0,0,0-4.39,1.16,21.25,21.25,0,0,0-4.57,5c.85-1,2.17-1.3,3.86-1.55s4.19-.13,6-.44A7.76,7.76,0,0,0,180,89l2.87-4.33C179.8,87.85,176.43,88,173.54,88.43Z"/><path class="cls-7" d="M170.12,97.15c-2.07.27-4.47.33-5.16.44-1.16,0-2.76.44-3.17,1a34.8,34.8,0,0,0-2.95,4c.77-.78,3.47-.72,6.7-.86a12.59,12.59,0,0,0,9.05-4.66l2-2.84C175.22,96,172.9,96.73,170.12,97.15Z"/><path class="cls-8" d="M105.58,94.94l-5.48,11h2.06l4.09-8.58h.11l4.52,8.58h4.72l-6.07-11ZM46.24,96.43a11.29,11.29,0,0,0-6.79-1.88,11.77,11.77,0,0,0-4.33.67,9.08,9.08,0,0,0-3,1.82l2.12,1.21.52-.58a5.75,5.75,0,0,1,1.8-1.21A6.15,6.15,0,0,1,39.17,96a4.89,4.89,0,0,1,3.56,1.21,3.73,3.73,0,0,1,1.05,2.21l-6.45-.09v1.82l6.4-.08a3.85,3.85,0,0,1-1.36,2.79,5.41,5.41,0,0,1-3.31.91,5.41,5.41,0,0,1-3-.72,6,6,0,0,1-1.62-1.49l-.28-.44-2.12,1.24a10.32,10.32,0,0,0,2.59,2,9.88,9.88,0,0,0,4.72,1,11.59,11.59,0,0,0,6.84-1.87,5.2,5.2,0,0,0,2.12-4A5.09,5.09,0,0,0,46.24,96.43Zm-8.91,4.71Zm92.22-4.71a12.3,12.3,0,0,0-13.07,0,4.82,4.82,0,0,0,0,8A11.59,11.59,0,0,0,123,106.3a11.33,11.33,0,0,0,6.54-1.87,5.28,5.28,0,0,0,2.18-4A5,5,0,0,0,129.55,96.43Zm-3.36,7.09A3.69,3.69,0,0,1,123,105a3.76,3.76,0,0,1-3.17-1.43,5,5,0,0,1-.85-3,5.14,5.14,0,0,1,.85-3.09,4.24,4.24,0,0,1,6.35,0,5,5,0,0,1,.85,3.09A4.78,4.78,0,0,1,126.19,103.52Zm-24.91-3.15a3.82,3.82,0,0,0-1.79-3.14,8.69,8.69,0,0,0-4.25-1.16A8.72,8.72,0,0,0,94,96h-.44V94.47H89.37V96h-.44a8.38,8.38,0,0,0-1.24.06,8.24,8.24,0,0,0-4.25,1.16,3.6,3.6,0,0,0-1.79,3.14,3.66,3.66,0,0,0,1.79,3.15,8.07,8.07,0,0,0,4.25,1.15c.38,0,.82.06,1.24.06h.44v1.63h4.19v-1.63H94a9.22,9.22,0,0,1,1.24-.06,8.31,8.31,0,0,0,4.25-1.15A3.55,3.55,0,0,0,101.28,100.37Zm-11.75,2.84h-.47a5.24,5.24,0,0,1-1.35-.19,2.87,2.87,0,0,1-1-.47,2.65,2.65,0,0,1-.86-2.18,2.85,2.85,0,0,1,.86-2.18,2.67,2.67,0,0,1,1-.52,4.08,4.08,0,0,1,1.35-.19h.47Zm6.71-.71a1.91,1.91,0,0,1-1,.46,4.24,4.24,0,0,1-1.35.2h-.47V97.45h.47a8.54,8.54,0,0,1,1.35.25,2.74,2.74,0,0,1,1,.47,2.64,2.64,0,0,1,.85,2.17A2.49,2.49,0,0,1,96.24,102.5ZM78.61,96.43a12.3,12.3,0,0,0-13.07,0,5.18,5.18,0,0,0-2.12,4,5.11,5.11,0,0,0,2.12,4,12.35,12.35,0,0,0,13.07,0,4.82,4.82,0,0,0,0-8Zm-3.36,7.09a4.24,4.24,0,0,1-6.35,0,4.61,4.61,0,0,1-.85-3,4.76,4.76,0,0,1,.85-3.09A3.69,3.69,0,0,1,72.08,96a3.76,3.76,0,0,1,3.17,1.43,5,5,0,0,1,.85,3.09A4.91,4.91,0,0,1,75.25,103.52ZM61.43,95.71c-1-.58-2.37-.77-4.58-.77h-7.2V106h4.2V102h2.37v0H57a8.64,8.64,0,0,0,4.44-.86A3.08,3.08,0,0,0,63,98.36,3,3,0,0,0,61.43,95.71Zm-3.61,4.08a3,3,0,0,1-1.6.47H53.85V96.57h1.93a1.42,1.42,0,0,1,.44.05,2.7,2.7,0,0,1,1.63.44,1.58,1.58,0,0,1,.71,1.35A1.49,1.49,0,0,1,57.82,99.79ZM22.9,94.88,17.11,106h2.07l1.63-3.17h5.87L28.47,106h4.67L26.79,94.88Zm-1.21,6.4,2-3.86h.05l.06.08,2.06,3.75H21.69Zm109.38-6.34v1.63h4.47V106h4.24v-9.4h4.47V94.94Z"/><path class="cls-9" d="M118,111.57l-2.79,2.7.94-2.7h-.72l-1.24,3.67h.72l2.78-2.73-.91,2.73h.72l1.24-3.67Zm-4.33,0-.5,1.43H111.4l.5-1.43h-.72l-1.24,3.67h.72l.58-1.71H113l-.58,1.71h.74l1.24-3.67Zm-4.22,0-2.79,2.7.91-2.7h-.69l-1.24,3.67h.69l2.79-2.73-.91,2.73h.69l1.24-3.67Zm-5.82,0h0l-.41,1.05c-.14.36-.28.71-.45,1-.24.52-.46,1-1.1,1.15l-.11.47a2,2,0,0,0,.83-.27c.72-.47,1-1.24,1.49-2.54L104,112h.88l-1.07,3.2h.69l1.24-3.67ZM89,111.49a3.3,3.3,0,0,0-1,.13,1.13,1.13,0,0,0-.8.86l.64,0a.55.55,0,0,1,.16-.31,1,1,0,0,1,.8-.24.56.56,0,0,1,.42.13c.11.14,0,.31,0,.47L89,113h-.53a2.86,2.86,0,0,0-.52,0,1.68,1.68,0,0,0-1.57,1.13c-.2.58,0,1.07.8,1.07a1.76,1.76,0,0,0,.74-.13h0a3.2,3.2,0,0,0,.52-.36h0l-.14.47H89l.8-2.4a1.2,1.2,0,0,0,.08-1A1.5,1.5,0,0,0,89,111.49Zm-.38,2.81a1.24,1.24,0,0,1-.36.33,1.28,1.28,0,0,1-.25.11.81.81,0,0,1-.38.08.56.56,0,0,1-.45-.16.54.54,0,0,1,0-.47.78.78,0,0,1,.36-.44,1.1,1.1,0,0,1,.52-.19h0a1.24,1.24,0,0,1,.36,0h.52Zm13.37-2.48a1.11,1.11,0,0,0-.91-.33,3.3,3.3,0,0,0-1,.13,1.19,1.19,0,0,0-.8.86l.64,0a.55.55,0,0,1,.16-.31,1,1,0,0,1,.8-.24.38.38,0,0,1,.41.6l-.16.47h-.52a3,3,0,0,0-.53,0,1.68,1.68,0,0,0-1.57,1.13c-.19.58,0,1.07.8,1.07a2,2,0,0,0,.77-.13,2.61,2.61,0,0,0,.53-.36h0l-.16.47h.63l.8-2.4C102,112.48,102.14,112.12,101.94,111.82Zm-1.26,2.48a1.24,1.24,0,0,1-.36.33,1.06,1.06,0,0,1-.25.11.78.78,0,0,1-.36.08c-.17,0-.36,0-.44-.16a.48.48,0,0,1-.06-.47.88.88,0,0,1,.36-.44.92.92,0,0,1,.53-.19h0a1.34,1.34,0,0,1,.36,0H101Zm-2.93-2.73L95,114.27l.91-2.7h-.72l-1.24,3.67h.72l2.78-2.73-.91,2.73h.72l1.24-3.67Zm-3.91.22a1,1,0,0,0-.72-.22H91.27L90,115.24h1.82a2.84,2.84,0,0,0,.5-.06,2.47,2.47,0,0,0,.63-.3,1.8,1.8,0,0,0,.53-.69.69.69,0,0,0,0-.61.53.53,0,0,0-.41-.27l0,0a1.43,1.43,0,0,0,.58-.3,1.35,1.35,0,0,0,.31-.53A.65.65,0,0,0,93.84,111.79Zm-1.19,2.37a.91.91,0,0,1-.3.42s0,0,0,0a1.1,1.1,0,0,1-.55.14h-.86l.39-1.16h.91a.25.25,0,0,1,.14,0,.46.46,0,0,1,.3.11A.43.43,0,0,1,92.65,114.16Zm.5-1.6a.87.87,0,0,1-.31.42.82.82,0,0,1-.52.13h-.86l.36-1h.86a.55.55,0,0,1,.41.11C93.2,112.29,93.17,112.4,93.15,112.56Zm-12.55-1.1a4.19,4.19,0,0,0-.47.05,2.57,2.57,0,0,0-1.74,1.93c-.52,1.58.08,1.85.94,1.85a2.42,2.42,0,0,0,.8-.11,1.29,1.29,0,0,0,1-1l-.6-.08a1,1,0,0,1-1,.72c-.23,0-.78-.06-.47-.91l.11-.36h2.23C81.89,112.23,81.81,111.46,80.6,111.46Zm.25,1.43-.06.17H79.27l.06-.17a1.26,1.26,0,0,1,.77-.88h0a1.24,1.24,0,0,1,.31-.05C81.15,112,81,112.56,80.85,112.89Zm-6.24,1.38.91-2.7h-.69l-1.24,3.67h.72l2.79-2.73-.91,2.73h.71l1.24-3.67h-.69Zm-.77-2.78a1.32,1.32,0,0,0-.8.22,1.51,1.51,0,0,0-.41.58l-.11.19a.81.81,0,0,1-.33.44.61.61,0,0,1-.42.11h-.63l.5-1.46h-.72l-1.24,3.67h.71l.58-1.66h.69c.14,0,.31,0,.36.14a.47.47,0,0,1,0,.36l-.08.5c-.06.24-.09.49.19.63a1.74,1.74,0,0,0,.5.08l.3-.52a.34.34,0,0,1-.17,0c-.13,0-.13-.19-.11-.3l0-.25a1.42,1.42,0,0,0,0-.58c0-.14-.19-.22-.33-.25v0a.65.65,0,0,0,.41-.24,1.07,1.07,0,0,0,.25-.39l.14-.25a.66.66,0,0,1,.33-.41s.08,0,.25-.06Zm-4.33.16a1.28,1.28,0,0,0-.74-.19,2.47,2.47,0,0,0-1.19.3,2.8,2.8,0,0,0-1.16,1.6,1.7,1.7,0,0,0,.06,1.55,1.27,1.27,0,0,0,1,.35,2.69,2.69,0,0,0,.82-.11,4.13,4.13,0,0,0,.53-.24l-.11-.44a3.29,3.29,0,0,1-.47.19,2,2,0,0,1-.53.08.76.76,0,0,1-.66-.25c-.19-.25-.08-.66.08-1.13a2.76,2.76,0,0,1,.53-1.1,1,1,0,0,1,.74-.33c.25,0,.42.08.47.19s0,.3-.08.55l.69,0A.63.63,0,0,0,69.51,111.65Zm-4.71-.8a1.68,1.68,0,0,0,.8-.19,1,1,0,0,0,.52-.69H65.6a.45.45,0,0,1-.2.25.81.81,0,0,1-.47.16.42.42,0,0,1-.36-.16.31.31,0,0,1,0-.25h-.52a.55.55,0,0,0,.06.69A1.12,1.12,0,0,0,64.8,110.85Zm-2.16,3.42.91-2.7h-.68l-1.25,3.67h.72l2.79-2.73-.91,2.73h.71l1.24-3.67h-.68Zm-1.54-2.7-2.79,2.7.91-2.7h-.68l-1.25,3.67H58l2.79-2.73-.91,2.73h.72l1.24-3.67Zm-3.78,1.1c.25-.41.25-.8,0-1a1.35,1.35,0,0,0-.78-.19,2.43,2.43,0,0,0-1.18.3,3,3,0,0,0-1.16,1.6,1.7,1.7,0,0,0,.06,1.55,1.25,1.25,0,0,0,1,.35,2.71,2.71,0,0,0,.83-.11c.14-.08.36-.13.52-.24l-.08-.44a3.85,3.85,0,0,1-.47.19,2.09,2.09,0,0,1-.55.08.7.7,0,0,1-.63-.25c-.2-.25-.09-.66.08-1.13a2.77,2.77,0,0,1,.55-1.1.94.94,0,0,1,.75-.33.59.59,0,0,1,.49.19c.09.14,0,.3-.08.55Zm-3.67-1a1.32,1.32,0,0,0-.77-.19,2.41,2.41,0,0,0-1.18.3,2.9,2.9,0,0,0-1.16,1.6,1.7,1.7,0,0,0,.05,1.55,1.28,1.28,0,0,0,1,.35,2.75,2.75,0,0,0,.83-.11c.14-.08.36-.13.52-.24l-.08-.44c-.17,0-.3.13-.47.19a2.09,2.09,0,0,1-.55.08.72.72,0,0,1-.64-.25c-.19-.25-.08-.66.09-1.13a2.43,2.43,0,0,1,.55-1.1,1,1,0,0,1,.74-.33c.25,0,.42.08.47.19s0,.3-.08.55l.69,0A.68.68,0,0,0,53.65,111.65Zm-4.85-.16h0a2.21,2.21,0,0,0-.66.08,2.27,2.27,0,0,0-.69.39,2.67,2.67,0,0,0-.91,1.46,1.84,1.84,0,0,0-.08,1.43,1.05,1.05,0,0,0,1,.47,2.3,2.3,0,0,0,.63-.08,2.26,2.26,0,0,0,.69-.36,3.17,3.17,0,0,0,.94-1.44,2,2,0,0,0,0-1.46C49.68,111.68,49.35,111.49,48.8,111.49Zm.3,1.57-.24.63a1.8,1.8,0,0,1-.53.86,1.89,1.89,0,0,1-.19.14,1.3,1.3,0,0,1-.47.11.55.55,0,0,1-.52-.25c-.14-.25,0-.66.05-.86l.22-.63a2.36,2.36,0,0,1,.52-.86,1.32,1.32,0,0,0,.2-.13h0a1,1,0,0,1,.49-.11c.31,0,.45.13.5.24A1.09,1.09,0,0,1,49.1,113.06Zm-2.62-.61a2.22,2.22,0,0,0,.8-1.07,1.09,1.09,0,0,0-.16-1.11,1.8,1.8,0,0,0-1.24-.36H44.06l-1.8,5.3H43l.77-2.29h1.13a.93.93,0,0,0,.27,0h0A2.06,2.06,0,0,0,46.48,112.45Zm-1.43-.11H44l.61-1.79h1.07a.88.88,0,0,1,.64.22c.08.08.19.25.08.63a1.49,1.49,0,0,1-.47.69,1,1,0,0,1-.69.25Zm77.25-.77-2.79,2.7.91-2.7h-.71l-1.25,3.67h.72l2.79-2.73-.91,2.73h.71l1.24-3.67Z"/></svg>