<svg id="Layer_1" data-name="Layer 1" xmlns="http://www.w3.org/2000/svg" viewBox="0 0 200 200"><defs><style>.cls-1,.cls-2{fill:#004396;}.cls-1{fill-rule:evenodd;}</style></defs><path class="cls-1" d="M85.14,89.47,77.57,106h5.58l1.69-3.69h8.07L94.6,106h5.57L92.41,89.47Zm1.39,9.16,2.34-5.13,2.39,5.13Zm31.61-2a4.15,4.15,0,0,0,1.1-2.89A4.28,4.28,0,0,0,115,89.47h-12.2v3.64h10.46a1.44,1.44,0,0,1,0,2.88H105.3v3.39h9.61a1.44,1.44,0,1,1,0,2.88h-12.2v3.54h13.54A4.78,4.78,0,0,0,121,101,4.61,4.61,0,0,0,118.14,96.64Zm18.32-7.17-7.91,8.22V89.47h-5V105.8h5V97.74l1,.89h.05l6.87,7.17h5.63l-7.87-8.16,7.87-8.17Zm12.85,11.25V96.54h-4.43v9.26h4.43l3.73-4.13v4.13h4.43V96.54H153Zm29-9.71h-3V89.47h-5.08V91h-3.38a6.23,6.23,0,0,0-6.23,6.23v.54a6.23,6.23,0,0,0,6.23,6.23h3.38v1.74h5.08v-1.69h3a6.23,6.23,0,0,0,6.22-6.23v-.54A6.18,6.18,0,0,0,178.33,91Zm-8.07,9.56H169a3,3,0,1,1,0-6.07h1.24Zm6.32,0h-1.24V94.45h1.24a3.06,3.06,0,0,1,0,6.12Z"/><path class="cls-1" d="M51.74,70.21,27.2,85,40.14,104.7,15.45,90.22v24.84l24.74,14.73L64.83,115V89.47Zm8,41.86-12.79,7.87v-12.8L59.7,99.28Z"/><path class="cls-2" d="M78.32,110.93h.4c.45,0,.7-.2.7-.4s-.2-.4-.6-.4a1.51,1.51,0,0,0-.8.25l-.2-.5a2.51,2.51,0,0,1,1.2-.3c.55,0,1.24.2,1.24.85,0,.4-.4.65-.69.75h0c.44,0,.84.29.84.79,0,.75-.84,1-1.49,1a2.51,2.51,0,0,1-1.2-.3l.2-.55a2.67,2.67,0,0,0,.9.25c.45,0,.7-.2.7-.45s-.35-.45-.8-.45h-.4Z"/><path class="cls-2" d="M85.49,112.07a3.79,3.79,0,0,0,.05.8h-.75l-.05-.35h0a1.23,1.23,0,0,1-.94.45,1,1,0,0,1-1-1c0-.79.75-1.24,1.94-1.24v0c0-.2-.1-.55-.64-.55a1.87,1.87,0,0,0-.9.25l-.15-.55a2.31,2.31,0,0,1,1.19-.3,1.22,1.22,0,0,1,1.35,1.4v1.09Zm-.8-.8c-.59,0-1.14.1-1.14.6a.42.42,0,0,0,.45.45.66.66,0,0,0,.64-.45v-.6Z"/><path class="cls-2" d="M88.18,109.63a7,7,0,0,1,1.19-.1c.55,0,1.55,0,1.55.8a.71.71,0,0,1-.65.7h0a.77.77,0,0,1,.79.79c0,.9-1.19,1-1.84,1-.4,0-.84,0-1,0Zm.79,2.74h.4c.4,0,.85-.1.85-.5s-.35-.5-.9-.5H89Zm0-1.44h.35c.4,0,.75-.1.75-.45s-.25-.4-.7-.4a1.1,1.1,0,0,0-.4,0Z"/><path class="cls-2" d="M96.64,111.18A1.63,1.63,0,0,1,95,112.92a1.61,1.61,0,0,1-1.65-1.69,1.67,1.67,0,1,1,3.34,0Zm-2.44,0c0,.64.3,1.09.8,1.09s.79-.45.79-1.09-.25-1.1-.79-1.1S94.2,110.68,94.2,111.23Z"/><path class="cls-2" d="M101.92,109.58v2.64h.34l-.05,1.64h-.64l0-1H99.38l0,1h-.65l-.05-1.59h.3a1.89,1.89,0,0,0,.3-.65,4.51,4.51,0,0,0,.15-1.19v-.8h2.54Zm-1.65,1a3.16,3.16,0,0,1-.15,1,3.75,3.75,0,0,1-.24.6h1.24v-2h-.9v.45Z"/><path class="cls-2" d="M108.84,109.58v1.35h.09l1-1.35h1l-1.3,1.45c.45,0,.7.39,1,.94.1.25.2.6.35.9h-.85a3.22,3.22,0,0,1-.3-.7c-.2-.45-.45-.65-.85-.65h-.09v1.35H108v-3.24h.8Z"/><path class="cls-2" d="M113.27,110.68a7.06,7.06,0,0,0,0-1.1h.69l0,.5h0a1.3,1.3,0,0,1,1.1-.6,1.5,1.5,0,0,1,1.39,1.65,1.54,1.54,0,0,1-1.49,1.74,1,1,0,0,1-.9-.45h0v1.69h-.84v-3.43Zm.84.79v.25a.8.8,0,0,0,.75.6c.5,0,.84-.45.84-1.09s-.29-1-.79-1a.8.8,0,0,0-.75.6s0,.15,0,.2v.49Z"/><path class="cls-2" d="M122.13,111.18a1.63,1.63,0,0,1-1.7,1.74,1.61,1.61,0,0,1-1.64-1.69,1.67,1.67,0,1,1,3.34,0Zm-2.44,0c0,.64.3,1.09.79,1.09s.8-.45.8-1.09-.25-1.1-.8-1.1S119.69,110.68,119.69,111.23Z"/><path class="cls-2" d="M124.66,109.63a7.18,7.18,0,0,1,1.2-.1c.55,0,1.54,0,1.54.8a.71.71,0,0,1-.64.7h0a.78.78,0,0,1,.79.79c0,.9-1.19,1-1.84,1-.4,0-.85,0-1,0Zm.8,2.74h.4c.4,0,.85-.1.85-.5s-.35-.5-.9-.5h-.35Zm0-1.44h.35c.4,0,.75-.1.75-.45s-.25-.4-.7-.4a1.1,1.1,0,0,0-.4,0Z"/><path class="cls-2" d="M132.83,109.58v3.24H132v-2.64h-.89v.7c0,.84-.1,1.44-.5,1.69a1,1,0,0,1-.8.25l-.1-.65A.75.75,0,0,0,130,112c.25-.2.25-.6.25-1.19v-1.3h2.54Z"/><path class="cls-2" d="M136.26,109.58v1.15a10.71,10.71,0,0,1,0,1.29h0a5.11,5.11,0,0,1,.45-.94l.8-1.55h1v3.24h-.79v-1.15c0-.49,0-.74,0-1.39h0a5.54,5.54,0,0,1-.45,1c-.25.49-.55,1-.85,1.59h-1v-3.24h.84Z"/><path class="cls-2" d="M145.27,109.58v1.15a10.71,10.71,0,0,1-.05,1.29h.05a5.11,5.11,0,0,1,.45-.94l.8-1.55h1v3.24h-.79v-1.15c0-.49,0-.74.05-1.39h-.05a5.54,5.54,0,0,1-.45,1c-.25.49-.55,1-.85,1.59h-1v-3.24h.84Z"/><path class="cls-2" d="M155.68,108.14v1.39a1.7,1.7,0,0,1,0,3.39v1.24h-.8v-1.24a1.67,1.67,0,1,1,0-3.34v-1.39h.8Zm-.75,1.94a1.18,1.18,0,0,0,0,2.29Zm.75,2.29a1.2,1.2,0,0,0,0-2.29Z"/><path class="cls-2" d="M162.4,112.07a3.79,3.79,0,0,0,0,.8h-.75l0-.35h0a1.24,1.24,0,0,1-1,.45,1,1,0,0,1-1-1c0-.79.75-1.24,1.94-1.24v0c0-.2-.1-.55-.65-.55a1.83,1.83,0,0,0-.89.25l-.15-.55a2.31,2.31,0,0,1,1.19-.3,1.22,1.22,0,0,1,1.35,1.4v1.09Zm-.8-.8c-.6,0-1.14.1-1.14.6a.41.41,0,0,0,.44.45.66.66,0,0,0,.65-.45v-.6Z"/><path class="cls-2" d="M167.47,112.77a2,2,0,0,1-.94.15,1.58,1.58,0,0,1-1.69-1.65,1.66,1.66,0,0,1,1.79-1.74,1.82,1.82,0,0,1,.79.15l-.14.6a1.75,1.75,0,0,0-.6-.15,1,1,0,0,0-1,1.05,1,1,0,0,0,1,1,1.13,1.13,0,0,0,.65-.15Z"/><path class="cls-2" d="M172.45,112.07a3.79,3.79,0,0,0,.05.8h-.74l0-.35h0a1.24,1.24,0,0,1-1,.45,1,1,0,0,1-1-1c0-.79.75-1.24,1.95-1.24v0c0-.2-.1-.55-.65-.55a1.87,1.87,0,0,0-.9.25l-.15-.55a2.32,2.32,0,0,1,1.2-.3,1.22,1.22,0,0,1,1.34,1.4v1.09Zm-.79-.8c-.6,0-1.15.1-1.15.6a.42.42,0,0,0,.45.45.66.66,0,0,0,.65-.45v-.6Z"/><path class="cls-2" d="M178,109.58v2.64h.35l-.05,1.64h-.65l0-1h-2.14l-.05,1h-.65l-.05-1.59h.3a1.89,1.89,0,0,0,.3-.65,4.51,4.51,0,0,0,.15-1.19v-.8H178Zm-1.64,1a3.16,3.16,0,0,1-.15,1,3.06,3.06,0,0,1-.25.6h1.24v-2h-.89v.45Z"/><path class="cls-2" d="M183.35,112.07a3.79,3.79,0,0,0,.05.8h-.69l-.05-.35h0a1.24,1.24,0,0,1-.95.45,1,1,0,0,1-1-1c0-.79.74-1.24,1.94-1.24v0c0-.2-.1-.55-.65-.55a1.87,1.87,0,0,0-.9.25l-.15-.55a2.32,2.32,0,0,1,1.2-.3,1.22,1.22,0,0,1,1.34,1.4v1.09Zm-.79-.8c-.6,0-1.15.1-1.15.6a.42.42,0,0,0,.45.45.66.66,0,0,0,.65-.45v-.6Z"/></svg>