<svg id="Layer_1" data-name="Layer 1" xmlns="http://www.w3.org/2000/svg" viewBox="0 0 200 200"><defs><style>.cls-1{fill:#599ee1;}.cls-2{fill:#a3bf37;}.cls-3{fill:#414c5e;}</style></defs><path class="cls-1" d="M152.69,79.34A26.4,26.4,0,1,1,126.3,53,26.37,26.37,0,0,1,152.69,79.34Z"/><path class="cls-2" d="M105,113c26.42-9.23,17.07-38.26-5.15-60.33C75,79.62,82.05,104.14,95.2,110.8c.12.07.24.11.36.19C98.93,112.66,105,113,105,113Z"/><path class="cls-2" d="M127.13,66.27a2.62,2.62,0,0,0,1.27-2.14,3.4,3.4,0,0,0-.91-2.38,2,2,0,0,1-.67-1.07c0-.63.67-1,1.26-1.23A19.53,19.53,0,0,0,132.36,57c.4-.32.84-.76.68-1.23s-.52-.48-.87-.6a23.36,23.36,0,0,0-18.11,2.14,13.34,13.34,0,0,0-3,2.3c-.67.71-.24.68.44.91a3.07,3.07,0,0,1,1.42,1.11c.6.75,1.07,1.63,1.94,2,1.35.68,3-.12,4.52,0a6.28,6.28,0,0,1,2.57,1.11,15.47,15.47,0,0,0,2.42,1.47A3.27,3.27,0,0,0,127.13,66.27Zm23.81,6A54.57,54.57,0,0,0,147.89,65a1.74,1.74,0,0,0-.91-1.07c-.67-.24-1.35.36-2,.75a3.81,3.81,0,0,1-3.53.24c-.43-.2-.79-.48-1.22-.63a1.59,1.59,0,0,0-1.35,0c-1,.67-.16,2.49-1,3.4-.48.52-1.27.48-1.86.83-1.47.8-1.31,3.21-2.78,4-1.07.55-2.53,0-3.48.71a1.9,1.9,0,0,0-1.51,1.9,4.57,4.57,0,0,0,1.23,2.69,2.94,2.94,0,0,0,2.3,1.35c.91-.08,1.58-1,2.49-1.07a2.61,2.61,0,0,1,2.22,1.43,9.15,9.15,0,0,0,1.59,2.22c.71.55,2,.59,2.37-.24a11.57,11.57,0,0,1,.76,5.9c-.08.56,0,1.35.51,1.47s1-.56,1.55-.72c.95-.23,1.78,1.23,2.69.84a1.05,1.05,0,0,0,.44-1.27,3.94,3.94,0,0,0-.76-1.23,4.68,4.68,0,0,1-1-2.18,2.34,2.34,0,0,1,.8-2.18,1.6,1.6,0,0,1,2.17.24,3.21,3.21,0,0,1,.2,2.22c-.08.75.12,1.7.83,1.9a1.29,1.29,0,0,0,1.35-.47,4.29,4.29,0,0,0,.64-1.35A28,28,0,0,0,151.81,80,18.91,18.91,0,0,0,150.94,72.25Zm-16,16.16a22.34,22.34,0,0,0-.71-2.14c-.16-.35-.44-1.07-1-1s-.95.8-1.22,1.15c-.56.79-1.07,1.59-1.67,2.34a3.11,3.11,0,0,0-.51.75c-.16.44,0,.87,0,1.35a3.37,3.37,0,0,1-.72,1.39c-.59.91-1.3,3.6.16,4.12a1.39,1.39,0,0,0,1.15-.28,2.48,2.48,0,0,1,1.07-.52c.6,0,1.11.44,1.63.76a3.85,3.85,0,0,0,2,.55,2.55,2.55,0,0,0,1.5-.47,1.85,1.85,0,0,0,.79-1.35c.08-1-.67-1.78-1.14-2.62A13.12,13.12,0,0,1,134.9,88.41Zm-7.05-6.85a2.92,2.92,0,0,0-1.83-.87c-.71,0-.91.75-1,1.34a6.86,6.86,0,0,0,.56,2.66,3.21,3.21,0,0,0,.43.87.84.84,0,0,0,.88.24c.39-.2.47-.75.67-1.15s.55-.71.75-1.15A1.82,1.82,0,0,0,127.85,81.56Z"/><path class="cls-3" d="M99.64,160.59a2.38,2.38,0,0,1-1.7-.71c-.4-.4-41.64-41.36-52.53-52.06-11.89-11.64-17-34-4.88-51.18A40.18,40.18,0,0,1,64.22,40.48,37.87,37.87,0,0,1,91,43.81a2.42,2.42,0,1,1-2.29,4.27c-14.7-8-34.07-3-44.13,11.33-10.62,15.1-6.18,34.71,4.23,44.93,9.63,9.43,42.91,42.47,50.83,50.39l9.94-9.83a2.44,2.44,0,1,1,3.41,3.49l-11.61,11.49A2.43,2.43,0,0,1,99.64,160.59Z"/><path class="cls-3" d="M105,115.43a2.47,2.47,0,0,1-2.3-1.62,2.43,2.43,0,0,1,1.51-3.09C112,108,116.72,103.39,118.18,97c1.27-5.63,0-12.64-3.6-20.24A80.65,80.65,0,0,0,100,56.24C85.1,73.36,84.94,87.11,86.25,93.92s5.19,12.4,10.42,14.89a2.44,2.44,0,1,1-2.1,4.4c-6.58-3.13-11.49-10-13.07-18.34a39.49,39.49,0,0,1,1.86-20.32c2.77-7.93,7.72-15.85,14.78-23.46a2.55,2.55,0,0,1,1.74-.79,2.46,2.46,0,0,1,1.78.72A86.57,86.57,0,0,1,119,74.67c4.12,8.59,5.47,16.71,4,23.41-1.82,8-7.72,14-17.07,17.27A7,7,0,0,1,105,115.43Z"/><path class="cls-3" d="M126.3,108.14a28.71,28.71,0,0,1-9.51-1.62,2.43,2.43,0,0,1,1.59-4.6,24.31,24.31,0,0,0,7.92,1.35A24,24,0,1,0,109.23,62.5a2.44,2.44,0,0,1-3.49-3.4,28.83,28.83,0,1,1,20.56,49Z"/><path class="cls-3" d="M119.69,140.94a2.36,2.36,0,0,1-1.71-.71A58.79,58.79,0,0,1,101.74,111c-2.18-9.5-2-18.1-1.86-24.4,0-1.31,0-2.53,0-3.6a2.42,2.42,0,1,1,4.83,0c0,1.1,0,2.37,0,3.68-.28,11.88-.67,31.53,15,48.41l32.05-31.26a35.22,35.22,0,0,0-50.55-49,2.44,2.44,0,1,1-3.49-3.41,40.11,40.11,0,0,1,57.52,55.9s0,0,0,.08l-33.83,33A2.42,2.42,0,0,1,119.69,140.94Z"/></svg>