<svg id="Layer_1" data-name="Layer 1" xmlns="http://www.w3.org/2000/svg" viewBox="0 0 200 200"><defs><style>.cls-1{fill:#73b56d;}</style></defs><path class="cls-1" d="M59.18,98.86c-.67-.3-1-.46-1.26-.59a3.56,3.56,0,0,1-1-.33,118.57,118.57,0,0,1,11.75-3.56,13.91,13.91,0,0,1,0,1.84c-.25,1.72-.58,3.43-.79,5.15A2.46,2.46,0,0,1,66,103.63c-4.44,1.42-8.83,2.88-13.22,4.35-1,.33-1.72.79-1.72,2a13.73,13.73,0,0,1-.46,2.26c-.12.8.08,1,.88.8,1.67-.42,3.35-1,5-1.34,2.3-.5,4.6-1.09,7-.5a4.43,4.43,0,0,1,3.34,5.85,16.46,16.46,0,0,1-5.06,7.49,73.25,73.25,0,0,1-13.39,9.16c-1.59.88-3.26,1.68-5.1,2.6a15.72,15.72,0,0,1,.17-3.81c.37-4.64.75-9.29,1.17-13.93.12-1.25.25-2.51.38-3.72.29-3.27.62-6.53.83-9.75a2,2,0,0,1,1.47-2C51.06,101.7,54.91,100.32,59.18,98.86Zm-10.54,29c4.3-2.39,8.19-4.86,11.29-8.37a11.33,11.33,0,0,0,1.76-2.8,1.38,1.38,0,0,0-1.26-2.18,11.06,11.06,0,0,0-2.88.13c-2.1.5-4.15,1.21-6.2,1.8A1.88,1.88,0,0,0,49.93,118c-.42,2.72-.92,5.48-1.34,8.2C48.55,126.68,48.64,127.14,48.64,127.85Z"/><path class="cls-1" d="M66.16,78.32c-2.17.33-4.31.63-6.48.92-.42-1.42.08-2.72.29-4.1.09-.63.59-.67,1.09-.75,1.63-.3,3.26-.59,4.94-.92,1.92-.34,2.21-.72,1.92-2.64a5,5,0,0,0-3.47-4.06A13.51,13.51,0,0,0,57,66.4a26.54,26.54,0,0,0-9.49,4.1c-1,.62-1,.62-1.51-.38-.63-1.21-1.3-2.43-2-3.68S43.36,65,44.54,64c2.13-1.88,4.3-3.72,6.48-5.56.42-.38.84-.72,1.51-1.3-.26,1.21-.46,2.13-.72,3.26,2-.5,3.69-1,5.44-1.34a16.35,16.35,0,0,1,11.88,1.68,9.19,9.19,0,0,1,4.52,6.23c1.3,5.27,0,10.08-2.76,14.56a24.15,24.15,0,0,1-11.46,10,55.3,55.3,0,0,1-6.78,2c-1,.25-1.17,0-1.13-1.09a3.33,3.33,0,0,1,0-.63c.21-2.51.25-2.42,2.72-3a18.72,18.72,0,0,0,9.46-6.11A8.61,8.61,0,0,0,66.16,78.32Z"/><path class="cls-1" d="M159.41,104.25c-.63-1-1.22-1.88-2.09-3.22,3.26,1.8,6,3.68,9.07,5.61-1.63,1.3-3.13,2.47-4.68,3.64-2.68,2-2.72,2-6,1-4.85-1.55-8.91-4.18-11.63-8.62a9.91,9.91,0,0,1-.71-1.25,12.76,12.76,0,0,1-.41-1.63,7.25,7.25,0,0,0-.59,1.54c-.5,2.89-1,5.78-1.42,8.66a2,2,0,0,1-1.84,1.89c-1.63.29-3.22.66-5,1.08.08-.75,0-1.25.16-1.8,1.3-5.81,2.6-11.67,3.89-17.48.46-2,.92-4.06,1.26-6.11a1.9,1.9,0,0,1,1.71-1.76l4.1-.79c.09,2.8-1,5.4-1.21,8.53a10.74,10.74,0,0,0,1.13-1c2.64-3.14,5.23-6.32,7.87-9.5,1.17-1.42,1.29-1.42,2.88-.33.17.12.38.21.55.33.79.63.79.88.16,1.68-1.13,1.42-2.26,2.84-3.39,4.22-1.46,1.8-2.92,3.56-4.35,5.31-1.17,1.43-1.17,1.51-.08,3.06,2.13,3,5.15,4.81,8.32,6.4.72.33,1.51.54,2.26.83C159.28,104.42,159.37,104.34,159.41,104.25Z"/><path class="cls-1" d="M129.5,65c-.55,2.71-1,5-1.43,7.32,0,.29,0,.54-.08.83-.33,1.84-.33,1.84-2.13,2.3-.92.25-1.88.42-3.1.67.34-2.63.63-5,.92-7.4l1.13-9.54c.29-2.55.67-5.1.92-7.65a1.82,1.82,0,0,1,1.68-1.76c1.5-.25,3-.59,4.56-.88.58,1.71-.3,3.18-.51,4.68s-.46,3.1-.75,5.15c3-3.3,5.73-6.27,8.45-9.2l2.38-2.64c.72-.75.93-.71,1.76-.08a.62.62,0,0,0,.17.12c1.63,1.43,1.63,1.43.21,3.1-2.8,3.26-5.65,6.52-8.45,9.79-1,1.17-1,1.21.12,2.34,3.06,3.26,6.11,6.48,9.16,9.75.55.54,1,1.17,1.55,1.71s.5.92-.12,1.34c-1.76,1.09-3.52,2.26-5.27,3.35a1.21,1.21,0,0,1-1.8-.34c-1.26-1.59-2.6-3.09-4.19-4.89,1,.33,1.68.58,2.72.92A114.69,114.69,0,0,0,129.5,65Z"/><path class="cls-1" d="M111.43,104.5c.33-2.25.66-4.51,1-6.77.29-1.59.59-3.14,1-4.69a1.72,1.72,0,0,1,.71-1.13A68,68,0,0,1,121,90.16c-.93,5.1-1.76,9.79-2.64,14.85a14.29,14.29,0,0,0,1.38-1c1.88-1.54,3.77-3.09,5.61-4.68a3.33,3.33,0,0,0,1.21-2.3c.29-2.43.84-4.81,1.21-7.2a1.38,1.38,0,0,1,1.3-1.34c1.55-.25,3-.92,4.85-.71-.08.71-.08,1.43-.21,2-.71,3.48-1.5,6.91-2.22,10.38-.87,4.22-1.75,8.41-2.55,12.67a1.56,1.56,0,0,1-1.42,1.47c-1.09.16-2.17.33-3.39.54-.58-1.63.17-3.14.34-4.68s.46-3.14.75-5.11c-4.94,3.85-8.83,8.2-13.72,12.13.84-5.81,1.63-11.25,2.38-16.69l-.29-.12a6.06,6.06,0,0,0-.63.79c-.54,1.09-.5,2.43-1.67,3.18A.55.55,0,0,0,111.43,104.5Z"/><path class="cls-1" d="M105.53,72c1.84-1,3.68-2.13,5.6-3a3.34,3.34,0,0,0,2.14-3c.5-3.77,1.25-7.53,1.92-11.3.08-.54.29-1.09.38-1.63a1.22,1.22,0,0,1,1.13-1l4.68-.93c-.08.72-.17,1.3-.25,1.89-.71,3.59-1.46,7.23-2.13,10.83-.76,3.89-1.43,7.78-2.18,11.67-.08.42-.21.8-.29,1.22a1.14,1.14,0,0,1-1,1.13c-.88.16-1.76.5-2.64.67-1.34.25-1.55,0-1.42-1.43,0-.5.21-1,.29-1.42.13-.75.17-1.46.33-2.59-4.51,2.88-8.65,5.56-13.21,8.49.71-6.44,1.79-12.34,2.09-18.37-.71,1-1.38,2.14-2.09,3.18l-.3-.12c.59-2.6,1.26-5.15,1.68-7.74.33-2.18,1.17-3.56,3.59-3.6a22.17,22.17,0,0,0,3.27-.63c.79-.16,1,0,.88.8-.3,2-.63,4-1,6-.58,3.56-1.21,7.11-1.8,10.63Z"/><path class="cls-1" d="M97.33,94.76c-.25,2.26-.46,4.1-.71,6.15a22.27,22.27,0,0,0,5-1,1.91,1.91,0,0,0,.88-1.25c.25-1.22.41-2.47.54-3.73a1.49,1.49,0,0,1,1.17-1.5,9,9,0,0,1,4.06-.5c-.29,3-.59,6-.84,8.91-.38,4.1-.75,8.15-1.13,12.25-.12,1.26-.25,2.51-.46,3.73,0,.29-.33.71-.58.75-1.76.33-3.56.63-5.32.92,0,0-.08-.08-.29-.25.17-4.85,1.59-9.71,1.84-14.81a14.65,14.65,0,0,0-4.73.63c-.71.16-.92.71-1,1.38-.34,2.13-.71,4.22-1.09,6.36-.42,2.38-.84,4.76-1.21,7.19-.13.8-.46,1.3-1.26,1.38a2.73,2.73,0,0,0-.42.13c-3.72.88-3.51,1.13-3-2.55.76-5.36,1.22-10.8,1.84-16.15.21-1.93.55-3.85.8-5.77a1.18,1.18,0,0,1,1-1.18C93.86,95.43,95.4,95.13,97.33,94.76Z"/><path class="cls-1" d="M96.16,56.9c-.38,2.93-.76,5.69-1.13,8.45-.71,5.4-1.43,10.75-2.09,16.15-.09.71-.3,1.17-1,1.34l-3.72.92a16.34,16.34,0,0,1,0-5c.16-1.68.37-3.31.54-5,.08-.84.08-1.67.13-2.51,0-.59-.17-.92-.88-.84-1.38.21-2.76.42-4.14.59a1.24,1.24,0,0,0-1.22,1.21c-.08.55-.16,1.09-.25,1.68-.42,3.26-.79,6.48-1.17,9.74-.17,1.42-.12,1.47-1.51,1.88-.25.09-.54.13-.79.21-2.68.67-2.72.67-2.59-2,.08-1.68.25-3.35.41-5,.55-5.73,1.13-11.51,1.64-17.24.08-.83.29-1.25,1.17-1.38,1.17-.16,2.3-.5,3.47-.75.63-.13.92.21.84.84-.13,1.71-.3,3.47-.42,5.18-.13,1.43,0,1.68,1.42,1.47A29.8,29.8,0,0,0,88.67,66c.29-.08.54-.59.58-.92.21-1.38.3-2.76.42-4.14,0-.42,0-.84.09-1.26C90,58,90,58,91.68,57.61,93.1,57.28,94.44,56.65,96.16,56.9Z"/><path class="cls-1" d="M87.37,96.72c-.12,1-.21,1.76-.29,2.6-.21,1.84-.34,2.05-2.22,2.47s-3.51.75-5.31,1.08c-1,.21-1.76.59-1.93,1.8-.2,1.42-.54,2.85-.92,4.52,2-.38,3.81-.71,5.78-1,0,.59,0,1,0,1.51-.17,2.76-.17,2.76-2.93,3.26-3.22.59-3.22.59-3.89,3.77a8.9,8.9,0,0,0-.21,1c-.13,1-.21,1.88-.34,3.1,3.18-.59,6.2-1.13,9.25-1.68.63,3.6.59,3.73-2.59,4.4-4.06.83-8.16,1.59-12.43,2.42a9.29,9.29,0,0,1-.12-1.46c.33-3.18.75-6.36,1-9.54.38-3.6.67-7.19,1-10.79.08-1,.25-2,.37-3.1a1.44,1.44,0,0,1,1.13-1.34C77.62,98.69,82.44,97.69,87.37,96.72Z"/><path class="cls-1" d="M89,148.43v-2.64c-.54.46-.92.84-1.3,1.17-.79.67-1.5,1.47-2.34,2a2.47,2.47,0,0,1-3.39-.16c-.92-.8-1-.71-2,.21a14.35,14.35,0,0,1-2.35,1.75,2.59,2.59,0,0,1-4.1-2.13,7.84,7.84,0,0,1,.51-3.26,7.21,7.21,0,0,1,2.76-3.56c1-.67,2.46-.79,2.92-.21a2.39,2.39,0,0,1-.12,2.76,7.31,7.31,0,0,1-2.76,2.76c-.5.3-1.21.59-.84,1.43.29.62,1,.83,1.8.33,1.63-.92,3.14-2,3.51-4.1a7.08,7.08,0,0,1,3.06-4.56,3.67,3.67,0,0,1,1.71-.58,1.52,1.52,0,0,1,1.55,2.21,3.44,3.44,0,0,1-1,1.26,1,1,0,0,1-.93,0c-.12,0-.12-.46-.16-.75,0-.13.16-.26.16-.38a4.29,4.29,0,0,0-.08-.71,1.38,1.38,0,0,0-.71.33,6.67,6.67,0,0,0-1.59,4c0,.71,0,1.54.8,1.79A2,2,0,0,0,85.7,147a25.64,25.64,0,0,0,3.47-3.6c.54-.71.5-1.84.71-2.76.34-1.55.5-1.76,2-1.84.25,0,.5.37.79.62,2.31-2,2.68-2.09,4.73-.41a13.06,13.06,0,0,1,1.17-1.43,2,2,0,0,1,2.3-.37,1.75,1.75,0,0,1,.59,2.05l-.63,3.26a6.62,6.62,0,0,0,0,1.26,4.59,4.59,0,0,0,2.64-3.35,8.68,8.68,0,0,1,1.8-3.22,4.35,4.35,0,0,1,1.79-1.34,2.94,2.94,0,0,1,4.48,3.26,7.68,7.68,0,0,1-3.6,5.61c-1.8,1.13-2.67,1-4.26-.46a5.13,5.13,0,0,0-.59-.46c-.54.67-1.09,1.25-1.63,1.88a1.62,1.62,0,0,1-1.84.63c-.8-.25-.92-1-.92-1.72,0-.92.17-1.8.25-2.68s.12-1.75.25-3.13a15.78,15.78,0,0,0-3.1,5.52,16.6,16.6,0,0,0-.5,1.8,1.86,1.86,0,0,1-2.17,1.5c.37-2.51.71-5,1.13-7.78a3.64,3.64,0,0,0-1.76,1.93,34.19,34.19,0,0,0-1.92,4.81A1.88,1.88,0,0,1,89,148.43Zm20.37-9.79a9.45,9.45,0,0,0-.08-1,1,1,0,0,0-1.76-.46,7.3,7.3,0,0,0-1.84,5.53,1.57,1.57,0,0,0,.76,1.08,1.62,1.62,0,0,0,1.21-.5A7.67,7.67,0,0,0,109.33,138.64Zm-31.62,4.27a15.87,15.87,0,0,0-1.21,1.63c-.13.17,0,.46,0,.71a1.42,1.42,0,0,0,.63-.34C77.42,144.37,78.29,143.91,77.71,142.91Z"/><path class="cls-1" d="M62.15,153.66c.33-2,.67-3.85,1-5.73.71-4,1.55-8,1.47-12.18-.05-1.17.2-1.42,1.29-1.8.84-.29,1.09-.12,1.17.8,0,.63.13,1.21.21,1.84,0,0,.13,0,.25.08,1.22-1.88,2.43-3.8,4.52-4.85a5.14,5.14,0,0,1,1.72-.54c1.42-.13,2,.37,2.38,1.75a8.59,8.59,0,0,1-.21,5.15,14.32,14.32,0,0,1-6.48,8.32,8.73,8.73,0,0,1-2.89,1.05,1.32,1.32,0,0,0-1.25,1.34c-.13.84-.34,1.63-.42,2.47C64.78,153,63.86,153.62,62.15,153.66Zm11.79-18.78s0-.38-.12-.8c-.25-1-.67-1.21-1.47-.71a6.77,6.77,0,0,0-2,1.76,19.48,19.48,0,0,0-2.3,3.68,31.39,31.39,0,0,0-1.76,5.1c-.38,1.38.12,1.84,1.5,1.51a5.57,5.57,0,0,0,3.48-2.18A14.63,14.63,0,0,0,73.94,134.88Z"/><path class="cls-1" d="M136.48,129.65c-.08.83-.08,1.42-.16,2-.09.46-.46,1,.25,1.21a1.24,1.24,0,0,0,1.67-.75,7.34,7.34,0,0,0,.33-1.64c.09-.71.34-1.21,1.09-1.33a9.51,9.51,0,0,1,1.17-.13c0,.38,0,.75-.08,1.13-.29,1.51-.59,3-.84,4.52A5.51,5.51,0,0,0,140,136a6,6,0,0,1,.88-.75c.16-.13.5-.25.62-.17s.42.55.34.67a4.08,4.08,0,0,1-2.39,2.47,1,1,0,0,1-1.29-.71,8.2,8.2,0,0,1-.29-2c0-.46-.09-.88-.63-.88s-1.34-.25-1.59.59-.34,1.75-.59,2.63c-.16.67-.37,1.3-1.21,1.51s-.84.21-.88-.71a6.6,6.6,0,0,0-.17-1.13c-.75.84-1.29,1.59-2,2.22-1,.92-1.26.87-2.26,0-.25-.21-.5-.46-.71-.67a21.36,21.36,0,0,1-2.09,1.84c-1.43.92-2.77.33-3.23-1.3a3.5,3.5,0,0,1-.12-.63c0-2.34,1.67-6.06,4.35-7.4a5.07,5.07,0,0,1,1.63-.29c.67-.09,1.38-.13,2.05-.26s1,0,.84.84c-.3,1.42-.63,2.85-.92,4.27a15.29,15.29,0,0,0-.17,1.84,7.74,7.74,0,0,0,3.85-6.11C134.14,130.19,134.27,130.19,136.48,129.65Zm-11.75,8.57c.17.25.29.67.58.88.13.08.63-.17.84-.38a7.87,7.87,0,0,0,2.38-4.93,1.07,1.07,0,0,0-.5-1,1.12,1.12,0,0,0-1.08.25A9.37,9.37,0,0,0,124.73,138.22Z"/><path class="cls-1" d="M121.51,136.09a8.19,8.19,0,0,1-3.56,6.32,4.19,4.19,0,0,1-2.34.71c-.75,0-1,.37-1.13,1-.25,1.09-.46,2.17-.75,3.26a4.52,4.52,0,0,1-.8,1.63c-.12.21-.63.25-1,.21-.08,0-.25-.46-.21-.71.17-1.38.29-2.76.54-4.14.51-2.89,1-5.73,1.55-8.62.25-1.29,1-2,2.26-1.8a1.58,1.58,0,0,0,1.63-.42,1,1,0,0,1,.34-.2c1.34-.67,3.09-.46,3.3,1.75A5,5,0,0,1,121.51,136.09Zm-2.18-.25c-.12-.25-.25-.84-.58-1s-.88.21-1.13.55a13.15,13.15,0,0,0-2.43,5.23.91.91,0,0,0,1.09,1.08,2.77,2.77,0,0,0,1.13-.83A10.26,10.26,0,0,0,119.33,135.84Z"/><path class="cls-1" d="M148.45,78.44c5.1-2.21,9.79-4.26,14.47-6.27.92-.38,1.17-.25,1.55.71a.39.39,0,0,1,0,.21c.21.88.38,1.71.59,2.59-.8.21-1.55.42-2.35.59-4.35.79-8.74,1.55-13.13,2.3C149.37,78.53,149.07,78.49,148.45,78.44Z"/><path class="cls-1" d="M49.14,96.72c-1.13.17-2.3.3-3.43.46L35.58,98.56a4,4,0,0,1-1.25,0c-.25,0-.5-.38-.67-.63a1.63,1.63,0,0,1,0-.63c.08-2.84-.63-3.09,2.88-2.51,4.19.67,8.41,1.09,12.6,1.63C49.14,96.51,49.14,96.6,49.14,96.72Z"/><path class="cls-1" d="M111.34,104.46c0,.21-.08.38-.12.59,0-.17.12-.38.16-.55Z"/></svg>