<svg id="Layer_1" data-name="Layer 1" xmlns="http://www.w3.org/2000/svg" viewBox="0 0 200 200"><path d="M76.35,101.47c.11-.21.11-.42.22-.63L78.15,98H88.42c.42,0,1.69-1.27,1.06-1.27H78.79c5.29-8.68,12-15.77,20.42-12.8.64.21,2.65-1,1.69-1.38-9-3.28-16.72,4-21.58,10.9-.74,1.06-1.38,2.12-2.12,3.18H74.56c-.43,0-1.8,1.16-1.06,1.27,1.27.1,1.58,1.16,1.58,2.32-4.23,7.41-7.83,15.24-12.38,22.44C57,132,47,148.46,34.45,148.25A8.15,8.15,0,0,1,26,140.2c-.21-6,4-11,9.32-13.22,1.27-.53.84-1.59-.43-1.06-6.77,3-14.07,11.21-10,19.15,3.92,7.73,14.6,4.34,20.11.64,10.37-7,17.56-18.84,23.8-29.42,2-3.39,4.45-8.89,7.31-14.29A2.47,2.47,0,0,1,76.35,101.47ZM76.57,98a.11.11,0,0,1-.11.11V98Zm36.61,15.87c0,.64,1.27.32,1.27-.21.11-4.44-.11-9.63-1.69-14.18a1.31,1.31,0,0,1,.42-.84c.11-.11.21-.11.32-.22a.1.1,0,0,0,.1-.1.82.82,0,0,0,.74-.32c.22-.32-.21-.63-.42-.74a.64.64,0,0,0-.63,0h-1.38a19,19,0,0,0-2.43-3.92,7.53,7.53,0,0,0-.85-.84,17.87,17.87,0,0,0,2.22-.53,46.23,46.23,0,0,0,6.67-2.75c1.06-.53,2-1.17,3-1.7.32.11.64.32,1.06.43s1.06-.43.85-1h0c0,.1,0-.22.1-.32a2.49,2.49,0,0,1,1-1.17,32.59,32.59,0,0,0,6.35-6.34c1.7-2.23,5.4-7.2,3-10.06-1.17-1.48-3.39-1.48-5.08-1.48a14.1,14.1,0,0,0-7.09,2.33c-1.38.85-3.18,2.33-3.6,4-.32,1.48,1,2.33,2.22,2.54.64.11,1.27-.85.42-1-2-.32-1.58-1.8-.52-3.07a11,11,0,0,1,6.13-3.39c1.8-.42,5-1,6.35.64,1.17,1.27.32,3.38-.21,4.76-2.22,4.87-6.24,8.78-10.69,11.74-2.85-1.16-5.82-2.43-8.67-3.59-.53-.21-1-.43-1.49-.64s-1.37.74-.63,1.06c3.17,1.38,6.35,2.65,9.52,4a35.37,35.37,0,0,1-11.53,4.66,11.53,11.53,0,0,1-1.27-1.91,23.57,23.57,0,0,1-2-4.44,37.19,37.19,0,0,1-1.48-5,7.11,7.11,0,0,0,1.69.53l1.9.64a.67.67,0,0,0,.85-.32c.11-.32-.21-.53-.42-.63-1.38-.53-2.86-1-4.24-1.48-.31-1.49-.63-3-.84-4.34a51.1,51.1,0,0,1-.64-16.51c.32-2.33,1.06-7.51,4.45-6.88,2.54.53,4.23,2.86,5.5,5a20.29,20.29,0,0,1,3.07,8c.11.84.32,2.11-.21,2.85s-1.59.43-2.33,0c-.53-.21-1.59.53-.85.85,1.59.74,3.81,1,4.55-1.06s-.1-4.65-.84-6.67a23.91,23.91,0,0,0-4.34-7.61c-1.59-1.8-4.34-3.28-6.67-2.12-2.75,1.48-3.28,5.5-3.7,8.25a41.2,41.2,0,0,0-.32,8.15c.21,3.07.53,6.35,1.06,9.53a2.24,2.24,0,0,1-.11.84c-.1.21-.1.32-.21.43l-.21.21h0s-.11,0-.11.1a.34.34,0,0,1-.21.11h-.1a.4.4,0,0,0-.22.1c-.1.11-.31.11-.42.32s.21.53.42.64c.53.21,1.17.31,1.7.53a38.93,38.93,0,0,0,3.28,9.31A17.92,17.92,0,0,0,106,91.63l.32.32a.39.39,0,0,0-.32.11,33.23,33.23,0,0,0-11.53,5.18H92.54a2.25,2.25,0,0,0-.74.32s-.42.32-.21.32c.74.21.74.63.43,1.16-.22.1-.43.32-.64.42a74.81,74.81,0,0,0-9.31,7.94c-2.44,2.54-5.19,5.61-6.14,9.1-.85,3.28,1.27,5.18,4.34,5.61a16.22,16.22,0,0,0,13.33-4c2-1.8,3.81-5.29.11-6.35-.64-.21-1.27.74-.42,1,1.48.42,1.58,1.59.95,2.86a10.33,10.33,0,0,1-4.13,3.81,15.55,15.55,0,0,1-6.88,1.9c-1.8.11-4.55,0-5.71-1.69-2-2.75,1.69-7.09,3.28-9.1a58.46,58.46,0,0,1,8.25-7.94c2-1.59,4.13-3.28,6.35-4.76h4.23a2,2,0,0,0,.85-.32c.11-.1.42-.32.11-.32H96.46a33.2,33.2,0,0,1,7.3-3.59,20.38,20.38,0,0,1,3.49-.85l.85.85a16.15,16.15,0,0,1,2.33,3.59H103c-.32,0-.53.22-.42.53a.78.78,0,0,0,.74.53h7.51c.21.43.32.85.53,1.27A41.87,41.87,0,0,1,113.18,113.85ZM114,98.3Zm-13.76-19ZM93.39,98.09V98h.11Zm36.72,3.59c-.63.43-1.27,1.06-2,1.49a27.69,27.69,0,0,1-7.3,4.12c-.64.21-1.8.74-2.22-.1-.53-1.06.21-2.75.53-3.81a103.24,103.24,0,0,1,4.76-9.74c.31-.53-1-.32-1.17.11-1.16,2.22-2.32,4.34-3.49,6.66-.95,2-2.33,4.56-2,6.78.42,3.81,7.62-1,8.89-1.7a41.23,41.23,0,0,0,4.44-3.06c.32,0,.74.1,1.06.1-3.38,5.08-6.77,10.9-8,16.93-.64,3-.53,7.09,3.28,7.62s7.51-2.33,9.84-4.87c1.27-1.48,2.86-3.49,2.86-5.6,0-1.8-1.8-2.44-3.39-2.44-.84,0-.53.85.21.85,4.34,0,0,5.82-1.27,7.19a13.19,13.19,0,0,1-4.86,3.5c-1.17.42-2.65,1-3.92.42-3.28-1.38-1.37-7.09-.63-9.42a58.36,58.36,0,0,1,7.4-14.18c2.44,0,4.87-.21,7.2-.42.53,0,1.16-1,.32-.85l-6.88.32a54.3,54.3,0,0,1,3.81-4.87A14.18,14.18,0,0,1,141,93.54c.63-.32-.53-.85-1.06-.64a14.68,14.68,0,0,0-3.6,3.18,42,42,0,0,0-4.23,5.39A3.41,3.41,0,0,0,130.11,101.68ZM126,90.57c.11-.1.11-.21.11-.42s-.21-.21-.32-.32a.7.7,0,0,0-.84.32,9.58,9.58,0,0,0-1.17,1.69c-.1.11,0,.32,0,.43a.57.57,0,0,0,.42.21.91.91,0,0,0,.53-.11l.32-.31v.1A6.09,6.09,0,0,1,126,90.57ZM52.44,103.06a4.94,4.94,0,0,0,3.49-.32,4.05,4.05,0,0,0,2.65-1.9c.1-.21-.22-.32-.32-.11-.53,1.17-2.12,1.7-3.18,1.91-.63.1-3.59.63-2.75-.74a6.63,6.63,0,0,1,2.75-2.12,12.08,12.08,0,0,0,1.17-.53,14.53,14.53,0,0,1,2-.53c.53.11,1,.11,1.48.21.21,0,.32-.21.11-.31a1.76,1.76,0,0,0-.74-.11c1-.11,2-.32,3-.53,0,.11.1.11.1.21a6.77,6.77,0,0,1,1.06,1.27c-.1,0-.32-.1-.42-.1-.42-.11-1-.11-1.38-.21-.21,0-.53-.11-.74-.11a.16.16,0,0,0,0,.32c.64.1,1.17.1,1.8.21.32.1.74.1,1.06.21a5.46,5.46,0,0,1,.42.85.62.62,0,0,0,.11.42h0a2.19,2.19,0,0,1-.21,1.38c-.85,1.48-3.71-.22-3-1.8.11-.11-.21-.22-.31-.11-.74,1.48,1.37,2.86,2.64,2.65a1.75,1.75,0,0,0,1.17-1.49v-.74h0v-.74c0-.1.1-.21.21-.31.1-.32-.21-.43-.43-.53a.37.37,0,0,1-.31-.11,3.4,3.4,0,0,0-.53-.74,6.44,6.44,0,0,0-.74-.85,12.32,12.32,0,0,0,3.91-1.48c.11.11.21.11.32.21a.34.34,0,0,1,.21.11s.11.11.11,0h0c.1.11.32-.11.21-.21h0c-.11,0-.11-.11-.21-.21s0-.32.21-.43l.11-.1a8.63,8.63,0,0,0,2.43-3.07,2.81,2.81,0,0,0,.32-2.22c-.43-.85-1.7-.64-2.44-.43a2.82,2.82,0,0,0-2.33,2.44.16.16,0,0,0,.32,0c0-1,.85-1.59,1.7-2,.52-.22,1.69-.64,2.22-.22,1,.53,0,2.44-.43,3.07a8.43,8.43,0,0,1-3,2.86A6.85,6.85,0,0,0,65,95.44a16.55,16.55,0,0,0-2-.85c-.11-.1-.32.22-.11.32.64.32,1.38.53,2,.85.42.21.74.32,1.16.53a15.4,15.4,0,0,1-3.7,1.37,8.23,8.23,0,0,1-1.06-1.58,18.49,18.49,0,0,1-.85-2.23c.32.11.74.22,1.06.32s.32.11.53.21.32-.1.21-.21a3.71,3.71,0,0,0-1.16-.42c-.22-.11-.53-.11-.74-.21-.11-.43-.22-.74-.32-1.17A.62.62,0,0,0,60,92a22,22,0,0,1-.32-3.7c.11-1.17.32-2.86,1.38-3.5,1.38-1,2.75,1.06,3.28,2a3,3,0,0,1,.53,2.44,1,1,0,0,1-1.69.42c-.11-.1-.32,0-.22.11a1.44,1.44,0,0,0,1.8.1c.74-.63.43-1.9.11-2.64-.53-1.27-2.33-3.92-4-2.75-.95.63-1.27,2.11-1.38,3.06a14.73,14.73,0,0,0,.11,3.71c0,.21.1.32.1.53h0a1.73,1.73,0,0,1,.11.74V93c0,.1,0,.1-.11.1h-.21c-.1,0-.21.11-.1.21l.1.11h.21c.11,0,.32.11.43.11A10.4,10.4,0,0,0,62,97.45c-.42.11-.74.11-1.16.21a22.45,22.45,0,0,0-2.54.43c-.21,0-.53-.11-.74-.11s-.64-.1-.53.21l.1.11c-.1,0-.1.1-.21.1s-.31.11-.42.22a25.06,25.06,0,0,0-2.54,1.27C53.29,100.52,50.85,102.32,52.44,103.06Zm11.64-3.17h0a.15.15,0,0,1,0,.21c0-.11-.11-.21-.11-.32A.11.11,0,0,0,64.08,99.89Zm2.75-3.81v.21a.11.11,0,0,1-.11-.11S66.83,96.18,66.83,96.08ZM60,93.43Zm-2.54,5.08Zm105.08,11.64c-.53,1.16-2.11,1.69-3.17,1.91-.64.1-3.6.63-2.75-.75a6.56,6.56,0,0,1,2.75-2.11c.42-.21.84-.32,1.16-.53a15.31,15.31,0,0,1,2-.53c.53.11.95.11,1.48.21.21,0,.32-.21.11-.32a1.89,1.89,0,0,0-.74-.1c.95-.11,2-.32,3-.53,0,.1.11.1.11.21a7.17,7.17,0,0,1,1.06,1.27c-.11,0-.32-.11-.43-.11-.42-.1-.95-.1-1.37-.21-.22,0-.53-.1-.74-.1a.16.16,0,1,0,0,.31c.63.11,1.16.11,1.79.22.32.1.75.1,1.06.21a7.54,7.54,0,0,1,.43.84.68.68,0,0,0,.1.43h0a2.08,2.08,0,0,1-.21,1.37c-.85,1.48-3.7-.21-3-1.8.1-.1-.21-.21-.32-.1-.74,1.48,1.38,2.86,2.65,2.64.63-.1,1.05-.84,1.16-1.48v-.74h0v-.74c0-.1.1-.21.21-.32.11-.31-.21-.42-.42-.53a.41.41,0,0,1-.32-.1,3.4,3.4,0,0,0-.53-.74,5.86,5.86,0,0,0-.74-.85,12.62,12.62,0,0,0,3.92-1.48c.1.11.21.11.31.21a.34.34,0,0,1,.21.11s.11.1.11,0h0c.11.1.32-.11.21-.21h0c-.1,0-.1-.11-.21-.22s0-.31.21-.42l.11-.1a8.52,8.52,0,0,0,2.43-3.07,2.79,2.79,0,0,0,.32-2.23c-.42-.84-1.69-.63-2.43-.42a2.8,2.8,0,0,0-2.33,2.43.16.16,0,1,0,.31,0c0-1,.85-1.58,1.7-2,.53-.21,1.69-.63,2.22-.21,1,.53,0,2.44-.42,3.07a8.46,8.46,0,0,1-3,2.86,6.58,6.58,0,0,0-1.27-.53,15.11,15.11,0,0,0-2-.85c-.1-.1-.31.21-.1.32.63.32,1.37.53,2,.85.42.21.74.31,1.16.53a15.84,15.84,0,0,1-3.7,1.37,8.47,8.47,0,0,1-1.06-1.59,20.18,20.18,0,0,1-.85-2.22c.32.11.74.21,1.06.32s.32.11.53.21.32-.1.21-.21a3.62,3.62,0,0,0-1.16-.42c-.21-.11-.53-.11-.74-.22-.11-.42-.21-.74-.32-1.16a.6.6,0,0,0-.11-.42,22.12,22.12,0,0,1-.31-3.71c.1-1.16.31-2.85,1.37-3.49,1.38-1,2.75,1.06,3.28,2a3,3,0,0,1,.53,2.44,1,1,0,0,1-1.69.42c-.11-.11-.32,0-.21.11a1.45,1.45,0,0,0,1.8.1c.74-.63.42-1.9.1-2.64-.53-1.27-2.33-3.92-4-2.76a4.34,4.34,0,0,0-1.37,3.07,14.29,14.29,0,0,0,.1,3.71c0,.21.11.31.11.53h0a1.87,1.87,0,0,1,.1.74v.53c0,.1,0,.1-.1.1h-.21c-.11,0-.22.11-.11.21l.11.11h.21c.1,0,.31.1.42.1a10.25,10.25,0,0,0,1.91,3.92c-.43.11-.75.11-1.17.21a22.41,22.41,0,0,0-2.54.42c-.21,0-.53-.1-.74-.1s-.63-.11-.53.21l.11.11c-.11,0-.11.1-.21.1s-.32.11-.43.21c-.84.32-1.69.85-2.54,1.27-.63.43-3.07,2.23-1.48,2.86a4.94,4.94,0,0,0,3.49-.32,4,4,0,0,0,2.65-1.9C162.91,110,162.6,109.94,162.49,110.15Zm5.82-.85a.11.11,0,0,1,.11.11c0,.11-.11.11-.11.21,0-.1-.1-.21-.1-.32S168.21,109.2,168.31,109.3Zm2.75-3.81v.22a.1.1,0,0,1-.1-.11S171,105.49,171.06,105.49Zm-7-2.64Zm-2.54,5.08Zm14.71,21.48c-.32-.53-1.17-.42-1.59-.32a1.87,1.87,0,0,0-1.59,1.17c0,.1.22.21.22,0a1.38,1.38,0,0,1,1.05-1,2.41,2.41,0,0,1,1.48,0c.64.43-.31,1.59-.63,1.91a6.63,6.63,0,0,1-2.12,1.37c-.1-.1-.21-.21-.31-.21a9.93,9.93,0,0,0-1.27-.84c-.11-.11-.22-.11-.32-.22s-.21.11-.11.11c.64.42,1.17.85,1.8,1.27a9.09,9.09,0,0,1-2.43.32,4,4,0,0,1-.43-1.17,6.5,6.5,0,0,1-.21-1.37h.11c.21.1.32.21.53.21s.21.11.32.21.21,0,.1-.1-.21-.11-.21-.22-.21-.1-.42-.21-.22-.1-.43-.21v-.85a8.83,8.83,0,0,1,.32-2.32c.21-.75.53-1.91,1.38-2.23,1-.42,1.69,1.48,1.8,2.23a1.16,1.16,0,0,1-.22,1.16.64.64,0,0,1-1,0c0-.11-.22,0-.11.11a.85.85,0,0,0,1,.31,1,1,0,0,0,.53-1.27c0-1-.85-3.07-2.12-2.64-.63.21-1.05,1.06-1.27,1.69a6.34,6.34,0,0,0-.42,2.43v.75a.39.39,0,0,1-.1.31c0,.11,0,.11-.11.11h-.21v.1h.1a.11.11,0,0,1,.11.11c.11,0,.11.11.21.11a6.88,6.88,0,0,0,.64,2.64h-1.06c-.43,0-.85-.1-1.27-.1-.21-.11-.32-.11-.53-.22s-.42-.1-.32,0v.11h-.1c-.11,0-.22.11-.32.11h0a6.14,6.14,0,0,0-2,.63c-.64.32-1.8,1.06-.74,1.59s3.17.32,3.81-.64c.1-.1-.11-.21-.21-.1-.43.63-1.59.74-2.23.74s-2.33-.21-1.48-1a3.93,3.93,0,0,1,1.8-.85h.11c.31-.11.53-.11.84-.21a5.89,5.89,0,0,1,1.38-.11,6.83,6.83,0,0,1,.84.32c.11,0,.22-.11.11-.11s-.32-.1-.42-.21h.21a8.66,8.66,0,0,0,1.69,0V133c.11.21.32.63.53,1a.38.38,0,0,1-.21-.11c-.32-.1-.53-.21-.85-.31-.1-.11-.31-.11-.42-.22s-.21.11-.11.22a4.25,4.25,0,0,1,1.06.42,1.46,1.46,0,0,0,.64.21,1.41,1.41,0,0,1,.1.64V135h0a1.27,1.27,0,0,1-.42.95c-.74.64-2.12-.74-1.48-1.59.1-.1-.11-.1-.21-.1-.64.74.42,1.9,1.27,1.9s.95-.53.95-1.16v-.11a.66.66,0,0,1,.1-.42.11.11,0,0,1,.11-.11c.11-.1-.11-.31-.21-.42s-.11-.11-.21-.11a.57.57,0,0,0-.21-.42l-.32-.63a6.72,6.72,0,0,0,2.54-.43l.21.21.11.11h0c.1.11.21,0,.21-.11h0a.34.34,0,0,1-.11-.21.38.38,0,0,1,.11-.21l.63-.32a5.57,5.57,0,0,0,1.59-1.58C176.25,130.36,176.46,129.83,176.25,129.41Zm-6.67.74h0c.11-.11.11,0,0,0Zm-2.22,2.75Zm4,1.69h0c0,.11,0,.11-.11.22v-.22Zm2.12-1.79h0c0-.11-.11-.11,0,0v0ZM142.7,90.68a1.73,1.73,0,0,0,1.91-1.38c0-.1-.32-.21-.32-.1a1.52,1.52,0,0,1-.95,1.16.73.73,0,0,1-1.06-.21,2.09,2.09,0,0,1,.21-1.16,4,4,0,0,1,.95-1.38c.43-.53.85-1,1.27-1.38.11.11.22.32.32.43a12.65,12.65,0,0,1,1.38,1.9c.21.43.42,1.06-.11,1.38s-1.06-.32-1.16-.74c0-.11-.32-.11-.32,0,.21.63.85,1.27,1.59,1,1-.42.21-1.8-.21-2.33s-1-1.16-1.38-1.8c.53-.42,1-.84,1.48-1.27s1.59-1.27.95-2c-.53-.53-1.27-.1-1.69.32-.42-.85-.95-1.8-1.9-2a1.05,1.05,0,0,0-1.17.85,2.2,2.2,0,0,0,.21,1.16,7.54,7.54,0,0,0,.85,1.59,4.69,4.69,0,0,0,.85,1.16c-.22.21-.43.32-.53.53C143.66,87.08,140.69,90.26,142.7,90.68Zm1.06-6.46c-.42-.63-1.16-1.79-.53-2.64.85-1.17,2.12,1.27,2.33,1.8,0,.1.21.1.32.1.21-.31.74-1,1.27-.74s.21.85,0,1.06a5.79,5.79,0,0,1-1.48,1.27,2.38,2.38,0,0,0-.74.74A14.67,14.67,0,0,1,143.76,84.22Zm9.63,11.86c0-1.17,0-2.76-1.06-3.39a1.27,1.27,0,0,0-1.8.53,3.28,3.28,0,0,0-.31,1.69,23.15,23.15,0,0,0,.21,2.65,4.3,4.3,0,0,0,.21,1.16,13.3,13.3,0,0,0-3.92,1.8c-.63.42-1.79,1.38-1.05,2.22s2.43.43,3.17-.42c.11-.11-.21-.21-.32-.11a2.11,2.11,0,0,1-2,.74.8.8,0,0,1-.42-1.27,3.81,3.81,0,0,1,1.38-1.16,22.37,22.37,0,0,1,2.22-1.06,4.41,4.41,0,0,0,1.06-.42c.1.53.21,1.16.31,1.69a5.33,5.33,0,0,1,.32,2.54c-.11.43-.42,1.17-1.06,1s-.74-1-.63-1.58c0-.11-.32-.21-.43-.11-.1.85.32,1.91,1.27,1.91,1.17,0,1.27-1.49,1.17-2.33-.21-1.06-.43-2.12-.64-3.28l1.17-.32a17.62,17.62,0,0,0,2.32-.53c.64-.21,1.49-.85,1.06-1.59A1.79,1.79,0,0,0,153.39,96.08Zm1.69,1a2.1,2.1,0,0,1-1.48.85,23,23,0,0,0-2.64.64h0a18.53,18.53,0,0,1-.32-2.44c-.11-1-.32-2.86.85-3.38,1.48-.74,1.58,2.85,1.58,3.49a.21.21,0,0,0,.32.1c.42-.21,1.06-.53,1.48-.21A.68.68,0,0,1,155.08,97.13Z"/></svg>