<svg id="Layer_1" data-name="Layer 1" xmlns="http://www.w3.org/2000/svg" viewBox="0 0 200 200"><defs><style>.cls-1{fill:#f7170e;}</style></defs><path class="cls-1" d="M76,98.79a11.77,11.77,0,0,1-7.73,4.66A6.34,6.34,0,0,1,61.37,100c-1.08.65-2,1.27-3.06,1.81-1.59.83-3.18,1.62-4.84,2.31-1,.43-2.2.72-3-.15s-.33-1.91,0-2.88c.93-2.71,2.78-4.84,4.54-7,.94-1.16,2-2.21,3-3.36l2.78,1.66c-5.56,5.81-5.56,5.81-5.56,7.58a3,3,0,0,0,2.7-.43A31.8,31.8,0,0,0,67,92l.33-.43c.68-1.09.57-1.41-.62-2-.14-.08-.29-.22-.39-.29-.11-.76.39-1,.93-1a9.46,9.46,0,0,1,2,0,3.51,3.51,0,0,0,3.32-1.33A16.49,16.49,0,0,1,74.51,85a2.26,2.26,0,0,1,2.64-.54,1.14,1.14,0,0,1,0,.36,1,1,0,0,1-.08.33,1.89,1.89,0,0,1-.43.47c-.18.14-.36.25-.54.39s-.15.18-.25.26-.29.14-.4.28a.55.55,0,0,0-.11.51.57.57,0,0,0,.43.25,3.83,3.83,0,0,0,1.81-.07c.5-.11,1-.29,1.51-.4l1.56-.32c1.08-.25,2.16-.47,3.21-.72.87-.18,1.73-.4,2.56-.58A39.2,39.2,0,0,1,98.56,84c3.14.25,6.28.83,9.38,1.37,1.48.25,1.73,1.08.83,2.27a6.07,6.07,0,0,1-5.92,2.06c-2.71-.65-5.45-1.3-8.19-1.91A24.63,24.63,0,0,0,85,88c-3.29.62-6.54,1.45-9.78,2.13A11.92,11.92,0,0,0,69,93.77c-1.12,1.16-2.1,2.46-3.11,3.72a3.4,3.4,0,0,0-.61,1.27,1.77,1.77,0,0,0,1.55,2.34,4.57,4.57,0,0,0,2.09-.21c1.74-.62,3.43-1.41,5.13-2.1.58-.22,1.16-.36,1.73-.58C75.89,98.39,76,98.61,76,98.79Z"/><path class="cls-1" d="M63.11,84c1.12,1.26.94,3.57-.36,4.37a1.9,1.9,0,0,1-1.48.07,1.38,1.38,0,0,1-.69-1.7A3.81,3.81,0,0,1,63.11,84Z"/><path class="cls-1" d="M145.05,104a7.11,7.11,0,0,0-5.38,2.21,7.45,7.45,0,0,0-2.13,5.34,7.56,7.56,0,0,0,12.89,5.27,7.26,7.26,0,0,0,2.13-5.31,7.35,7.35,0,0,0-7.51-7.51Zm3,10.58a4.22,4.22,0,0,1-6,0,4.35,4.35,0,0,1-1.11-3,4.3,4.3,0,0,1,1.15-3.07,4.15,4.15,0,0,1,6,0,4.65,4.65,0,0,1,0,6.1ZM161.66,104a5.51,5.51,0,0,0-2.68.65,5.2,5.2,0,0,0-1.26,1.09v-1.3h-3.1v14.15H158V111a5.58,5.58,0,0,1,.43-2.42,2.86,2.86,0,0,1,4.41-.69,4.46,4.46,0,0,1,.9,3.11v7.51h3.39v-8.27a6.72,6.72,0,0,0-1.51-4.66A5.13,5.13,0,0,0,161.66,104Zm20.46,2.17a6.89,6.89,0,0,0-5.23-2.17,7,7,0,0,0-5.7,2.6,7.61,7.61,0,0,0-1.84,5,7.33,7.33,0,0,0,1.84,4.91,7,7,0,0,0,5.63,2.49,7.73,7.73,0,0,0,4.08-1.15,7.27,7.27,0,0,0,2.81-3.36h-3.82a3.87,3.87,0,0,1-1.52,1,5,5,0,0,1-1.66.29,3.72,3.72,0,0,1-2.35-.76,3.54,3.54,0,0,1-1.33-2h11.08a11.21,11.21,0,0,0,.07-1.12v-.4A7.64,7.64,0,0,0,182.12,106.12Zm-9.2,3.83a4.21,4.21,0,0,1,1.48-2,4.16,4.16,0,0,1,2.45-.75,4,4,0,0,1,2.35.72,3.49,3.49,0,0,1,1.37,2.06Z"/><path d="M45.45,94.42A6.67,6.67,0,0,0,39.14,97c-2.82,3.5-5.81,6.82-8.7,10.25-.87,1.05-1.66,2.2-2.53,3.36.14.36.33.72.47,1.11A3.58,3.58,0,0,1,28,115,10.69,10.69,0,0,1,26.29,117c-1.85,1.59-3.76,3.18-5.71,4.66A8.49,8.49,0,0,1,18,122.94c-1.23.36-1.91-.14-2.24-1.37a4,4,0,0,1,.4-3.1,25,25,0,0,1,2.06-3.11c4-5.09,8.15-10.18,12.23-15.27a3.9,3.9,0,0,0,1.3-2.92,25.45,25.45,0,0,1-2.34,1,11,11,0,0,1-2.71.72,2,2,0,0,1-1.41-.83c-.36-.58,0-1.19.54-1.55a12.31,12.31,0,0,1,2.28-1.41,21.39,21.39,0,0,1,7.29-1.84,3.48,3.48,0,0,0,2.49-1.19c2.92-3,5.85-6,9.17-9.32-7.08.73-13.72,1.92-20.51,2.71l-1.94-3.21c2.27-.4,4.36-.76,6.49-1.08C38.49,80.09,45.82,79,53.22,78A211.33,211.33,0,0,1,77.08,76.3a48.81,48.81,0,0,1,7.51.58,8.59,8.59,0,0,1,3.46,1.34c1.77,1.22,1.55,3-.4,3.86a11.8,11.8,0,0,1-2.92.79,26.51,26.51,0,0,1-3.79.18,2.07,2.07,0,0,1-1.3-.43,9.52,9.52,0,0,0-5.13-1.91c-4.26-.55-8.52-.11-12.74.21-2,.15-3.93.44-5.92.62a4.86,4.86,0,0,0-3.18,1.37c-2.23,2.16-4.58,4.19-6.89,6.28-.51.47-1,1-1.73,1.73a7.29,7.29,0,0,0,1.51.07c1.23-.21,2.46-.61,3.68-.72a10.68,10.68,0,0,1,3,.11c.94.14,1.12.76.68,1.59a3.67,3.67,0,0,1-2.49,2A19.72,19.72,0,0,1,45.45,94.42Z"/><path class="cls-1" d="M62.78,88.36a1.9,1.9,0,0,1-1.48.07,1.39,1.39,0,0,1-.68-1.7A3.68,3.68,0,0,1,63.11,84C64.23,85.25,64.08,87.56,62.78,88.36Z"/><path class="cls-1" d="M85,88c-3.28.62-6.53,1.45-9.78,2.13A11.92,11.92,0,0,0,69,93.77c-1.12,1.16-2.09,2.46-3.1,3.72a3.42,3.42,0,0,0-.62,1.27,1.77,1.77,0,0,0,1.55,2.34,4.62,4.62,0,0,0,2.1-.21c1.73-.62,3.43-1.41,5.12-2.1.58-.22,1.16-.36,1.74-.58l.21.55a11.73,11.73,0,0,1-7.72,4.65A6.34,6.34,0,0,1,61.34,100c-1.09.65-2.06,1.26-3.07,1.8-1.59.83-3.18,1.63-4.84,2.31-1,.44-2.2.72-3-.14s-.33-1.92,0-2.89c.94-2.71,2.78-4.84,4.55-7,.94-1.15,2-2.2,3-3.36l2.78,1.66c-5.56,5.82-5.56,5.82-5.56,7.58a3,3,0,0,0,2.71-.43A31.74,31.74,0,0,0,67,92l.32-.43c.69-1.08.58-1.41-.61-2a3.46,3.46,0,0,1-.4-.29c-.11-.76.4-1,.94-1.05a9.36,9.36,0,0,1,2,0,3.46,3.46,0,0,0,3.32-1.33A15.06,15.06,0,0,1,74.48,85a2.24,2.24,0,0,1,2.63-.55c.26,1.16-1,1.23-1.44,2a2.73,2.73,0,0,0,2.74.54c2.67-.58,5.35-1.15,8-1.77A39.2,39.2,0,0,1,98.56,84c3.14.25,6.28.83,9.38,1.37,1.48.26,1.73,1.09.83,2.28a6.07,6.07,0,0,1-5.92,2c-2.71-.65-5.45-1.29-8.19-1.91A25.63,25.63,0,0,0,85,88Z"/><path d="M81.44,90.71h8.92V92H89.1a2.93,2.93,0,0,1,1.48,2.6,3.46,3.46,0,0,1-.29,1.37,2,2,0,0,1-.76.94,2.85,2.85,0,0,1-1.12.43,11.58,11.58,0,0,1-1.48.07H81.44V96h5.42a4.42,4.42,0,0,0,1.37-.18,1.4,1.4,0,0,0,.72-.58,1.84,1.84,0,0,0,.29-1,2.26,2.26,0,0,0-.61-1.55A3.17,3.17,0,0,0,86.32,92H81.44Z"/><path d="M84.3,105.14l-.18,1.45A3.84,3.84,0,0,1,82,105.33a4,4,0,0,1,.43-5.2,4.84,4.84,0,0,1,3.39-1,5.14,5.14,0,0,1,3.5,1.08,3.49,3.49,0,0,1,1.23,2.78,3.42,3.42,0,0,1-1.23,2.71,5,5,0,0,1-3.43,1h-.39v-6.14a3.65,3.65,0,0,0-2.24.76,2.29,2.29,0,0,0-.79,1.73,2,2,0,0,0,.43,1.3A4,4,0,0,0,84.3,105.14Zm2.45-4.58v4.58a3.34,3.34,0,0,0,1.7-.54,2,2,0,0,0,.86-1.73,2.08,2.08,0,0,0-.68-1.62A3,3,0,0,0,86.75,100.56Z"/><path d="M84.12,107.78l.25,1.37a1.92,1.92,0,0,0-1.84,2.13,1.94,1.94,0,0,0,.43,1.41,1.29,1.29,0,0,0,1,.47,1,1,0,0,0,.8-.4,5.8,5.8,0,0,0,.5-1.41,13.55,13.55,0,0,1,.72-2.13A2.12,2.12,0,0,1,88,108a2.44,2.44,0,0,1,2.39,1.84,4.08,4.08,0,0,1,.18,1.2,4.78,4.78,0,0,1-.29,1.69,2.34,2.34,0,0,1-.83,1.08,3.35,3.35,0,0,1-1.37.47l-.22-1.37A1.7,1.7,0,0,0,89,112.4a1.85,1.85,0,0,0,.4-1.26,2,2,0,0,0-.36-1.37,1,1,0,0,0-.79-.4,1.06,1.06,0,0,0-.55.18,1,1,0,0,0-.39.54c-.08.14-.18.54-.4,1.23a19.71,19.71,0,0,1-.69,2.06,2,2,0,0,1-.79.9,2.53,2.53,0,0,1-1.3.32,2.8,2.8,0,0,1-1.41-.39,2.93,2.93,0,0,1-1-1.16,3.7,3.7,0,0,1-.37-1.73,3.76,3.76,0,0,1,.73-2.46A3.19,3.19,0,0,1,84.12,107.78Z"/><path d="M84.12,115.69l.25,1.37a1.92,1.92,0,0,0-1.84,2.13A1.94,1.94,0,0,0,83,120.6a1.28,1.28,0,0,0,1,.46,1,1,0,0,0,.8-.39,5.8,5.8,0,0,0,.5-1.41,13.55,13.55,0,0,1,.72-2.13,2.12,2.12,0,0,1,2-1.19,2.37,2.37,0,0,1,1.95.94,2.29,2.29,0,0,1,.44.9,4.07,4.07,0,0,1,.18,1.19,4.79,4.79,0,0,1-.29,1.7,2.39,2.39,0,0,1-.83,1.08,3.35,3.35,0,0,1-1.37.47l-.22-1.37a1.7,1.7,0,0,0,1.08-.54,1.88,1.88,0,0,0,.4-1.27,2,2,0,0,0-.36-1.37,1,1,0,0,0-.79-.4,1.15,1.15,0,0,0-.55.18,1,1,0,0,0-.39.55c-.08.14-.18.54-.4,1.22a18.9,18.9,0,0,1-.69,2.06,1.88,1.88,0,0,1-.79.9,2.44,2.44,0,0,1-1.3.33,2.81,2.81,0,0,1-1.41-.4,3,3,0,0,1-1-1.15,4.39,4.39,0,0,1,.36-4.19A3.32,3.32,0,0,1,84.12,115.69Z"/><path d="M135.92,94.71c1.37-2.09.86-3.61-1.45-4.55A19.26,19.26,0,0,0,130,89a68,68,0,0,0-15.09-.33,27.33,27.33,0,0,0-7.54,1.48,7,7,0,0,0-4.19,3.94,12.15,12.15,0,0,0-.79,5.45c0,.69.21,1.3,1,1.48.18-.11.36-.14.47-.29a5.12,5.12,0,0,0,.68-1c1.41-2.81,3.79-4.15,6.79-4.69a73.35,73.35,0,0,1,15.59-.58,9.55,9.55,0,0,1,2,.36c1.34.37,1.55.83.9,2.06a21.47,21.47,0,0,1-3.68,5.09c-1-.43-1.87-.83-2.78-1.26a1.08,1.08,0,0,0-1.55.4c-.72,1-1.44,2-2.31,3.17l2.35,2.13a28.72,28.72,0,0,0-2.53,2.17,3.93,3.93,0,0,1-3.86,1.08,25.49,25.49,0,0,0-10.72.15c-2.82.75-5.49,1.84-7.44,4.07a8,8,0,0,0-1.73,3c-.83,2.88.94,5.12,4.08,5.34a10.31,10.31,0,0,0,5.56-1.23c2.41-1.26,4.76-2.74,7.11-4.15,1-.65,2-1.84,3.07-2.06s2.56.36,3.82.76c2.93.87,5.85,1.73,8.7,2.78a7.69,7.69,0,0,1,5,4.62c0,.11.11.22.14.33.51.79,1.23.75,1.63-.08a3.24,3.24,0,0,0,.28-1.19c.15-1.26.22-2.49.37-3.75.21-2.31-.29-3.21-2.39-4.3a27.78,27.78,0,0,0-7.11-2.42l-5.23-1.11c1.19-1,2.24-1.81,3.21-2.68a1.86,1.86,0,0,1,1.77-.43c2.38.54,5.16-1.44,5.59-4.11-.54-.15-1.11-.26-1.91-.47.83-.91,1.63-1.63,2.28-2.46A52.63,52.63,0,0,0,135.92,94.71ZM105,118.83a16.42,16.42,0,0,1-3.58,1.15,6.34,6.34,0,0,1-2.63-.18,1.72,1.72,0,0,1-1.19-2.53,5.4,5.4,0,0,1,1.59-2.09,9.26,9.26,0,0,1,2.85-1.41,21.23,21.23,0,0,1,10.39.29A31.32,31.32,0,0,1,105,118.83Z"/></svg>