<svg id="Layer_1" data-name="Layer 1" xmlns="http://www.w3.org/2000/svg" viewBox="0 0 200 200"><defs><style>.cls-1{fill:#57ac37;}.cls-2{fill:#19428a;}.cls-3{fill:#fff;}</style></defs><circle class="cls-1" cx="100.08" cy="79.11" r="21.65"/><path class="cls-2" d="M100.08,103.52a24.36,24.36,0,1,1,24.35-24.35A24.39,24.39,0,0,1,100.08,103.52Zm0-47.14a22.73,22.73,0,1,0,22.73,22.73A22.77,22.77,0,0,0,100.08,56.38Z"/><path class="cls-3" d="M97.1,92.8C90.29,92.48,81.47,85.12,84.5,82S94.89,86.58,97.1,92.8Z"/><path class="cls-3" d="M97.32,81.6c-5.52.11-13-5.41-10.71-8.12S95.21,76.73,97.32,81.6Z"/><path class="cls-3" d="M97.59,72.19c-4.22-.17-9.68-4.66-7.84-6.55S96.24,68.4,97.59,72.19Z"/><path class="cls-3" d="M103.11,92.8c6.82-.32,15.64-7.68,12.61-10.82S105.33,86.58,103.11,92.8Z"/><path class="cls-3" d="M102.9,81.6c5.51.11,13-5.41,10.71-8.12S105,76.73,102.9,81.6Z"/><path class="cls-3" d="M102.62,72.19c4.23-.17,9.69-4.66,7.85-6.55S104,68.4,102.62,72.19Z"/><rect class="cls-3" x="99.32" y="68.67" width="1.46" height="30.2"/><circle class="cls-3" cx="100.08" cy="64.12" r="2.65"/><path class="cls-2" d="M114.75,113h-7.9a7.31,7.31,0,0,0-7.31,7.31v1.08a7.3,7.3,0,0,0,7.31,7.3h1.08V125h-1.08a3.51,3.51,0,0,1-3.52-3.52v-1.08a3.51,3.51,0,0,1,3.52-3.52h2.05v15.42h3.79V116.83h2.06a3.51,3.51,0,0,1,3.51,3.52v1.08a3.51,3.51,0,0,1-3.51,3.52H114v3.78h.76a7.31,7.31,0,0,0,7.3-7.3v-1.08A7.27,7.27,0,0,0,114.75,113Z"/><path class="cls-1" d="M39.26,113h-7.9a7.31,7.31,0,0,0-7.31,7.31v1.08a7.3,7.3,0,0,0,7.31,7.3h1.08V125H31.36a3.51,3.51,0,0,1-3.52-3.52v-1.08a3.51,3.51,0,0,1,3.52-3.52h2v15.42H37.2V116.83h2.06a3.51,3.51,0,0,1,3.51,3.52v1.08A3.51,3.51,0,0,1,39.26,125H38.5v3.78h.76a7.31,7.31,0,0,0,7.3-7.3v-1.08A7.27,7.27,0,0,0,39.26,113Zm19.15,12H54.35a2.29,2.29,0,0,1-2.27-2.27v-9.36H48.29v9.36a6.06,6.06,0,0,0,6.06,6.06H62.2V113.37H58.41ZM64,116.83h5v11.69h3.79V116.83h4.82V113H64Zm24-4.06h-.86a8,8,0,0,0-8,8v.27a8,8,0,0,0,8,8H88a8,8,0,0,0,8-8v-.27A8,8,0,0,0,88,112.77Zm4.22,8.28A4.22,4.22,0,0,1,88,125.27h-.86a4.22,4.22,0,0,1-4.22-4.22v-.27a4.22,4.22,0,0,1,4.22-4.22H88a4.22,4.22,0,0,1,4.22,4.22Z"/><path class="cls-2" d="M129.79,113a7,7,0,0,0-7,7v5.73h9V122h-5.25v-1.94a3.25,3.25,0,0,1,6.5,0v12.17h3.79V120.08A7.06,7.06,0,0,0,129.79,113Z"/><path class="cls-2" d="M144.73,113h-6.44v19.21h3.78V116.83h2.66a4.06,4.06,0,0,1,0,8.12h-1.68v3.78h1.68a7.85,7.85,0,0,0,0-15.69Z"/><path class="cls-2" d="M160.36,113h-6.71v15.48h3.79V116.83h2.92a2.42,2.42,0,0,1,2.44,2.43v9.26h3.79v-9.26A6.23,6.23,0,0,0,160.36,113Z"/><path class="cls-2" d="M169.73,113h-3.09v3.79h3.09a2.42,2.42,0,0,1,2.43,2.43v9.26H176v-9.26A6.22,6.22,0,0,0,169.73,113Z"/><path class="cls-2" d="M54.19,145l-2-6.55h1.67l1.25,4.33,1.13-4.33h1.68L59,142.75l1.25-4.33h1.73L59.77,145H58.09L57,140.75,55.82,145Z"/><path class="cls-2" d="M64,145l-2.11-6.55h1.68l1.24,4.33L66,138.42h1.68l1.08,4.33L70,138.42h1.74L69.61,145H67.94l-1.14-4.22L65.66,145Z"/><path class="cls-2" d="M73.89,145l-2.06-6.55h1.68l1.25,4.33,1.13-4.33h1.68l1.08,4.33,1.25-4.33h1.73L79.52,145H77.84l-1.14-4.22L75.57,145Z"/><path class="cls-2" d="M82,145v-1.73h1.73V145Z"/><path class="cls-2" d="M84.77,138.42h1v-.49a3.57,3.57,0,0,1,.16-1.24,1.28,1.28,0,0,1,.65-.65,2.65,2.65,0,0,1,1.19-.27,4.32,4.32,0,0,1,1.46.22L89,137.18a3.76,3.76,0,0,0-.81-.11.74.74,0,0,0-.55.16,1.07,1.07,0,0,0-.16.7v.49h1.3v1.35h-1.3V145H85.74v-5.2h-1Z"/><path class="cls-2" d="M89.75,137.5v-1.62h1.73v1.62Zm0,7.47v-6.55h1.73V145Z"/><path class="cls-2" d="M96.29,138.42v1.41H95.1v2.65a2.63,2.63,0,0,0,.06.92c0,.11,0,.16.16.22a.42.42,0,0,0,.27.1,2.33,2.33,0,0,0,.7-.16l.17,1.36a3.62,3.62,0,0,1-1.36.27,2.2,2.2,0,0,1-.86-.17.83.83,0,0,1-.54-.43,2,2,0,0,1-.27-.7,6.07,6.07,0,0,1-.06-1.25v-2.87h-.81v-1.4h.81v-1.3l1.73-1v2.33h1.19Z"/><path class="cls-2" d="M97.1,141.61a3.68,3.68,0,0,1,.44-1.67,2.94,2.94,0,0,1,1.19-1.25,3.72,3.72,0,0,1,1.73-.43,3.32,3.32,0,0,1,3.41,3.41,3.47,3.47,0,0,1-1,2.49,3.32,3.32,0,0,1-2.44,1,3.88,3.88,0,0,1-1.73-.43,2.67,2.67,0,0,1-1.25-1.19A4.11,4.11,0,0,1,97.1,141.61Zm1.79.06a2.18,2.18,0,0,0,.49,1.51,1.58,1.58,0,0,0,1.13.54,1.42,1.42,0,0,0,1.14-.54,2.08,2.08,0,0,0,.49-1.51,2,2,0,0,0-.49-1.46,1.58,1.58,0,0,0-1.14-.54,1.41,1.41,0,0,0-1.13.54A1.77,1.77,0,0,0,98.89,141.67Z"/><path class="cls-2" d="M104.46,138.42h1v-.49a3.57,3.57,0,0,1,.16-1.24,1.28,1.28,0,0,1,.65-.65,2.58,2.58,0,0,1,1.19-.27,4.35,4.35,0,0,1,1.46.22l-.21,1.19a3.93,3.93,0,0,0-.82-.11.71.71,0,0,0-.54.16,1,1,0,0,0-.16.7v.49h1.3v1.35h-1.3V145h-1.73v-5.2h-1Z"/><path class="cls-2" d="M110.74,140.42l-1.57-.27a2.37,2.37,0,0,1,.92-1.4,3.22,3.22,0,0,1,2-.44,4.65,4.65,0,0,1,1.73.27,1.79,1.79,0,0,1,.81.71,3.42,3.42,0,0,1,.22,1.57v2a6.34,6.34,0,0,0,.11,1.3,3.28,3.28,0,0,0,.32.86H113.5a2.4,2.4,0,0,1-.16-.48.46.46,0,0,1,0-.22,3.16,3.16,0,0,1-1,.65,2.43,2.43,0,0,1-1.08.22,2.34,2.34,0,0,1-1.62-.55,1.85,1.85,0,0,1-.6-1.4,1.91,1.91,0,0,1,.27-1,1.82,1.82,0,0,1,.76-.65,4.9,4.9,0,0,1,1.41-.37,8.29,8.29,0,0,0,1.67-.44v-.16a.85.85,0,0,0-.27-.7,1.3,1.3,0,0,0-.92-.22,1.21,1.21,0,0,0-.7.16A1,1,0,0,0,110.74,140.42Zm2.33,1.41c-.22,0-.6.16-1.08.27a2.26,2.26,0,0,0-.92.33.73.73,0,0,0-.33.59,1,1,0,0,0,.27.65,1.05,1.05,0,0,0,.71.27,1.65,1.65,0,0,0,.92-.32,1.33,1.33,0,0,0,.43-.6,3.58,3.58,0,0,0,.05-.86v-.33Z"/><path class="cls-2" d="M118.16,145h-1.74v-6.55h1.63v.92a2.47,2.47,0,0,1,.75-.86,1.77,1.77,0,0,1,.76-.22,2.35,2.35,0,0,1,1.14.32l-.54,1.52a1.2,1.2,0,0,0-.81-.27.75.75,0,0,0-.6.21,1.14,1.14,0,0,0-.38.71,9.1,9.1,0,0,0-.16,2.22v2Z"/><path class="cls-2" d="M121.29,138.42h1.63v.92a2.56,2.56,0,0,1,2-1,2.16,2.16,0,0,1,1.09.27,1.88,1.88,0,0,1,.75.82,4.41,4.41,0,0,1,.92-.82,2.54,2.54,0,0,1,1.09-.27,3.05,3.05,0,0,1,1.24.27,2,2,0,0,1,.76.87,4.1,4.1,0,0,1,.16,1.35V145h-1.73v-3.73a3.09,3.09,0,0,0-.16-1.25.83.83,0,0,0-.76-.37,1.17,1.17,0,0,0-.7.21,1.46,1.46,0,0,0-.49.65,4.1,4.1,0,0,0-.16,1.35V145h-1.74V141.4a5.85,5.85,0,0,0-.1-1.25,1,1,0,0,0-.27-.43.82.82,0,0,0-.55-.16,1.09,1.09,0,0,0-.7.21,1.52,1.52,0,0,0-.49.65,4.2,4.2,0,0,0-.16,1.36V145h-1.73v-6.55Z"/><path class="cls-2" d="M132.66,145v-1.73h1.73V145Z"/><path class="cls-2" d="M137.85,145h-1.73v-6.55h1.63v.92a2.47,2.47,0,0,1,.75-.86,1.21,1.21,0,0,1,.76-.22,2.35,2.35,0,0,1,1.14.32l-.54,1.52a1.24,1.24,0,0,0-.82-.27.73.73,0,0,0-.59.21,1.1,1.1,0,0,0-.38.71,9.1,9.1,0,0,0-.16,2.22v2Z"/><path class="cls-2" d="M145.43,145v-1a2.33,2.33,0,0,1-.92.81,2.58,2.58,0,0,1-1.25.32,3,3,0,0,1-1.19-.27,2.23,2.23,0,0,1-.75-.81,3.34,3.34,0,0,1-.22-1.46v-4.17h1.73v3a8.44,8.44,0,0,0,.11,1.68.78.78,0,0,0,.32.49,1.25,1.25,0,0,0,.65.16,1.66,1.66,0,0,0,.82-.27,1.72,1.72,0,0,0,.48-.6,6.13,6.13,0,0,0,.11-1.78v-2.76h1.73v6.55h-1.62Z"/></svg>