<svg id="Layer_1" data-name="Layer 1" xmlns="http://www.w3.org/2000/svg" viewBox="0 0 200 200"><defs><style>.cls-1{fill:#414c9c;}.cls-2{fill:#e73734;}.cls-3{fill:#00aeea;}</style></defs><path class="cls-1" d="M127,76.54V91.17h-4.42v6.31H133.3V76.54a9.72,9.72,0,0,0-9.71-9.72H110.34v6.31h13.25A3.4,3.4,0,0,1,127,76.54Zm6.3,47.3v-23H122.58v6.31H127v16.65a3.4,3.4,0,0,1-3.41,3.41H89l-3.53,6.31h38.23A9.77,9.77,0,0,0,133.3,123.84ZM143,125V75.27A18.3,18.3,0,0,0,124.73,57H110.34v6.31h14.39a12,12,0,0,1,12,12V125a12,12,0,0,1-12,12H83.47l-3.53,6.31h44.91A18.28,18.28,0,0,0,143,125ZM124,46.89H110.34V53.2H124a22.5,22.5,0,0,1,22.45,22.45v48.7A22.5,22.5,0,0,1,124,146.8h-46l-3.53,6.31H124.1a28.75,28.75,0,0,0,28.76-28.76V75.65A29,29,0,0,0,124,46.89Z"/><path class="cls-2" d="M76,107.7c0-.26,30.66-50.84,30.66-50.84v42l12.23-18.29V115h-6.68V102.4L99,122V102L76,142.51Z"/><path class="cls-3" d="M66.7,76.54v76.57H73V76.54a3.4,3.4,0,0,1,3.41-3.41h16c1.39-2.15,2.65-4.29,3.79-6.31H76.28A9.69,9.69,0,0,0,66.7,76.54Zm9.2-29.65A28.75,28.75,0,0,0,47.14,75.65v77.46h6.31V75.65A22.5,22.5,0,0,1,75.9,53.2h28.52l3.78-6.31Zm-19,28.38v77.84h6.3V75.27a12,12,0,0,1,12-12H98.23c1.64-2.65,2.91-4.79,3.79-6.31H75.15A18.47,18.47,0,0,0,56.86,75.27Z"/></svg>