<svg id="Layer_1" data-name="Layer 1" xmlns="http://www.w3.org/2000/svg" viewBox="0 0 200 200"><defs><style>.cls-1{fill:#e60000;}</style></defs><path class="cls-1" d="M90.15,120.76a3.54,3.54,0,0,1-3.52-3.52V99.29a3.52,3.52,0,1,1,7,0v17.95c.18,1.76-1.41,3.34-3.52,3.52m.18-37.48a17.27,17.27,0,0,0-17.24,17.24v15.13a17.24,17.24,0,0,0,34.48,0V100.52A17.5,17.5,0,0,0,90.33,83.28m38-2.11H132a6.32,6.32,0,0,0,6.86-5.8V75a6.2,6.2,0,0,0-6.51-6.15h-4a17.08,17.08,0,0,0-17.24,16.89v40.64a6.87,6.87,0,0,0,13.72.7V99.47h4.75c3.87,0,6.86-2.29,6.86-6.16a6.21,6.21,0,0,0-6.51-6.16h-5.1V85A3.55,3.55,0,0,1,128,81.17h.35m17.77,37a7.57,7.57,0,1,0,7.56,7.56,7.51,7.51,0,0,0-7.56-7.56h0m10.55-36.95h3.7a6.32,6.32,0,0,0,6.86-5.8V75a6.2,6.2,0,0,0-6.51-6.15h-4.22a17.08,17.08,0,0,0-17.24,16.89v23.39a6.76,6.76,0,0,0,7.21,6.51,6.86,6.86,0,0,0,6.51-6.51v-9.5h4.75c3.87,0,6.86-2.28,6.86-6.15a6.2,6.2,0,0,0-6.51-6.16H153V85.22a3.54,3.54,0,0,1,3.16-3.87.65.65,0,0,1,.53-.18M62.71,66.39a6.76,6.76,0,0,0-6.86,6.87V87.15H46.52V73.26a6.86,6.86,0,1,0-13.72,0v52.95a6.87,6.87,0,0,0,13.72.7V99.47h5.81A3.53,3.53,0,0,1,55.85,103v23.22a6.86,6.86,0,1,0,13.72,0V73.26a6.87,6.87,0,0,0-6.86-6.87h0"/></svg>