<svg id="Layer_1" data-name="Layer 1" xmlns="http://www.w3.org/2000/svg" viewBox="0 0 200 200"><defs><style>.cls-1{fill:#4b85e6;}</style></defs><path class="cls-1" d="M53.79,100.28V85.06h4.6l2.73,10.38,2.73-10.38h4.6v15.16h-2.8V88.29l-3,11.93H59.75l-3-11.93v11.93h-3Z"/><path class="cls-1" d="M71.55,85.06h3V97.67h6V85.06h3V97.67h1.25v5.84H82.3v-3.29H71.55Z"/><path class="cls-1" d="M97.89,90.09l-2.67,4.66,2.67,4.78h-2.3l-3.23-4.78,3.29-4.66Zm4,0-2.68,4.66,2.68,4.78h-2.3l-3.29-4.78,3.29-4.66Z"/><path class="cls-1" d="M114.35,94.69l3,.93a6,6,0,0,1-6.34,4.85,6.65,6.65,0,0,1-5-2,7.83,7.83,0,0,1-1.92-5.66,8.37,8.37,0,0,1,1.92-5.9,6.92,6.92,0,0,1,5.16-2.11,6.51,6.51,0,0,1,4.53,1.62,6,6,0,0,1,1.56,2.79l-3,.75A3.16,3.16,0,0,0,113.1,88a3.25,3.25,0,0,0-2-.68,3.42,3.42,0,0,0-2.74,1.18,6,6,0,0,0-1,3.91,6.37,6.37,0,0,0,1,4.1A3.44,3.44,0,0,0,111,97.8a3.23,3.23,0,0,0,2.11-.75A3.88,3.88,0,0,0,114.35,94.69Z"/><path class="cls-1" d="M129,98.48v1.74h-3V98.48c-2.42-.06-4.16-.68-5.15-1.8a6,6,0,0,1-1.49-4.16,5.72,5.72,0,0,1,1.55-4.23c1.06-1.05,2.73-1.61,5-1.74V85.13h3v1.49c2.42.06,4.1.68,5.09,1.8a6.52,6.52,0,0,1,0,8.32C133.1,97.8,131.36,98.42,129,98.48Zm-3-2.55V89.16a3.85,3.85,0,0,0-2.79.87,3.57,3.57,0,0,0-.87,2.61C122.3,94.81,123.54,95.93,126,95.93Zm3,0a5,5,0,0,0,2.05-.37,2.65,2.65,0,0,0,1.25-1.06,4.24,4.24,0,0,0,.37-2c0-2.18-1.24-3.3-3.67-3.3v6.71Z"/><path class="cls-1" d="M138.07,100.28V85.06h11.24v2.55h-8.19V91h7.63v2.54h-7.63v4.1h8.44v2.55H138.07Z"/><path class="cls-1" d="M152.17,100.28V85.06h4.91a15.63,15.63,0,0,1,3.66.25,4.06,4.06,0,0,1,2.17,1.49,4.86,4.86,0,0,1,.87,3,5.32,5.32,0,0,1-.49,2.36A3.78,3.78,0,0,1,162,93.63a4.5,4.5,0,0,1-1.61.75,19.64,19.64,0,0,1-3.17.25h-2v5.71h-3Zm3.11-12.61V92H157a7.37,7.37,0,0,0,2.42-.25,2,2,0,0,0,.94-.75,2.46,2.46,0,0,0,.37-1.18,2,2,0,0,0-.5-1.36,2.22,2.22,0,0,0-1.24-.69,15.3,15.3,0,0,0-2.17-.12h-1.49Z"/><path class="cls-1" d="M178.13,100.28h-3.35l-1.31-3.42h-6.08l-1.25,3.42h-3.23l5.91-15.15H172Zm-5.59-6-2.11-5.66-2.05,5.66Z"/><path class="cls-1" d="M179.31,99.53,182,94.88l-2.67-4.79h2.3l3.29,4.79-3.29,4.65Zm4.1,0,2.67-4.65-2.67-4.79h2.3L189,94.88l-3.29,4.65Z"/><path class="cls-1" d="M56.4,112.33a4.5,4.5,0,0,1-1.68.31,3,3,0,0,1-3.1-3.17,3.09,3.09,0,0,1,3.29-3.29,5.08,5.08,0,0,1,1.49.25l-.19.68a3.43,3.43,0,0,0-1.24-.25A2.59,2.59,0,0,0,55,112a3.86,3.86,0,0,0,1.31-.25Z"/><path class="cls-1" d="M60.62,109.53H58.2v2.24h2.73v.68H57.39v-6.21h3.42v.68H58.2v2h2.42Z"/><path class="cls-1" d="M63.23,106.92H61.31v-.68H66v.68H64v5.59h-.81Z"/><path class="cls-1" d="M67.46,106.24v2.36c.18,0,.55-.06.74-.06,1.31,0,2.42.56,2.42,1.93a2,2,0,0,1-.49,1.36,3,3,0,0,1-2.24.75c-.56,0-1-.07-1.24-.07V106.3h.81Zm0,5.65a1.86,1.86,0,0,0,.68.07c.93,0,1.68-.44,1.68-1.37s-.81-1.37-1.68-1.37a2.42,2.42,0,0,0-.68.07Z"/><path class="cls-1" d="M79,109.72c-.07-.87-.13-1.93-.13-2.73h0c-.25.74-.5,1.49-.81,2.36l-1.11,3h-.63l-1-3a24.69,24.69,0,0,1-.74-2.42h0c0,.8-.07,1.8-.13,2.79l-.18,2.67h-.75l.43-6.27H75l1.06,3c.24.75.43,1.43.62,2.11h0c.18-.62.37-1.3.68-2.11l1.12-3h1l.38,6.27h-.81Z"/><path class="cls-1" d="M84.35,109.53H81.93v2.24h2.73v.68H81.12v-6.21h3.42v.68H82v2h2.42v.62Z"/><path class="cls-1" d="M90.19,106.24v5.59h.56L90.68,114h-.62l-.06-1.5H86L86,114h-.62l-.06-2.18h.44a10.59,10.59,0,0,0,.62-1.36,10.73,10.73,0,0,0,.31-2.61v-1.62Zm-2.74,1.87a7.64,7.64,0,0,1-.31,2.54,5.17,5.17,0,0,1-.49,1.18h2.79v-4.91H87.52v1.19Z"/><path class="cls-1" d="M92.48,106.24v2.61c0,1,0,1.8-.06,2.67h0a20.39,20.39,0,0,1,1.18-2l2.05-3.23h.81v6.27h-.75v-2.67c0-1,0-1.73.07-2.54h0a18.61,18.61,0,0,1-1.18,2.11l-2,3.1h-.87v-6.27Z"/><path class="cls-1" d="M98.7,106.24v5.59h2.85v-5.59h.81v5.59h.56l-.06,2.18h-.62l-.07-1.5H97.89v-6.27Z"/><path class="cls-1" d="M104.66,106.24v2.61c0,1,0,1.8-.06,2.67h0a18.62,18.62,0,0,1,1.18-2l2-3.23h.8v6.27h-.74v-2.67c0-1,0-1.73.06-2.54h0a18.61,18.61,0,0,1-1.18,2.11l-2,3.1h-.87v-6.27Z"/><path class="cls-1" d="M110.87,106.24v2.61h3v-2.61h.81v6.27h-.81V109.6h-3v2.91h-.81v-6.27Z"/><path class="cls-1" d="M120.43,112.33a4.49,4.49,0,0,1-1.67.31,3,3,0,0,1-3.11-3.17,3.1,3.1,0,0,1,3.29-3.29,5.08,5.08,0,0,1,1.49.25l-.18.68a3.49,3.49,0,0,0-1.25-.25,2.59,2.59,0,0,0,0,5.16,3.86,3.86,0,0,0,1.31-.25Z"/><path class="cls-1" d="M122.3,106.24V109h.25l2.17-2.8h1l-2.36,2.86c1.06.12,1.43.74,1.74,1.61.25.62.44,1.25.68,1.8h-.86a9.38,9.38,0,0,1-.56-1.49c-.31-.8-.69-1.36-1.74-1.36h-.25v2.85h-.81v-6.27Z"/><path class="cls-1" d="M127.27,106.24v2.61c0,1,0,1.8-.07,2.67h0a20.39,20.39,0,0,1,1.18-2l2.05-3.23h.81v6.27h-.75v-2.67c0-1,0-1.73.07-2.54h0a18.61,18.61,0,0,1-1.18,2.11l-2,3.1h-.87v-6.27Z"/><path class="cls-1" d="M136.08,112.51l-.8-1.36c-.31-.56-.5-.87-.75-1.24h0c-.18.37-.37.68-.68,1.24l-.75,1.36h-.93l1.93-3.16-1.87-3.11h.94l.8,1.49a8.74,8.74,0,0,1,.56,1.06h0a9.91,9.91,0,0,1,.56-1.06l.87-1.49h.93L135,109.29l1.92,3.22Z"/><path class="cls-1" d="M140.74,106.24v5.59h2.86v-5.59h.81v5.59H145L144.9,114h-.62l-.06-1.5h-4.28v-6.27Z"/><path class="cls-1" d="M149.19,109.53h-2.42v2.24h2.73v.68H146v-6.21h3.42v.68h-2.55v2h2.42v.62Z"/><path class="cls-1" d="M151.36,106.24v2.61h3v-2.61h.8v6.27h-.8V109.6h-3v2.91h-.8v-6.27Z"/><path class="cls-1" d="M157.76,106.92h-1.93v-.68h4.66v.68h-1.92v5.59h-.81v-5.59Z"/><path class="cls-1" d="M161.24,106.3a10.06,10.06,0,0,1,1.55-.12,2.64,2.64,0,0,1,1.74.5,1.81,1.81,0,0,1,.56,1.3,2.07,2.07,0,0,1-.5,1.37,2.7,2.7,0,0,1-1.92.68,2,2,0,0,1-.62-.06v2.48h-.81V106.3Zm.81,3a2.16,2.16,0,0,0,.68.06c1,0,1.55-.5,1.55-1.3s-.62-1.25-1.49-1.25a2.17,2.17,0,0,0-.74.06v2.43Z"/><path class="cls-1" d="M171.42,109.29c0,2.17-1.3,3.29-2.92,3.29s-2.79-1.31-2.79-3.17a3,3,0,0,1,2.92-3.29C170.31,106.12,171.42,107.42,171.42,109.29Zm-4.84.12c0,1.37.74,2.55,2,2.55s2-1.18,2-2.61c0-1.24-.62-2.55-2-2.55S166.58,108,166.58,109.41Z"/><path class="cls-1" d="M172.48,106.3a9.85,9.85,0,0,1,1.49-.12,2.78,2.78,0,0,1,1.74.43,1.43,1.43,0,0,1,.56,1.12,1.53,1.53,0,0,1-1.06,1.37h0a1.56,1.56,0,0,1,1.31,1.55,1.48,1.48,0,0,1-.56,1.24,3.24,3.24,0,0,1-2.18.56c-.56,0-1-.06-1.24-.06V106.3Zm.81,2.61H174c.87,0,1.37-.43,1.37-1s-.56-1-1.37-1a2.37,2.37,0,0,0-.74.06Zm0,3c.18,0,.37.07.68.07.81,0,1.61-.31,1.61-1.25s-.74-1.18-1.61-1.18h-.68Z"/><circle class="cls-1" cx="29.32" cy="100.03" r="4.22"/><path class="cls-1" d="M29.32,118.29A18.29,18.29,0,1,1,47.64,100,18.3,18.3,0,0,1,29.32,118.29Zm0-32.23a14,14,0,1,0,14,14A14,14,0,0,0,29.32,86.06Z"/></svg>