<svg id="Layer_1" data-name="Layer 1" xmlns="http://www.w3.org/2000/svg" viewBox="0 0 200 200"><defs><style>.cls-1{fill:#f45740;}.cls-1,.cls-3,.cls-5{fill-rule:evenodd;}.cls-2,.cls-4{fill:none;}.cls-3{fill:#fff;}.cls-4,.cls-5{stroke:#0e1b8d;stroke-miterlimit:41.18;}.cls-4{stroke-width:0.15px;}.cls-5,.cls-6{fill:#0e1b8d;}.cls-5{stroke-width:0.14px;}</style></defs><g id="Layer_1-2" data-name="Layer_1"><path class="cls-1" d="M41.85,117H40.3L38.74,117l-1.51-.12-1.51-.18-1.45-.17-1.46-.24L31.4,116l-1.36-.3-1.37-.35L27.36,115l-1.26-.35-1.27-.47-1.21-.47-1.12-.47-1.12-.53-1.07-.53-1-.59-.93-.59-.92-.59-.87-.65-.78-.65-.73-.7-.68-.71-.63-.76-.54-.71-.49-.77-.38-.76-.34-.83-.3-.82-.19-.83-.1-.82-.05-.83.05-.82.1-.83.19-.82.3-.83.34-.82.38-.77.49-.76.54-.71.63-.77.68-.7.73-.71.78-.65.87-.64.92-.59.93-.59,1-.59,1.07-.53,1.12-.53,1.12-.53L24.83,87l1.27-.48,1.26-.35,1.31-.35L30,85.44l1.36-.29,1.41-.23,1.46-.24,1.45-.18,1.51-.17,1.51-.12,1.56-.06h3.16l1.55.06,1.51.12L48,84.5l1.46.18,1.46.24,1.41.23,1.36.29,1.36.36,1.31.35,1.27.35,1.26.48,1.22.41,1.11.53,1.13.53,1.06.53,1,.59.92.59.92.59.88.64L68,92l.72.71.69.7.63.77.53.71.49.76.39.77.34.82.29.83.2.82.09.83,0,.82,0,.83-.09.82-.2.83-.29.82-.34.83-.39.76-.49.77L70,107l-.63.76-.69.71-.72.7-.78.65-.88.65-.92.59-.92.59-1,.59-1.06.53-1.13.53-1.11.47-1.22.47-1.26.47-1.27.35-1.31.36-1.36.35-1.36.3-1.41.23-1.46.24-1.46.17-1.51.18L45,117l-1.55.06ZM59.51,89.1l-.78.35L58,89.8l-.83.36-.78.35-.77.29-.83.3-.78.23-.78.24-.58-.88-.68-.89L51.24,89l-.73-.77-.78-.7L48.9,87,48,86.39l-.88-.47,1.7.23,1.66.24,1.65.35,1.56.35,1.55.42,1.46.47,1.41.53ZM51.87,92l-1.26.3-1.27.29-1.26.24L46.81,93l-1.26.12-1.27.12L43,93.28l-1.26.06-1.27-.06-1.26-.06L38,93.16,36.7,93l-1.27-.17-1.26-.24-1.27-.23L31.64,92l.44-.65.44-.64.53-.59.54-.53.58-.53.58-.53.59-.42.63-.41.68-.35.68-.36L38,86.8l.73-.24.73-.17.73-.18.78-.06h1.55l.73.06.78.18.73.17.68.18.73.29.63.36.68.35.64.41.63.42.58.47.54.53.53.53.54.59.43.64Zm-21.45-.29-.87-.24-.83-.23-.87-.3L27,90.63l-.83-.35-.87-.36-.83-.35-.83-.35,1.42-.59L26.53,88,28,87.57l1.61-.48,1.65-.35,1.7-.35,1.75-.3,1.8-.17-.92.47-.88.59-.82.59-.83.7-.73.77-.73.82-.63.89-.59.94ZM22.06,90l1,.47.93.41,1,.42,1,.41.93.35,1,.35,1,.3,1,.29-.35.71-.29.77-.24.76-.2.77-.19.76-.15.83-.14.82-.05.83H13.94l.15-.65.19-.71.24-.64.3-.59L15.2,96l.39-.65.44-.59.49-.59.58-.59.58-.53.64-.59.68-.53.68-.47.78-.53.77-.47Zm8.85,3.3,1.36.35,1.36.3,1.37.23,1.36.24,1.36.12,1.36.11,1.36.06,1.36.06,1.36-.06,1.37-.06,1.36-.11,1.36-.18,1.31-.18,1.37-.23,1.31-.3,1.36-.35.34.65.29.7.24.71.25.77.19.76.15.77.14.76,0,.83h-25l0-.83.14-.76.15-.77.19-.76L30,95.4l.24-.71.29-.7Zm23-.41.93-.3.92-.29.88-.36.92-.35.92-.41.88-.41.93-.42.87-.47.88.47.82.47.78.53.73.47.68.59.68.54.58.58.59.59.49.59.48.59.39.65.39.65.29.65.29.64.2.65.14.71h-14l-.1-.83-.1-.88-.14-.83-.2-.76-.24-.83-.24-.76-.3-.71-.34-.76Zm5.65,19.2-.78-.35L58,111.3l-.83-.29-.78-.35-.82-.3-.78-.29-.83-.3-.78-.23-.63.94-.68.88-.73.83-.78.76-.82.71-.88.59-.92.59-.93.47,1.75-.24,1.76-.29,1.7-.3,1.6-.35,1.61-.47,1.5-.47,1.46-.53,1.37-.59Zm-7.74-2.95-1.21-.29-1.27-.29L48,108.3l-1.22-.18L45.55,108l-1.27-.11L43,107.83l-1.26-.06-1.27.06H39.23L38,108l-1.26.11-1.27.18-1.26.23-1.27.24-1.26.3.44.7.48.59.49.59.54.53.58.53.58.53.63.41.64.42.63.35.68.29.68.3.73.23.73.18.73.12.78.12h1.55l.73-.12.73-.12.73-.18.73-.23.68-.24.68-.35.64-.35.63-.36.63-.47.58-.47.54-.47.53-.59.54-.59.43-.59Zm-21.35.24-.87.24-.88.29-.82.29-.88.3-.87.35-.83.3-.87.41-.88.35,1.46.65,1.51.53,1.6.53,1.66.47,1.7.41,1.79.36,1.81.23,1.89.24-1-.47-1-.59-.88-.65-.83-.71-.82-.76-.73-.88-.68-1-.64-.94ZM22,111.13l1-.47,1-.48,1-.41,1-.35,1-.36,1-.35,1-.35,1-.3-.35-.76-.34-.89-.24-.82-.24-.88-.2-.89-.14-.94-.1-.94-.05-.94H13.84l.05.7.15.77.19.7.29.71.3.65.38.71.44.65.49.64.58.65.59.59.67.65.69.53.78.59.77.53.83.53.92.53Zm9-3.36,1.36-.35,1.36-.3,1.37-.23,1.36-.18,1.36-.18,1.36-.12,1.36,0H41.8l1.36,0,1.37.06,1.31.12,1.36.18,1.36.18,1.32.29,1.36.29,1.31.36.39-.83.34-.76.29-.83.24-.88.2-.89.15-.88.09-.88,0-.94H29.21l.05.88.1.94.14.88.2.83.24.88.29.77.29.82Zm22.9.47.93.3.92.35.93.29.92.42.92.35.88.47.93.41.92.47.92-.53.88-.53.82-.53.78-.59.73-.58L66,108l.63-.65.59-.65.53-.65.44-.65.39-.7.34-.71.29-.71.2-.76.14-.71.1-.76H55.57l0,.94-.1,1-.15.94-.24.88-.24.95-.29.82-.3.89-.39.82Z"/><path class="cls-2" d="M60.09,89.73l-.78.36-.78.35-.82.35-.78.36-.78.29-.83.29-.77.24-.78.23-.59-.88-.68-.88-.68-.77-.73-.76-.78-.71-.82-.59L48.61,87l-.87-.47,1.7.24,1.65.23,1.66.36,1.55.35,1.56.41,1.46.47,1.41.53,1.36.59"/><path class="cls-2" d="M31.5,108.4l1.36-.35,1.36-.29,1.36-.24,1.36-.18,1.36-.17,1.37-.12L41,107h1.36l1.36.06,1.36.06,1.32.12,1.36.17,1.36.18,1.31.29,1.36.3,1.32.35.39-.82.34-.77.29-.82.24-.89.2-.88.14-.88.1-.89,0-.94H29.79l.05.88.1.95.14.88.2.82.24.89.3.76.29.83.39.76"/><g id="_2976894325104" data-name=" 2976894325104"><path class="cls-3" d="M37.09,93.44l5.77-17.67,6.25,18.12,16.58,6.42-17.12,7.22-5.71,16.7L36.44,107l-16-6.71,16.63-6.87Z"/><path class="cls-4" d="M37.09,93.44l5.77-17.67,6.25,18.12,16.58,6.42-17.12,7.22-5.71,16.7L36.44,107l-16-6.71,16.63-6.87"/><path class="cls-5" d="M42.86,124.12V100.31L36.44,107l6.42,17.16Z"/><path class="cls-5" d="M42.86,124.12V100.31L36.44,107l6.42,17.16Z"/><path class="cls-5" d="M37,93.33l-16.42,7H42.86l-5.87-7Z"/><path class="cls-5" d="M37,93.33l-16.42,7H42.86l-5.87-7Z"/><path class="cls-5" d="M48.67,107.3l16.42-7H42.86Z"/><path class="cls-5" d="M48.67,107.3l16.88-7-22.69,0Z"/><path class="cls-5" d="M42.86,76.57v23.74l6.36-6.64Z"/><path class="cls-5" d="M42.87,76.31v24l6.36-6.64Z"/></g><path class="cls-6" d="M83.28,96.6v7.76H80.66v-2.87H78.25v2.87H75.63V96.6h2.62v2.75h2.41V96.6Zm5.32,7.93a4.75,4.75,0,0,1-2.25-.52,3.88,3.88,0,0,1-1.56-1.44,3.93,3.93,0,0,1-.57-2.09,3.92,3.92,0,0,1,2.13-3.54,5.13,5.13,0,0,1,4.5,0,3.84,3.84,0,0,1,1.56,1.45,3.88,3.88,0,0,1,.57,2.09,3.93,3.93,0,0,1-.57,2.09A3.81,3.81,0,0,1,90.85,104,4.75,4.75,0,0,1,88.6,104.53Zm0-2.11a1.66,1.66,0,0,0,.88-.24,1.8,1.8,0,0,0,.63-.68,2.4,2.4,0,0,0,0-2,1.8,1.8,0,0,0-.63-.68,1.8,1.8,0,0,0-1.76,0,1.8,1.8,0,0,0-.63.68,2.4,2.4,0,0,0,0,2,1.8,1.8,0,0,0,.63.68A1.66,1.66,0,0,0,88.6,102.42Zm11.29-2.13a2,2,0,0,1,1,.69,1.83,1.83,0,0,1,.35,1.13,1.93,1.93,0,0,1-.83,1.64,3.84,3.84,0,0,1-2.33.61H93.92V96.6h3.94a3.93,3.93,0,0,1,2.23.53,1.69,1.69,0,0,1,.79,1.5,1.74,1.74,0,0,1-.26,1,2,2,0,0,1-.73.69Zm-3.4-.71H97.6c.43,0,.64-.19.64-.57s-.21-.58-.64-.58H96.49Zm1.46,3a.56.56,0,0,0,.64-.62c0-.4-.22-.6-.64-.6H96.49v1.22Zm8.15,2a4.78,4.78,0,0,1-2.25-.52,3.85,3.85,0,0,1-2.12-3.53,3.87,3.87,0,0,1,.56-2.09,4,4,0,0,1,1.56-1.45,4.78,4.78,0,0,1,2.25-.52,4.73,4.73,0,0,1,2.25.52,3.87,3.87,0,0,1,2.13,3.54,4,4,0,0,1-.56,2.09,3.9,3.9,0,0,1-1.57,1.44A4.73,4.73,0,0,1,106.1,104.53Zm0-2.11a1.64,1.64,0,0,0,1.51-.92,2.4,2.4,0,0,0,0-2,1.61,1.61,0,0,0-1.51-.91,1.65,1.65,0,0,0-.88.23,1.7,1.7,0,0,0-.62.68,2.31,2.31,0,0,0,0,2,1.7,1.7,0,0,0,.62.68A1.66,1.66,0,0,0,106.1,102.42Zm9.06-5.82A4.74,4.74,0,0,1,117,97a2.68,2.68,0,0,1,1.66,2.57,2.9,2.9,0,0,1-.43,1.56,2.83,2.83,0,0,1-1.23,1,4.74,4.74,0,0,1-1.88.35H114v1.91h-2.61V96.6Zm-.17,3.83a1.14,1.14,0,0,0,.8-.24,1,1,0,0,0,0-1.34,1.14,1.14,0,0,0-.8-.24H114v1.82Zm8.55,4.1a4.78,4.78,0,0,1-2.25-.52,3.89,3.89,0,0,1-2.13-3.53,3.88,3.88,0,0,1,.57-2.09,4,4,0,0,1,1.56-1.45,4.78,4.78,0,0,1,2.25-.52,4.73,4.73,0,0,1,2.25.52,3.87,3.87,0,0,1,2.13,3.54,4,4,0,0,1-.56,2.09,3.9,3.9,0,0,1-1.57,1.44A4.73,4.73,0,0,1,123.54,104.53Zm0-2.11a1.64,1.64,0,0,0,.88-.24,1.66,1.66,0,0,0,.63-.68,2.4,2.4,0,0,0,0-2,1.66,1.66,0,0,0-.63-.68,1.63,1.63,0,0,0-.88-.23,1.65,1.65,0,0,0-.88.23,1.8,1.8,0,0,0-.63.68,2.4,2.4,0,0,0,0,2,1.8,1.8,0,0,0,.63.68A1.66,1.66,0,0,0,123.54,102.42Zm9.23,2.11a4.78,4.78,0,0,1-2.22-.51A4.08,4.08,0,0,1,129,98.38a3.94,3.94,0,0,1,1.55-1.45,5.16,5.16,0,0,1,4.23-.11A3.78,3.78,0,0,1,136.25,98l-1.66,1.48a2.1,2.1,0,0,0-1.69-.91,1.73,1.73,0,0,0-1.32.52,2.25,2.25,0,0,0,0,2.83,1.73,1.73,0,0,0,1.32.53,2.13,2.13,0,0,0,1.69-.91l1.66,1.47a3.78,3.78,0,0,1-1.47,1.15,4.78,4.78,0,0,1-2,.4Zm11.19-.17,0-3.54-1.68,2.84H141.1l-1.68-2.72v3.42H137V96.6h2.15l2.53,4.13,2.46-4.13h2.15l0,7.76Zm10.2-2v2h-6.45V96.6H154v2h-3.74v.91h3.28v1.88h-3.28v1Zm7.67-3.75h-2.27v5.73H157V98.63h-2.28v-2h7.12Zm6.34,4.37h-2.95l-.52,1.36H162l3.39-7.76H168l3.39,7.76h-2.7Zm-.72-1.88-.75-2-.76,2Zm12.24-4.52v7.76h-2.57V98.63h-1.77l0,.89a15.78,15.78,0,0,1-.26,2.73,3.43,3.43,0,0,1-.78,1.66,2.08,2.08,0,0,1-1.58.59,5,5,0,0,1-1.11-.14l.13-2.1a1.45,1.45,0,0,0,.29,0,.73.73,0,0,0,.63-.34,2.17,2.17,0,0,0,.29-.88c0-.37.09-.86.11-1.46l.1-3Zm8.95,0v7.76h-2.57V98.63h-1.78l0,.89a15.65,15.65,0,0,1-.27,2.73,3.34,3.34,0,0,1-.77,1.66,2.09,2.09,0,0,1-1.59.59,5.11,5.11,0,0,1-1.11-.14l.14-2.1a1.35,1.35,0,0,0,.29,0,.7.7,0,0,0,.62-.34,2,2,0,0,0,.29-.88,14.49,14.49,0,0,0,.12-1.46l.1-3Z"/></g></svg>