<svg id="Layer_1" data-name="Layer 1" xmlns="http://www.w3.org/2000/svg" viewBox="0 0 200 200"><defs><style>.cls-1{fill:#7b133a;}</style></defs><path class="cls-1" d="M45.18,109.47a4.15,4.15,0,0,1,3-1.29,4.06,4.06,0,0,1,4,3.19H51a2.8,2.8,0,0,0-2.79-2,2.94,2.94,0,0,0-2.12.92,3.18,3.18,0,0,0,0,4.42,3,3,0,0,0,4.2.11,2.84,2.84,0,0,0,.79-1.25h1.22a4.16,4.16,0,0,1-4.09,3.3,4.08,4.08,0,0,1-3-1.28,4.48,4.48,0,0,1,0-6.18Z"/><polygon class="cls-1" points="64.73 111.88 68.38 111.88 68.38 108.23 69.64 108.23 69.64 116.87 68.38 116.87 68.38 113.11 64.73 113.11 64.73 116.87 63.48 116.87 63.48 108.23 64.73 108.23 64.73 111.88 64.73 111.88"/><path class="cls-1" d="M86.26,114.68h-3.5l-.84,2.19H80.57L84,108.11h.9l3.46,8.76H87.05l-.82-2.19Zm-3.76-7h0L84,106.29h1.06l1.47,1.35H85.17l-.7-.58-.63.58Zm.71,5.85h2.6l-1.29-3.39Z"/><polygon class="cls-1" points="100.34 116.87 100.34 109.41 97.72 109.41 97.72 108.22 104.19 108.22 104.19 109.41 101.59 109.41 101.59 116.87 100.34 116.87 100.34 116.87"/><polygon class="cls-1" points="116.37 115.62 120.38 115.62 120.38 116.87 115.11 116.87 115.11 108.23 120.38 108.23 120.38 109.48 116.37 109.48 116.37 111.91 120.28 111.91 120.28 113.17 116.37 113.17 116.37 115.62 116.37 115.62"/><path class="cls-1" d="M136.71,114.68H133.2l-.84,2.19H131l3.45-8.76h.9l3.47,8.76h-1.35Zm-3.06-1.19h2.61L135,110.08Z"/><path class="cls-1" d="M149.66,114.27v-6h1.26v6.06c0,.95,1,1.42,1.94,1.42s1.93-.48,1.93-1.44v-6h1.27v6.06c0,1.75-1.7,2.66-3.18,2.66s-3.2-.9-3.2-2.7Z"/><path class="cls-1" d="M52.69,123.84c5.16,0,7.75,4,7.75,8s-2.59,8-7.75,8H47.43v8H43.94V123.84Zm0,12.54h0a4.53,4.53,0,0,0,0-9H47.43v9.06Z"/><polygon class="cls-1" points="84.98 147.75 84.98 123.83 87.64 123.83 99.29 140.68 99.29 123.83 102.71 123.83 102.71 147.75 99.98 147.75 88.43 131.04 88.43 147.75 84.98 147.75 84.98 147.75"/><path class="cls-1" d="M113.13,127a12.26,12.26,0,0,1,17.33-.13l.13.13a12.45,12.45,0,0,1,0,17.5,12.24,12.24,0,0,1-17.32.13l-.14-.13A12.47,12.47,0,0,1,113.13,127Zm15,2.5h0a8.76,8.76,0,0,0-6.25-2.63,8.63,8.63,0,0,0-6.19,2.63,8.83,8.83,0,0,0,0,12.48l0,0a8.65,8.65,0,0,0,6.2,2.63,8.89,8.89,0,0,0,6.26-15.13Z"/><polygon class="cls-1" points="145.39 147.75 145.39 127.11 138.15 127.11 138.15 123.83 156.05 123.83 156.05 127.11 148.84 127.11 148.84 147.75 145.39 147.75 145.39 147.75"/><polygon class="cls-1" points="70.42 147.75 73.95 147.75 73.95 123.83 70.42 123.83 70.42 147.75 70.42 147.75"/><path class="cls-1" d="M88.69,77.63a1.44,1.44,0,0,1-.51.29,1.6,1.6,0,0,1-.57.11A1.5,1.5,0,0,1,86.11,77a2.54,2.54,0,0,1-.13-.77V76a3.06,3.06,0,0,1,1.08-2.16,3.31,3.31,0,0,1,2.1-.79h.18A3.73,3.73,0,0,1,93,76.8v0A6.14,6.14,0,0,1,92.63,79a5.84,5.84,0,0,1-1.15,1.87l0,0A5.32,5.32,0,0,1,87,82.49a7.75,7.75,0,0,1-4.41-2l0,0A6.38,6.38,0,0,1,81,78.27a6.61,6.61,0,0,1-.51-2.67,9.33,9.33,0,0,1,2.63-6.48A8.84,8.84,0,0,1,86,67.18a9.06,9.06,0,0,1,3.42-.67,11.61,11.61,0,0,1,8.07,3.3,10.78,10.78,0,0,1,2.44,3.6,11,11,0,0,1,.84,4.27A13.8,13.8,0,0,1,99.66,83a14,14,0,0,1-3,4.53,13.76,13.76,0,0,1-4.5,3,14.23,14.23,0,0,1-5.35,1A17.16,17.16,0,0,1,69.63,74.41a20.4,20.4,0,0,1,1.61-7.93,20.84,20.84,0,0,1,4.61-6.75,21.21,21.21,0,0,1,6.86-4.5,21.85,21.85,0,0,1,8.1-1.56,27.27,27.27,0,0,1,4.77.41A18.22,18.22,0,0,1,100,55.43c6.25,2.83,8.8,5.17,11.8,11.17C107,59.85,99.39,54.84,90.82,55h0a20.14,20.14,0,0,0-7.59,1.46,19.67,19.67,0,0,0-6.43,4.2A19.46,19.46,0,0,0,72.48,67,19.1,19.1,0,0,0,71,74.38,15.79,15.79,0,0,0,86.71,90.21h.05a13,13,0,0,0,4.84-.94,12.42,12.42,0,0,0,4.08-2.7,12.67,12.67,0,0,0,2.76-4.1,12.5,12.5,0,0,0,.93-4.79,9.88,9.88,0,0,0-.74-3.76,9.72,9.72,0,0,0-2.14-3.15,10.24,10.24,0,0,0-7.14-2.91,7.38,7.38,0,0,0-2.9.56,7.14,7.14,0,0,0-2.38,1.64,7.76,7.76,0,0,0-1.66,2.54,7.94,7.94,0,0,0-.59,3,5.24,5.24,0,0,0,.42,2.14,5.18,5.18,0,0,0,1.23,1.77l0,0A6.36,6.36,0,0,0,87,81.15,4,4,0,0,0,90.51,80l0,0a4.42,4.42,0,0,0,.9-1.44,4.81,4.81,0,0,0,.32-1.72A2.61,2.61,0,0,0,91,75.08a2.46,2.46,0,0,0-1.68-.78h0a2.85,2.85,0,0,0-1.62.62,1.8,1.8,0,0,0-.81,1.22v0a1.3,1.3,0,0,0,.27.9,1,1,0,0,0,.75.29c.59,0,1-.65,1.21-1.1a1.41,1.41,0,0,1-.37,1.39Z"/><path class="cls-1" d="M111.51,88.7a8.3,8.3,0,0,1,3.32,1h0a7,7,0,0,0,2.77.86,7.19,7.19,0,0,0,2.74-.84h0a8.2,8.2,0,0,1,3.32-1,8.11,8.11,0,0,1,3.31,1h0a6.94,6.94,0,0,0,2.77.85h.28c0,.09-.08.17-.11.26-.13.29-.66.45-1.35.48a4.88,4.88,0,0,1-2.07-.37l-.08,0a6.84,6.84,0,0,0-2.77-.85,7.4,7.4,0,0,0-2.77.85,8.2,8.2,0,0,1-3.32,1,8.16,8.16,0,0,1-3.31-1h0A6.94,6.94,0,0,0,111.5,90a7.51,7.51,0,0,0-2.77.85,8.2,8.2,0,0,1-3.32,1A7.56,7.56,0,0,1,101,90.11a12.27,12.27,0,0,0-1.73-1l-.75-.35h.87a8.11,8.11,0,0,1,3.31,1h0a6.94,6.94,0,0,0,2.77.85,7.28,7.28,0,0,0,2.75-.84h0a8.18,8.18,0,0,1,3.31-1Z"/><path class="cls-1" d="M113.54,75.06a4.92,4.92,0,0,0,1.91-.57,4.32,4.32,0,0,0,2.23-3.8,20.88,20.88,0,0,0,0-2.74v-.07A7.61,7.61,0,0,1,120,62.93l.26-8.92a1.36,1.36,0,0,1-.41-.26,1.15,1.15,0,0,1,0-1.61h0a1.14,1.14,0,1,1,1.61,1.62,1.2,1.2,0,0,1-.4.26l.23,8.1a6.69,6.69,0,0,1,2.79-.56,6.8,6.8,0,0,1,2.45.43l.31.12L127,54a1.21,1.21,0,0,1-.35-.24,1.13,1.13,0,0,1,0-1.61,1.14,1.14,0,0,1,1.61,1.61h0a1.18,1.18,0,0,1-.45.28l.25,8.89.35.32a6.42,6.42,0,0,1,1.35,2.09,7.13,7.13,0,0,1,.58,2.58v.18h0v9.45c0,5.28-2,7.55-5,9.87,2.09-2.86,3.6-5.58,3.69-9.88V68.1h0v-.19a6,6,0,0,0-.45-2,5.26,5.26,0,0,0-1.09-1.66,4.05,4.05,0,0,0-.68-.56h0v0a4.24,4.24,0,0,0-.77-.38,5.35,5.35,0,0,0-1.94-.33,4.52,4.52,0,0,0-4.25,2.4,6.89,6.89,0,0,0-.77,2.63v.19a19.82,19.82,0,0,1,0,2.67,5.7,5.7,0,0,1-5.61,5.61h0c-2.25-.21-5.91-.45-8.18-.65l8.33-.71h0Z"/></svg>