<svg id="Layer_1" data-name="Layer 1" xmlns="http://www.w3.org/2000/svg" viewBox="0 0 200 200"><defs><style>.cls-1,.cls-2{fill:#165b8d;}.cls-1{fill-rule:evenodd;}</style></defs><path class="cls-1" d="M59.59,143.47h1c.43,0,1.42.08,1.42,1.18s-1,1.17-1.42,1.17h-1v-2.35Zm-1.66,7.37h1.66v-3.4h.85c2.6,0,3.21-1.65,3.21-2.77,0-.85-.34-2.81-3.21-2.81H57.93v9Z"/><path class="cls-1" d="M69,149.43a3.06,3.06,0,1,1,3.08-3.08A3,3,0,0,1,69,149.43Zm0-7.73a4.68,4.68,0,1,0,4.73,4.69A4.66,4.66,0,0,0,69,141.7Z"/><path class="cls-1" d="M81.41,144.43a2.83,2.83,0,0,0-2.26-1.12,3,3,0,0,0-3,3,3.06,3.06,0,0,0,3,3.09,2.66,2.66,0,0,0,2.17-1h1.92a4.43,4.43,0,0,1-4.13,2.66,4.68,4.68,0,1,1,0-9.36,4.44,4.44,0,0,1,4.17,2.73Z"/><polygon class="cls-1" points="84.37 141.86 86.62 141.86 89.12 148.72 91.62 141.86 93.88 141.86 93.88 150.84 92.22 150.84 92.22 144.11 89.82 150.84 88.42 150.84 86.03 144.11 86.03 150.84 84.37 150.84 84.37 141.86"/><path class="cls-1" d="M99.78,149.43a3.06,3.06,0,1,1,3.08-3.08,3,3,0,0,1-3.08,3.08Zm0-7.73a4.68,4.68,0,1,0,4.72,4.69,4.66,4.66,0,0,0-4.72-4.69Z"/><path class="cls-1" d="M107.38,143.47h1c.43,0,1.42.08,1.42,1.18s-1,1.17-1.42,1.17h-1v-2.35Zm-1.66,7.37h1.66v-3.4h.85c2.6,0,3.21-1.65,3.21-2.77,0-.85-.34-2.81-3.21-2.81h-2.51v9Z"/><polygon class="cls-1" points="112.51 141.86 119.11 141.86 119.11 150.84 117.44 150.84 117.44 143.47 114.17 143.47 114.17 150.84 112.51 150.84 112.51 141.86"/><path class="cls-1" d="M125,149.43a3.06,3.06,0,1,1,3.09-3.08,3,3,0,0,1-3.09,3.08Zm0-7.73a4.68,4.68,0,1,0,4.73,4.69A4.67,4.67,0,0,0,125,141.7Z"/><path class="cls-1" d="M132.61,143.47h1c.43,0,1.42.08,1.42,1.18s-1,1.17-1.42,1.17h-1v-2.35Zm-1.67,7.37h1.67v-3.4h.84c2.61,0,3.22-1.65,3.22-2.77,0-.85-.34-2.81-3.22-2.81h-2.51v9Z"/><polygon class="cls-1" points="138.63 143.47 136.97 143.47 136.97 141.86 141.96 141.86 141.96 143.47 140.3 143.47 140.3 150.84 138.63 150.84 138.63 143.47"/><path class="cls-2" d="M98.67,124.4a15.67,15.67,0,0,0-1.75-7.49,7.48,7.48,0,0,0-6.58-4.13c-4.1-.16-7.45,1.61-10.37,4.33a7.44,7.44,0,0,1-.67.59,1.24,1.24,0,0,1-1.67-.14,1.31,1.31,0,0,1,0-1.87,19.94,19.94,0,0,0,3.91-5c2.79-5.18.83-9.84-4.08-12.42a15.87,15.87,0,0,0-7.64-1.8c-.86,0-1.35-.38-1.43-1.07-.1-1,.32-1.42,1.3-1.46a18.15,18.15,0,0,0,6.71-1.36c3-1.34,5.47-3.23,6.25-6.63A8.67,8.67,0,0,0,81.22,79c-1-1.48-2.25-2.8-3.35-4.22a2,2,0,0,1-.53-1.27,1.61,1.61,0,0,1,.9-1,1.49,1.49,0,0,1,1.17.28c1.26.91,2.4,2,3.71,2.8a12.14,12.14,0,0,0,7.08,2.06A7.69,7.69,0,0,0,97,73.31a15.61,15.61,0,0,0,1.63-7.07c0-.39,0-.79,0-1.19,0-1.19.9-1.79,2-1.27a1.49,1.49,0,0,1,.52,1c.3,2.09.42,4.22.86,6.28A8.37,8.37,0,0,0,105,75.88c2.5,2,5.33,2.16,8.28,1.32a17.11,17.11,0,0,0,7.08-4.2c.76-.72,1.37-.8,1.91-.24.69.72.67,1.28-.15,2.1a18.17,18.17,0,0,0-4.29,6.07,8,8,0,0,0,2.61,9.8,15.1,15.1,0,0,0,8.48,3.12l1.55.12c.78.06,1.12.44,1.1,1.28a1.15,1.15,0,0,1-1.18,1.24,16.41,16.41,0,0,0-5.48.81,11.94,11.94,0,0,0-6.09,4c-2.11,2.77-2.12,5.74-.69,8.8a18.91,18.91,0,0,0,4.11,5.49,1.31,1.31,0,0,1-.2,2.22,1.24,1.24,0,0,1-1.48-.26,39.26,39.26,0,0,0-4.35-3.17,10.94,10.94,0,0,0-8.49-1.27A7.48,7.48,0,0,0,103,117a14.9,14.9,0,0,0-1.68,6.69c0,.76-.08,1.53-.14,2.29s-.51.86-1.07.92a1.23,1.23,0,0,1-1.38-1,3.64,3.64,0,0,1,0-.74A6.83,6.83,0,0,1,98.67,124.4ZM100,90.53a4.65,4.65,0,0,0-4.75,4.64A4.87,4.87,0,0,0,99.88,100a4.94,4.94,0,0,0,4.84-4.67A4.68,4.68,0,0,0,100,90.53Zm-2.26,19.76a33.86,33.86,0,0,0-.31-7.07c-.18-.82-.72-1-1.44-.48a30.1,30.1,0,0,0-2.59,2.2c-.84.78-1.62,1.62-2.48,2.49A14.7,14.7,0,0,0,97.72,110.29ZM87.86,86.2a2,2,0,0,0-.25.12A15.53,15.53,0,0,0,85,92.45c-.1.49.22.46.53.46,1.46,0,2.92,0,4.38,0A11,11,0,0,0,92,92.61c.78-.18,1-.66.53-1.3-.76-1-1.62-2-2.48-2.92C89.34,87.63,88.57,86.91,87.86,86.2Zm-.22,18.15c1.28-1.3,2.38-2.39,3.45-3.52a11.61,11.61,0,0,0,1.25-1.55c.65-.94.45-1.52-.69-1.62-2.09-.18-4.19-.2-6.28-.28-.44,0-.49.22-.39.58a20.82,20.82,0,0,0,.77,2.7C86.28,101.88,87,103,87.64,104.35ZM112,86c-.48.56-.9,1.11-1.37,1.62-1,1.11-2.08,2.16-3,3.32-.78.94-.54,1.59.68,1.69,2.18.16,4.37.15,6.56.2,0,0,.07-.05.11-.08A13.12,13.12,0,0,0,112,86Zm-9.87,24.27a15.14,15.14,0,0,0,6.5-2.58c.36-.24.3-.44,0-.69-1.24-1.19-2.46-2.41-3.73-3.58a7.69,7.69,0,0,0-1.35-.89c-.44-.25-.76-.07-1,.36a2.71,2.71,0,0,0-.24.78C102.29,105.85,102.21,108,102.13,110.31Zm-4.54-30.2a14.47,14.47,0,0,0-6.17,2.48c-.3.21-.4.42-.09.71,1.52,1.41,3,2.86,4.58,4.2.88.76,1.49.52,1.57-.63.15-2.16.16-4.34.22-6.5C97.71,80.3,97.65,80.23,97.59,80.11ZM115,97.42a33.11,33.11,0,0,0-6.77.23c-1.15.2-1.39.79-.64,1.69.93,1.14,2,2.19,3,3.26.5.53,1,1,1.62,1.61A15.46,15.46,0,0,0,115,97.42ZM102.25,80.13c0,.3,0,.56,0,.82,0,1.76,0,3.51.17,5.25a6,6,0,0,0,.61,1.66,5.42,5.42,0,0,0,1.48-.68c1.17-1,2.27-2.13,3.38-3.22.35-.33.67-.69,1-1A13.34,13.34,0,0,0,102.25,80.13Z"/><path class="cls-2" d="M150.23,104.48l-3.54-1.06c0,.35-.06.61-.06.87l-.12,3.92a7.71,7.71,0,0,1-1.87,4.51,15.72,15.72,0,0,0-3.7,10.68,20.82,20.82,0,0,0,.57,2.95,22.29,22.29,0,0,0-2.82-.49,15.33,15.33,0,0,0-10.54,3.46,10.07,10.07,0,0,1-7.7,2.07c-.56-.06-1.12,0-1.84,0,.33,1.21.65,2.33,1,3.59-7.07.1-13.54-1.43-19.18-6.05.91-.18,1.71-.3,2.47-.5a27.13,27.13,0,0,0,7.23-3.54c1.78-1.1,3.61-2.13,5.41-3.19.57-.34.94-.15,1,.42.17.9.24,1.81.36,2.71,0,.34.11.67.18,1.07a5,5,0,0,0,.52-.21,18.53,18.53,0,0,0,6.19-5.85,6.52,6.52,0,0,0,1.18-5.19,7.28,7.28,0,0,0-2.07-3.28c-1.31-1.31-2.58-2.67-4-3.91a2.43,2.43,0,0,1-.79-2.38,6.72,6.72,0,0,1,2.08-3.91l5.56,5.59a23.54,23.54,0,0,0,2,1.88,5.36,5.36,0,0,0,5.86.63,17.1,17.1,0,0,0,7.35-7,2.61,2.61,0,0,0,.14-.43l-1.68-.2a17.19,17.19,0,0,1-1.91-.25c-.78-.18-.93-.54-.52-1.23,1.4-2.36,2.83-4.7,4.25-7a19.31,19.31,0,0,0,3-7.76C147.47,87.35,151,98.65,150.23,104.48Z"/><path class="cls-2" d="M80.29,135l1.06-3.59c-.74,0-1.35,0-2,0a10.23,10.23,0,0,1-7.74-2.18A15.2,15.2,0,0,0,60.12,126a6.17,6.17,0,0,0-.94.24c-.3.09-.59.22-.91.33a23.28,23.28,0,0,0,.61-2.27c.54-3.48-.52-6.59-2.23-9.53-.56-1-1.28-1.81-1.92-2.72a8.7,8.7,0,0,1-1.44-4.9c0-1.19,0-2.37,0-3.69l-3.6,1.07C49.51,97.42,51,91,55.54,85.22c.11.56.21,1,.29,1.42a25.27,25.27,0,0,0,3.74,8.09c1.07,1.72,2.14,3.45,3.15,5.19.6,1,.34,1.47-.86,1.6l-2.36.22c-.23,0-.47.1-.89.18.64.93,1.18,1.77,1.79,2.56a16.17,16.17,0,0,0,5,4.39c2.59,1.41,5.21,1.39,7.46-.86s4.5-4.52,6.74-6.77c1.35.76,2.47,3.35,2.11,5.24a1.3,1.3,0,0,1-.4.59c-1.48,1.49-3,3-4.46,4.46a6.63,6.63,0,0,0-1.93,3.19A6.49,6.49,0,0,0,76,119.58,19.1,19.1,0,0,0,82.81,126c.1-.92.22-1.68.28-2.45.24-2.52.46-2.43,2.27-1.37,2,1.2,4,2.47,6.07,3.7a20.59,20.59,0,0,0,6.74,2.8c.38.08.76.11,1.37.19C93.83,133.55,87.36,135.07,80.29,135Z"/><path class="cls-2" d="M119.62,60.89c.94-1,1.78-1.81,2.57-2.69a.93.93,0,0,0,.08-.74,6.63,6.63,0,0,1,2.26-7.19,6.88,6.88,0,0,1,8.33.2,6.68,6.68,0,0,1,.93,9.11,6.57,6.57,0,0,1-6.9,2.28,1,1,0,0,0-1.16.33c-.76.78-1.56,1.51-2.4,2.33,1,1,2,2,2.94,3,2,2,3.92,3.91,5.87,5.88A2.37,2.37,0,0,1,132,76.8a2.52,2.52,0,0,1-3.57-.1c-2.77-2.79-5.55-5.56-8.33-8.35l-.13-.1c-1.71,1.64-3.39,3.24-5,4.87-1,1-2,2.08-3.07,3.1a1.26,1.26,0,0,1-.45.26A7.27,7.27,0,0,1,105.61,75c.83-.84,1.66-1.67,2.48-2.51,2.46-2.5,4.91-5,7.39-7.5.43-.44.43-.69,0-1.13-2.69-2.65-5.36-5.34-8-8a2.43,2.43,0,0,1-.15-3.51,2.48,2.48,0,0,1,3.64,0c1.83,1.8,3.63,3.64,5.45,5.46C117.41,58.74,118.45,59.75,119.62,60.89Zm9-1.79a3.65,3.65,0,0,0,3.6-3.59A3.71,3.71,0,0,0,128.63,52,3.6,3.6,0,0,0,125,55.53,3.65,3.65,0,0,0,128.59,59.1Z"/><path class="cls-2" d="M76.61,64.46C75.7,63.6,74.86,62.76,74,62a1,1,0,0,0-.78-.12A6.59,6.59,0,1,1,78,55.59a5.26,5.26,0,0,1-.27,1.67A1,1,0,0,0,78,58.49q1,.91,1.89,1.89c.33.36.55.36.89,0q3.72-3.69,7.45-7.34l.79-.79a2.61,2.61,0,0,1,3.49-.15,2.47,2.47,0,0,1,.12,3.58q-3.54,3.59-7.13,7.14c-.5.5-1.06,1-1.66,1.47L94.35,75a6.2,6.2,0,0,1-3.81,1.51h-.07a3.65,3.65,0,0,1-3.55-1.44c-2-2.15-4.06-4.18-6.1-6.27L80,68.07c-1.19,1.23-2.33,2.45-3.51,3.64q-2.46,2.51-5,5a2.54,2.54,0,0,1-3.31.36,2.5,2.5,0,0,1-.8-3.16,4,4,0,0,1,.76-.9l7.87-7.87C76.2,65,76.33,64.79,76.61,64.46Zm-5.25-5.37a3.57,3.57,0,1,0-3.59-3.58A3.61,3.61,0,0,0,71.36,59.09Z"/></svg>