<svg id="Layer_1" data-name="Layer 1" xmlns="http://www.w3.org/2000/svg" viewBox="0 0 200 200"><defs><style>.cls-1{fill:#fff;}</style></defs><circle cx="100" cy="100" r="70.22"/><circle class="cls-1" cx="100" cy="100" r="67.19"/><circle cx="100" cy="99.18" r="63.05"/><path class="cls-1" d="M69.47,68.3a4,4,0,0,0,1.16.12,4.88,4.88,0,0,0,2.51-.7,1.06,1.06,0,0,0,.4-1.11c-.05-.12-.17-.23-.23-.23a.25.25,0,0,0-.29,0,.76.76,0,0,0-.23.17l-.06.06a3.74,3.74,0,0,1-2.27.64,2.46,2.46,0,0,1-2.16-1.4,6,6,0,0,1-.47-2.39v-.64a3.76,3.76,0,0,1,.59-1.92,2.79,2.79,0,0,1,2.85-1.17,3.82,3.82,0,0,1,1.4.59.62.62,0,0,0,.47.11.5.5,0,0,0,.29-.4A.69.69,0,0,0,73,59a4.85,4.85,0,0,0-3.15-.52,3.69,3.69,0,0,0-3.2,2.91,7.53,7.53,0,0,0,0,4.26A3.74,3.74,0,0,0,69.47,68.3ZM56.76,78.91h89a.87.87,0,0,0,.76-.76.82.82,0,0,0-.7-.82H56.76a.74.74,0,0,0-.7.82C56,78.56,56.35,78.85,56.76,78.91Zm65.85,29.66h.7c.76,0,1.51.05,2.21.05h.06a10.32,10.32,0,0,0,3-.4,4.81,4.81,0,0,0,2.57-1.64,4.74,4.74,0,0,0,.93-3.49,4,4,0,0,0-3-3.61H129a3.93,3.93,0,0,0,1.52-1.69,5.61,5.61,0,0,0,.4-3,3.53,3.53,0,0,0-2.33-3,6.51,6.51,0,0,0-2.62-.46h-3.38c-.58,0-.76.11-.76.76v8.27h0v7.4C121.85,108.45,122,108.57,122.61,108.57Zm1.16-12.3h0l.06-1.11v-2h.94c.69,0,1.45,0,2.21.06a2.2,2.2,0,0,1,2,2,3.32,3.32,0,0,1-.82,2.86,2.85,2.85,0,0,1-1.92.81h-2.45V96.27Zm0,4.37h1.17c.76,0,1.57,0,2.33.06a3.78,3.78,0,0,1,1.81.64,2.5,2.5,0,0,1,1.1,2.51,2.9,2.9,0,0,1-2,2.68,7.46,7.46,0,0,1-1.93.4h-2.45v-6.29Zm-7.22-33c0,.64.12.82.76.82h4.08c.52,0,.58-.35.64-.7a.66.66,0,0,0-.12-.41.68.68,0,0,0-.52-.18h-3.5v-3.2h2.74a.61.61,0,0,0,.64-.41.63.63,0,0,0-.06-.64.64.64,0,0,0-.58-.23h-2.8V59.73h3.5a.58.58,0,0,0,.64-.4.79.79,0,0,0,0-.64.64.64,0,0,0-.58-.24h-4.08c-.64,0-.76.12-.76.76V67.6Zm12.41.76h4.31c.59,0,.59-.47.64-.7a.67.67,0,0,0-.11-.41.44.44,0,0,0-.47-.12h-3.61v-3.2h2.68a.57.57,0,0,0,.64-.47.67.67,0,0,0-.06-.58c-.11-.17-.35-.17-.52-.17h-2.8V59.79h3.44a.57.57,0,0,0,.64-.41.79.79,0,0,0,0-.64.71.71,0,0,0-.58-.23h-4.08c-.64,0-.76.12-.76.76v8.45a.92.92,0,0,0,.12.52A1.63,1.63,0,0,0,129,68.36Zm-46.73,0a5.16,5.16,0,0,0,1,.06,3.56,3.56,0,0,0,.76-.06,3.64,3.64,0,0,0,3.08-2.27,7.45,7.45,0,0,0,.59-2.68v-.12c-.06-.23-.06-.47-.12-.64a7.41,7.41,0,0,0-.29-1.52,3.64,3.64,0,0,0-2.92-2.74,6.28,6.28,0,0,0-1.45,0,3.79,3.79,0,0,0-3.56,2.85,7.67,7.67,0,0,0,.06,4.55A3.64,3.64,0,0,0,82.23,68.36ZM80.65,61.6a2.54,2.54,0,0,1,2.28-2,2.62,2.62,0,0,1,1.92.35,2.55,2.55,0,0,1,1.22,1.86c.06.35.12.7.18,1.11,0,.17.06.35.06.52s-.06.35-.06.53A8.76,8.76,0,0,1,86,65.21a2.62,2.62,0,0,1-3.2,2,2.46,2.46,0,0,1-2.16-1.92A7.85,7.85,0,0,1,80.65,61.6Zm25.24,6.76h.17a.62.62,0,0,0,.47-.12c.17-.17.17-.35.17-.64V64.05h2.57a.57.57,0,0,0,.64-.47,1.06,1.06,0,0,0-.06-.58c-.12-.18-.35-.18-.58-.18H106.7V59.73H110a.57.57,0,0,0,.59-.46.86.86,0,0,0-.06-.64c-.12-.18-.35-.18-.59-.18h-3.84c-.64,0-.76.12-.76.76v8.51a.62.62,0,0,0,.12.41A.43.43,0,0,0,105.89,68.36ZM94.17,63.7v4.19a.53.53,0,0,0,.29.47.74.74,0,0,0,.35.06.77.77,0,0,0,.35-.12.74.74,0,0,0,.29-.64V64H98c.58,0,.64-.35.64-.7a.83.83,0,0,0-.12-.41.67.67,0,0,0-.46-.12H95.45V59.68h3.27a.57.57,0,0,0,.64-.47.65.65,0,0,0-.06-.58c-.12-.18-.35-.18-.58-.18H94.81c-.29,0-.46,0-.58.12a.85.85,0,0,0-.12.58l.06,4.55ZM79,100.23V91.9a.55.55,0,0,0-.11-.35.5.5,0,0,0-.35-.12h-.94a.5.5,0,0,0-.35.12.51.51,0,0,0-.11.41V99H68.07V92a.48.48,0,0,0-.18-.47.42.42,0,0,0-.46-.12h-.82a.46.46,0,0,0-.41.18.55.55,0,0,0-.11.41v15.9c0,.65.11.76.75.76h.35c.29,0,.47,0,.64-.17s.12-.35.12-.64L67.89,101v-.17H77V101L77,107.4c0,.64,0,.93.24,1.11a.72.72,0,0,0,.52.17,2.11,2.11,0,0,0,.58-.06h.18l.23-.17a.6.6,0,0,0,.23-.29.74.74,0,0,0,.06-.35v-7.58Zm38.35,33.63c0-.41-.12-.64-.65-.7a.89.89,0,0,0-.52.11.64.64,0,0,0-.18.53V139a3.25,3.25,0,0,1,0,.7,1.65,1.65,0,0,1-1.23,1.52,2.76,2.76,0,0,1-1.92,0,1.32,1.32,0,0,1-.87-.7,2.88,2.88,0,0,1-.35-1.52V133.8a.67.67,0,0,0-.18-.58c-.17-.18-.35-.12-.58-.12a.47.47,0,0,0-.41.17c-.17.18-.12.35-.12.53v5.42a4,4,0,0,0,.06.81,3,3,0,0,0,2.28,2.51,3.41,3.41,0,0,0,1.1.12,5,5,0,0,0,1-.12,2.81,2.81,0,0,0,2.28-2.16,4.33,4.33,0,0,0,.17-1.22v-3.32A7.38,7.38,0,0,0,117.37,133.86Zm10.78-.41h0a4.25,4.25,0,0,0-1.4-.23h-1.93c-.58,0-.75.11-.75.75v8.34a.48.48,0,0,0,.23.35.61.61,0,0,0,.7,0,.68.68,0,0,0,.35-.65v-2.56h.52a6.17,6.17,0,0,0,1-.06,2.91,2.91,0,0,0,2.51-1.92,3.73,3.73,0,0,0,.17-2A2.34,2.34,0,0,0,128.15,133.45Zm0,3.32a1.74,1.74,0,0,1-1.69,1.34h-1.1v-1.57h0v-2.16h1.35a1.46,1.46,0,0,1,1.57,1.63C128.32,136.25,128.26,136.54,128.2,136.77Zm17.89-14.34H55.77a.87.87,0,0,0-.76.76.83.83,0,0,0,.7.82h90A.6.6,0,0,0,146,124a.82.82,0,0,0,.65-.82C146.79,122.84,146.5,122.49,146.09,122.43ZM104.37,136a3.51,3.51,0,0,0-2.45-2.74h0a4.91,4.91,0,0,0-2.27-.11,3.42,3.42,0,0,0-2.8,2.33,7.28,7.28,0,0,0-.11,4.6,3.43,3.43,0,0,0,2.5,2.45,4.28,4.28,0,0,0,1.23.12H101a3.67,3.67,0,0,0,3.26-2.63,8,8,0,0,0,.35-2.56.7.7,0,0,0,0-.29C104.49,136.83,104.43,136.42,104.37,136Zm-1.17,2.45a9.39,9.39,0,0,1-.23,1.28,2.46,2.46,0,0,1-3,1.75,2.23,2.23,0,0,1-2-1.69,6.06,6.06,0,0,1-.06-3.67,2.4,2.4,0,0,1,2.51-1.87h.35c1.34.12,2,.88,2.33,2.33,0,.3,0,.53.11.88a1.54,1.54,0,0,0,.06.52A1.36,1.36,0,0,0,103.2,138.46Zm2-30.59c0,.29,0,.46.11.58s.29.12.53.12h7.92c.58,0,.64-.24.7-.88v-.11c.06-.3.06-.53-.12-.7s-.34-.18-.64-.18c-2.21,0-4.37.06-6.58.06h-.18v-6.24h4.9c.47,0,.76,0,1-.23a1.58,1.58,0,0,0,.23-1,.48.48,0,0,0-.17-.41,1,1,0,0,0-.41-.17h-5.54V98.6c0-1.8,0-3.67.06-5.48V93h4.43c.76,0,1.52,0,2.27.06.53,0,.64-.35.64-.53v-.23c.06-.41.12-.64,0-.88s-.41-.17-.82-.17h-7.87a.63.63,0,0,0-.4.12.4.4,0,0,0-.12.46v15.79Zm46.44-.12-2-5.65c-.88-2.57-1.81-5.19-2.68-7.75-.12-.29-.24-.64-.35-.93-.18-.53-.35-1-.53-1.52a.68.68,0,0,0-.7-.52h-.75c-.59,0-.7.05-.88.58l-5.59,14.62c-.18.41-.29.82-.47,1.23a.53.53,0,0,0,0,.52.48.48,0,0,0,.41.18H139a.63.63,0,0,0,.64-.47,17.54,17.54,0,0,1,1-2.91l.52-1.4a.6.6,0,0,1,.06-.18h1.05c.7,0,1.4,0,2.09,0,.94,0,1.87,0,2.8.06h1.05a.22.22,0,0,1,.18.06c.17.53.35,1,.52,1.63.29.82.52,1.63.82,2.45l0,.23c.12.47.24.64.76.64h.58c.3,0,.47,0,.59-.17A1.45,1.45,0,0,0,151.63,107.75Zm-4-5.94h-5.77l3-7.93.06.18c.93,2.56,1.8,5.12,2.68,7.75ZM93.12,93.12H97.2c.7.06.7-.23.82-.93v-.06c0-.17.06-.4-.12-.58s-.35-.17-.58-.17H87.06c-.64,0-.75.11-.81.7a1,1,0,0,1-.06.34.41.41,0,0,0,.06.35.63.63,0,0,0,.35.35.49.49,0,0,0,.41,0h4.13V108a.59.59,0,0,0,.18.47c.11.12.23.12.41.12h.81a.83.83,0,0,0,.41-.12.48.48,0,0,0,.12-.41V93.24A.21.21,0,0,0,93.12,93.12ZM58,105.48a3.88,3.88,0,0,0-.82-4.37,6.7,6.7,0,0,0-1.75-1.34c-.52-.29-1-.53-1.51-.76-.35-.18-.7-.35-1-.53a5.5,5.5,0,0,1-1.75-1.22,1.86,1.86,0,0,1-.53-1.86,2.55,2.55,0,0,1,.59-1.29A3.47,3.47,0,0,1,54.37,93a5.39,5.39,0,0,1,2.28.75.61.61,0,0,0,.64.12.8.8,0,0,0,.35-.52c0-.12,0-.18,0-.29s.06-.24.06-.35a.61.61,0,0,0-.46-.82l-.53-.17a5.58,5.58,0,0,0-.93-.3,7.08,7.08,0,0,0-3.67.06A4.43,4.43,0,0,0,48.84,95a3.88,3.88,0,0,0,.52,3,5,5,0,0,0,1.46,1.46c.46.23.87.52,1.34.75l.52.29a4.48,4.48,0,0,0,.82.41,18.28,18.28,0,0,1,1.69.93,2.64,2.64,0,0,1,1.28,1.93,2.75,2.75,0,0,1-.93,2.21,3.75,3.75,0,0,1-3.21.88,6.3,6.3,0,0,1-3-1.23.68.68,0,0,0-.58-.17.62.62,0,0,0-.29.52c0,.12,0,.24-.06.29a1,1,0,0,1-.06.41.73.73,0,0,0,.47.88,9.18,9.18,0,0,0,4,1,1.15,1.15,0,0,0,.41-.05,4.94,4.94,0,0,0,.93-.12A4.63,4.63,0,0,0,58,105.48Zm32.8,36.24c-.06,0-.06-.06,0,0-.4-.58-.75-1.05-1.1-1.57s-.59-.87-.88-1.28h0a3.24,3.24,0,0,0,1.63-4,2.31,2.31,0,0,0-1-1.28,3.31,3.31,0,0,0-1.75-.4H85.78c-.58,0-.7.11-.7.75v8.1c0,.47.06.64.59.7a.82.82,0,0,0,.52-.11.78.78,0,0,0,.12-.53v-2.74h1.1c.12,0,.18,0,.29.18.41.7.88,1.34,1.29,2l.23.4c.17.24.29.47.47.7a.72.72,0,0,0,.52.29h.12a.89.89,0,0,0,.52-.17,1,1,0,0,0,.23-.35A1.59,1.59,0,0,0,90.79,141.72Zm-2.74-3.9a1.1,1.1,0,0,1-.52.12H86.19v-1.52h0v-2.1h1.28a4.75,4.75,0,0,1,.88.18,1.14,1.14,0,0,1,.64.64A2,2,0,0,1,88.05,137.82Zm-13.4-3.44a2.93,2.93,0,0,1,1.63.06,3.71,3.71,0,0,1,.76.29l.53.17a.54.54,0,0,0,.58-.05.9.9,0,0,0,.23-.64.84.84,0,0,0-.41-.59,5.29,5.29,0,0,0-3.43-.46,3.85,3.85,0,0,0-3,2.44,6.7,6.7,0,0,0-.12,4.55,3.5,3.5,0,0,0,3.15,2.51c.23,0,.4.05.64.05a10.83,10.83,0,0,0,2.73-.46.57.57,0,0,0,.41-.64v-2.45a.67.67,0,0,0-.17-.53.93.93,0,0,0-.53-.11.53.53,0,0,0-.58.64v2c-.06,0-.17.06-.23.06h-.12c-.29.05-.52.11-.81.17a4.65,4.65,0,0,1-1.29,0,2.29,2.29,0,0,1-2.09-1.92,6.47,6.47,0,0,1,0-3A2.73,2.73,0,0,1,74.65,134.38Z"/></svg>