<svg id="Layer_1" data-name="Layer 1" xmlns="http://www.w3.org/2000/svg" viewBox="0 0 200 200"><defs><style>.cls-1{fill:#2d2726;}.cls-2{fill:#ad841f;}</style></defs><path class="cls-1" d="M72.73,160.88c-2-.77-3-1.44-3-2.94s1.16-2.43,2.82-2.43a4.06,4.06,0,0,1,3,1.29l.73-.81a5.11,5.11,0,0,0-3.7-1.56c-2.26,0-4,1.37-4,3.51s1.77,3.28,3.87,4c1.6.54,3.56,1.47,3.56,3.62s-1.77,3-3.73,3a3.91,3.91,0,0,1-3.91-2.77l-1.1.43a5.11,5.11,0,0,0,5.08,3.4c2.42,0,4.88-1.21,4.88-4.12C77.21,162.76,75,161.76,72.73,160.88Z"/><path class="cls-1" d="M81.5,154.7H80.25v14.58H81.5Z"/><path class="cls-1" d="M94.05,166.45v-3.88a3,3,0,0,0-1.58-2.83l2.28-5H93.48l-2.11,4.68a5.09,5.09,0,0,0-.56,0,2.69,2.69,0,0,0-.53,5.36l1.37-3a1.15,1.15,0,0,0-1-.44l-1,2.18a1.39,1.39,0,0,1-.82-1.33,1.85,1.85,0,0,1,2-1.81,2,2,0,0,1,2,2.27v4c0,2.06.93,3,3.22,2.75V168.2C94.83,168.39,94.05,168.24,94.05,166.45Z"/><path class="cls-1" d="M86.76,154.7H85.51v14.58h1.25Z"/><path class="cls-1" d="M101.74,159.9l1,1,1-1-1-1Z"/><path class="cls-1" d="M106,168.13H99.36v1.15H106Z"/><path class="cls-1" d="M102.69,154.49a5.43,5.43,0,1,0,5.49,5.41A5.31,5.31,0,0,0,102.69,154.49Zm0,9.77a4.35,4.35,0,1,1,4.4-4.36A4.25,4.25,0,0,1,102.69,164.26Z"/><path class="cls-1" d="M112.58,154.7h-1.25v14.58h1.25Z"/><path class="cls-1" d="M120.52,166.44v-3a3.73,3.73,0,0,0-1-2.71,5,5,0,0,0,.32-1.73,4.3,4.3,0,0,0-4.53-4.54,5.75,5.75,0,0,0-1.58.23v1.08a5.08,5.08,0,0,1,1.56-.25,3.16,3.16,0,0,1,3.43,3.44,3.46,3.46,0,0,1-.15,1.08,4.84,4.84,0,0,0-2.18-.48c-2,0-3,1-3,2.23a2,2,0,0,0,2.24,2,4.05,4.05,0,0,0,2.67-1.15,1,1,0,0,0-.57-.81,3,3,0,0,1-2.12.94c-.66,0-1.17-.31-1.17-1,0-.88.89-1.29,1.88-1.29a2.7,2.7,0,0,1,3,2.83v3.19c0,2.06.93,3,3.22,2.75V168.2C121.3,168.38,120.52,168.24,120.52,166.44Z"/><path class="cls-1" d="M123.6,154.7h-1.39l4.42,8.12.74-1Z"/><path class="cls-1" d="M132.46,154.7H131.2a3.61,3.61,0,0,1-.34,4l-3.74,5.11v5.52h1.26v-5.23l3.35-4.56C133.35,157.26,132.92,156.07,132.46,154.7Z"/><path class="cls-2" d="M101.34,62.09a1.41,1.41,0,1,0-1.41,1.39A1.41,1.41,0,0,0,101.34,62.09Zm-1.41.81a.82.82,0,1,1,.83-.81A.82.82,0,0,1,99.93,62.9Z"/><path class="cls-2" d="M95.29,42.7l2.17,2.52-1.95,2.52,3.15-.39L100,50.41l1.35-3.06,3.15.39-2-2.52,2.17-2.52-3.37.38-1.18-2.67,1.18-2.68,3.15.39-2-2.52,2.17-2.52-3.37.38L100,30.41l-1.35,3.05-3.37-.38,2.17,2.52-1.95,2.52,3.15-.39,1.18,2.68-1.18,2.67ZM99,37.1l-2.2.27,1.39-1.78L96.7,33.82l2.32.27,1-2.23,1,2.23,2.32-.27-1.52,1.77,1.39,1.78L101,37.1l-1,2.24Zm1,4.38,1,2.23,2.32-.27-1.52,1.77L103.19,47,101,46.72,100,49l-1-2.24-2.2.27,1.39-1.78L96.7,43.44l2.32.27Z"/><path class="cls-2" d="M133.46,85.41H131.1a4.23,4.23,0,1,1,0-8.45,1.44,1.44,0,0,1,.36,0,1.64,1.64,0,0,1,1,.74,1.6,1.6,0,0,1-.54,2.23,1.63,1.63,0,0,1-1.24.2l-.29-.07-.08.31A2.22,2.22,0,0,0,132,83a2.31,2.31,0,0,0,.52.06,2.26,2.26,0,0,0,1.1-.29,2.68,2.68,0,0,0,.18.33,3,3,0,0,0,2.59,1.43,3,3,0,0,0,2.19-.94l-.29-.7a.77.77,0,0,1-.78-.33.89.89,0,0,1-.08-.17c-.07-.24.08-.5.25-.8a4.68,4.68,0,0,0,.61-3.25v0a5.55,5.55,0,0,0-3.11-4.12,2.16,2.16,0,0,0,1.22-1.93,2.19,2.19,0,0,0-2.15-2.16h-.32v.29A1.59,1.59,0,0,1,132.3,72a1.84,1.84,0,0,1-1.85-1.84,1.81,1.81,0,0,1,.52-1.26,2.84,2.84,0,0,0,.72.1,2.74,2.74,0,0,0,1.89-.76l.24-.23-.21-.22a2.1,2.1,0,0,1-.62-1.49,2.2,2.2,0,0,1,.62-1.51l0,0,.14-.23,0-.07a5.61,5.61,0,0,0,.74-2.8A5.7,5.7,0,0,0,129,56h-.42a8.37,8.37,0,0,0-5.43,2.16,8.21,8.21,0,0,0-2,9.28,5.64,5.64,0,0,0-5.16-.46l-.05,0a4.7,4.7,0,0,0-2.48,2.2c-.17.31-.32.57-.57.63a.57.57,0,0,1-.18,0,.77.77,0,0,1-.74-.69l-.29,0-.27,0a2.89,2.89,0,0,0-.25,1.19,3,3,0,0,0,3,3l.37,0a2.18,2.18,0,0,0,.65,1.49,2.26,2.26,0,0,0,3.12,0l.24-.23-.21-.21a1.63,1.63,0,0,1,2.32-2.3,1.77,1.77,0,0,1,.37.52,3.12,3.12,0,0,1-2.92,4.37h0a4.35,4.35,0,0,1-2.62-.74,6.45,6.45,0,0,1-1.71-1.46,4.73,4.73,0,0,0-.44-.49,7.71,7.71,0,0,0-5-2.29,14.35,14.35,0,0,1,1.66-3.86l0,0a16.78,16.78,0,0,1,5.46-5.72l.47-.32-.53-.19a7.39,7.39,0,0,0-7.12,1.47l-.31.27.35.2A1.51,1.51,0,0,1,109,65a1.43,1.43,0,0,1-.65,1.26,6.63,6.63,0,0,1-1.43-3.94A1.39,1.39,0,1,0,105.23,61a1.41,1.41,0,0,0,.57,1.12,6.78,6.78,0,0,1-3.14,2.69,1.47,1.47,0,0,1-.12-1v0a.69.69,0,0,1,0-.13,1.52,1.52,0,0,1,1.27-1h.39l-.12-.37a7.32,7.32,0,0,0-.84-1.68,10.29,10.29,0,0,0,7-9.74,10.14,10.14,0,0,0-.6-3.45l-.28-.77-.27.77a9.69,9.69,0,0,1-9.1,6.42h-.13a9.69,9.69,0,0,1-9.1-6.42l-.28-.77-.27.77a10.14,10.14,0,0,0-.6,3.45,10.29,10.29,0,0,0,7,9.74,6.94,6.94,0,0,0-.84,1.68l-.13.37h.39a1.54,1.54,0,0,1,1.28,1,.65.65,0,0,1,0,.13s0,0,0,0a1.53,1.53,0,0,1-.12,1,6.76,6.76,0,0,1-3.15-2.69A1.38,1.38,0,0,0,94.77,61a1.41,1.41,0,1,0-1.67,1.37,6.63,6.63,0,0,1-1.43,3.94A1.41,1.41,0,0,1,91,65a1.54,1.54,0,0,1,.72-1.28l.35-.2-.31-.27a7.39,7.39,0,0,0-7.12-1.47l-.54.19.48.32A17,17,0,0,1,90.05,68l0,0a14.74,14.74,0,0,1,1.66,3.86,7.73,7.73,0,0,0-5,2.29c-.17.17-.3.33-.44.49a6.35,6.35,0,0,1-1.7,1.46A4.35,4.35,0,0,1,82,76.9h0a3.15,3.15,0,0,1-3.17-3.14A3,3,0,0,1,79,72.52a1.85,1.85,0,0,1,.36-.52,1.63,1.63,0,0,1,1.16-.47,1.63,1.63,0,0,1,1.17,2.77l-.21.21.23.23a2.23,2.23,0,0,0,3.78-1.52l.37,0a3,3,0,0,0,3-3,3.06,3.06,0,0,0-.25-1.19l-.27,0-.29,0a.77.77,0,0,1-.74.69.63.63,0,0,1-.19,0c-.25-.06-.39-.33-.56-.63A4.7,4.7,0,0,0,84.13,67l0,0a5.65,5.65,0,0,0-2.16-.42,5.5,5.5,0,0,0-3,.88,8.31,8.31,0,0,0,.64-3.23,8.17,8.17,0,0,0-2.68-6.05A8.37,8.37,0,0,0,71.45,56H71a5.71,5.71,0,0,0-5.6,5.67,5.62,5.62,0,0,0,.75,2.8l0,.07c0,.08.09.15.14.23l0,0A2.17,2.17,0,0,1,67,66.29a2.11,2.11,0,0,1-.63,1.49l-.21.22.24.23a2.76,2.76,0,0,0,1.9.76,3,3,0,0,0,.72-.1,1.8,1.8,0,0,1,.51,1.26A1.84,1.84,0,0,1,67.7,72a1.59,1.59,0,0,1-1.59-1.58v-.29h-.32a2.15,2.15,0,0,0-.94,4.09,5.5,5.5,0,0,0-2.34,2.08,5.56,5.56,0,0,0-.76,2v0a4.66,4.66,0,0,0,.6,3.25c.18.3.33.56.25.8a.87.87,0,0,1-.07.17.77.77,0,0,1-.79.33l-.28.7a2.77,2.77,0,0,0,.62.5,3,3,0,0,0,1.57.44,3,3,0,0,0,2.59-1.43c.07-.11.12-.22.18-.33a2.23,2.23,0,0,0,1.1.29A2.31,2.31,0,0,0,68,83a2.22,2.22,0,0,0,1.65-2.63l-.07-.31-.3.07a1.61,1.61,0,0,1-1.23-.2,1.62,1.62,0,0,1-.55-2.23,1.66,1.66,0,0,1,1-.74,1.3,1.3,0,0,1,.35,0,4.23,4.23,0,1,1,0,8.45H66.55a13.14,13.14,0,0,0-13.2,13,13,13,0,0,0,1.92,6.79,10.06,10.06,0,0,0,1.5,1.91,1.44,1.44,0,0,1,.2,1.94l-.18.24.26.19a2,2,0,0,0,1.17.39,2,2,0,0,0,1.25-.44,12.94,12.94,0,0,0,3.86,1.65,1.64,1.64,0,0,1,1.2,1.58,1.66,1.66,0,0,1-1.65,1.64,1.65,1.65,0,0,1-1.66-1.58h0v-.33h-.32a2.22,2.22,0,0,0-2.19,2.2,2.15,2.15,0,0,0,.61,1.51l-.28.25a3,3,0,0,0,0,4.26,3.45,3.45,0,0,0,.75.58l.53-.44a.72.72,0,0,1,.09-.86l.15-.12c.23-.13.52,0,.86.06a4.86,4.86,0,0,0,3.32-.18l.05,0a5.55,5.55,0,0,0,1.82-1.22,5.46,5.46,0,0,0,1.6-3.32,2.33,2.33,0,0,0,.53.07,2.15,2.15,0,0,0,2.15-2.1v-.31h-.3A1.56,1.56,0,0,1,69,111.55h2.23A4.7,4.7,0,0,1,75.84,116a2.29,2.29,0,0,1-4.57,0v-.29h-.33a2.88,2.88,0,0,0-2.83,2.84,2.82,2.82,0,0,0,1.14,2.26h-.67a6,6,0,0,0-5.91,6,5.87,5.87,0,0,0,.79,3l0,.08.18.28h0a2.32,2.32,0,0,1,0,3.2l-.21.22.24.23a2.9,2.9,0,0,0,4,0,2.82,2.82,0,0,0,.63-.95h.34A2.23,2.23,0,0,1,71,135.08a2.28,2.28,0,0,1-1.37,2.08c.07.17.2.43.3.66a5.88,5.88,0,0,0,4.91-5.8,6,6,0,0,0-1.42-3.89,2.8,2.8,0,0,0,.74-1.9,2.87,2.87,0,0,0-2.82-2.84H71v.29a2.29,2.29,0,0,1-4.58,0,2.23,2.23,0,0,1,2.27-2.26h2.38v-.58h-.13a2.26,2.26,0,0,1-.22-4.51,2.85,2.85,0,0,0,2.85,2.54,2.9,2.9,0,0,0,1.82-.64,4.7,4.7,0,0,1-4,2.6h-.36v.58h.39a8.06,8.06,0,0,0,3.68-1.08V122a24.49,24.49,0,0,0,17.45,23.46c.89.25,2.74.68,3.72.85a3.87,3.87,0,0,1,3.29,2.48l.06.21h.69l.06-.21a3.9,3.9,0,0,1,3.29-2.48c1-.17,2.83-.6,3.73-.85A24.49,24.49,0,0,0,124.87,122v-1.67a8.06,8.06,0,0,0,3.68,1.08h.39v-.58h-.36a4.7,4.7,0,0,1-4-2.6,2.9,2.9,0,0,0,1.82.64,2.85,2.85,0,0,0,2.85-2.54,2.26,2.26,0,0,1-.22,4.51H129l0,.58h2.39a2.23,2.23,0,0,1,2.27,2.26,2.29,2.29,0,0,1-4.58,0v-.29h-.34a2.87,2.87,0,0,0-2.82,2.84,2.8,2.8,0,0,0,.74,1.9,6,6,0,0,0-1.42,3.89,5.88,5.88,0,0,0,4.91,5.8l.3-.66a2.26,2.26,0,0,1-1.37-2.08,2.23,2.23,0,0,1,2.29-2.26h.33a3,3,0,0,0,.64.95,2.87,2.87,0,0,0,2,.83,2.91,2.91,0,0,0,2-.8l.24-.23-.21-.22a2.3,2.3,0,0,1,0-3.2h0l.18-.28,0-.08a5.87,5.87,0,0,0,.79-3,6,6,0,0,0-5.91-6h-.67a2.82,2.82,0,0,0,1.14-2.26,2.88,2.88,0,0,0-2.83-2.84h-.33V116a2.29,2.29,0,0,1-4.57,0,4.69,4.69,0,0,1,4.58-4.48H131a1.55,1.55,0,0,1-1.53,1.24h-.29v.31a2.15,2.15,0,0,0,2.14,2.1,2.35,2.35,0,0,0,.54-.07,5.46,5.46,0,0,0,1.6,3.32,5.55,5.55,0,0,0,1.82,1.22l0,0a4.86,4.86,0,0,0,3.32.18c.34-.1.63-.19.86-.06l.15.12a.72.72,0,0,1,.09.86l.53.44a3.45,3.45,0,0,0,.75-.58,3,3,0,0,0,.88-2.13,3,3,0,0,0-.9-2.13l-.28-.25a2.15,2.15,0,0,0,.61-1.51,2.22,2.22,0,0,0-2.19-2.2h-.32v.33h0a1.65,1.65,0,0,1-1.66,1.58,1.66,1.66,0,0,1-1.65-1.64,1.64,1.64,0,0,1,1.2-1.58,13.2,13.2,0,0,0,3.86-1.65,2,2,0,0,0,1.25.44,2,2,0,0,0,1.17-.39l.26-.19-.18-.24a1.44,1.44,0,0,1,.2-1.94,10.06,10.06,0,0,0,1.5-1.91,13,13,0,0,0-11.27-19.84ZM68.7,126.52A2.87,2.87,0,0,0,71.56,124a2.26,2.26,0,0,1-.28,4.51v.58a2.86,2.86,0,0,0,1.7-.56,5.48,5.48,0,0,1,1.27,3.5,5.26,5.26,0,0,1-3.38,4.92,2.77,2.77,0,0,0,.71-1.86,2.81,2.81,0,0,0-2.85-2.84h-.2a2.7,2.7,0,0,0-.08-1.32l-.56.17a2.24,2.24,0,0,1-.57,2.26,2.33,2.33,0,0,1-3,.18,2.89,2.89,0,0,0-.16-3.75l-.13-.21,0-.07a5.37,5.37,0,0,1,1.11-6.7,4.14,4.14,0,0,0,3.57,6.27v-.58A3.56,3.56,0,0,1,65.07,125a3.39,3.39,0,0,1,1-2.53,2.86,2.86,0,0,0,2.59,4.1ZM135.53,125a4.09,4.09,0,0,0-.59-2.16,5.41,5.41,0,0,1,1.83,4,5.35,5.35,0,0,1-.72,2.67l0,.06-.14.22a2.9,2.9,0,0,0-.16,3.74,2.32,2.32,0,0,1-3-.18,2.25,2.25,0,0,1-.57-2.26l-.56-.17a3,3,0,0,0-.08,1.32h-.2a2.81,2.81,0,0,0-2.84,2.84,2.85,2.85,0,0,0,.7,1.86,5.27,5.27,0,0,1-3.37-4.93,5.43,5.43,0,0,1,1.27-3.49,2.89,2.89,0,0,0,1.69.55v-.58a2.26,2.26,0,0,1-.27-4.51,2.87,2.87,0,0,0,5.73-.31,2.75,2.75,0,0,0-.29-1.26,3.4,3.4,0,0,1,1,2.53,3.56,3.56,0,0,1-3.57,3.54v.58A4.14,4.14,0,0,0,135.53,125Zm-3.26-65.07a3.34,3.34,0,0,1-3.36,3.31v.58a3.91,3.91,0,0,0,3.94-3.89,3.8,3.8,0,0,0-.5-2,5,5,0,0,1,1,6.23l0,.06-.12.2a2.67,2.67,0,0,0-.75,1.87A2.63,2.63,0,0,0,133,68a2.18,2.18,0,0,1-2.83-.18,2.11,2.11,0,0,1-.53-2.12l-.56-.17a2.62,2.62,0,0,0-.08,1.24h-.17a2.68,2.68,0,0,0-2.7,2.7,2.71,2.71,0,0,0,.8,1.92,5.2,5.2,0,0,1-3.29-4.81,5.11,5.11,0,0,1,1.19-3.28,2.66,2.66,0,0,0,1.59.52v-.58a2.12,2.12,0,0,1-.27-4.22,2.73,2.73,0,0,0,5.44-.31,2.79,2.79,0,0,0-.24-1.13A3.22,3.22,0,0,1,132.27,59.88ZM112.86,74.63a3.31,3.31,0,0,1,.4.45,7,7,0,0,0,1.84,1.57,5.07,5.07,0,0,0,2.71.84h.29a3.74,3.74,0,0,0,3.74-3.72,3.57,3.57,0,0,0,0-.47h0a3,3,0,0,0-.27-1v0a.14.14,0,0,1,0-.06,3.78,3.78,0,0,0-3.43-2.2v.58a3.18,3.18,0,0,1,1.41.33h0a2.22,2.22,0,0,0-1.58.65,2.17,2.17,0,0,0-.2,2.87,1.65,1.65,0,0,1-2.12-.17,1.61,1.61,0,0,1,0-2.29l-.41-.41a2.06,2.06,0,0,0-.58,1,2.28,2.28,0,0,1-.45,0,2.43,2.43,0,0,1-2.44-2.41,2.28,2.28,0,0,1,0-.26,1.29,1.29,0,0,0,1,.42,1.86,1.86,0,0,0,.33,0,1.57,1.57,0,0,0,.93-.92,4.05,4.05,0,0,1,2.19-1.94l0,0a5.08,5.08,0,0,1,1.94-.38,4.93,4.93,0,0,1,5,4.9c0,.11,0,.22,0,.33l.59,0c0-.13,0-.25,0-.38a5.36,5.36,0,0,0-1-3.19h0a7.63,7.63,0,0,1,1-10.26,7.68,7.68,0,0,1,5.2-2h.14A2.08,2.08,0,0,1,131,58.67a2.14,2.14,0,0,1-4.28,0v-.29h-.33a2.73,2.73,0,0,0-2.68,2.7,2.69,2.69,0,0,0,.69,1.8,5.71,5.71,0,0,0-1.33,3.67,5.77,5.77,0,0,0,4.79,5.66l.31-.77a2.12,2.12,0,0,1-1.44-2,2.09,2.09,0,0,1,2.14-2.12h.31a2.61,2.61,0,0,0,.59.89,2.85,2.85,0,0,0,.64.47,2.36,2.36,0,0,0-.53,1.49,2.43,2.43,0,0,0,2.44,2.41,2.18,2.18,0,0,0,2.16-1.84,1.57,1.57,0,0,1-.27,3.13,5.56,5.56,0,0,0-4.3.62,5,5,0,0,0-.53.37l.36.4,0,0a4.27,4.27,0,0,1,.44-.3,5,5,0,0,1,6.8,1.62,5.23,5.23,0,0,1,.69,1.83v.06a4.06,4.06,0,0,1-.54,2.85,1.57,1.57,0,0,0-.3,1.27,1.23,1.23,0,0,0,.14.31,1.31,1.31,0,0,0,.85.58l-.21.14a2.45,2.45,0,0,1-3.36-.8,2,2,0,0,1-.19-.39,2.2,2.2,0,0,0,.58-1l-.57-.13a1.64,1.64,0,0,1-3.23-.5h.21a2.3,2.3,0,0,0,1.16-.32,2.2,2.2,0,0,0-.64-4,2.37,2.37,0,0,0-.5-.07h0a4.81,4.81,0,1,0,0,9.62h2.34a9.68,9.68,0,0,1,9.69,9.62,9.57,9.57,0,0,1-1.71,5.45c.08-.25.13-.41.13-.43a7.7,7.7,0,0,0-6.91-10,5.45,5.45,0,0,0-3-1.93l-.15.57A4.8,4.8,0,0,1,135,92.48a5,5,0,0,1,.23,1.9h0a2.06,2.06,0,0,0,.68,1.4,2.09,2.09,0,0,0,1.2.53,1.53,1.53,0,0,1-2.68.79h0l-.19-.22-.24.21a1.5,1.5,0,0,0-.54,1.1,1,1,0,0,0,.06.32,1.26,1.26,0,0,0,.66.75l-.22.09a2.4,2.4,0,0,1-3-1.54,3,3,0,0,1-.09-.41,2.15,2.15,0,0,0,.79-.85l-.52-.27a1.57,1.57,0,0,1-.94.79,1.61,1.61,0,0,1-1.22-.1,1.59,1.59,0,0,1-.79-1.92,3.08,3.08,0,0,0,.68.08,3,3,0,0,0,1.48-.38A2.76,2.76,0,0,0,131.64,93a2.93,2.93,0,0,0-2.18-3.55,3.14,3.14,0,0,0-3,.74,6.69,6.69,0,0,0,.2-.77,7.85,7.85,0,0,0-1.13-6A5.1,5.1,0,0,0,123,81.52l-.07,0-.3-.07h0a2.09,2.09,0,0,1-2-2v-.29h-.33a2.6,2.6,0,0,0-2.56,2.58,2.49,2.49,0,0,0,.2,1l-.21.2a2,2,0,0,1-3.34-2.06l-.65-.31a5.24,5.24,0,0,0,.62,6.76,5.54,5.54,0,0,0,3.38,1.58,2.53,2.53,0,0,0,.75,1.66,2.59,2.59,0,0,0,1.85.75,2.67,2.67,0,0,0,1.81-.71l.23-.23-.2-.22a2,2,0,0,1,0-2.82,2.56,2.56,0,0,1,3.34,0,2.85,2.85,0,0,1,.69,1.23,5.18,5.18,0,0,1-.07.8s0,.06,0,.08h0a4.64,4.64,0,0,1-1.21,2.33l-.32.31a4.7,4.7,0,0,1-3.12,1.17c-3.51,0-5.73-2-7.87-3.91a14.23,14.23,0,0,0-4.18-2.94h0l-.3-.09a6.11,6.11,0,0,0-1-.23h0a11.42,11.42,0,0,0-1.4-.17,7.46,7.46,0,0,1,.77-3.38h0l.09-.1c.59-.2,1-1,1-2.11a2.15,2.15,0,0,0-1-2.1c0-1.3,0-2.15,0-2.48a16.94,16.94,0,0,1,.47-3.18A7.15,7.15,0,0,1,112.86,74.63ZM136.66,105a10.29,10.29,0,0,1-3,.46h-3.78a1.56,1.56,0,0,1-1.56-1.55v-.29H128a2.14,2.14,0,0,0-2.11,2.12,2.64,2.64,0,0,0,0,.29,7.33,7.33,0,0,0-1.05.52v-4.19l-.11-.09a39.67,39.67,0,0,0-10.16-5.82,4.43,4.43,0,0,0-.68-3,4.32,4.32,0,0,0-2.65-1.94,4.51,4.51,0,0,1-.87-.31h0a5.78,5.78,0,0,1-3.65-4.78,10.58,10.58,0,0,1,2.13.36,12.54,12.54,0,0,1,4.27,2.92c2.12,1.9,4.52,4.06,8.27,4.06a5.26,5.26,0,0,0,3.18-1.06v0l.32-.29c.12-.1.23-.21.34-.32l.5-.5c1.19-1.2,2-2,3.52-1.62a2.38,2.38,0,0,1,1.47,1.06,2.26,2.26,0,0,1,.28,1.79A2.18,2.18,0,0,1,130,94.25a2.45,2.45,0,0,1-1.86.21l-.3-.15-.15.29a2.17,2.17,0,0,0,1,2.89,2.24,2.24,0,0,0,1,.24,2.47,2.47,0,0,0,.6-.08,2.25,2.25,0,0,0,.09.35,3,3,0,0,0,2.84,2,3.19,3.19,0,0,0,.91-.14,3.1,3.1,0,0,0,1.05-.59L135,99l-.12-.23a.75.75,0,0,1-.87-.47.57.57,0,0,1,0-.18.66.66,0,0,1,.19-.45,2.08,2.08,0,0,0,1.37.51h.09a2.12,2.12,0,0,0,2-2.15v-.32h-.3a1.57,1.57,0,0,1-1.1-.4,1.49,1.49,0,0,1-.49-1,5.51,5.51,0,0,0-.26-2,5.72,5.72,0,0,0-.47-1,7.12,7.12,0,0,1,5.94,9.21,5.84,5.84,0,0,1-1.65,2.76,1.58,1.58,0,0,1-1.89.19l-.24-.17-.19.25A1.86,1.86,0,0,0,136.66,105ZM100,97.27h0a6.65,6.65,0,0,1-5.55-3l-.09-.16a5.2,5.2,0,0,0-2.28-2.34,4.72,4.72,0,0,0-1.53-.44,6.67,6.67,0,0,0,2.61-2.58,3.29,3.29,0,0,1,.83.26,3.2,3.2,0,0,1,1.44,1.5l.07.12A5.3,5.3,0,0,0,99.12,93a1.37,1.37,0,0,0-.59,1.13,1.4,1.4,0,0,0,1.4,1.4h.15A1.39,1.39,0,0,0,100.9,93a5.3,5.3,0,0,0,3.61-2.33l.07-.12a3.3,3.3,0,0,1,1.44-1.5,3.14,3.14,0,0,1,.85-.26,6.77,6.77,0,0,0,2.54,2.53l.06,0a4.83,4.83,0,0,0-3.81,2.78l-.09.16a6.6,6.6,0,0,1-5.55,3Zm-14.6-.8a39.56,39.56,0,0,0-10.17,5.82l-.11.09v4.19a7.33,7.33,0,0,0-1-.52,1.36,1.36,0,0,0,0-.29A2.15,2.15,0,0,0,72,103.64h-.32v.29a1.57,1.57,0,0,1-1.57,1.55H66.32a10.17,10.17,0,0,1-3-.46A1.94,1.94,0,0,0,63,103.5l-.19-.25-.24.18a1.58,1.58,0,0,1-1.89-.2A5.84,5.84,0,0,1,59,100.47a7.34,7.34,0,0,1-.33-2.13A7,7,0,0,1,65,91.26a5.51,5.51,0,0,0-.47,1,5.68,5.68,0,0,0-.26,2,1.45,1.45,0,0,1-.49,1,1.49,1.49,0,0,1-1.1.4h-.29l0,.32a2.12,2.12,0,0,0,2,2.15h.09a2.12,2.12,0,0,0,1.37-.5.64.64,0,0,1,.19.44.57.57,0,0,1,0,.18.77.77,0,0,1-.87.48L65,99l-.13.28a2.94,2.94,0,0,0,1,.59,3.19,3.19,0,0,0,.91.14A3,3,0,0,0,69.66,98a2.25,2.25,0,0,0,.09-.35,2.06,2.06,0,0,0,.6.08,2.24,2.24,0,0,0,1-.24,2.17,2.17,0,0,0,1-2.89l-.15-.29-.3.15A2.41,2.41,0,0,1,70,94.24,2.15,2.15,0,0,1,69,92.85a2.32,2.32,0,0,1,.28-1.78A2.36,2.36,0,0,1,70.7,90c1.54-.37,2.33.43,3.52,1.62l.51.5a3.34,3.34,0,0,0,.33.32l.32.3,0,0a5.28,5.28,0,0,0,3.18,1c3.74,0,6.14-2.16,8.27-4.06A13.08,13.08,0,0,1,91,86.84a9.44,9.44,0,0,1,2.29-.4A5.66,5.66,0,0,1,90,91l-.06,0-.27.14a5.47,5.47,0,0,1-.91.33,4.2,4.2,0,0,0-2.65,1.94A4.38,4.38,0,0,0,85.41,96.47Zm7.7-14.16.1-.06c1.32,1.21,3.83,2,6.79,2s5.48-.81,6.79-2l.13.08a7.86,7.86,0,0,0-.76,4,6.47,6.47,0,0,0,.46,2,3.51,3.51,0,0,0-.85.28,3.83,3.83,0,0,0-1.7,1.74l-.07.11a4.75,4.75,0,0,1-4,2.12h0a4.75,4.75,0,0,1-4-2.12l-.07-.11a3.73,3.73,0,0,0-1.7-1.74,3.32,3.32,0,0,0-.82-.28,6.47,6.47,0,0,0,.46-2A7.85,7.85,0,0,0,93.11,82.31ZM100,68.39h.06a17.91,17.91,0,0,1,8.11,1.94,18.38,18.38,0,0,0-.92,3.49H92.75a18.43,18.43,0,0,0-.91-3.49A17.91,17.91,0,0,1,100,68.39Zm7.31,13.45c-.33,0-.7-.67-.7-1.57s.37-1.58.7-1.58.7.67.7,1.58S107.66,81.84,107.32,81.84ZM93.94,79.76a25.6,25.6,0,0,1,6-.58,26.26,26.26,0,0,1,6.08.58,4.35,4.35,0,0,0,0,1,25.57,25.57,0,0,1-6.08.59,26.15,26.15,0,0,1-6-.58,4.45,4.45,0,0,0,0-.53A2.74,2.74,0,0,0,93.94,79.76ZM100,78.59a30.68,30.68,0,0,0-6.19.6,1.68,1.68,0,0,0-.21-.47c1.22-1.09,3.66-1.87,6.4-1.87s5.19.78,6.4,1.89a1.86,1.86,0,0,0-.2.45A31.6,31.6,0,0,0,100,78.59Zm-6.19,2.77A31.19,31.19,0,0,0,100,82a30.76,30.76,0,0,0,6.2-.6,2.35,2.35,0,0,0,.21.45c-1.21,1.11-3.66,1.89-6.41,1.89s-5.19-.77-6.4-1.87A2.78,2.78,0,0,0,93.81,81.36ZM100,76.28c-3,0-5.46.8-6.78,2a1.41,1.41,0,0,0-.24-.13c0-.93,0-2.09,0-2.51s-.07-.85-.12-1.25h14.35c-.05.4-.09.82-.11,1.25s0,1.58,0,2.51a.89.89,0,0,0-.25.14C105.47,77.08,103,76.28,100,76.28Zm-7.31,2.41c.33,0,.7.68.7,1.58s-.37,1.57-.7,1.57-.7-.67-.7-1.57S92.36,78.69,92.69,78.69ZM100,95h-.08a.82.82,0,0,1-.82-.82.82.82,0,0,1,.82-.81h.15a.82.82,0,0,1,.82.81.82.82,0,0,1-.82.82ZM86.57,93.8a3.7,3.7,0,0,1,2.3-1.71h.06a4,4,0,0,1,2.9.26,4.34,4.34,0,0,1,1.89,1.89,39,39,0,0,0-7.75,2A3.82,3.82,0,0,1,86.57,93.8Zm21.61-1.46a4,4,0,0,1,2.9-.26h.06a3.75,3.75,0,0,1,2.31,1.71,3.87,3.87,0,0,1,.59,2.45,39.64,39.64,0,0,0-7.75-2A4.38,4.38,0,0,1,108.18,92.34Zm12.37-6.68a3.18,3.18,0,0,1,4.48,0,3.15,3.15,0,0,1,.69,1,3.17,3.17,0,0,0-4,.19,2.55,2.55,0,0,0-.21,3.41,2.05,2.05,0,0,1-2.65-.18,2,2,0,0,1,0-2.83l-.42-.41a2.63,2.63,0,0,0-.72,1.4,5,5,0,0,1-3-1.4,4.66,4.66,0,0,1-1-5.09,2.49,2.49,0,0,0,.74,1.51,2.53,2.53,0,0,0,1.81.77,2.78,2.78,0,0,0,1.85-.75l-.19-.21.2.2.1-.09a2.55,2.55,0,0,0,.89.77l.27-.51a2,2,0,0,1,.68-3.75A2.66,2.66,0,0,0,122.55,82l.22,0,.06,0a4.51,4.51,0,0,1,2.23,1.63,6.69,6.69,0,0,1,1,2.42,4.17,4.17,0,0,0-.64-.89,3.8,3.8,0,0,0-5.32,0ZM111,65.5a.78.78,0,0,1-.09-.37.82.82,0,0,1,.82-.81.93.93,0,0,1,.29.05A14.25,14.25,0,0,0,111,65.5Zm-4.35-5.33a.81.81,0,1,1-.83.81A.82.82,0,0,1,106.65,60.17ZM90.28,50.79a9.87,9.87,0,0,1,.32-2.48,10.28,10.28,0,0,0,9.34,6h.13a10.28,10.28,0,0,0,9.34-6,9.87,9.87,0,0,1,.32,2.48A9.7,9.7,0,0,1,102.9,60,7.48,7.48,0,0,0,100.13,58l-.11,0h0l-.11,0A7.61,7.61,0,0,0,97.1,60,9.71,9.71,0,0,1,90.28,50.79ZM92.54,61a.83.83,0,1,1,.82.81A.82.82,0,0,1,92.54,61ZM89,65.5a14.25,14.25,0,0,0-1-1.13.72.72,0,0,1,.29-.06.82.82,0,0,1,.82.82A.78.78,0,0,1,89,65.5Zm2.61,4.29a13.19,13.19,0,0,0-1.05-2A13.65,13.65,0,0,0,89.4,66a1.37,1.37,0,0,0,.29-.85,1.4,1.4,0,0,0-1.41-1.39,1.43,1.43,0,0,0-.73.2,18.65,18.65,0,0,0-2.11-1.74,6.92,6.92,0,0,1,5.67,1.29A2,2,0,0,0,90.43,65a2,2,0,0,0,1.17,1.87l.19.1.15-.15a7,7,0,0,0,1.74-4.5,7.29,7.29,0,0,0,3.69,3.07l.2.07.14-.17a1.31,1.31,0,0,0,.12-.19h0A2,2,0,0,0,98,63.57a2.09,2.09,0,0,0-1.49-1.49A6.84,6.84,0,0,1,97.12,61v0a2.48,2.48,0,0,1,.19-.26A6.76,6.76,0,0,1,100,58.56h0a6.76,6.76,0,0,1,2.68,2.16,2.48,2.48,0,0,1,.19.26v0a6.84,6.84,0,0,1,.57,1.08A2.09,2.09,0,0,0,102,63.57a2,2,0,0,0,.21,1.57h0a1.31,1.31,0,0,0,.12.19l.14.17.2-.07a7.29,7.29,0,0,0,3.69-3.07,7,7,0,0,0,1.74,4.5l.15.15.19-.1A2,2,0,0,0,109.58,65a2,2,0,0,0-.68-1.55,6.88,6.88,0,0,1,5.67-1.29,18.65,18.65,0,0,0-2.11,1.74,1.43,1.43,0,0,0-.73-.2,1.4,1.4,0,0,0-1.41,1.39,1.38,1.38,0,0,0,.3.85,13.13,13.13,0,0,0-1.18,1.78,12.65,12.65,0,0,0-1,2,18.5,18.5,0,0,0-8.33-2h-.13A18.43,18.43,0,0,0,91.62,69.79ZM67,68a2.63,2.63,0,0,0,.59-1.68,2.67,2.67,0,0,0-.75-1.87,1.32,1.32,0,0,1-.12-.2l0-.06a5,5,0,0,1,1-6.23,3.8,3.8,0,0,0-.5,2,3.91,3.91,0,0,0,3.94,3.89v-.58a3.34,3.34,0,0,1-3.36-3.31,3.22,3.22,0,0,1,.92-2.33A2.73,2.73,0,1,0,73.86,59a2.12,2.12,0,0,1-.27,4.23v.58a2.76,2.76,0,0,0,1.6-.52,5.15,5.15,0,0,1-2.11,8.08,2.69,2.69,0,0,0-1.9-4.61H71a2.62,2.62,0,0,0-.08-1.24l-.56.17a2.11,2.11,0,0,1-.53,2.12A2.18,2.18,0,0,1,67,68Zm-.44,18h2.34a4.81,4.81,0,1,0,0-9.61h0a1.53,1.53,0,0,0-.5.07,2.2,2.2,0,0,0-.64,4,2.3,2.3,0,0,0,1.16.32h.22a1.65,1.65,0,0,1-1.25,1.7,1.65,1.65,0,0,1-2-1.2l-.57.14a2.22,2.22,0,0,0,.58,1,2.09,2.09,0,0,1-.19.4,2.47,2.47,0,0,1-3.36.8c-.07,0-.14-.09-.21-.15a1.32,1.32,0,0,0,.86-.58,1.94,1.94,0,0,0,.13-.3,1.56,1.56,0,0,0-.3-1.27,4,4,0,0,1-.53-2.86v0A5.16,5.16,0,0,1,63,76.6,5,5,0,0,1,69.81,75l.43.3h0l.37-.4a4,4,0,0,0-.54-.38,5.6,5.6,0,0,0-4.3-.62,1.57,1.57,0,0,1-.26-3.13,2.17,2.17,0,0,0,2.15,1.84,2.42,2.42,0,0,0,2.44-2.41,2.38,2.38,0,0,0-.53-1.49,2.6,2.6,0,0,0,.64-.46,2.71,2.71,0,0,0,.59-.89h.31a2.1,2.1,0,0,1,2.15,2.13,2.13,2.13,0,0,1-1.45,2l.31.77a5.74,5.74,0,0,0,3.46-9.34,2.66,2.66,0,0,0,.69-1.79,2.73,2.73,0,0,0-2.68-2.71H73.3v.3a2.14,2.14,0,0,1-4.28,0,2.07,2.07,0,0,1,2.12-2.11h.14a7.72,7.72,0,0,1,5.2,2A7.6,7.6,0,0,1,79,64.18a7.52,7.52,0,0,1-1.55,4.64h0a5.36,5.36,0,0,0-1,3.19c0,.13,0,.26,0,.38l.59,0c0-.11,0-.22,0-.33a4.92,4.92,0,0,1,5-4.89,5.07,5.07,0,0,1,1.94.37l.05,0a4.15,4.15,0,0,1,2.19,1.94,1.57,1.57,0,0,0,.93.92,1.24,1.24,0,0,0,.33,0,1.32,1.32,0,0,0,1-.41,2,2,0,0,1,0,.25,2.44,2.44,0,0,1-2.44,2.42,2.3,2.3,0,0,1-.45,0,2.11,2.11,0,0,0-.58-1l-.41.41a1.62,1.62,0,0,1,0,2.3,1.68,1.68,0,0,1-2.12.17,2.19,2.19,0,0,0-.2-2.88A2.22,2.22,0,0,0,80.54,71h0a3.06,3.06,0,0,1,1.41-.34V70a3.77,3.77,0,0,0-3.43,2.2.14.14,0,0,0,0,.06v0a3,3,0,0,0-.27,1h0a3.65,3.65,0,0,0,3.7,4.19,1.57,1.57,0,0,0,.29,0,5.1,5.1,0,0,0,2.71-.85,7,7,0,0,0,1.84-1.57,5.19,5.19,0,0,1,.4-.45,7.09,7.09,0,0,1,4.73-2.12,17.76,17.76,0,0,1,.48,3.18c0,.33,0,1.19,0,2.48a2.18,2.18,0,0,0-1,2.1c0,1.07.42,1.91,1,2.11h.07a7.43,7.43,0,0,1,.82,3.48,12.5,12.5,0,0,0-1.25.14c-2.21.25-3.87,1.73-5.61,3.29-2.14,1.92-4.36,3.91-7.88,3.91A4.74,4.74,0,0,1,75.45,92l-.32-.31a4.8,4.8,0,0,1-1.21-2.33h0s0,0,0-.08a5.16,5.16,0,0,1-.08-.8,3,3,0,0,1,.7-1.23,2.56,2.56,0,0,1,3.34,0,2,2,0,0,1,0,2.82l-.21.21.24.23a2.63,2.63,0,0,0,3.65,0,2.54,2.54,0,0,0,.76-1.66,5.59,5.59,0,0,0,3.38-1.58,5.24,5.24,0,0,0,.62-6.76l-.66.31a2,2,0,0,1-3.34,2.06l-.2-.2a2.49,2.49,0,0,0,.2-1,2.6,2.6,0,0,0-2.56-2.58h-.33v.29a2.08,2.08,0,0,1-2,2h0l-.3.07-.07,0a5.06,5.06,0,0,0-2.55,1.85,7.81,7.81,0,0,0-1.13,6,5.12,5.12,0,0,0,.2.77,3.14,3.14,0,0,0-3-.74,2.91,2.91,0,0,0-1.83,1.32A2.87,2.87,0,0,0,68.38,93a2.72,2.72,0,0,0,1.34,1.75,2.94,2.94,0,0,0,1.47.39,3.25,3.25,0,0,0,.69-.08A1.6,1.6,0,0,1,71.09,97a1.64,1.64,0,0,1-1.23.1,1.6,1.6,0,0,1-.94-.79l-.52.27a2.31,2.31,0,0,0,.79.85,1.87,1.87,0,0,1-.09.41,2.35,2.35,0,0,1-1.18,1.39,2.42,2.42,0,0,1-1.83.15l-.22-.09a1.27,1.27,0,0,0,.67-.75,1.8,1.8,0,0,0,.06-.32,1.47,1.47,0,0,0-.55-1.1l-.23-.21-.2.22h0a1.53,1.53,0,0,1-2.68-.79,2.08,2.08,0,0,0,1.88-1.93h0a4.86,4.86,0,0,1,3.65-5.09l-.14-.57a5.45,5.45,0,0,0-3,1.93,7.58,7.58,0,0,0-7.27,7.68,7.68,7.68,0,0,0,.35,2.3s0,.18.14.43a9.5,9.5,0,0,1-1.72-5.45A9.69,9.69,0,0,1,66.57,86Zm14.36-2a2.55,2.55,0,0,0,.89-.77l.09.09.21-.2-.2.21a2.8,2.8,0,0,0,1.86.75,2.62,2.62,0,0,0,2.55-2.28,4.64,4.64,0,0,1-1.06,5.09,4.89,4.89,0,0,1-3,1.4,2.57,2.57,0,0,0-.73-1.4l-.41.41a2,2,0,0,1,0,2.83,2.05,2.05,0,0,1-2.65.18,2.56,2.56,0,0,0-.21-3.41,3.18,3.18,0,0,0-4-.19,3.48,3.48,0,0,1,.69-1,3.19,3.19,0,0,1,4.49,0l.41-.41a3.78,3.78,0,0,0-5.31,0,3.93,3.93,0,0,0-.65.88,6.69,6.69,0,0,1,1-2.42,4.61,4.61,0,0,1,2.23-1.63h.07l.22,0A2.68,2.68,0,0,0,80,79.74a2,2,0,0,1,.67,3.75Zm-5.84,35.67a5.22,5.22,0,0,0,1.34-3.48A5.28,5.28,0,0,0,71.27,111H68.42v.29a3.47,3.47,0,0,0,0,.42,2.15,2.15,0,0,0,1.79,1.68A1.57,1.57,0,0,1,68,114.48l-.09.19.07-.2-.39-.16v.42a4.87,4.87,0,0,1-1.45,3.33,5.18,5.18,0,0,1-1.63,1.09l-.05,0a4.25,4.25,0,0,1-2.94.16,1.58,1.58,0,0,0-1.31,0,1.35,1.35,0,0,0-.27.2,1.25,1.25,0,0,0-.36.89l-.18-.17a2.41,2.41,0,0,1,0-3.44,3.17,3.17,0,0,1,.34-.28,2.19,2.19,0,0,0,1.14.32v-.58a1.62,1.62,0,0,1-.26-3.23,2.24,2.24,0,1,0,2.81-2.47l0,.19,0-.19A12.79,12.79,0,0,1,59.87,109a1.91,1.91,0,0,0,.11-1.93l-.52.26a1.36,1.36,0,0,1-.14,1.45,1.39,1.39,0,0,1-1.7.37,2,2,0,0,0-.43-2.44,9.61,9.61,0,0,1-1.41-1.8,12.38,12.38,0,0,1,4.15-17.1,10.12,10.12,0,0,0,.18,15.68l.2.17a2.58,2.58,0,0,0,1.52.56,1.85,1.85,0,0,0,.83-.2,1.39,1.39,0,0,1,.07,1.06,1.33,1.33,0,0,1-.46.62,1.38,1.38,0,0,1-1.47.14,3.39,3.39,0,0,0-.28.5,2,2,0,0,0,.91.23,2,2,0,0,0,1.74-1,10.79,10.79,0,0,0,3.15.49h3.79a2.15,2.15,0,0,0,2.12-1.81,1.54,1.54,0,0,1-.27,3.06v.58a2.15,2.15,0,0,0,2-1.27,7.35,7.35,0,0,1,1.16,13Zm49.2,2.33a23.87,23.87,0,0,1-17,22.89c-.86.25-2.71.68-3.66.84a4.62,4.62,0,0,0-3.59,2.46,4.64,4.64,0,0,0-3.6-2.46c-1-.17-2.8-.59-3.65-.84a23.89,23.89,0,0,1-17-22.89v-2.06a7.9,7.9,0,0,0,3.4-6.49,8,8,0,0,0-3.4-6.51v-4.28A39.16,39.16,0,0,1,94,94.76a7.28,7.28,0,0,0,5.83,3.08h.3A7.25,7.25,0,0,0,106,94.76a39.08,39.08,0,0,1,18.31,7.9v4.28a7.91,7.91,0,0,0,0,13Zm20-17a9.61,9.61,0,0,1-1.41,1.8,2,2,0,0,0-.43,2.44,1.38,1.38,0,0,1-1.7-.38,1.35,1.35,0,0,1-.14-1.44l-.53-.26a1.93,1.93,0,0,0,.12,1.93,12.48,12.48,0,0,1-3.61,1.52l.05.2-.06-.2a2.23,2.23,0,0,0-1.64,2.14,2.18,2.18,0,0,0,.66,1.57,2.25,2.25,0,0,0,3.8-1.23,1.62,1.62,0,0,1-.27,3.23v.58a2.26,2.26,0,0,0,1.15-.32,2.3,2.3,0,0,1,.34.28,2.47,2.47,0,0,1,.73,1.72,2.41,2.41,0,0,1-.71,1.72l-.18.16a1.24,1.24,0,0,0-.36-.88,1.05,1.05,0,0,0-.27-.2,1.58,1.58,0,0,0-1.31,0,4.21,4.21,0,0,1-2.94-.15l-.05,0a4.91,4.91,0,0,1-1.63-1.09,4.79,4.79,0,0,1-1.45-3.32v-.42l-.4.16.08.2-.09-.19a1.6,1.6,0,0,1-.68.15,1.56,1.56,0,0,1-1.53-1.28,2.13,2.13,0,0,0,1.78-1.69,2,2,0,0,0,0-.41V111h-2.85a5.29,5.29,0,0,0-5.17,5.22,5.19,5.19,0,0,0,1.35,3.49,7.36,7.36,0,0,1,1.16-13.06,2.15,2.15,0,0,0,2,1.28v-.58a1.55,1.55,0,0,1-.27-3.07,2.15,2.15,0,0,0,2.12,1.81h3.79a10.47,10.47,0,0,0,3.15-.49,2,2,0,0,0,.54.64,2,2,0,0,0,1.2.41,1.92,1.92,0,0,0,.91-.23,5.78,5.78,0,0,0-.28-.51,1.38,1.38,0,0,1-1.48-.13,1.36,1.36,0,0,1-.38-1.68,1.85,1.85,0,0,0,.83.2,2.58,2.58,0,0,0,1.52-.56l.2-.17a10.12,10.12,0,0,0,.18-15.68,12.38,12.38,0,0,1,4.15,17.1Z"/><path class="cls-2" d="M116.53,122.81a5,5,0,0,0-2.35.58l0,0a.56.56,0,0,1,0,.08v0a3,3,0,0,1,.21.4.05.05,0,0,1,0,0,1.48,1.48,0,0,1,.63-.13,1.61,1.61,0,1,1,0,3.22,1.59,1.59,0,0,1-1-.38c-.32-.26-1.49-1.36-2.18-2a13.69,13.69,0,0,0,3.85-6.39l-.07-.07,0,0,0,0c0,.06,0,0,0,0l-.06,0,0,0,0,0-.16-.15s0,0,0,0a15.34,15.34,0,0,1-7.19,2.31,22.85,22.85,0,0,0-2.44-2.76,10.93,10.93,0,0,0,1.15.06,11.41,11.41,0,0,0,9.07-4.52l-.13-.44c-9.91-3.94-13.41-4.52-16.73-4.23a4.71,4.71,0,0,0-4.53,4.16c-.2-.06-.39-.14-.59-.22v0a2.12,2.12,0,0,1-.5-.25,12.35,12.35,0,0,1-3.86-4.38c-.9-1.51-1.68-2.81-3.46-2.83h0c-1.7,0-2.31,1.17-2.81,2.11a5.07,5.07,0,0,1-.5.83c-.44.65-1.13,1.82-1.75,3l-.11.2.56.53.18-.07a3.1,3.1,0,0,1,2.82-.13,4.48,4.48,0,0,1,2.69,3,10,10,0,0,1-.15,3,16.09,16.09,0,0,0-.24,3.49,7.63,7.63,0,0,0,4.87,6.51h0a4.8,4.8,0,0,1,3.1,4.48v.29h.84V134c-.5,0-1.13-.73-1.49-.9a.81.81,0,0,0-1,.25,1,1,0,0,1,.48.15l.71.44c-.75.07-1.19-.14-1.73-.1a.8.8,0,0,0-.71.84.4.4,0,0,1,.4-.18l2,0a5.39,5.39,0,0,0-1.91.56.61.61,0,0,0-.19,1c0-.17.27-.39.56-.51a8,8,0,0,1,3.34-.57,2.08,2.08,0,0,1,.77.81c.46.06.73.12.94.43a1,1,0,0,0-.12-.85,8.2,8.2,0,0,1,2.85-.39,2.12,2.12,0,0,1,.76.81c.46.06.73.12.94.43,0-.31.12-.68-.21-.94l-1.08-.84,0-2.49.8,0v-.29a4.73,4.73,0,0,1,1.24-3.19,14.4,14.4,0,0,0,3.48-.59c.52.52,1.61,1.67,1.93,2a1.59,1.59,0,0,1,.38,1,1.63,1.63,0,0,1-3.25,0,1.59,1.59,0,0,1,.12-.62l0-.05h0L105,130l0,0a4.94,4.94,0,1,0,9.31,2.32,2.72,2.72,0,0,0,0-.28,4.91,4.91,0,1,0,2.27-9.24ZM99,108.8c3.14-.27,6.49.26,15.75,3.9a16.85,16.85,0,0,1-9.12.74c-.44-.08-.87-.19-1.3-.3v.6c.39.1.79.2,1.19.27a17.5,17.5,0,0,0,3.37.33,17.19,17.19,0,0,0,5.76-1,10.61,10.61,0,0,1-7.92,3.47c-.4,0-1.3-.06-1.86-.12a15.92,15.92,0,0,0-8.69-3.94,11.17,11.17,0,0,1-1.18-.21A4.12,4.12,0,0,1,99,108.8Zm-13-3.56h0a2.31,2.31,0,0,1,1.74.78h0c.21.32.24.61.08.77s-.59.22-1.1-.1a3,3,0,0,0-2.77-.1A2.17,2.17,0,0,1,86,105.24Zm11,29.65-.48-.37h.12l1.95,0A6.82,6.82,0,0,0,97,134.89ZM100,134c-.5,0-1.13-.73-1.49-.9a.82.82,0,0,0-1,.26.86.86,0,0,1,.49.15l.7.43c-.75.07-1.19-.14-1.73-.09a.71.71,0,0,0-.57.34l0-2.28,1.08,0v-1.83h1.71v1.83h.8Zm1-2.69H99.73v-1.83H96.86v1.83H95.26a5.36,5.36,0,0,0-3.46-4.74h0a7,7,0,0,1-4.47-5.81c0-.1,0-.2,0-.3s0-.26,0-.39,0-.19,0-.29,0,0,0,0a21.34,21.34,0,0,1,.25-2.56,9.85,9.85,0,0,0,.14-3.2,5,5,0,0,0-3-3.44,3.43,3.43,0,0,0-3.06,0c.57-1,1.2-2.09,1.58-2.66a2.26,2.26,0,0,0,.16-.26h0a2.57,2.57,0,0,1,3.09-.49,1.48,1.48,0,0,0,1.83,0,.91.91,0,0,0,.19-.3l.54.87a12.86,12.86,0,0,0,4,4.58,2.27,2.27,0,0,0,.31.17.08.08,0,0,0,0,0l0,0a11.15,11.15,0,0,0,2.76.74c4.3.55,8.07,2.79,11.19,6.8h-.26a15.22,15.22,0,0,1-9.19-3h0a4.59,4.59,0,0,0-2.74-.9,4.54,4.54,0,0,0-4.56,4.52,4.49,4.49,0,0,0,1.18,3h0a14.06,14.06,0,0,0,10.29,4.65A5.38,5.38,0,0,0,101,131.32Zm1.22-3.48a13.48,13.48,0,0,1-10-4.46h0a3.88,3.88,0,0,1-1-2.65,4,4,0,0,1,4-3.93,4,4,0,0,1,2.38.77h0A16,16,0,0,0,114.29,119a13.77,13.77,0,0,1-9.92,4.39V124a14.3,14.3,0,0,0,10.31-4.53A13.39,13.39,0,0,1,102.22,127.84ZM116.53,132a4.4,4.4,0,0,1-2.37-.69,4.86,4.86,0,0,0-.75-1.77l-.49.33a4.26,4.26,0,0,1,.77,2.44,4.37,4.37,0,0,1-8.73,0,4,4,0,0,1,0-.49,2.22,2.22,0,0,0,4.21-.94,2.19,2.19,0,0,0-.52-1.41c-.3-.35-1.19-1.29-1.76-1.88a14.15,14.15,0,0,0,4.51-2.62c.69.65,1.88,1.78,2.23,2.07a2.21,2.21,0,0,0,3.64-1.67,2.17,2.17,0,0,0-1.26-2,4,4,0,0,1,.49,0,4.32,4.32,0,1,1,0,8.63Z"/><path class="cls-2" d="M84.59,108.14c-.36,0-.64.2-.64.43s.28.44.64.44.62-.2.62-.43S84.92,108.14,84.59,108.14Z"/></svg>