<svg id="Layer_1" data-name="Layer 1" xmlns="http://www.w3.org/2000/svg" viewBox="0 0 200 200"><defs><style>.cls-1{fill:#284077;}.cls-2{fill:#a4c0e1;}.cls-3{fill:#5493ce;}.cls-4{fill:#4b98cb;}</style></defs><path class="cls-1" d="M29.15,131a4.43,4.43,0,1,1,0-5.92l.13.13L31,123.47l-.12-.12a6.76,6.76,0,0,0-5.05-2.1A6.84,6.84,0,0,0,19.05,128a6.94,6.94,0,0,0,6.78,6.9,6.84,6.84,0,0,0,5.05-2.22l.12-.12-1.72-1.73Zm1.6-3.21h2.84v6.9h2.46v-6.9h2.71v-2.46h-8Zm14-2.58a3.37,3.37,0,0,0-2.59,1.11v-.87H39.75v13.68h2.46v-5.18a3.6,3.6,0,0,0,2.59,1.11,4.7,4.7,0,0,0,4.68-4.8C49.36,127.29,47.39,125.2,44.8,125.2Zm-.25,7.27A2.47,2.47,0,1,1,47,130,2.47,2.47,0,0,1,44.55,132.47Zm10.6-7.27a4.8,4.8,0,0,0-4.8,4.8A4.81,4.81,0,1,0,60,130,4.81,4.81,0,0,0,55.15,125.2Zm0,7.27A2.47,2.47,0,1,1,57.62,130,2.47,2.47,0,0,1,55.15,132.47Zm8.63-1.73v-5.3H61.31v9.37h2.22l4.19-5.3v5.3h2.46v-9.37H68ZM74.62,130v-8.62H72.15v13.3h2.22l5.92-8.62v8.62h2.46v-13.3H80.53Zm16.51-1.11H87.19v-3.45H84.72v9.37h2.47v-3.45h3.94v3.45h2.46v-9.37H91.13Zm17.74-3.45h-3.08l-3,3.33v-3.45h-2.46v3.45l-2.83-3.45H94.46l3.82,4.56-4.07,4.8h3.08l3.08-3.69v3.69h2.46V131l3.08,3.69H109l-3.94-4.8Zm3.33,5.3v-5.3h-2.47v9.37H112l4.19-5.3v5.3h2.47v-9.37h-2.22Zm14.54-1.85h-3.95v-3.45h-2.46v9.37h2.46v-3.45h3.95v3.45h2.46v-9.37h-2.46Zm6.77,1.85v-5.3h-2.46v9.37h2.22l4.19-5.3v5.3h2.46v-9.37H137.7Zm13.31-5.54a3.36,3.36,0,0,0-2.59,1.11v-.87h-2.46v13.68h2.46v-5.18a3.6,3.6,0,0,0,2.59,1.11,4.7,4.7,0,0,0,4.68-4.8C151.5,127.29,149.53,125.2,146.82,125.2Zm-.12,7.27a2.47,2.47,0,1,1,2.46-2.47A2.64,2.64,0,0,1,146.7,132.47Zm8.62-1.73v-5.3h-2.46v9.37h2.22l4.19-5.3v5.3h2.46v-9.37h-2.22Zm14.54-1.85h-3.94v-3.45h-2.47v9.37h2.47v-3.45h3.94v3.45h2.47v-9.37h-2.47Zm4.31-3.45v9.37h2.47v-7H181v-2.34ZM68.46,123.6l-2.71-1.73L63,123.6l2.71,1.72Z"/><path class="cls-2" d="M79.18,74.8l-3.33,2.1V88.11l23.9-27.23L86.94,69.26V64.82H79.05Z"/><path class="cls-3" d="M99.75,72.22l-23.9,16,23.9-27.35,23.78,16-8.13,5.67Z"/><path class="cls-1" d="M99.75,92.55l-7.88-4.93,7.88-4.81,7.89,4.81Z"/><path class="cls-1" d="M99.75,115.59,76,99.57l8.14-5.67,15.64,10.47,23.66-15.89Z"/><path class="cls-4" d="M123.41,99.69l-23.66,16,23.66-27.23Z"/></svg>